<svg xmlns="http://www.w3.org/2000/svg" xmlns:xlink="http://www.w3.org/1999/xlink" width="37" height="26" viewBox="0 0 37 26">
    <defs>
        <path id="b" d="M10.344 1c.022.06.07.206.144.436.075.23.149.504.223.825.074.32.14.665.2 1.033.06.368.089.72.089 1.058 0 .696-.126 1.3-.378 1.813a3.825 3.825 0 0 1-.979 1.272c-.4.334-.854.582-1.362.744a5.006 5.006 0 0 1-1.53.243 5.382 5.382 0 0 1-2.558-.618c.067.588.119 1.172.156 1.752.037.581.063 1.194.078 1.839s.024 1.342.027 2.091c.004.75.002 1.587-.005 2.512H1.713v-2.451c0-.797-.013-1.64-.04-2.527a33.533 33.533 0 0 0-.205-2.8 31.977 31.977 0 0 0-.511-3.08A28.04 28.04 0 0 0 0 1.78l2.636-.77.456 1.236c.037.101.098.261.184.48a7.89 7.89 0 0 0 .845 1.58c.196.288.424.551.684.79.26.24.55.436.873.588.323.152.68.228 1.073.228.09 0 .217-.013.384-.04.167-.027.334-.093.5-.198a1.38 1.38 0 0 0 .44-.47c.126-.21.189-.494.189-.852 0-.209-.019-.437-.056-.683a8.615 8.615 0 0 0-.139-.72 10.908 10.908 0 0 0-.35-1.18L10.344 1zm13.654 5.172c.196 0 .39-.001.579-.005.19-.003.38-.012.569-.026a12.102 12.102 0 0 0 1.264-.157l.59 2.35a16.75 16.75 0 0 1-1.053.267c-.338.073-.685.132-1.043.177-.359.045-.74.08-1.143.105-.404.024-.86.036-1.365.036-.73 0-1.473-.056-2.228-.167a8.631 8.631 0 0 1-2.154-.606c.042.564.079 1.08.11 1.546.032.466.055.909.069 1.326a76.836 76.836 0 0 1 .042 2.455c0 .292-.002.59-.005.893a85.53 85.53 0 0 0-.006.986V16h-2.612v-.658c0-1.023-.005-1.98-.016-2.872a68.863 68.863 0 0 0-.074-2.527 47.56 47.56 0 0 0-.163-2.277 29.39 29.39 0 0 0-.284-2.13 26.694 26.694 0 0 0-.443-2.08A28.445 28.445 0 0 0 14 1.337l2.528-.793c.113.362.216.72.311 1.076.095.355.188.717.28 1.086.056.202.106.409.152.621.046.213.097.423.153.632.126.495.325.897.595 1.206.27.31.564.538.88.685a35.653 35.653 0 0 0-.137-.335 3.016 3.016 0 0 1-.132-.402 4.317 4.317 0 0 1-.132-1.102c0-.633.125-1.199.374-1.697.25-.498.576-.919.98-1.263.404-.345.86-.606 1.37-.784A4.629 4.629 0 0 1 22.754 0c.408 0 .785.047 1.133.141.348.094.672.214.974.36.302.147.589.308.859.486.27.177.536.35.795.517l-1.243 2.204a14.35 14.35 0 0 0-.695-.465 5.164 5.164 0 0 0-.632-.34 4.11 4.11 0 0 0-.595-.214 2.615 2.615 0 0 0-.596-.088 1.983 1.983 0 0 0-.637.088 2.002 2.002 0 0 0-.606.298 1.784 1.784 0 0 0-.458.486c-.123.191-.184.409-.184.652 0 .397.095.728.284.992.19.265.434.476.732.632.299.157.634.267 1.006.33.373.062.741.093 1.107.093z"/>
        <filter id="a" width="170.4%" height="218.8%" x="-35.2%" y="-34.4%" filterUnits="objectBoundingBox">
            <feOffset dy="4" in="SourceAlpha" result="shadowOffsetOuter1"/>
            <feGaussianBlur in="shadowOffsetOuter1" result="shadowBlurOuter1" stdDeviation="2.5"/>
            <feColorMatrix in="shadowBlurOuter1" values="0 0 0 0 0.945098039 0 0 0 0 0.364705882 0 0 0 0 0.164705882 0 0 0 0.471809441 0"/>
        </filter>
    </defs>
    <g fill="none" fillRule="nonzero" transform="translate(5 1)">
        <use fill="#000" filter="url(#a)" xlink:href="#b"/>
        <use fill="#F15D2A" xlink:href="#b"/>
    </g>
</svg>
