<svg xmlns="http://www.w3.org/2000/svg" xmlns:xlink="http://www.w3.org/1999/xlink" width="39" height="47" viewBox="0 0 39 47">
    <defs>
        <path id="b" d="M23.284 0c3.079 0 5.596 2.474 5.712 5.56L29 5.78v18.211c0 .798-.64 1.445-1.429 1.445a1.435 1.435 0 0 1-1.422-1.306l-.007-.139V5.782c0-1.538-1.192-2.798-2.69-2.886l-.168-.005H5.716c-1.52 0-2.766 1.205-2.853 2.72l-.005.17V31.22c0 1.537 1.192 2.797 2.69 2.885l.168.005h17.568c1.576 0 2.858-1.296 2.858-2.89 0-.798.64-1.446 1.429-1.446.79 0 1.429.648 1.429 1.446 0 3.113-2.446 5.66-5.497 5.777l-.219.004H5.716C2.637 37 .12 34.526.004 31.44L0 31.22V5.78C0 2.668 2.446.121 5.497.004L5.716 0h17.568zm-1.698 27c.78 0 1.414.672 1.414 1.5 0 .78-.56 1.42-1.278 1.493l-.136.007h-4.172c-.78 0-1.414-.672-1.414-1.5 0-.78.56-1.42 1.278-1.493l.136-.007h4.172zm-6.145-4.641c.617.519.735 1.424.295 2.085l-.089.12-3.59 4.426A2.672 2.672 0 0 1 9.977 30c-.685 0-1.35-.269-1.849-.752l-.02-.02-.018-.019-1.65-1.716a1.587 1.587 0 0 1 .022-2.216 1.518 1.518 0 0 1 2.067-.08l.109.103 1.313 1.366 3.325-4.097a1.52 1.52 0 0 1 2.165-.21zm-2.165-7.79a1.52 1.52 0 0 1 2.165-.21c.655.551.748 1.539.206 2.206l-3.59 4.425A2.672 2.672 0 0 1 9.977 22a2.662 2.662 0 0 1-1.887-.791l-1.65-1.716a1.587 1.587 0 0 1 .022-2.216 1.519 1.519 0 0 1 2.176.023l1.313 1.366zM21.586 18c.78 0 1.414.672 1.414 1.5 0 .78-.56 1.42-1.278 1.493l-.136.007h-4.172c-.78 0-1.414-.672-1.414-1.5 0-.78.56-1.42 1.278-1.493l.136-.007h4.172zM15.44 5.359c.617.519.735 1.424.295 2.085l-.089.12-3.59 4.426A2.672 2.672 0 0 1 9.977 13a2.66 2.66 0 0 1-1.694-.614l-.155-.138-.041-.042-1.65-1.726a1.587 1.587 0 0 1 .028-2.216 1.518 1.518 0 0 1 2.067-.073l.109.103 1.311 1.371 3.324-4.096a1.52 1.52 0 0 1 2.165-.21zM17.414 10h4.172c.78 0 1.414.672 1.414 1.5 0 .78-.56 1.42-1.278 1.493l-.136.007h-4.172c-.78 0-1.414-.672-1.414-1.5 0-.78.56-1.42 1.278-1.493l.136-.007h4.172z"/>
        <filter id="a" width="165.5%" height="151.4%" x="-32.8%" y="-14.9%" filterUnits="objectBoundingBox">
            <feOffset dy="4" in="SourceAlpha" result="shadowOffsetOuter1"/>
            <feGaussianBlur in="shadowOffsetOuter1" result="shadowBlurOuter1" stdDeviation="2.5"/>
            <feColorMatrix in="shadowBlurOuter1" values="0 0 0 0 0.945098039 0 0 0 0 0.364705882 0 0 0 0 0.164705882 0 0 0 0.471809441 0"/>
        </filter>
    </defs>
    <g fill="none" fillRule="nonzero" transform="translate(5 1)">
        <use fill="#000" filter="url(#a)" xlink:href="#b"/>
        <use fill="#F15D2A" xlink:href="#b"/>
    </g>
</svg>
