<svg xmlns="http://www.w3.org/2000/svg" xmlns:xlink="http://www.w3.org/1999/xlink" width="44" height="53" viewBox="0 0 44 53">
    <defs>
        <path id="b" d="M1.386 28.541l15.07 14.231c.29.26.64.39.991.39.349 0 .698-.128.987-.386L34.4 28.545c.529-.471.734-1.265.511-1.98-.222-.714-.823-1.192-1.497-1.192H28.55V1.94c0-.982-.71-1.778-1.586-1.778H7.93c-.877 0-1.587.796-1.587 1.778v23.432H2.376c-.673 0-1.273.477-1.496 1.19-.223.713-.02 1.506.506 1.978zm5.56.088c.876 0 1.586-.778 1.586-1.738V3.041h17.883v23.85c0 .96.71 1.738 1.585 1.738h2.67L17.38 40.147 4.944 28.54l2.002.088zm13.201-9.89c-.606-.348-1.25-.612-1.887-.886-.37-.159-.724-.344-1.037-.602-.615-.509-.497-1.335.223-1.662.204-.092.418-.122.635-.135a4.672 4.672 0 0 1 2.385.489c.376.188.5.129.628-.278.134-.43.246-.866.37-1.299.083-.29-.019-.482-.284-.604a5.906 5.906 0 0 0-1.505-.466c-.682-.11-.682-.113-.685-.823-.003-1.001-.003-1.001-.973-1.001-.14 0-.28-.004-.42 0-.454.013-.53.095-.543.568-.006.212 0 .423-.003.638-.003.628-.006.618-.587.836-1.403.529-2.27 1.52-2.363 3.106-.083 1.405.625 2.353 1.738 3.044.686.426 1.445.677 2.172 1.01.284.13.555.278.79.483.699.598.571 1.593-.258 1.97a2.518 2.518 0 0 1-1.393.188 6.06 6.06 0 0 1-2.124-.658c-.392-.211-.507-.155-.64.285-.116.38-.218.763-.32 1.146-.137.516-.086.638.39.88.605.303 1.252.459 1.913.568.516.086.532.109.538.664.004.251.004.506.007.757.003.317.15.502.465.509a23.3 23.3 0 0 0 1.075-.004c.293-.006.443-.172.443-.479 0-.344.016-.69.003-1.034-.015-.35.131-.529.456-.621a3.593 3.593 0 0 0 1.879-1.25c1.364-1.718.845-4.233-1.088-5.34z"/>
        <filter id="a" width="155.5%" height="144.2%" x="-27.8%" y="-12.8%" filterUnits="objectBoundingBox">
            <feOffset dy="4" in="SourceAlpha" result="shadowOffsetOuter1"/>
            <feGaussianBlur in="shadowOffsetOuter1" result="shadowBlurOuter1" stdDeviation="2.5"/>
            <feColorMatrix in="shadowBlurOuter1" values="0 0 0 0 0.945098039 0 0 0 0 0.364705882 0 0 0 0 0.164705882 0 0 0 0.471809441 0"/>
        </filter>
    </defs>
    <g fill="none" fillRule="nonzero" transform="translate(4 .838)">
        <use fill="#000" filter="url(#a)" xlink:href="#b"/>
        <use fill="#F15D2A" xlink:href="#b"/>
    </g>
</svg>
