<svg xmlns="http://www.w3.org/2000/svg" xmlns:xlink="http://www.w3.org/1999/xlink" width="44" height="28" viewBox="0 0 44 28">
    <defs>
        <path id="b" d="M32.23 7.41L29.5 6.155l-2.412-3.873a3.792 3.792 0 0 0-3.24-1.795H13.58c-1.191 0-2.32.554-3.045 1.508L7.42 6.099l-5.19 1.43A3.061 3.061 0 0 0 0 10.484v2c0 1.69 1.338 3.086 3.017 3.086h.446a3.866 3.866 0 0 0 4.716 2.792 3.88 3.88 0 0 0 2.773-2.792h11.705a3.866 3.866 0 0 0 4.717 2.792 3.88 3.88 0 0 0 2.773-2.792h.836c1.68 0 3.017-1.396 3.017-3.087v-2.28a3.058 3.058 0 0 0-1.77-2.792zM7.204 17.07a2.482 2.482 0 0 1-2.473-2.49 2.482 2.482 0 0 1 2.473-2.49 2.482 2.482 0 0 1 2.473 2.49 2.482 2.482 0 0 1-2.473 2.49zm19.195 0a2.482 2.482 0 0 1-2.474-2.49 2.482 2.482 0 0 1 2.474-2.49 2.482 2.482 0 0 1 2.473 2.49 2.482 2.482 0 0 1-2.473 2.49zm4.584-2.904h-.738c-.23-2.14-2.146-3.683-4.271-3.445a3.874 3.874 0 0 0-3.421 3.445H11.05c-.23-2.14-2.146-3.683-4.27-3.445a3.874 3.874 0 0 0-3.422 3.445H3.01c-.913 0-1.624-.765-1.624-1.684v-2a1.651 1.651 0 0 1 1.206-1.606l5.427-1.494a.68.68 0 0 0 .37-.252l3.246-4.286a2.457 2.457 0 0 1 1.944-.955h10.27a2.396 2.396 0 0 1 2.062 1.137l2.522 4.055c.07.119.181.21.3.266l2.912 1.34c.585.274.961.863.954 1.515v2.28h.007c0 .92-.71 1.684-1.623 1.684z"/>
        <filter id="a" width="155.9%" height="205.6%" x="-27.9%" y="-30.6%" filterUnits="objectBoundingBox">
            <feOffset dy="4" in="SourceAlpha" result="shadowOffsetOuter1"/>
            <feGaussianBlur in="shadowOffsetOuter1" result="shadowBlurOuter1" stdDeviation="2.5"/>
            <feColorMatrix in="shadowBlurOuter1" values="0 0 0 0 0.945098039 0 0 0 0 0.364705882 0 0 0 0 0.164705882 0 0 0 0.471809441 0"/>
        </filter>
    </defs>
    <g fill="none" fillRule="nonzero" transform="translate(5 1)">
        <use fill="#000" filter="url(#a)" xlink:href="#b"/>
        <use fill="#F15D2A" xlink:href="#b"/>
    </g>
</svg>
