<svg xmlns="http://www.w3.org/2000/svg" width="100" height="100" viewBox="0 0 100 100">
    <g fill="none">
        <g>
            <g fill="#FFF">
                <path d="M79.656 37.357v52.02c0 4.303-3.486 7.79-7.787 7.79H7.886c-3.676 0-6.756-2.547-7.574-5.973L.28 86.741.1 60.221V7.888C.099 3.584 3.585.098 7.886.098h34.51c3.102 0 13.147 8.564 22.026 17.584 8.101 8.232 15.234 16.843 15.234 19.675z" transform="translate(1.367 1.367)"/>
                <path d="M79.656 37.357v19.056l-.002-.066c-.586-23.382-19.633-24.464-25.861-30.693l10.629-7.972c8.101 8.232 15.234 16.843 15.234 19.675z" transform="translate(1.367 1.367)"/>
                <path d="M42.396.098H23.339l.067.002C46.788.686 47.87 19.732 54.099 25.96l7.972-10.628C53.84 7.231 45.228.098 42.396.098z" transform="translate(1.367 1.367)"/>
                <path d="M79.656 37.358v3.295c0-6.936-5.625-12.561-12.56-12.561H59.45c-4.3 0-7.788-3.488-7.788-7.788v-7.645c0-6.936-5.625-12.561-12.56-12.561h3.294c5.932 0 11.623 2.357 15.817 6.552l14.891 14.89c4.195 4.195 6.552 9.886 6.552 15.818z" transform="translate(1.367 1.367)"/>
            </g>
            <g transform="translate(1.367 1.367) translate(17.383 30.273)">
                <circle cx="27.259" cy="27.304" r="27.21" fill="#F05A21"/>
                <path fill="#E6E6E6" d="M42.968 38.478c-6.172 8.675-18.207 10.707-26.883 4.535-2.49-1.772-4.433-4.027-5.792-6.547-1.21-2.244-1.955-4.699-2.211-7.209-.229-2.232-.07-4.507.494-6.718.568-2.24 1.554-4.414 2.974-6.41.194-.274.395-.54.6-.8 6.326-7.995 17.88-9.712 26.283-3.733 8.675 6.171 10.706 18.206 4.535 26.882z"/>
                <path fill="#F05A21" d="M15.164 49.476c4.245 3.02 9.063 4.648 13.908 4.975-6.044.41-12.264-1.189-17.585-4.975-12.245-8.711-15.112-25.7-6.4-37.944C10.777 3.533 19.999-.464 29.123.155 21.26.684 13.688 4.61 8.763 11.532c-8.71 12.245-5.845 29.233 6.401 37.944z"/>
                <path fill="#FFF" d="M42.968 38.478c-4.218 5.93-11.173 8.756-17.924 7.98 5.24-.605 10.215-3.342 13.511-7.98 6.174-8.675 4.142-20.71-4.532-26.881-2.744-1.953-5.825-3.086-8.95-3.445 4.562-.523 9.326.573 13.36 3.445 8.677 6.17 10.706 18.206 4.535 26.88z"/>
                <path fill="#7B7B7B" d="M72.062 48.395c8.243 5.864 9.074 11.28 6.262 15.234-2.811 3.953-8.201 4.945-16.444-.919-8.243-5.864-12.647-13.822-9.835-17.775 2.812-3.953 11.774-2.404 20.017 3.46z"/>
                <path fill="#7B7B7B" d="M78.325 63.63c-2.812 3.952-8.202 4.943-16.445-.92-8.243-5.864-12.646-13.82-9.834-17.774-1.12 1.574 4.655 7.602 12.898 13.466 8.243 5.863 12.262 6.801 13.381 5.227z"/>
                <path fill="#7B7B7B" d="M52.863 35.82l-9.16 12.877c-1.801 2.534-1.208 6.048 1.325 7.85 2.533 1.802 6.047 1.21 7.85-1.324l9.159-12.877c1.802-2.533 1.21-6.047-1.324-7.85-2.534-1.801-6.048-1.208-7.85 1.325z"/>
                <path fill="#7B7B7B" d="M53.522 51.472c1.42-.238 2.749-1.02 3.65-2.288l-4.295 6.039c-.9 1.266-2.23 2.048-3.65 2.288-1.422.24-2.933-.063-4.2-.964-2.532-1.801-3.125-5.317-1.323-7.85l4.295-6.038c-1.803 2.534-1.208 6.048 1.324 7.85 1.267.9 2.778 1.203 4.2.963z"/>
                <g fill="#7B7B7B">
                    <path d="M29.856 3.7c0 1.991-1.613 3.604-3.605 3.604H.568c.568-2.24 1.555-4.414 2.975-6.41.193-.273.394-.539.6-.798H26.25c.996 0 1.897.404 2.549 1.056.652.652 1.056 1.555 1.056 2.549zM29.856 17.626c0 1.993-1.613 3.606-3.605 3.606H2.285c-1.21-2.244-1.956-4.7-2.211-7.209H26.25c.996 0 1.896.402 2.549 1.055.652.652 1.056 1.554 1.056 2.548z" transform="translate(8.008 15.234)"/>
                </g>
            </g>
        </g>
        <g fill="#000">
            <path d="M18.93 45.507c0-.809-.656-1.464-1.466-1.464H9.732c-.809 0-1.465.655-1.465 1.464 0 .81.656 1.465 1.465 1.465h7.732c.81 0 1.465-.656 1.465-1.465zM9.732 54.763h4.77c.809 0 1.465-.656 1.465-1.465s-.656-1.464-1.465-1.464h-4.77c-.809 0-1.465.655-1.465 1.464 0 .81.656 1.465 1.465 1.465zM9.732 62.556h4.27c.809 0 1.465-.656 1.465-1.465s-.656-1.465-1.465-1.465h-4.27c-.809 0-1.465.656-1.465 1.465 0 .81.656 1.465 1.465 1.465zM9.732 70.347h6.063c.809 0 1.465-.656 1.465-1.465s-.656-1.465-1.465-1.465H9.732c-.809 0-1.465.656-1.465 1.465s.656 1.465 1.465 1.465zM30.761 23.896c0-.81-.656-1.465-1.465-1.465H9.732c-.81 0-1.465.656-1.465 1.465s.656 1.465 1.465 1.465h19.564c.81 0 1.465-.656 1.465-1.465z"/>
            <path d="M99.475 87.893c-1.053-3.067-3.682-6.113-7.814-9.052-2.966-2.109-6.167-3.765-9.203-4.777.739-1.378 1.001-2.952.737-4.52-.126-.747-.367-1.456-.708-2.109v-28.71c0-6.366-2.478-12.352-6.98-16.853l-14.89-14.89C56.114 2.478 50.13 0 43.762 0H9.252C4.15 0 0 4.152 0 9.254l.117 69.322c.006.805.66 1.454 1.465 1.454h.01c.81-.005 1.46-.666 1.455-1.475l-.117-69.3c0-3.488 2.836-6.325 6.322-6.325h31.216c6.119 0 11.096 4.978 11.096 11.096v7.645c0 5.102 4.151 9.253 9.253 9.253h7.645c6.106 0 11.075 4.958 11.095 11.059v22.494c-1.382-.747-2.963-1.013-4.537-.748-.26.044-.513.103-.763.174 1.232-6.994-.17-14.23-4.022-20.314-.433-.683-1.339-.886-2.022-.454-.683.433-.886 1.338-.453 2.022 3.987 6.294 5.051 13.964 2.94 21.09-.096.118-.19.24-.28.365L61.26 79.49c-.089.125-.172.254-.252.383-8.943 6.414-20.929 6.449-29.92.053-11.57-8.231-14.286-24.337-6.056-35.904 3.985-5.604 9.914-9.32 16.695-10.464 6.78-1.144 13.602.422 19.207 4.408 1.032.734 2.013 1.545 2.915 2.41.584.56 1.511.541 2.07-.043.56-.584.542-1.511-.042-2.071-1.005-.964-2.097-1.866-3.245-2.683-6.243-4.44-13.84-6.184-21.392-4.91-7.553 1.274-14.157 5.413-18.595 11.654-9.167 12.883-6.141 30.823 6.744 39.99 4.992 3.55 10.812 5.323 16.63 5.323 4.806 0 9.61-1.212 13.94-3.63.015.259.043.517.086.776.316 1.868 1.34 3.502 2.883 4.6 1.245.886 2.68 1.311 4.103 1.311 1.934 0 3.843-.787 5.217-2.275 1.63 2.118 3.722 4.196 6.093 6.052-1.178 1.607-3.076 2.6-5.106 2.6H9.252c-.73 0-1.446-.123-2.127-.366-2.37-.847-3.976-3.172-3.994-5.785l-.04-5.81c-.005-.805-.66-1.455-1.464-1.455h-.01c-.81.006-1.46.666-1.455 1.475l.04 5.81c.026 3.84 2.412 7.265 5.938 8.524.997.356 2.044.537 3.112.537h63.983c2.973 0 5.757-1.454 7.48-3.81 4.182 2.791 7.514 3.762 10.123 3.762 4.06 0 6.374-2.347 7.43-3.832 1.78-2.501 2.197-5.345 1.207-8.226zM68.462 27.995h-7.645c-3.487 0-6.323-2.837-6.323-6.324v-7.645c0-3.958-1.648-7.539-4.295-10.091 3.114 1.003 5.966 2.738 8.346 5.118l14.89 14.89c2.38 2.38 4.116 5.233 5.119 8.346-2.553-2.646-6.133-4.294-10.092-4.294zm-3.835 58.999c-.907-.645-1.508-1.604-1.693-2.7-.185-1.097.069-2.2.713-3.107l9.16-12.876c.811-1.14 2.096-1.75 3.399-1.75.834 0 1.677.25 2.408.77.906.645 1.507 1.604 1.692 2.7.185 1.098-.068 2.2-.713 3.107l-9.16 12.877c-1.33 1.87-3.935 2.31-5.806.979zM95.88 94.42c-1.344 1.89-3.117 2.593-5.011 2.593-3.305 0-6.98-2.141-9.392-3.857-3.001-2.135-5.597-4.664-7.408-7.2l6.66-9.364c2.988.877 6.229 2.5 9.233 4.635 3.795 2.7 9.61 8.003 5.918 13.193z"/>
            <path d="M58.032 42.042c-4.515-3.212-10.01-4.473-15.473-3.551-5.463.921-10.24 3.915-13.452 8.43-3.212 4.515-4.473 10.01-3.552 15.473.922 5.464 3.916 10.241 8.43 13.453 3.552 2.526 7.709 3.845 11.98 3.845 1.16 0 2.328-.097 3.494-.294 5.463-.921 10.24-3.915 13.452-8.43 6.63-9.32 4.441-22.296-4.879-28.926zm-26.4 6.393h21.377c.57 0 1.108.223 1.513.627.404.405.627.943.627 1.514 0 1.179-.96 2.138-2.14 2.138H29.318c.538-1.435 1.263-2.812 2.176-4.095.044-.063.092-.122.137-.184zm-3.1 13.928H53.01c.572 0 1.11.222 1.513.625.404.405.627.942.627 1.513 0 1.18-.96 2.141-2.14 2.141H29.94c-.642-1.346-1.116-2.78-1.409-4.28zm31.992 6.907c-2.758 3.877-6.86 6.448-11.552 7.239-4.692.791-9.411-.292-13.288-3.05-1.544-1.097-2.876-2.411-3.975-3.888h21.3c2.796 0 5.07-2.274 5.07-5.07 0-1.353-.527-2.626-1.485-3.584-.957-.957-2.23-1.484-3.585-1.484H28.203c-.038-1.279.062-2.547.295-3.79h24.51c2.796 0 5.071-2.273 5.071-5.067 0-1.354-.527-2.627-1.485-3.585-.958-.958-2.232-1.486-3.585-1.486H34.312c2.45-2.14 5.446-3.571 8.734-4.126 1.002-.169 2.005-.252 3-.252 3.669 0 7.24 1.133 10.288 3.302 8.004 5.693 9.883 16.837 4.19 24.84z"/>
        </g>
    </g>
</svg>
