<?xml version="1.0" encoding="utf-8"?>
<!-- Generator: Adobe Illustrator 25.2.3, SVG Export Plug-In . SVG Version: 6.00 Build 0)  -->
<svg version="1.1" id="Layer_1" xmlns="http://www.w3.org/2000/svg" xmlns:xlink="http://www.w3.org/1999/xlink" x="0px" y="0px"
	 viewBox="0 0 671 187" style="enable-background:new 0 0 671 187;" xml:space="preserve">
<style type="text/css">
	.st0{fill:#424653;}
	.st1{fill:#FF793F;}
</style>
<path id="XMLID_250_" class="st0" d="M575.57,15.37c8.5-4.53,19.25,4.08,16.91,13.35c-1.24,9.24-14.38,12.85-20.31,5.86
	C566.48,29.17,568.49,18.59,575.57,15.37"/>
<path id="XMLID_247_" class="st0" d="M251.08,58.56c13.55-14.82,37.81-17.45,54.52-6.54c11.3,7.28,17.11,21.08,17.02,34.21
	c0,23.9-0.32,51.58-0.21,75.48c-6.52,2.71-13.17,5.1-19.8,7.49c0.16-9.06-0.36-21.9-0.26-30.95c-18.13,0.16-38.89,1.26-53.1-12.17
	C231.01,108.33,234.15,76.19,251.08,58.56 M271.69,67.99c-16.03,7.1-19.26,32.25-5.71,43.23c10.35,7.74,23.95,4.96,35.96,5.44
	c-0.83-13.94,2.73-29.34-4.85-41.99C292.03,66.2,280.28,63.79,271.69,67.99"/>
<path id="XMLID_246_" class="st0" d="M330.48,44.81c7.04,0,14.11-0.04,21.17,0.07c-0.16,37.81,0.05,79.19-0.11,117
	c-7.06,2.23-14.03,4.74-21.04,7.15C330.46,128.82,330.49,85.03,330.48,44.81"/>
<path id="XMLID_245_" class="st0" d="M360.02,45.21c14.09,0.14,28.16-0.04,42.23,0.07c10.26,0.32,21.17,2.88,28.63,10.4
	c8.43,7.69,11.55,19.41,11.73,30.49c0.09,17.32-0.07,34.66,0.07,52c-27.56,0.18-55.13,0-82.68,0.09
	c-0.05-7.17-0.02-14.34-0.09-21.51c20.54-0.18,41.08,0.02,61.63-0.11c-0.63-12.56,1.47-25.48-1.9-37.75
	c-2.05-7.82-9.99-12.13-17.57-12.7c-13.98-1.49-28.09-0.36-42.1-0.72C359.95,58.72,359.93,51.96,360.02,45.21"/>
<path id="XMLID_242_" class="st0" d="M561.64,45.25c13.89,0.07,27.78-0.04,41.67,0.02c10.39,0.2,21.26,2.82,29.09,10.03
	c8.37,7.82,11.91,19.6,11.88,30.82c0,17.38-0.04,34.75,0,52.13c-35.79,0.04-71.59,0-107.38,0.02v23.49
	c-6.58,2.46-13.17,4.91-19.71,7.42c-0.11-9-0.66-21.71-0.59-30.71c-12.42-0.59-25.25,0.79-37.21-3.22
	c-10.06-3.27-19.28-10.13-23.83-19.86c-6.61-14.03-5.46-30.93,1.24-44.71c6.54-13.6,20.18-23.95,35.42-25.1
	c14.81-1.6,31.25,4.62,38.65,18.13c9.47,16.06,5.01,35.35,6.04,52.99h86.25c-0.27-10.85,0.59-21.74-0.5-32.56
	c-0.79-7.74-5.89-15.44-13.93-17c-15.49-3.13-31.43-1.04-47.12-1.65C561.59,58.73,561.59,51.99,561.64,45.25 M487.73,67.21
	c-17.88,5.84-21.8,33.57-6.83,44.55c10.33,7.24,23.54,4.38,35.33,4.94c-0.61-13.14,1.99-27.1-3.58-39.48
	C508.58,67.98,497.06,63.47,487.73,67.21"/>
<path id="XMLID_240_" class="st1" d="M64.26,38.17c9.03-0.02,18.08-0.08,27.14,0.12c-12.35,25.75-25.02,51.36-37.25,77.18
	c22.01-0.02,44.02,0,66.03,0c0,7.45,0,14.89,0.02,22.36c-5.25,0.02-15.74,0-15.74,0l-0.06,23.54H80.07l-0.11-23.56l-54.41-0.04
	l0-22.3C25.54,115.46,52.38,61.58,64.26,38.17"/>
<polyline id="XMLID_239_" class="st1" points="143.18,38.16 214.37,38.13 214.44,60.15 140.2,60.15 143.18,38.16 "/>
<path id="XMLID_238_" class="st1" d="M138.36,74.34c9.36-4.07,18.7-8.22,28.07-12.33c-0.55,5.29-1.1,10.57-1.78,15.84
	c11.75-0.12,24.37,1.31,33.69,9.2c15.92,11.86,20.83,35.71,10.92,52.9c-10.67,19.97-38.25,26.94-57.95,16.78
	c-9.98-4.72-17.78-13.23-21.87-23.45c7.81-2.98,15.62-5.95,23.51-8.65C156,134,165.99,141,175.89,137.6
	c11.41-2.76,16.37-17.17,11.04-27.06c-4.17-6.32-12.02-8.61-19.11-9.61c-11.04-1.84-22.2-0.16-33.3-0.49
	C135.84,91.73,137.05,83.02,138.36,74.34"/>
<path id="XMLID_237_" class="st1" d="M79.9,90.04h24.51v23.62c-8.06-3.97-16.05-8.1-24.19-11.9C80.06,97.85,79.98,93.94,79.9,90.04"
	/>
</svg>
