<?xml version="1.0" encoding="iso-8859-1"?>
<!-- Generator: Adobe Illustrator 25.0.1, SVG Export Plug-In . SVG Version: 6.00 Build 0)  -->
<svg version="1.1" id="Layer_1" xmlns="http://www.w3.org/2000/svg" xmlns:xlink="http://www.w3.org/1999/xlink" x="0px" y="0px"
	 viewBox="0 0 100 100" style="enable-background:new 0 0 100 100;" xml:space="preserve">
<circle id="XMLID_3_" style="fill:#222528;" cx="50.011" cy="50.03" r="47.167"/>
<linearGradient id="XMLID_4_" gradientUnits="userSpaceOnUse" x1="-0.1094" y1="47.9977" x2="99.9027" y2="47.9977" gradientTransform="matrix(0.8077 -0.5895 0.5895 0.8077 -18.5852 40.6763)">
	<stop  offset="0" style="stop-color:#F05B2A"/>
	<stop  offset="0.6152" style="stop-color:#F16623"/>
	<stop  offset="0.7628" style="stop-color:#F16725;stop-opacity:0.6165"/>
	<stop  offset="0.8159" style="stop-color:#F26B2C;stop-opacity:0.4783"/>
	<stop  offset="0.8538" style="stop-color:#F27337;stop-opacity:0.3798"/>
	<stop  offset="0.8845" style="stop-color:#F47F46;stop-opacity:0.3002"/>
	<stop  offset="1" style="stop-color:#FFFFFF;stop-opacity:0.022"/>
</linearGradient>
<circle id="XMLID_1_" style="fill:none;stroke:url(#XMLID_4_);stroke-width:3;stroke-miterlimit:10;" cx="50.011" cy="50.03" r="48.5">
<animateTransform  accumulate="none" additive="replace" attributeName="transform" attributeType="XML" calcMode="linear" dur="1s" fill="remove" from="0 50 50" repeatCount="indefinite" restart="always" to="360 50 50" type="rotate">
	</animateTransform>
</circle>
<g id="XMLID_1006_">
	<g id="XMLID_1008_">
		<g id="XMLID_1009_">
			<path style="fill:#E9511D;" d="M38.021,30.643c3.563-1.779,7.531-2.721,11.495-2.546c2.929,0.131,6.024-0.437,8.789,0.831
				c2.579,1.1,4.298,3.46,6.263,5.387c1.203,0.007,2.406,0.007,3.608,0c-0.137,0.558-0.278,1.116-0.412,1.675
				c-4.367,0.03-8.734,0.007-13.1,0.01c-0.046,0.454-0.085,0.905-0.121,1.355c7.488-0.175,14.983-0.101,22.471-0.01
				c-0.137,0.535-0.271,1.069-0.405,1.601c-7.357,0-14.715,0-22.072,0.003c-0.173,2.586-1.049,5.152-2.798,7.062
				c1.932-0.017,3.867,0.027,5.802-0.034c0.02-1.698,0.572-3.46,1.919-4.533c1.889-1.648,4.962-1.638,6.756,0.165
				c1.213,1.1,1.7,2.771,1.752,4.389c1.203,0.013,2.402,0.01,3.608,0.01c-0.154,0.558-0.301,1.123-0.448,1.681
				c-1.17,0.05-2.37-0.141-3.514,0.114c-0.909,1.19-1.83,2.573-3.383,2.879c-2.471,0.787-5.197-0.592-6.276-2.963
				c-7.616-0.064-15.231-0.024-22.847-0.024c-0.886-0.175-1.082,0.888-1.556,1.412c-1.549,2.159-4.775,2.293-6.838,0.871
				c-0.847-0.565-1.32-1.513-2.02-2.23c-1.258-0.168-2.576,0.108-3.795-0.326c-1.278-0.545-1.559-2.26-1.075-3.47
				c0.572-1.776,1.023-3.635,2.033-5.216c1.317-2.078,3.729-3.228,6.099-3.302c0.997-0.071,2.082,0.108,2.984-0.444
				c1.974-1.174,3.916-2.401,5.893-3.568c0.007,0.639,0.016,1.278,0.033,1.92c-0.941,0.622-1.915,1.194-2.844,1.829
				c6.233-0.222,12.463-0.494,18.699-0.736c-0.137-1.54-0.343-3.077-0.569-4.604c-2.733-0.212-5.507-0.114-8.198,0.424
				c-2.111,0.397-4.001,1.476-5.968,2.293C37.989,31.914,38.002,31.279,38.021,30.643z M53.828,29.752
				c0.193,1.52,0.395,3.033,0.575,4.553c2.641,0.02,5.282,0.034,7.926-0.003c-1.33-1.261-2.572-2.677-4.18-3.568
				C56.829,30.001,55.309,29.779,53.828,29.752z M31.857,36.962c-1.814,0.108-3.657,0.003-5.442,0.417
				c-0.17,1.18-0.082,2.495-0.892,3.46c-0.788,1.19-2.187,1.574-3.488,1.792c-0.167,1.042-1.118,2.24-0.516,3.218
				c0.896,0.313,1.892,0.108,2.831,0.145c0.157-1.308,0.356-2.704,1.216-3.75c1.559-2.098,4.73-2.687,6.864-1.174
				c1.634,1.029,2.409,3.003,2.474,4.913c3.893,0.057,7.786,0.003,11.679,0.03c1.402,0.034,2.899-0.269,3.961-1.278
				c1.608-1.443,2.105-3.702,2.373-5.784c-1.745-0.013-3.488-0.003-5.23-0.007c0.154-0.535,0.317-1.069,0.477-1.604
				c1.628,0.01,3.252,0.007,4.88,0.007c-0.023-0.296-0.065-0.881-0.088-1.174C45.921,36.33,38.891,36.723,31.857,36.962z
				 M22.627,40.806c1.206-0.266,1.994-1.322,2.076-2.562C23.79,38.879,23.078,39.77,22.627,40.806z M28.405,42.164
				c-1.402,0.498-2.37,2.001-2.278,3.521c-0.029,1.903,1.664,3.514,3.481,3.521c2.213,0.074,4.06-2.324,3.445-4.516
				C32.609,42.645,30.301,41.381,28.405,42.164z M61.983,42.027c-1.111,0.245-2.053,1.096-2.497,2.159
				c-0.807,1.856,0.284,4.167,2.131,4.795c2.115,0.881,4.697-0.985,4.661-3.319C66.445,43.375,64.127,41.451,61.983,42.027z"/>
		</g>
	</g>
	<g id="XMLID_1007_">
		<path style="fill:#E9511D;" d="M68.38,41.63c0.128-0.478,0.261-0.949,0.397-1.424c1.677,0.009,3.354,0.003,5.031,0.006
			c-0.131,0.472-0.258,0.943-0.38,1.418C71.742,41.63,70.059,41.63,68.38,41.63z"/>
	</g>
	<g id="XMLID_1001_">
		<g id="XMLID_1005_">
			<path style="fill:#E9511D;" d="M72.867,54.912c0.688-0.002,1.377-0.006,2.066,0.01c-0.94,2.017-1.905,4.023-2.835,6.044
				c1.675-0.002,3.351,0,5.026,0c0,0.583,0,1.166,0.002,1.751c-0.4,0.002-1.199,0-1.199,0l-0.004,1.843H74.07l-0.008-1.845
				l-4.142-0.003l0-1.747C69.92,60.966,71.962,56.746,72.867,54.912"/>
		</g>
		<g id="XMLID_1004_">
			<polyline style="fill:#E9511D;" points="78.874,54.911 84.294,54.91 84.298,56.634 78.647,56.634 78.874,54.911 			"/>
		</g>
		<g id="XMLID_1003_">
			<path style="fill:#E9511D;" d="M78.507,57.745c0.713-0.319,1.424-0.644,2.136-0.965c-0.042,0.415-0.084,0.828-0.135,1.241
				c0.895-0.01,1.855,0.102,2.564,0.72c1.212,0.929,1.586,2.797,0.831,4.143c-0.812,1.564-2.911,2.11-4.411,1.314
				c-0.759-0.37-1.354-1.036-1.665-1.836c0.594-0.234,1.189-0.466,1.789-0.677c0.233,0.733,0.994,1.281,1.747,1.015
				c0.868-0.216,1.246-1.345,0.84-2.12c-0.317-0.495-0.915-0.674-1.455-0.752c-0.84-0.144-1.69-0.013-2.535-0.038
				C78.316,59.107,78.408,58.425,78.507,57.745"/>
		</g>
		<g id="XMLID_1002_">
			<path style="fill:#E9511D;" d="M74.057,58.975h1.866v1.85c-0.613-0.311-1.222-0.634-1.841-0.932
				C74.07,59.587,74.064,59.281,74.057,58.975"/>
		</g>
	</g>
	<g id="XMLID_1016_">
		<g id="XMLID_1039_">
			<path style="fill:#FFFFFF;" d="M15.033,54.91c0.663,0.002,1.327,0,1.989,0.002c0,1.382,0.003,2.765-0.002,4.149
				c1.03-1.382,2.059-2.767,3.089-4.151c0.817,0.002,1.633,0,2.452,0.002c-1.191,1.618-2.41,3.211-3.604,4.826
				c1.19,1.604,2.408,3.185,3.582,4.803c-0.81,0.009-1.618,0-2.426,0.007c-0.798-1.058-1.594-2.115-2.379-3.183
				c-0.241,0.319-0.48,0.64-0.715,0.961c0.007,0.741,0.003,1.48,0.003,2.221c-0.659-0.005-1.317-0.007-1.974,0.012
				C15.009,61.343,15.041,58.127,15.033,54.91"/>
		</g>
		<g id="XMLID_1038_">
			<path style="fill:#FFFFFF;" d="M23.15,54.907c0.662,0.007,1.326,0.005,1.987,0.003c0.005,3.216,0,6.431,0.002,9.648
				c-0.665,0.003-1.331,0.002-1.994,0C23.15,61.342,23.137,58.125,23.15,54.907"/>
		</g>
		<g id="XMLID_1037_">
			<path style="fill:#FFFFFF;" d="M29.209,54.917c0.652-0.009,1.302-0.007,1.953-0.007c0.003,3.216,0,6.433,0.002,9.649h-1.952
				c-0.002-1.28,0-2.56,0-3.842c-1.005-0.002-2.006,0.002-3.009,0c-0.299-0.615-0.621-1.217-0.918-1.832
				c1.31-0.005,2.619,0.002,3.929-0.005C29.209,57.559,29.216,56.238,29.209,54.917"/>
		</g>
		<g id="XMLID_1034_">
			<path style="fill:#FFFFFF;" d="M35.38,55.008c1.365-0.291,2.867,0.043,3.912,1.016c2.023,1.7,2.16,5.182,0.354,7.097
				c-1.538,1.732-4.416,1.937-6.153,0.405c-1.983-1.566-2.269-4.816-0.754-6.816C33.377,55.835,34.337,55.221,35.38,55.008
				 M35.757,56.765c-1.833,0.454-2.572,2.886-1.71,4.501c0.556,1.254,2.142,1.903,3.356,1.263c1.662-0.819,2.074-3.276,0.989-4.743
				C37.817,56.936,36.737,56.509,35.757,56.765"/>
		</g>
		<g id="XMLID_1033_">
			<path style="fill:#FFFFFF;" d="M41.526,54.91c1.415,0.007,2.831-0.007,4.247,0.005c2.064,0.049,3.955,1.682,4.362,3.766
				c0.47,1.993-0.473,4.226-2.212,5.228c-0.946,0.604-2.084,0.705-3.172,0.644c-0.292-0.567-0.594-1.129-0.877-1.7
				c1.077-0.042,2.29,0.201,3.216-0.518c1.645-1.166,1.655-3.996,0.022-5.174c-1.06-0.818-2.454-0.478-3.681-0.546
				c0.002,2.645,0,7.936,0,7.936l-1.905,0.005C41.528,64.557,41.524,58.125,41.526,54.91"/>
		</g>
		<g id="XMLID_1030_">
			<path style="fill:#FFFFFF;" d="M50.873,54.91c1.418,0.003,2.834,0,4.252,0c1.114-0.01,2.211,0.624,2.788,1.604
				c0.713,1.16,0.679,2.78-0.149,3.87c-0.367,0.528-0.908,0.879-1.472,1.144c0.803,0.999,2.371,3.029,2.371,3.029l-2.488-0.012
				c0,0-1.45-1.875-2.17-2.816c-0.408-0.003-0.815-0.003-1.221-0.003c-0.003,0.945-0.002,1.892-0.002,2.837
				c-0.635,0.002-1.27,0-1.905,0.005C50.865,61.348,50.872,58.128,50.873,54.91 M52.782,56.659v3.099
				c0.786-0.007,1.572,0.019,2.36-0.005c0.61,0.007,1.173-0.465,1.311-1.073c0.251-0.804-0.241-1.789-1.046-1.992
				C54.535,56.614,53.657,56.68,52.782,56.659"/>
		</g>
		<g id="XMLID_1017_">
			<path style="fill:#FFFFFF;" d="M62.477,55.052c1.444-0.37,3.06,0.008,4.17,1.041c1.879,1.703,2.04,4.952,0.39,6.875
				c-1.418,1.736-4.097,2.103-5.92,0.841c-1.959-1.274-2.618-4.112-1.616-6.225C60.055,56.336,61.184,55.387,62.477,55.052
				 M62.84,56.818c-2.029,0.705-2.456,3.745-0.972,5.214c0.848,0.905,2.367,0.997,3.297,0.172c1.326-1.121,1.426-3.397,0.258-4.674
				C64.789,56.806,63.739,56.507,62.84,56.818"/>
		</g>
	</g>
	<g id="XMLID_1462_">
		<g id="XMLID_1463_">
			<path style="fill:#FFFFFF;" d="M63.121,72.023h21.873v-8.615c-0.032,0.083-0.066,0.163-0.101,0.24
				c-0.607,1.33-1.951,2.138-3.38,2.138H65.752L63.121,72.023z"/>
		</g>
		<g id="XMLID_1460_">
			<path style="fill:#222528;" d="M67.044,70.781v-3.675h1.45c0.62,0,1.092,0.169,1.42,0.511c0.333,0.343,0.497,0.786,0.497,1.334
				c0,0.559-0.164,1.002-0.492,1.334c-0.323,0.332-0.799,0.496-1.42,0.496H67.044z M68.018,69.875h0.42
				c0.41,0,0.692-0.095,0.82-0.28c0.138-0.185,0.174-0.369,0.174-0.643c0-0.269-0.036-0.453-0.174-0.627
				c-0.138-0.174-0.41-0.269-0.825-0.269h-0.415V69.875z"/>
			<path style="fill:#222528;" d="M70.688,69.442c0-0.416,0.133-0.749,0.395-1.002c0.267-0.253,0.605-0.38,1.015-0.38
				c0.405,0,0.728,0.132,0.979,0.395c0.251,0.258,0.379,0.585,0.379,0.97c0,0.1-0.005,0.2-0.015,0.295h-1.804
				c0.005,0.19,0.231,0.311,0.564,0.311c0.343,0,0.641-0.058,0.902-0.174v0.77c-0.246,0.142-0.564,0.211-0.958,0.211
				c-0.436,0-0.784-0.127-1.056-0.374c-0.267-0.253-0.4-0.585-0.4-0.997V69.442z M72.517,69.131c0-0.169-0.19-0.327-0.42-0.327
				c-0.246,0-0.446,0.153-0.461,0.327H72.517z"/>
			<path style="fill:#222528;" d="M74.034,68.493c0.241-0.269,0.548-0.401,0.912-0.401c0.374,0,0.61,0.105,0.712,0.311v-0.279h0.928
				v2.657h-0.928v-0.279c-0.103,0.206-0.338,0.311-0.712,0.311c-0.364,0-0.671-0.132-0.912-0.395
				c-0.241-0.264-0.364-0.585-0.364-0.965C73.67,69.078,73.793,68.757,74.034,68.493z M75.146,69.959
				c0.292,0,0.538-0.227,0.538-0.506c0-0.274-0.246-0.506-0.538-0.506s-0.538,0.232-0.538,0.506
				C74.608,69.732,74.854,69.959,75.146,69.959z"/>
			<path style="fill:#222528;" d="M77.057,70.781v-3.675h0.948v3.675H77.057z"/>
			<path style="fill:#222528;" d="M78.364,69.442c0-0.416,0.133-0.749,0.395-1.002c0.267-0.253,0.605-0.38,1.015-0.38
				c0.405,0,0.728,0.132,0.979,0.395c0.251,0.258,0.379,0.585,0.379,0.97c0,0.1-0.005,0.2-0.015,0.295h-1.804
				c0.005,0.19,0.231,0.311,0.564,0.311c0.343,0,0.641-0.058,0.902-0.174v0.77c-0.246,0.142-0.564,0.211-0.958,0.211
				c-0.436,0-0.784-0.127-1.056-0.374c-0.267-0.253-0.4-0.585-0.4-0.997V69.442z M80.194,69.131c0-0.169-0.19-0.327-0.42-0.327
				c-0.246,0-0.446,0.153-0.461,0.327H80.194z"/>
			<path style="fill:#222528;" d="M81.459,70.781v-2.657h0.948v0.327c0.149-0.258,0.395-0.39,0.728-0.39
				c0.056,0,0.195,0.016,0.22,0.016v0.886c-0.087-0.016-0.169-0.026-0.256-0.026c-0.451,0-0.692,0.243-0.692,0.664v1.181H81.459z"/>
		</g>
	</g>
</g>
</svg>
