<?xml version="1.0" encoding="utf-8"?>
<!-- Generator: Adobe Illustrator 26.0.2, SVG Export Plug-In . SVG Version: 6.00 Build 0)  -->
<svg version="1.1" id="Layer_1" xmlns="http://www.w3.org/2000/svg" xmlns:xlink="http://www.w3.org/1999/xlink" x="0px" y="0px"
	 viewBox="0 0 100 100" style="enable-background:new 0 0 100 100;" xml:space="preserve">
<style type="text/css">
	.st0{fill:#424653;}
	.st1{fill:none;stroke:url(#XMLID_00000015334650748127668760000002864549827422096260_);stroke-width:3;stroke-miterlimit:10;}
	.st2{fill:#FFFFFF;}
	.st3{fill:#FF793F;}
</style>
<circle id="XMLID_3_" class="st0" cx="50" cy="50" r="47.2"/>
<linearGradient id="XMLID_00000031888237127928854500000011046949887555149192_" gradientUnits="userSpaceOnUse" x1="-1233.8004" y1="-1837.3105" x2="-1133.7885" y2="-1837.3105" gradientTransform="matrix(0.8077 -0.5895 -0.5895 -0.8077 -76.9439 -2131.8425)">
	<stop  offset="0" style="stop-color:#FF793F"/>
	<stop  offset="0.6152" style="stop-color:#FF793F"/>
	<stop  offset="0.7628" style="stop-color:#FF793F;stop-opacity:0.62"/>
	<stop  offset="0.8159" style="stop-color:#FF793F;stop-opacity:0.48"/>
	<stop  offset="0.8538" style="stop-color:#FF793F;stop-opacity:0.38"/>
	<stop  offset="0.8845" style="stop-color:#FF793F;stop-opacity:0.3"/>
	<stop  offset="1" style="stop-color:#FFFFFF;stop-opacity:2.200000e-02"/>
</linearGradient>
<circle id="XMLID_1_" style="fill:none;stroke:url(#XMLID_00000031888237127928854500000011046949887555149192_);stroke-width:3;stroke-miterlimit:10;" cx="50" cy="50" r="48.5">
<animateTransform  accumulate="none" additive="replace" attributeName="transform" attributeType="XML" calcMode="linear" dur="1s" fill="remove" from="0 50 50" repeatCount="indefinite" restart="always" to="360 50 50" type="rotate">
	</animateTransform>
</circle>
<g>
	<g id="XMLID_156_">
		<path id="XMLID_169_" class="st2" d="M17,23.1c0.8,0,1.6,0,2.5,0c0,1.7,0,3.3,0,5c1.3-1.7,2.6-3.3,3.8-5c1,0,2,0,3,0
			c-1.5,2-3,3.9-4.5,5.8c1.5,1.9,3,3.8,4.4,5.8c-1,0-2,0-3,0c-1-1.3-2-2.6-3-3.8c-0.3,0.4-0.6,0.8-0.9,1.2c0,0.9,0,1.8,0,2.7
			c-0.8,0-1.6,0-2.5,0C17,30.9,17,27,17,23.1"/>
		<path id="XMLID_168_" class="st2" d="M27.1,23.1c0.8,0,1.6,0,2.5,0c0,3.9,0,7.8,0,11.6c-0.8,0-1.7,0-2.5,0
			C27.1,30.9,27.1,27,27.1,23.1"/>
		<path id="XMLID_167_" class="st2" d="M34.6,23.1c0.8,0,1.6,0,2.4,0c0,3.9,0,7.8,0,11.6h-2.4c0-1.5,0-3.1,0-4.6c-1.2,0-2.5,0-3.7,0
			c-0.4-0.7-0.8-1.5-1.1-2.2c1.6,0,3.3,0,4.9,0C34.6,26.3,34.6,24.7,34.6,23.1"/>
		<path id="XMLID_164_" class="st2" d="M42.3,23.3c1.7-0.4,3.6,0.1,4.9,1.2c2.5,2.1,2.7,6.3,0.4,8.6c-1.9,2.1-5.5,2.3-7.6,0.5
			c-2.5-1.9-2.8-5.8-0.9-8.2C39.8,24.3,41,23.5,42.3,23.3 M42.7,25.4c-2.3,0.5-3.2,3.5-2.1,5.4c0.7,1.5,2.7,2.3,4.2,1.5
			c2.1-1,2.6-4,1.2-5.7C45.3,25.6,44,25.1,42.7,25.4"/>
		<path id="XMLID_163_" class="st2" d="M49.9,23.1c1.8,0,3.5,0,5.3,0c2.6,0.1,4.9,2,5.4,4.5c0.6,2.4-0.6,5.1-2.7,6.3
			c-1.2,0.7-2.6,0.9-3.9,0.8c-0.4-0.7-0.7-1.4-1.1-2.1c1.3-0.1,2.8,0.2,4-0.6c2-1.4,2.1-4.8,0-6.2c-1.3-1-3-0.6-4.6-0.7
			c0,3.2,0,9.6,0,9.6h-2.4C49.9,34.8,49.9,27,49.9,23.1"/>
		<path id="XMLID_160_" class="st2" d="M61.5,23.1c1.8,0,3.5,0,5.3,0c1.4,0,2.7,0.8,3.5,1.9c0.9,1.4,0.8,3.4-0.2,4.7
			c-0.5,0.6-1.1,1.1-1.8,1.4c1,1.2,2.9,3.7,2.9,3.7h-3.1c0,0-1.8-2.3-2.7-3.4c-0.5,0-1,0-1.5,0c0,1.1,0,2.3,0,3.4
			c-0.8,0-1.6,0-2.4,0C61.5,30.9,61.5,27,61.5,23.1 M63.9,25.2V29c1,0,2,0,2.9,0c0.8,0,1.5-0.6,1.6-1.3c0.3-1-0.3-2.2-1.3-2.4
			C66.1,25.2,65,25.3,63.9,25.2"/>
		<path id="XMLID_157_" class="st2" d="M75.9,23.3c1.8-0.4,3.8,0,5.2,1.3c2.3,2.1,2.5,6,0.5,8.3c-1.8,2.1-5.1,2.5-7.4,1
			c-2.4-1.5-3.3-5-2-7.5C72.9,24.9,74.3,23.7,75.9,23.3 M76.4,25.4c-2.5,0.9-3.1,4.5-1.2,6.3c1.1,1.1,2.9,1.2,4.1,0.2
			c1.6-1.4,1.8-4.1,0.3-5.6C78.8,25.4,77.5,25.1,76.4,25.4"/>
	</g>
	<g id="XMLID_151_">
		<path id="XMLID_155_" class="st3" d="M30.7,39.4c3.2,0,6.4,0,9.6,0c-4.4,9.1-8.8,18.1-13.1,27.2c7.8,0,15.5,0,23.3,0
			c0,2.6,0,5.3,0,7.9c-1.9,0-5.6,0-5.6,0v8.3h-8.6v-8.3H17.1v-7.9C17,66.7,26.5,47.7,30.7,39.4"/>
		<polyline id="XMLID_154_" class="st3" points="57.8,39.1 83,39.1 83,46.9 56.8,46.9 57.8,39.1 		"/>
		<path id="XMLID_153_" class="st3" d="M56.1,51.9c3.3-1.4,6.6-2.9,9.9-4.4c-0.2,1.9-0.4,3.7-0.6,5.6c4.1,0,8.6,0.5,11.9,3.2
			c5.6,4.2,7.4,12.6,3.9,18.7c-3.8,7.1-13.5,9.5-20.5,5.9c-3.5-1.7-6.3-4.7-7.7-8.3c2.8-1.1,5.5-2.1,8.3-3.1
			c1.1,3.3,4.6,5.8,8.1,4.6c4-1,5.8-6.1,3.9-9.6c-1.5-2.2-4.2-3-6.7-3.4c-3.9-0.6-7.8-0.1-11.8-0.2C55.3,58,55.7,55,56.1,51.9"/>
		<path id="XMLID_152_" class="st3" d="M36.2,57.7h8.7V66c-2.8-1.4-5.7-2.9-8.5-4.2C36.3,60.5,36.2,59.1,36.2,57.7"/>
	</g>
</g>
</svg>
