<svg width="145" height="32" viewBox="0 0 145 32" fill="none" xmlns="http://www.w3.org/2000/svg">
<path d="M98.8086 31.9994H145.001V16.6875C144.94 16.8361 144.874 16.9819 144.807 17.122C143.646 19.524 141.075 20.9833 138.343 20.9833H103.835L98.8086 31.9994Z" fill="#424653"/>
<path d="M0.00882486 0.0248532C1.39133 0.027684 2.77675 0.0248527 4.1578 0.0276836C4.1578 2.75093 4.16508 5.47418 4.15488 8.20026C6.30367 5.47701 8.44953 2.75093 10.5983 0.0234375C12.3013 0.0262683 14.0058 0.0234381 15.7131 0.0262689C13.2278 3.21235 10.6872 6.35173 8.19605 9.53074C10.677 12.6899 13.2176 15.8038 15.668 18.9913C13.9781 19.0083 12.2926 18.9913 10.6071 19.0055C8.94193 16.9206 7.28118 14.8399 5.64519 12.7352C5.1426 13.3637 4.64437 13.9949 4.15343 14.6276C4.16799 16.0869 4.16071 17.5434 4.16071 19.0027C2.78549 18.9927 1.41464 18.9885 0.0437889 19.0267C-0.0407056 12.6956 0.0263065 6.36022 0.00882486 0.0248532Z" fill="#424653"/>
<path d="M17.0381 0C18.4192 0.0141541 19.8031 0.0099083 21.1842 0.00707748C21.1944 6.34245 21.1842 12.675 21.1871 19.0104C19.7987 19.0174 18.4119 19.0132 17.0279 19.0104C17.0381 12.675 17.0104 6.33962 17.0381 0Z" fill="#424653"/>
<path d="M29.5574 0.0201902C30.9166 0.0032053 32.2728 0.00603633 33.632 0.00603633C33.6393 6.34141 33.632 12.6768 33.6349 19.0121H29.5646C29.5617 16.4913 29.5646 13.9705 29.5646 11.4454C27.4683 11.4425 25.3807 11.4482 23.2887 11.4454C22.6652 10.2352 21.9936 9.04767 21.373 7.83749C24.106 7.82759 26.8361 7.84032 29.5676 7.82759C29.5574 5.22465 29.5719 2.6203 29.5574 0.0201902Z" fill="#424653"/>
<path d="M42.4494 0.219509C45.296 -0.353731 48.4281 0.303018 50.609 2.2209C54.8279 5.56976 55.1149 12.4288 51.3476 16.1995C48.1382 19.612 42.1362 20.014 38.5131 16.9978C34.3758 13.9136 33.78 7.5117 36.9398 3.57261C38.2713 1.84865 40.273 0.63847 42.4494 0.219509ZM43.2361 3.67877C39.4134 4.57331 37.8707 9.36447 39.6684 12.5449C40.828 15.0148 44.1364 16.2929 46.6683 15.0318C50.1355 13.4196 50.995 8.57892 48.7312 5.69007C47.5322 4.01847 45.2785 3.1763 43.2361 3.67877Z" fill="#424653"/>
<path d="M55.2683 0.0256039C58.2183 0.039758 61.1727 0.0114497 64.1271 0.0355117C68.4319 0.13176 72.3769 3.34898 73.2263 7.45367C74.2067 11.3786 72.2386 15.7791 68.6126 17.7522C66.6386 18.9411 64.264 19.1407 61.9972 19.0204C61.3883 17.9036 60.759 16.7968 60.1689 15.6729C62.4153 15.5909 64.9443 16.0679 66.8761 14.6524C70.3083 12.3566 70.3287 6.78135 66.9227 4.4615C64.7113 2.84934 61.8035 3.52025 59.2453 3.38578C59.2483 8.59591 59.2453 19.0176 59.2453 19.0176L55.2726 19.0275C55.2726 19.0261 55.2654 6.35673 55.2683 0.0256039Z" fill="#424653"/>
<path d="M74.7652 0.025657C77.7225 0.032734 80.6769 0.025657 83.6342 0.025657C85.9578 0.00442581 88.2464 1.25423 89.4498 3.18485C90.9372 5.46932 90.8672 8.65965 89.138 10.8068C88.3732 11.8457 87.2427 12.5379 86.0671 13.0602C87.7424 15.029 91.0115 19.0275 91.0115 19.0275L85.8223 19.0035C85.8223 19.0035 82.798 15.3107 81.296 13.4565C80.4453 13.4494 79.596 13.4494 78.7496 13.4494C78.7423 15.3107 78.7466 17.1762 78.7466 19.0374C77.4224 19.0403 76.0967 19.0374 74.7725 19.0473C74.7477 12.7063 74.7608 6.36527 74.7652 0.025657ZM78.7466 3.47076V9.57542C80.387 9.56127 82.0259 9.61364 83.6692 9.56551C84.941 9.57967 86.1166 8.64974 86.4036 7.45231C86.928 5.86988 85.901 3.92794 84.2213 3.52879C82.4018 3.38159 80.5706 3.51181 78.7466 3.47076Z" fill="#424653"/>
<path d="M98.9674 0.306294C101.98 -0.422642 105.351 0.323279 107.665 2.35722C111.583 5.71316 111.92 12.1122 108.477 15.8984C105.52 19.3181 99.9318 20.0399 96.1296 17.5545C92.0433 15.0449 90.668 9.4555 92.7585 5.2942C93.9167 2.83563 96.2709 0.965875 98.9674 0.306294ZM99.725 3.78537C95.493 5.17389 94.6014 11.1625 97.6971 14.0556C99.4671 15.839 102.634 16.0187 104.573 14.3939C107.338 12.1858 107.548 7.70322 105.111 5.18804C103.791 3.76272 101.601 3.17391 99.725 3.78537Z" fill="#424653"/>
<path d="M120.757 0.148282C122.191 0.145451 123.628 0.135544 125.066 0.166683C123.105 4.13974 121.094 8.09014 119.153 12.0717C122.648 12.0689 126.143 12.0717 129.638 12.0717C129.638 13.2196 129.638 14.3689 129.641 15.521C128.807 15.5239 127.141 15.521 127.141 15.521L127.132 19.1516H123.267L123.25 15.5168L114.609 15.5111V12.0703C114.611 12.0703 118.871 3.75899 120.757 0.148282Z" fill="#FF793F"/>
<path d="M132.975 0.0296367L144.279 0.0253906L144.289 3.42237H132.502L132.975 0.0296367Z" fill="#FF793F"/>
<path d="M132.21 5.61378C133.696 4.98676 135.181 4.34558 136.667 3.71289C136.579 4.52958 136.492 5.34344 136.384 6.1573C138.25 6.1389 140.253 6.35971 141.734 7.57696C144.263 9.40567 145.04 13.0857 143.467 15.7382C141.773 18.8196 137.395 19.8938 134.266 18.327C132.682 17.5981 131.443 16.2874 130.793 14.7106C132.033 14.2506 133.272 13.7934 134.525 13.3773C135.012 14.821 136.6 15.8996 138.17 15.3759C139.981 14.9498 140.771 12.7276 139.923 11.2004C139.261 10.2266 138.014 9.87275 136.888 9.71847C135.136 9.43397 133.363 9.693 131.601 9.64346C131.811 8.2974 132.004 6.95418 132.21 5.61378Z" fill="#FF793F"/>
<path d="M123.24 8.14844H127.133V11.7917C125.854 11.1802 124.585 10.5433 123.293 9.95592C123.266 9.35295 123.253 8.7514 123.24 8.14844Z" fill="#FF793F"/>
<path d="M106.266 30.6633V23.2734H109.861C110.7 23.2734 111.44 23.4235 112.078 23.725C112.716 24.025 113.215 24.4525 113.573 25.0045C113.93 25.5565 114.109 26.2118 114.109 26.9691C114.109 27.7235 113.93 28.3788 113.573 28.9322C113.216 29.4857 112.718 29.9131 112.078 30.2132C111.439 30.5133 110.7 30.6647 109.861 30.6647H106.266V30.6633ZM108.419 28.9931H109.777C110.208 28.9931 110.585 28.9138 110.91 28.7525C111.235 28.5925 111.487 28.3618 111.666 28.0589C111.845 27.756 111.935 27.3923 111.935 26.9677C111.935 26.543 111.845 26.1779 111.666 25.8764C111.487 25.5735 111.235 25.3428 110.91 25.1828C110.585 25.0229 110.208 24.9422 109.777 24.9422H108.419V28.9931Z" fill="white"/>
<path d="M120.889 27.8129C120.889 27.9148 120.883 28.0295 120.869 28.1541C120.863 28.2078 120.857 28.2602 120.854 28.3069H116.577C116.778 28.9212 117.259 29.2283 118.019 29.2283C118.309 29.2283 118.56 29.1873 118.769 29.1066C118.981 29.0245 119.183 28.9 119.377 28.7301L120.464 29.8285C120.184 30.1356 119.836 30.3678 119.419 30.5249C119.002 30.682 118.514 30.7598 117.955 30.7598C117.257 30.7598 116.648 30.631 116.13 30.3734C115.611 30.1158 115.209 29.7634 114.925 29.3175C114.639 28.8717 114.498 28.3635 114.498 27.7945C114.498 27.2185 114.639 26.7089 114.921 26.2659C115.202 25.8229 115.588 25.4761 116.076 25.2242C116.565 24.9736 117.119 24.8477 117.738 24.8477C118.172 24.8477 118.581 24.9128 118.963 25.0444C119.345 25.176 119.68 25.3671 119.965 25.6205C120.251 25.8738 120.477 26.1838 120.641 26.5518C120.807 26.9184 120.889 27.3388 120.889 27.8129ZM117.748 26.2716C117.429 26.2716 117.164 26.3593 116.953 26.5334C116.742 26.7075 116.606 26.9467 116.543 27.251H118.953C118.898 26.9467 118.762 26.7075 118.551 26.5334C118.338 26.3593 118.07 26.2716 117.748 26.2716Z" fill="white"/>
<path d="M124.08 24.8477C124.718 24.8477 125.261 24.9411 125.71 25.1279C126.157 25.3147 126.499 25.6035 126.737 25.9941C126.974 26.3848 127.092 26.8816 127.092 27.486V30.6622H125.166V29.9233C124.866 30.4796 124.286 30.7584 123.428 30.7584C122.958 30.7584 122.559 30.6806 122.232 30.5234C121.906 30.3663 121.658 30.1554 121.489 29.8908C121.32 29.6261 121.234 29.326 121.234 28.9934C121.234 28.641 121.326 28.3381 121.508 28.0847C121.69 27.8313 121.976 27.6332 122.36 27.4945C122.745 27.3558 123.243 27.2864 123.852 27.2864H125.028C125.012 26.9948 124.901 26.7712 124.697 26.6141C124.493 26.457 124.187 26.3791 123.778 26.3791C123.495 26.3791 123.21 26.423 122.921 26.5108C122.633 26.5985 122.385 26.7188 122.178 26.8731L121.486 25.5101C121.829 25.2963 122.231 25.1322 122.694 25.0189C123.157 24.9043 123.619 24.8477 124.08 24.8477ZM124.005 29.4916C124.232 29.4916 124.438 29.4378 124.623 29.3288C124.808 29.2199 124.942 29.0514 125.028 28.825V28.331H124.133C123.804 28.331 123.573 28.3833 123.437 28.4895C123.302 28.5957 123.235 28.7358 123.235 28.9113C123.235 29.0811 123.302 29.2199 123.437 29.3288C123.573 29.4378 123.762 29.4916 124.005 29.4916Z" fill="white"/>
<path d="M128.125 30.6635V22.832H130.189V30.6635H128.125Z" fill="white"/>
<path d="M137.276 27.8129C137.276 27.9148 137.27 28.0295 137.257 28.1541C137.251 28.2078 137.246 28.2602 137.243 28.3069H132.966C133.167 28.9212 133.647 29.2283 134.408 29.2283C134.698 29.2283 134.948 29.1873 135.158 29.1066C135.369 29.0245 135.572 28.9 135.766 28.7301L136.852 29.8285C136.573 30.1356 136.224 30.3678 135.808 30.5249C135.391 30.682 134.903 30.7598 134.344 30.7598C133.646 30.7598 133.037 30.631 132.518 30.3734C132 30.1158 131.598 29.7634 131.314 29.3175C131.028 28.8717 130.887 28.3635 130.887 27.7945C130.887 27.2185 131.028 26.7089 131.309 26.2659C131.59 25.8229 131.976 25.4761 132.464 25.2242C132.954 24.9736 133.508 24.8477 134.127 24.8477C134.561 24.8477 134.97 24.9128 135.352 25.0444C135.734 25.176 136.069 25.3671 136.354 25.6205C136.641 25.8738 136.867 26.1838 137.032 26.5518C137.193 26.9184 137.276 27.3388 137.276 27.8129ZM134.134 26.2716C133.815 26.2716 133.55 26.3593 133.339 26.5334C133.127 26.7075 132.992 26.9467 132.929 27.251H135.339C135.283 26.9467 135.149 26.7075 134.937 26.5334C134.725 26.3593 134.457 26.2716 134.134 26.2716Z" fill="white"/>
<path d="M139.924 25.6304C140.138 25.3714 140.413 25.176 140.748 25.0444C141.083 24.9128 141.469 24.8477 141.904 24.8477V26.6523C141.742 26.6297 141.586 26.6183 141.434 26.6183C141.158 26.6183 140.913 26.6665 140.7 26.7641C140.488 26.8618 140.321 27.0146 140.202 27.2227C140.081 27.4308 140.021 27.7011 140.021 28.0337V30.6636H137.957V24.9439H139.922V25.6304H139.924Z" fill="white"/>
</svg>
