<svg width="316" height="178" viewBox="0 0 316 178" fill="none" xmlns="http://www.w3.org/2000/svg">
<g clip-path="url(#clip0_128_527)">
<mask id="mask0_128_527" style="mask-type:alpha" maskUnits="userSpaceOnUse" x="1" y="1" width="314" height="176">
<path d="M315 1H1V177H315V1Z" fill="white"/>
<path fill-rule="evenodd" clip-rule="evenodd" d="M14 2C7.37258 2 2 7.37258 2 14V164C2 170.627 7.37259 176 14 176H302C308.627 176 314 170.627 314 164V14C314 7.37258 308.627 2 302 2H14Z" fill="black"/>
</mask>
<g mask="url(#mask0_128_527)">
<path fill-rule="evenodd" clip-rule="evenodd" d="M14 2C7.37258 2 2 7.37258 2 14V164C2 170.627 7.37259 176 14 176H302C308.627 176 314 170.627 314 164V14C314 7.37258 308.627 2 302 2H14Z" fill="white"/>
<path fill-rule="evenodd" clip-rule="evenodd" d="M14 2C7.37258 2 2 7.37258 2 14V164C2 170.627 7.37259 176 14 176H302C308.627 176 314 170.627 314 164V14C314 7.37258 308.627 2 302 2H14Z" stroke="#E8E8E8" stroke-width="2"/>
</g>
<path d="M314 55.9998C314 64.4994 314 164 314 164C314 170.627 308.627 176 302 176H14C7.37259 176 2 170.627 2 164C2 120.101 2 64.5024 2 56.0006C36 53.0006 80 46.001 158 45.8756C236 45.7502 288 53.0006 314 55.9998Z" fill="url(#paint0_linear_128_527)"/>
<path opacity="0.6" d="M83.5 174.5C92.486 124.07 62.5 80.5 3 67M111.119 174.5C101.633 147.736 67.5 115 4 115.5M2 14C2 7.37258 7.37259 2 14 2H302C308.627 2 314 7.37258 314 14V164C314 170.627 308.627 176 302 176H14C7.3726 176 2 170.627 2 164V14Z" stroke="white" stroke-opacity="0.3" stroke-width="3" stroke-linecap="round"/>
<path d="M275.979 18.0211C276.092 18.0211 276.204 18.0011 276.316 18.0011H295.5C295.615 18.0031 295.731 17.9921 295.845 18.0131C296.135 18.0227 296.42 18.0902 296.683 18.2116C296.946 18.3331 297.182 18.506 297.377 18.7201C297.774 19.1441 298.001 19.7211 297.997 20.3021V21.3391H286.459C286.249 21.3151 286.039 21.3281 285.831 21.3191C285.684 21.2911 285.533 21.3191 285.386 21.2991C285.264 21.2841 285.142 21.2941 285.02 21.2871C284.535 21.2571 284.046 21.2321 283.561 21.1871C283.011 21.1491 282.474 21.0071 281.929 20.9311C281.311 20.8404 280.683 20.832 280.062 20.9061C279.778 20.9411 279.468 20.9901 279.252 21.1961C279.202 21.2411 279.167 21.301 279.152 21.3671C279.138 21.4332 279.145 21.5022 279.172 21.5641C279.28 21.7371 279.477 21.8271 279.669 21.8711C279.797 21.9101 279.933 21.8731 280.062 21.9031C280.236 21.9131 280.412 21.8951 280.585 21.9181C281.18 21.9407 281.775 21.9056 282.362 21.8131L282.452 21.8071C282.647 21.7731 282.845 21.7471 283.042 21.7171C283.805 21.6171 284.578 21.5971 285.345 21.5541C285.662 21.5491 285.98 21.5341 286.296 21.5181H297.996V22.4901C293.886 22.4881 289.778 22.4931 285.668 22.4881C285.613 22.4771 285.556 22.4721 285.501 22.4621C285.372 22.4521 285.245 22.4351 285.117 22.4211C284.32 22.3211 283.524 22.1881 282.72 22.1631C282.466 22.1281 282.208 22.1721 281.954 22.1361C280.907 22.1321 279.86 22.1351 278.812 22.1341C278.522 22.1671 278.229 22.1311 277.938 22.1661C277.628 22.1681 277.284 22.1451 277.017 22.3331C276.868 22.4241 276.753 22.6161 276.824 22.7891C276.898 22.9681 277.09 23.0461 277.264 23.0941C277.61 23.1801 277.971 23.1481 278.324 23.1541C278.724 23.1861 279.124 23.1641 279.525 23.1701C279.968 23.1761 280.411 23.1541 280.853 23.1871C281.573 23.1841 282.293 23.2021 283.012 23.1431C283.152 23.1371 283.292 23.1271 283.432 23.1101C283.746 23.0861 284.059 23.0501 284.372 23.0141C284.459 23.0049 284.545 22.9939 284.631 22.9811C284.815 22.9631 284.999 22.9381 285.182 22.9151L285.27 22.9071C285.75 22.8271 286.235 22.8901 286.716 22.8471H292.746C292.832 22.8441 292.917 22.8291 293.004 22.8301H297.996V23.7871H287.594C287.404 23.7915 287.213 23.7822 287.024 23.7591C286.442 23.7191 285.862 23.6591 285.281 23.6201C284.807 23.5774 284.331 23.5451 283.855 23.5231C283.104 23.4756 282.352 23.4556 281.599 23.4631C281.147 23.4301 280.692 23.4531 280.239 23.4461H277.971C277.921 23.4452 277.871 23.4495 277.821 23.4591C277.621 23.4681 277.421 23.4581 277.222 23.4641C276.905 23.5021 276.572 23.4371 276.268 23.5621C276.081 23.6311 275.902 23.7851 275.898 23.9981C275.914 24.1081 275.978 24.2121 276.075 24.2681C276.295 24.4061 276.562 24.4361 276.815 24.4381C277.112 24.4671 277.413 24.4431 277.71 24.4501C278.25 24.4821 278.79 24.4601 279.331 24.4671H280.887C281.448 24.5111 282.011 24.4611 282.573 24.4511C283.811 24.3857 285.049 24.3057 286.285 24.2111C286.7 24.1881 287.114 24.1641 287.528 24.1431H292.973C293.2 24.1401 293.428 24.1521 293.654 24.1271C295.102 24.1251 296.549 24.1271 297.997 24.1271V25.0501H287.724C287.436 25.0601 287.154 25.0001 286.867 24.9801C286.771 24.9671 286.674 24.9564 286.577 24.9481C286.48 24.9352 286.382 24.9245 286.284 24.9161C286.187 24.9029 286.09 24.8923 285.993 24.8841C285.778 24.8574 285.562 24.8357 285.345 24.8191C284.807 24.7667 284.266 24.7347 283.725 24.7231C283.518 24.6891 283.306 24.7291 283.098 24.6991C282.76 24.6811 282.421 24.7121 282.084 24.6781H277.938C277.899 24.6786 277.859 24.6826 277.82 24.6901C277.492 24.7031 277.162 24.6791 276.834 24.7101C276.608 24.7001 276.382 24.7291 276.156 24.7271C275.933 24.7411 275.698 24.8031 275.543 24.9731C275.426 25.0831 275.397 25.2881 275.505 25.4131C275.656 25.5921 275.903 25.6411 276.125 25.6671C276.35 25.7001 276.579 25.6651 276.805 25.6951C277.171 25.7091 277.539 25.6801 277.905 25.7151C278.293 25.7161 278.682 25.7131 279.07 25.7151C279.286 25.7391 279.503 25.7291 279.72 25.7311H280.952C281.405 25.7611 281.861 25.7431 282.315 25.7451C282.557 25.7131 282.802 25.7471 283.045 25.7211C284.04 25.6852 285.033 25.6252 286.025 25.5411C286.337 25.5221 286.648 25.4911 286.96 25.4661C287.037 25.4561 287.115 25.4561 287.193 25.4441C287.671 25.3861 288.153 25.4121 288.633 25.4071H293.331C293.859 25.3741 294.389 25.3971 294.919 25.3911H297.997V26.2661H288.209C288.03 26.2711 287.855 26.2291 287.677 26.2121C287.591 26.1999 287.505 26.1892 287.418 26.1801C287.224 26.1521 287.029 26.1371 286.835 26.1151C286.728 26.1001 286.62 26.0894 286.511 26.0831C286.125 26.0453 285.738 26.0183 285.35 26.0021C285.169 25.9771 284.986 26.0051 284.806 25.9791C284.592 25.9641 284.376 25.9891 284.163 25.9601C283.686 25.9471 283.207 25.9771 282.731 25.9411H277.483C277.379 25.9431 277.274 25.9341 277.173 25.9541C276.92 25.9661 276.666 25.9441 276.415 25.9741C276.115 25.9721 275.789 25.9561 275.525 26.1241C275.378 26.2011 275.27 26.3651 275.297 26.5341C275.321 26.6771 275.452 26.7601 275.57 26.8211C275.788 26.9161 276.03 26.9331 276.265 26.9341C276.571 26.9691 276.881 26.9241 277.187 26.9601C277.481 26.9661 277.774 26.9601 278.067 26.9621C278.562 27.0051 279.061 26.9521 279.557 26.9941C280.14 27.0021 280.725 26.9771 281.308 27.0111C281.892 27.0081 282.477 27.0141 283.061 27.0081C283.284 26.9771 283.511 27.0101 283.734 26.9851C284.651 26.9601 285.566 26.9108 286.48 26.8371C286.662 26.8331 286.842 26.8071 287.024 26.7951C287.142 26.7801 287.262 26.7711 287.381 26.7631C287.478 26.7491 287.575 26.7391 287.673 26.7301C287.851 26.7101 288.028 26.6821 288.207 26.6701H293.524C293.836 26.6411 294.15 26.6601 294.463 26.6541H297.997V27.5781H287.659C287.566 27.5743 287.473 27.565 287.381 27.5501C287.242 27.5371 287.103 27.5221 286.965 27.5081C286.868 27.4952 286.771 27.4845 286.673 27.4761C286.576 27.4629 286.479 27.4519 286.382 27.4431C286.177 27.4188 285.972 27.3974 285.766 27.3791C285.648 27.3633 285.529 27.3526 285.41 27.3471C285.109 27.3159 284.806 27.2943 284.503 27.2821C284.256 27.2621 284.006 27.2551 283.758 27.2501C283.55 27.2171 283.338 27.2561 283.13 27.2271C282.854 27.2121 282.576 27.2301 282.3 27.2181C282.218 27.2011 282.135 27.2051 282.053 27.2051C280.659 27.2071 279.265 27.2031 277.87 27.2071C277.539 27.2441 277.204 27.2001 276.873 27.2351C276.713 27.2481 276.553 27.2221 276.394 27.2511C276.154 27.2491 275.899 27.2541 275.688 27.3841C275.56 27.4641 275.426 27.5911 275.441 27.7571C275.431 27.8671 275.509 27.9591 275.591 28.0221C275.768 28.1471 275.989 28.1881 276.201 28.1991C276.409 28.2271 276.621 28.1931 276.829 28.2241C277.123 28.2301 277.416 28.2241 277.71 28.2261C278.152 28.2591 278.596 28.2361 279.039 28.2411C279.805 28.2861 280.574 28.2311 281.339 28.2751C281.654 28.2721 281.969 28.2771 282.283 28.2731C282.536 28.2401 282.792 28.2751 283.045 28.2491C283.92 28.2191 284.795 28.1691 285.669 28.1011C285.95 28.0831 286.231 28.0611 286.512 28.0371C286.642 28.0271 286.772 28.0201 286.901 28.0041C287.175 27.9861 287.448 27.9561 287.722 27.9351H293.137C293.579 27.9031 294.022 27.9251 294.464 27.9181H297.997V28.7931H287.432C287.319 28.7931 287.208 28.7761 287.095 28.7731C287.017 28.7611 286.939 28.7611 286.862 28.7501C285.352 28.6401 283.842 28.5261 282.331 28.4801C282.083 28.4531 281.832 28.4841 281.585 28.4631C281.471 28.4481 281.356 28.4531 281.243 28.4531H278.197C277.873 28.4461 277.55 28.4811 277.225 28.4691C276.923 28.5071 276.609 28.4471 276.315 28.5491C276.14 28.6131 275.947 28.7291 275.91 28.9261C275.863 29.0881 275.994 29.2361 276.128 29.3061C276.326 29.4021 276.548 29.4421 276.768 29.4421C277.136 29.4711 277.505 29.4521 277.874 29.4571C278.455 29.4901 279.039 29.4671 279.621 29.4741C280.183 29.4811 280.746 29.4571 281.306 29.4901C281.843 29.4851 282.381 29.5041 282.916 29.4601C283.131 29.4551 283.348 29.4471 283.563 29.4301C283.725 29.4211 283.888 29.4151 284.049 29.3971C284.352 29.3831 284.654 29.3571 284.957 29.3331C285.677 29.2831 286.395 29.2151 287.116 29.1721C287.523 29.1391 287.932 29.1521 288.34 29.1501H292.747C292.851 29.1491 292.956 29.1581 293.058 29.1371C294.704 29.1281 296.351 29.1361 297.997 29.1331V30.0571H285.745C285.425 30.0671 285.11 30.0031 284.795 29.9711C284.663 29.9531 284.531 29.9371 284.401 29.9161C284.294 29.9021 284.188 29.8841 284.081 29.8741C283.801 29.8341 283.521 29.7991 283.239 29.7761C282.94 29.7463 282.64 29.7313 282.34 29.7311C282.158 29.7091 281.974 29.7181 281.79 29.7171H278.941C278.823 29.7171 278.704 29.7121 278.586 29.7271C278.375 29.7491 278.16 29.7141 277.95 29.7461C277.693 29.7561 277.427 29.7261 277.182 29.8251C277.012 29.8851 276.846 30.0171 276.807 30.2021C276.779 30.3351 276.869 30.4591 276.971 30.5351C277.191 30.6721 277.458 30.7051 277.711 30.7071C278.153 30.7451 278.598 30.6971 279.039 30.7371H281.956C282.168 30.7311 282.381 30.7541 282.591 30.7251C282.775 30.7221 282.959 30.7161 283.141 30.6941C283.466 30.6741 283.791 30.6361 284.114 30.5971C284.2 30.5871 284.286 30.5771 284.372 30.5641C284.459 30.5551 284.545 30.5441 284.632 30.5321C284.816 30.5141 284.999 30.4881 285.183 30.4671C285.281 30.4581 285.378 30.4491 285.475 30.4331C285.922 30.4191 286.371 30.4481 286.817 30.4131H292.584C292.799 30.4121 293.015 30.4231 293.229 30.3981C294.819 30.3961 296.407 30.3981 297.996 30.3981V31.3861H287.692C287.083 31.3831 286.473 31.3971 285.865 31.3661C285.618 31.3461 285.368 31.3411 285.12 31.3341C284.47 31.2971 283.819 31.2651 283.172 31.1871C282.815 31.1321 282.459 31.0691 282.101 31.0191C281.984 31.0023 281.867 30.9879 281.749 30.9761C281.581 30.9547 281.412 30.9447 281.242 30.9461C280.951 30.9051 280.66 30.9641 280.368 30.9491C280.148 30.9701 279.926 30.9591 279.706 30.9841C279.501 31.0371 279.273 31.1261 279.173 31.3271C279.089 31.4811 279.153 31.6801 279.286 31.7851C279.501 31.9651 279.786 32.0311 280.058 32.0561C280.165 32.0731 280.273 32.0841 280.381 32.0881C280.958 32.1414 281.539 32.1111 282.106 31.9981C282.466 31.9291 282.826 31.8601 283.184 31.7881C283.644 31.7331 284.107 31.7021 284.569 31.6661C285.254 31.6294 285.939 31.601 286.624 31.5811H297.998C297.988 32.0291 298.019 32.4781 297.978 32.9241C297.878 33.6841 297.376 34.3831 296.675 34.6981C296.435 34.8211 296.169 34.8701 295.905 34.9001C289.355 34.9071 282.805 34.9001 276.255 34.9041C275.781 34.9039 275.319 34.7511 274.938 34.4681C274.66 34.2614 274.432 33.9948 274.27 33.6882C274.108 33.3815 274.018 33.0425 274.004 32.6961C273.995 28.5761 274.004 24.4561 274 20.3361C274.001 19.7821 274.185 19.2221 274.554 18.8021C274.914 18.3714 275.423 18.0928 275.979 18.0221" fill="#3497FD"/>
<path d="M18.0058 18.0039C18.8525 18.0061 19.7012 18.0039 20.548 18.0061C20.548 19.7232 20.5524 21.4403 20.5457 23.1597C21.8622 21.4426 23.1766 19.7232 24.493 18.0039C25.5366 18.0061 26.5805 18.0039 27.6263 18.0061C26.1042 20.0155 24.5472 21.9945 23.0206 23.9997C24.5406 25.9918 26.0975 27.9559 27.598 29.9652C26.563 29.9761 25.5302 29.9652 24.4972 29.9739C23.4772 28.6594 22.4597 27.3474 21.457 26.0199C21.1495 26.4162 20.8442 26.8147 20.5433 27.2131C20.5519 28.1333 20.5477 29.0515 20.5477 29.9716C19.7054 29.9652 18.8654 29.963 18.025 29.9869C17.9755 25.9941 18.0167 21.999 18.0058 18.0039Z" fill="#424653"/>
<path d="M28.3786 18C29.2244 18.0086 30.0726 18.0064 30.9183 18.0044C30.9247 21.9995 30.9183 25.9924 30.9205 29.9872C30.0704 29.9916 29.2202 29.9894 28.3722 29.9872C28.3786 25.9921 28.3611 21.997 28.3786 18Z" fill="#424653"/>
<path d="M36.1215 18.0127C36.9544 18.0019 37.7849 18.0041 38.6178 18.0041C38.6222 21.9992 38.6178 25.994 38.62 29.9891H36.1259C36.1237 28.3994 36.1259 26.8097 36.1259 25.2178C34.842 25.2155 33.5623 25.22 32.2807 25.2178C31.8989 24.4543 31.4869 23.7062 31.1074 22.9427C32.7816 22.9363 34.4539 22.945 36.1284 22.9363C36.1215 21.2941 36.1303 19.6522 36.1215 18.0127Z" fill="#424653"/>
<path d="M44.0082 18.1261C45.7521 17.7646 47.6713 18.1788 49.0072 19.3881C51.5922 21.4997 51.7677 25.8245 49.4596 28.2025C47.4939 30.3543 43.8159 30.6079 41.5964 28.7055C39.0619 26.7609 38.6962 22.7235 40.6326 20.24C41.4483 19.1535 42.6742 18.3905 44.0082 18.1261ZM44.4899 20.3077C42.1479 20.872 41.2031 23.8928 42.3044 25.8987C43.0146 27.4566 45.0417 28.2619 46.5932 27.4672C48.7176 26.4504 49.2437 23.3982 47.8571 21.5761C47.1215 20.5211 45.7413 19.9906 44.4899 20.3077Z" fill="#424653"/>
<path d="M51.8619 18.0039C53.6695 18.0126 55.4793 17.9953 57.2893 18.0103C59.927 18.071 62.3437 20.0998 62.8639 22.6875C63.4642 25.1626 62.2592 27.9369 60.0377 29.1811C58.8282 29.931 57.3738 30.0567 55.9847 29.9808C55.6118 29.2765 55.2262 28.5784 54.8642 27.8696C56.2405 27.8176 57.7902 28.1188 58.9736 27.226C61.0759 25.7782 61.0889 22.2627 59.0017 20.7996C57.6471 19.7831 55.8654 20.2058 54.2984 20.1212C54.3006 23.4071 54.2984 29.9786 54.2984 29.9786L51.8644 29.985C51.8642 29.9855 51.8597 21.9963 51.8619 18.0039Z" fill="#424653"/>
<path d="M63.8053 18.0041C65.6172 18.0085 67.427 18.0041 69.2387 18.0041C70.6623 17.991 72.064 18.7788 72.8018 19.9962C73.7131 21.437 73.6697 23.4486 72.6108 24.8027C72.1421 25.458 71.4499 25.8942 70.7294 26.2241C71.7557 27.4654 73.7587 29.9868 73.7587 29.9868L70.5798 29.9716C70.5798 29.9716 68.7267 27.6431 67.8065 26.4735C67.2858 26.4691 66.7648 26.4691 66.2464 26.4691C66.2419 27.6431 66.2441 28.8193 66.2441 29.993C65.4327 29.9952 64.6209 29.993 63.8094 29.9994C63.7944 26.0004 63.803 22.0011 63.8053 18.0041ZM66.2444 20.1763V24.0258C67.2491 24.0171 68.2538 24.0497 69.2607 24.0194C70.0396 24.028 70.7602 23.4422 70.9359 22.6869C71.257 21.6886 70.6278 20.4649 69.5993 20.2133C68.4837 20.1199 67.3619 20.2022 66.2444 20.1763Z" fill="#424653"/>
<path d="M78.6365 18.1762C80.4822 17.7164 82.5475 18.1868 83.965 19.4692C86.3656 21.585 86.5722 25.6205 84.4627 28.0084C82.6508 30.1644 79.2271 30.62 76.8982 29.0525C74.3942 27.4705 73.5524 23.9456 74.8331 21.3214C75.5418 19.7708 76.9849 18.5917 78.6365 18.1762ZM79.1007 20.3701C76.5081 21.2455 75.9617 25.0215 77.8582 26.8463C78.9425 27.9707 80.8831 28.0846 82.0709 27.0594C83.7649 25.6671 83.8935 22.8406 82.3999 21.2541C81.5919 20.3554 80.2503 19.984 79.1007 20.3701Z" fill="#424653"/>
<path d="M91.9121 18.0024C92.7907 18.0004 93.6711 17.9945 94.5519 18.0142C93.3508 20.5194 92.1179 23.0105 90.9289 25.5216C93.0699 25.5196 95.2108 25.5216 97.352 25.5216C97.352 26.2459 97.352 26.9701 97.354 27.6963C96.8434 27.6983 95.8224 27.6963 95.8224 27.6963L95.817 29.9861H93.4503L93.44 27.6944L88.1467 27.6904L88.1465 25.5209C88.1462 25.5206 90.7564 20.2799 91.9121 18.0024Z" fill="#FF793F"/>
<path d="M99.5901 18.002L106.515 18L106.521 20.1415H99.2998L99.5901 18.002Z" fill="#FF793F"/>
<path d="M99.1189 21.5233C100.03 21.1276 100.938 20.7239 101.849 20.3242C101.795 20.8393 101.742 21.3523 101.676 21.8654C102.82 21.8535 104.046 21.9925 104.953 22.7602C106.502 23.9134 106.979 26.234 106.015 27.9063C104.977 29.8489 102.295 30.527 100.378 29.5389C99.4072 29.0795 98.6477 28.2523 98.25 27.2582C99.0095 26.9679 99.7692 26.6796 100.537 26.4171C100.835 27.3279 101.807 28.0078 102.77 27.6779C103.879 27.4095 104.362 26.0076 103.843 25.0453C103.438 24.4309 102.674 24.2082 101.984 24.1108C100.91 23.9319 99.8247 24.0948 98.7448 24.063C98.8744 23.2155 98.9917 22.3683 99.1189 21.5233Z" fill="#FF793F"/>
<path d="M93.4346 23.0508H95.819V25.3482C95.0354 24.9623 94.2579 24.5606 93.4664 24.1908C93.4503 23.8108 93.4425 23.4308 93.4346 23.0508Z" fill="#FF793F"/>
</g>
<defs>
<linearGradient id="paint0_linear_128_527" x1="301.5" y1="167.003" x2="-152.764" y2="-2.3303" gradientUnits="userSpaceOnUse">
<stop stop-color="#CF072C"/>
<stop offset="0.958527" stop-color="#F3BCC5"/>
<stop offset="1" stop-color="#FFFAFA"/>
</linearGradient>
<clipPath id="clip0_128_527">
<rect width="316" height="178" fill="white"/>
</clipPath>
</defs>
</svg>
