<svg width="328" height="212" viewBox="0 0 328 212" fill="none" xmlns="http://www.w3.org/2000/svg">
<path d="M0.176303 9.77629C0.176303 4.48649 4.49173 0.175781 9.78733 0.175781H318.211C323.507 0.175781 327.822 4.48649 327.822 9.77629V65.5164C323.861 64.9996 260.395 57.0309 166.926 57.0309C110.553 57.0309 54.4527 59.8866 0.162689 65.5164V9.77629H0.176303Z" fill="white"/>
<path d="M318.212 0.339962C323.426 0.339962 327.66 4.56908 327.66 9.77729V65.327C322.173 64.6199 259.157 56.8688 166.94 56.8688C110.636 56.8688 54.5895 59.7244 0.340334 65.3406V9.77729C0.340334 4.56908 4.57409 0.339962 9.788 0.339962H318.212ZM318.212 0H9.788C4.3835 0 0 4.3787 0 9.77729V65.7078C61.437 59.3301 118.341 57.1951 166.94 57.1951C264.113 57.1951 328 65.7078 328 65.7078V9.77729C328 4.3787 323.617 0 318.212 0Z" fill="#A9A9A9"/>
<path d="M328 54.4745V202.398C328 207.702 323.698 211.999 318.389 211.999H9.61102C4.30182 211.999 0 207.702 0 202.398V54.4745C184.27 35.3278 328 54.4745 328 54.4745Z" fill="#CF072C"/>
<path d="M299.004 45.216C287.746 44.6992 276.501 44.1417 265.243 43.8017C253.999 43.3802 242.74 43.0538 231.496 42.741C208.993 42.1563 186.49 41.8027 164.001 41.8027C141.498 41.6804 119.009 42.0067 96.5058 42.5778L79.6388 43.0402L62.7583 43.6929L54.318 43.9785L45.8914 44.4136C40.269 44.7264 34.6467 44.9848 29.0108 45.216C51.3911 42.5914 73.8532 40.4021 96.3833 39.3822L104.824 38.9063L113.277 38.6071L130.185 38.036C141.457 37.8592 152.729 37.6416 164.014 37.696C175.286 37.7096 186.558 37.9272 197.83 38.1855L214.738 38.7567C220.374 38.9743 225.996 39.2734 231.632 39.5454C254.135 40.7285 276.624 42.5099 299.004 45.216Z" fill="#CF072C"/>
<path d="M9.53728 12.2422C10.69 12.2452 11.8453 12.2422 12.998 12.2452C12.998 14.5802 13.004 16.9152 12.995 19.2532C14.7871 16.9182 16.5764 14.5802 18.3685 12.2422C19.7892 12.2452 21.2103 12.2422 22.634 12.2452C20.5618 14.9776 18.4423 17.6688 16.3641 20.3956C18.4333 23.1046 20.5528 25.7753 22.5954 28.5078C21.1865 28.5225 19.7805 28.5078 18.3742 28.5195C16.9857 26.732 15.6006 24.948 14.2355 23.1428C13.8169 23.6816 13.4012 24.2235 12.9916 24.7653C13.0034 26.0166 12.9977 27.2652 12.9977 28.5165C11.851 28.5078 10.7074 28.5047 9.56345 28.5372C9.49602 23.1076 9.55204 17.6749 9.53728 12.2422Z" fill="#424653"/>
<path d="M23.6586 12.2383C24.8099 12.25 25.9646 12.247 27.1159 12.2443C27.1246 17.677 27.1159 23.1067 27.1189 28.539C25.9616 28.5451 24.8042 28.5421 23.6498 28.539C23.6586 23.1063 23.6347 17.6737 23.6586 12.2383Z" fill="#424653"/>
<path d="M34.1988 12.2542C35.3327 12.2394 36.4632 12.2424 37.5971 12.2424C37.6031 17.6751 37.5971 23.1075 37.6001 28.5402H34.2048C34.2018 26.3784 34.2048 24.2167 34.2048 22.0519C32.457 22.0489 30.7149 22.0549 28.9701 22.0519C28.4505 21.0138 27.8896 19.9964 27.373 18.9582C29.6521 18.9495 31.9286 18.9613 34.2082 18.9495C34.1988 16.7164 34.2108 14.4836 34.1988 12.2542Z" fill="#424653"/>
<path d="M44.935 12.4098C47.3091 11.9182 49.9217 12.4815 51.7403 14.1258C55.2594 16.9973 55.4982 22.8784 52.3562 26.1121C49.6802 29.0383 44.6733 29.3831 41.6517 26.7961C38.2014 24.1518 37.7036 18.6615 40.3397 15.2843C41.4501 13.8068 43.1191 12.7693 44.935 12.4098ZM45.5908 15.3764C42.4025 16.1438 41.1163 20.2515 42.6155 22.9793C43.5823 25.0978 46.3419 26.1929 48.454 25.1122C51.3461 23.7296 52.0623 19.579 50.1747 17.1012C49.1733 15.6666 47.2943 14.9452 45.5908 15.3764Z" fill="#424653"/>
<path d="M55.6268 12.2422C58.0875 12.2539 60.5512 12.2305 63.0152 12.2509C66.6061 12.3334 69.896 15.0923 70.6042 18.6112C71.4214 21.977 69.781 25.7495 66.7567 27.4415C65.1102 28.4612 63.1303 28.6321 61.2392 28.5289C60.7317 27.5712 60.2067 26.6218 59.7138 25.6581C61.5874 25.5874 63.6972 25.9969 65.3081 24.7828C68.17 22.814 68.1878 18.0335 65.3464 16.044C63.5023 14.6617 61.0769 15.2364 58.9436 15.1214C58.9466 19.5897 58.9436 28.5259 58.9436 28.5259L55.6302 28.5346C55.6298 28.5353 55.6238 17.6712 55.6268 12.2422Z" fill="#424653"/>
<path d="M71.8857 12.2424C74.3524 12.2484 76.8161 12.2424 79.2824 12.2424C81.2205 12.2246 83.1286 13.296 84.133 14.9514C85.3736 16.9107 85.3145 19.6462 83.873 21.4876C83.235 22.3786 82.2926 22.9717 81.3117 23.4204C82.7089 25.1083 85.4356 28.5371 85.4356 28.5371L81.1081 28.5163C81.1081 28.5163 78.5853 25.35 77.3327 23.7596C76.6238 23.7535 75.9147 23.7535 75.2088 23.7535C75.2028 25.35 75.2058 26.9494 75.2058 28.5455C74.1011 28.5485 72.9961 28.5455 71.8914 28.5542C71.8709 23.1162 71.8826 17.6778 71.8857 12.2424ZM75.2061 15.1963V20.431C76.5739 20.4193 77.9416 20.4635 79.3123 20.4223C80.3727 20.434 81.3536 19.6375 81.5928 18.6104C82.0299 17.2529 81.1735 15.5887 79.7732 15.2466C78.2546 15.1196 76.7275 15.2315 75.2061 15.1963Z" fill="#424653"/>
<path d="M92.0759 12.4765C94.5885 11.8512 97.4001 12.4909 99.3297 14.2348C102.598 17.112 102.879 22.5996 100.007 25.8468C97.5407 28.7786 92.88 29.3982 89.7095 27.2666C86.3007 25.1152 85.1548 20.3219 86.8982 16.7534C87.863 14.6449 89.8275 13.0415 92.0759 12.4765ZM92.7079 15.4599C89.1784 16.6502 88.4347 21.785 91.0164 24.2664C92.4925 25.7955 95.1343 25.9503 96.7513 24.5563C99.0573 22.663 99.2324 18.8193 97.1992 16.6619C96.0992 15.4398 94.2729 14.9348 92.7079 15.4599Z" fill="#424653"/>
<path d="M110.149 12.2415C111.345 12.2388 112.543 12.2308 113.742 12.2576C112.107 15.6643 110.429 19.0518 108.81 22.4665C111.725 22.4638 114.639 22.4665 117.554 22.4665C117.554 23.4514 117.554 24.4363 117.557 25.4238C116.862 25.4265 115.472 25.4238 115.472 25.4238L115.465 28.5376H112.243L112.229 25.4211L105.023 25.4158L105.022 22.4655C105.022 22.4652 108.575 15.3385 110.149 12.2415Z" fill="#FF793F"/>
<path d="M120.6 12.241L130.028 12.2383L130.036 15.1503H120.205L120.6 12.241Z" fill="#FF793F"/>
<path d="M119.96 17.029C121.199 16.4909 122.436 15.942 123.676 15.3984C123.603 16.0988 123.53 16.7965 123.441 17.4942C124.997 17.4781 126.667 17.6671 127.902 18.7109C130.011 20.2792 130.66 23.4349 129.347 25.7089C127.934 28.3505 124.283 29.2727 121.673 27.929C120.352 27.3043 119.318 26.1794 118.777 24.8276C119.811 24.4328 120.845 24.0407 121.889 23.6839C122.295 24.9224 123.619 25.847 124.929 25.3983C126.44 25.0333 127.098 23.1269 126.391 21.8183C125.839 20.9829 124.799 20.68 123.86 20.5476C122.398 20.3043 120.92 20.5258 119.45 20.4826C119.627 19.3302 119.786 18.1781 119.96 17.029Z" fill="#FF793F"/>
<path d="M112.222 19.1055H115.468V22.2296C114.401 21.7049 113.342 21.1586 112.265 20.6557C112.243 20.1389 112.232 19.6222 112.222 19.1055Z" fill="#FF793F"/>
<g clip-path="url(#clip0_15576_7138)">
<path d="M316.653 19.6655C318.008 19.6655 319.107 18.5704 319.107 17.2195C319.107 15.8686 318.008 14.7734 316.653 14.7734C315.298 14.7734 314.199 15.8686 314.199 17.2195C314.199 18.5704 315.298 19.6655 316.653 19.6655Z" fill="#F7931D"/>
<path d="M308.108 31.1382C309.463 31.1382 310.562 30.043 310.562 28.6921C310.562 27.3412 309.463 26.2461 308.108 26.2461C306.753 26.2461 305.654 27.3412 305.654 28.6921C305.654 30.043 306.753 31.1382 308.108 31.1382Z" fill="#F7931D"/>
<path d="M302.551 31.1382C303.906 31.1382 305.005 30.043 305.005 28.6921C305.005 27.3412 303.906 26.2461 302.551 26.2461C301.196 26.2461 300.097 27.3412 300.097 28.6921C300.097 30.043 301.196 31.1382 302.551 31.1382Z" fill="#F7931D"/>
<path d="M297.066 31.1382C298.421 31.1382 299.52 30.043 299.52 28.6921C299.52 27.3412 298.421 26.2461 297.066 26.2461C295.711 26.2461 294.613 27.3412 294.613 28.6921C294.613 30.043 295.711 31.1382 297.066 31.1382Z" fill="#F7931D"/>
<path d="M319.107 9.42554V13.2529C319.107 13.4687 318.933 13.6414 318.731 13.6701C311.038 14.2888 313.246 20.7637 303.071 20.0299C302.782 20.0155 302.566 19.7709 302.566 19.4831C302.566 18.6198 302.566 16.85 302.566 15.9435C302.566 15.627 302.825 15.3824 303.143 15.3968C311.053 15.6989 311.11 8.53345 318.832 9.13777C318.977 9.15215 319.107 9.28165 319.107 9.42554Z" fill="#EC1C2F"/>
<path d="M309.162 20.1596C310.028 19.8575 310.937 19.4402 311.702 18.8359C311.89 18.6776 312.178 18.8215 312.178 19.0661V22.3323C312.178 22.6632 312.077 23.0086 311.904 23.282C311.37 24.0877 310.013 25.6561 305.077 25.6561H293.602C293.198 25.6561 292.88 25.3395 292.88 24.9366V21.5553C292.88 21.1668 293.198 20.8359 293.602 20.8359L305.135 20.8215C306.506 20.8071 307.863 20.6057 309.162 20.1596Z" fill="#EC1C2F"/>
</g>
<defs>
<clipPath id="clip0_15576_7138">
<rect width="27.8571" height="24" fill="white" transform="translate(292 8)"/>
</clipPath>
</defs>
</svg>
