<svg width="328" height="212" viewBox="0 0 328 212" fill="none" xmlns="http://www.w3.org/2000/svg">
<path d="M0.175723 9.77629C0.175723 4.48649 4.49115 0.175781 9.78675 0.175781H318.211C323.506 0.175781 327.822 4.48649 327.822 9.77629V65.5164C323.86 64.9996 260.395 57.0309 166.926 57.0309C110.553 57.0309 54.4521 59.8866 0.162109 65.5164V9.77629H0.175723Z" fill="white"/>
<path d="M318.212 0.339962C323.426 0.339962 327.66 4.56908 327.66 9.77729V65.327C322.173 64.6199 259.157 56.8688 166.94 56.8688C110.636 56.8688 54.5895 59.7244 0.340334 65.3406V9.77729C0.340334 4.56908 4.57409 0.339962 9.788 0.339962H318.212ZM318.212 0H9.788C4.3835 0 0 4.37871 0 9.77729V65.7078C61.437 59.3301 118.341 57.1951 166.94 57.1951C264.113 57.1951 328 65.7078 328 65.7078V9.77729C328 4.37871 323.617 0 318.212 0Z" fill="#A9A9A9"/>
<path d="M328 54.4745V202.398C328 207.702 323.698 211.999 318.389 211.999H9.61102C4.30182 211.999 0 207.702 0 202.398V54.4745C184.27 35.3278 328 54.4745 328 54.4745Z" fill="#CF072C"/>
<path d="M299.005 45.216C287.747 44.6992 276.502 44.1417 265.244 43.8017C253.999 43.3802 242.741 43.0538 231.497 42.741C208.994 42.1563 186.491 41.8027 164.002 41.8027C141.499 41.6804 119.01 42.0067 96.5067 42.5778L79.6398 43.0402L62.7592 43.6929L54.3189 43.9785L45.8923 44.4136C40.27 44.7264 34.6476 44.9848 29.0117 45.216C51.3921 42.5914 73.8541 40.4021 96.3842 39.3822L104.824 38.9063L113.278 38.6071L130.186 38.036C141.458 37.8592 152.73 37.6416 164.015 37.696C175.287 37.7096 186.559 37.9272 197.831 38.1855L214.739 38.7567C220.375 38.9743 225.997 39.2734 231.633 39.5454C254.136 40.7285 276.625 42.5099 299.005 45.216Z" fill="#CF072C"/>
<path fill-rule="evenodd" clip-rule="evenodd" d="M245.273 27.6116C245.239 26.7044 244.41 26.6066 244.231 26.5956H242.841C242.718 26.5956 242.228 26.6165 241.974 26.9757V26.3166V25.8224V25.5335C241.974 25.5203 241.974 25.506 241.974 25.4928V25.4731C241.971 25.315 241.927 25.1603 241.845 25.0249C241.682 24.7844 241.373 24.6328 240.987 24.6328H240.787V25.8235V28.6551V28.6924C240.787 29.7677 241.864 29.7677 241.864 29.7677H244.23C244.411 29.7567 245.273 29.6579 245.273 28.6935V28.5354V28.4255C245.273 27.6764 245.273 27.951 245.273 27.951V27.6149V27.6116ZM241.975 27.4216H243.86C243.92 27.4258 243.977 27.4527 244.017 27.4967C244.058 27.5408 244.081 27.5988 244.08 27.6588V27.9027V28.5354V28.699V28.7056V28.7111V28.7177V28.7243V28.7298V28.7364V28.7418V28.7473V28.7539V28.7594V28.7649L244.074 28.7814V28.7913L244.067 28.8012C244.058 28.8138 244.049 28.8256 244.037 28.8363C243.993 28.8806 243.933 28.9055 243.87 28.9055H242.206C242.149 28.9043 242.094 28.8827 242.052 28.8446C242.01 28.8064 241.983 28.7544 241.976 28.6979V28.4244V27.3908L241.975 27.4216Z" fill="#1D1D1B"/>
<path d="M270.614 27.6058C270.649 26.6832 271.505 26.5975 271.664 26.5898H274.101C274.687 26.6019 275.156 26.9831 275.176 27.6168V27.8365C275.174 27.9946 275.109 28.1455 274.997 28.2565C274.884 28.3674 274.732 28.4296 274.574 28.4296H272.467C272.352 28.4336 272.238 28.4149 272.13 28.3747C272.052 28.3529 271.981 28.3117 271.924 28.2551C271.866 28.1984 271.824 28.1281 271.8 28.0507C271.8 28.099 271.8 28.6976 271.8 28.6976C271.801 28.7604 271.826 28.8204 271.87 28.8647C271.915 28.9089 271.975 28.9338 272.038 28.9338H274.181C274.621 28.97 275.04 29.2567 275.067 29.7565H271.659C271.498 29.7488 270.607 29.6598 270.607 28.6823V27.6069L270.614 27.6058ZM273.82 27.9189C273.843 27.919 273.864 27.9148 273.885 27.9064C273.905 27.898 273.924 27.8856 273.94 27.87C273.955 27.8544 273.968 27.8358 273.976 27.8153C273.985 27.7949 273.989 27.7729 273.989 27.7508V27.5773C273.987 27.5344 273.97 27.4937 273.939 27.4635C273.909 27.4333 273.868 27.4158 273.825 27.4147H272.027C271.967 27.4192 271.911 27.4459 271.871 27.4897C271.83 27.5335 271.807 27.5911 271.807 27.6509V27.9178L273.82 27.9189Z" fill="#1D1D1B"/>
<path d="M275.954 24.625H276.153C276.539 24.625 276.848 24.7766 277.011 25.0182C277.102 25.1714 277.147 25.3476 277.141 25.5257V29.7621H275.953C275.953 28.0494 275.953 26.3377 275.953 24.6272L275.954 24.625Z" fill="#1D1D1B"/>
<path d="M278.107 24.625H278.308C278.694 24.625 279.003 24.7766 279.165 25.0182C279.256 25.1714 279.302 25.3476 279.295 25.5257V29.7621H278.107V24.625Z" fill="#1D1D1B"/>
<path d="M285.664 26.5862V25.5273H285.863C286.249 25.5273 286.558 25.6778 286.721 25.9195C286.813 26.0728 286.858 26.2494 286.852 26.428V26.584H287.411V27.4111H286.852V28.4446V28.6918C286.853 28.7537 286.878 28.8127 286.922 28.8563C286.966 28.9 287.025 28.9249 287.087 28.9257H287.41V29.7572H286.74C286.74 29.7572 285.663 29.7572 285.663 28.6819V28.6226V28.1755V28.0954V27.701V27.6406V27.4286V27.4209H285.113V26.5939L285.664 26.5862Z" fill="#1D1D1B"/>
<path d="M263.215 26.5929H263.415C263.795 26.5929 264.1 26.739 264.265 26.974C264.367 26.8485 264.496 26.7485 264.643 26.6819C264.79 26.6154 264.951 26.5841 265.112 26.5907H266.039C266.039 26.5907 266.568 26.5907 266.883 26.962C266.985 26.8404 267.114 26.7438 267.259 26.6794C267.404 26.6151 267.561 26.5847 267.72 26.5907H268.72C268.761 26.591 268.802 26.5936 268.843 26.5984C269.106 26.628 269.785 26.7884 269.816 27.6078V29.7639H268.629V29.1741C268.629 29.1646 268.629 29.155 268.629 29.1455V27.6484C268.627 27.59 268.604 27.5343 268.563 27.4922C268.523 27.45 268.468 27.4243 268.409 27.42H267.093C267.105 27.4827 267.111 27.5463 267.113 27.61V29.7639H265.926V27.6473C265.924 27.5888 265.901 27.5328 265.86 27.4907C265.819 27.4485 265.764 27.4233 265.706 27.42H264.4V29.7617H263.213C263.213 28.7051 263.213 27.6488 263.213 26.5929H263.215Z" fill="#1D1D1B"/>
<path d="M284.641 28.209V28.3056V29.7665H284.438C284.069 29.7665 283.771 29.6281 283.603 29.4051C283.33 29.7698 282.809 29.7698 282.73 29.7676H281.228C281.067 29.7599 280.177 29.6709 280.177 28.6934V28.5363V28.3638C280.177 28.1782 280.17 27.9498 280.17 27.6708C280.17 26.7196 281.012 26.6097 281.207 26.5977H283.565C283.565 26.5977 284.642 26.5977 284.642 27.673C284.642 27.7718 284.642 27.8641 284.642 27.9498V28.2112L284.641 28.209ZM283.453 28.9361V27.64C283.449 27.5804 283.422 27.5246 283.378 27.4839C283.334 27.4431 283.277 27.4205 283.217 27.4203H281.578C281.527 27.4247 281.478 27.4456 281.44 27.4798C281.401 27.5141 281.375 27.5598 281.364 27.6104V28.5341V28.6978V28.7043V28.7098V28.7164V28.723V28.7285V28.734V28.7395V28.745V28.7505V28.756L281.372 28.7724V28.7823C281.374 28.7854 281.376 28.7887 281.377 28.7922C281.399 28.8242 281.429 28.8504 281.463 28.8686C281.497 28.8868 281.535 28.8964 281.574 28.8966H283.425L283.453 28.9361Z" fill="#1D1D1B"/>
<path d="M256.064 24.625H256.265C256.649 24.625 256.96 24.7766 257.121 25.0182C257.213 25.1713 257.258 25.3475 257.252 25.5257V27.7565H257.862C258.552 27.6829 258.915 27.1732 259.149 26.59H260.208C260.122 27.2194 259.78 27.5555 259.346 27.8663C259.757 28.0102 260.187 28.365 260.187 29.1207V29.7621H258.999V28.8021C258.995 28.743 258.968 28.6877 258.925 28.647C258.881 28.6064 258.824 28.5834 258.765 28.5825H257.252V29.7621H256.064V24.625Z" fill="#1D1D1B"/>
<path fill-rule="evenodd" clip-rule="evenodd" d="M251.121 26.5898C251.477 26.5898 251.866 26.681 252.104 26.9776C252.363 26.6008 252.874 26.5887 252.984 26.5909H254.235C254.235 26.5909 255.272 26.5909 255.311 27.608V29.7609H254.123V27.6443C254.12 27.5835 254.095 27.526 254.051 27.4836C254.007 27.4413 253.949 27.4174 253.888 27.4169H252.309V29.7609H251.121V26.5898Z" fill="#1D1D1B"/>
<path fill-rule="evenodd" clip-rule="evenodd" d="M250.367 28.209V28.3056V29.7665H250.164C249.796 29.7665 249.497 29.6281 249.33 29.4051C249.057 29.7698 248.535 29.7698 248.457 29.7676H246.95C246.79 29.7599 245.899 29.6709 245.899 28.6934V28.5363V28.3638C245.899 28.1782 245.893 27.9498 245.893 27.6708C245.893 26.7196 246.735 26.6097 246.929 26.5977H249.288C249.288 26.5977 250.365 26.5977 250.365 27.673C250.365 27.7718 250.365 27.8641 250.365 27.9498V28.2112L250.367 28.209ZM249.178 28.9361V27.64C249.174 27.5802 249.147 27.5243 249.103 27.4835C249.059 27.4427 249.001 27.4202 248.941 27.4203H247.303C247.252 27.4244 247.203 27.4451 247.164 27.4794C247.125 27.5137 247.099 27.5597 247.089 27.6104V28.5341V28.6978V28.7043V28.7098V28.7164V28.723V28.7285V28.734V28.7395V28.745V28.7505V28.756L247.096 28.7724C247.098 28.7755 247.1 28.7788 247.101 28.7823L247.108 28.7922C247.129 28.8244 247.159 28.8508 247.193 28.869C247.227 28.8872 247.266 28.8967 247.304 28.8966H249.154L249.178 28.9361Z" fill="#1D1D1B"/>
<path fill-rule="evenodd" clip-rule="evenodd" d="M256.063 17.6609V15.3071C255.907 15.3071 255.751 15.3071 255.595 15.3071C254.689 15.3071 253.963 15.663 253.581 16.2286C253.38 16.5241 253.278 16.9612 253.278 17.4226V19.3458C253.278 19.6555 253.155 19.9525 252.936 20.1718C252.717 20.3911 252.42 20.5147 252.11 20.5156H244.743C244.432 20.5156 244.134 20.3924 243.915 20.173C243.695 19.9536 243.572 19.6561 243.572 19.3458V17.4368C243.577 17.0997 243.495 16.767 243.332 16.4714C243.17 16.1758 242.934 15.9275 242.646 15.7508C242.117 15.4446 241.512 15.2924 240.901 15.3115H240.791V20.0191C240.791 20.6656 241.048 21.2856 241.505 21.7433C241.962 22.2011 242.582 22.4591 243.229 22.4608H253.203C253.832 22.4541 254.436 22.22 254.905 21.8018C255.363 22.2057 255.945 22.441 256.555 22.4685H258.895C259.545 22.4698 260.174 22.2326 260.662 21.8018C261.15 22.2302 261.778 22.4671 262.429 22.4685H266.108C266.398 22.4686 266.684 22.4037 266.945 22.2786C267.207 22.1535 267.437 21.9714 267.619 21.7458C268.31 22.5344 269.513 22.4685 269.513 22.4685H271.65C272.297 22.4659 272.917 22.2078 273.375 21.7504C273.833 21.293 274.091 20.6735 274.093 20.0268V17.7312C274.087 17.0942 273.831 16.4848 273.381 16.0333C272.931 15.5818 272.323 15.3239 271.685 15.3148H267.757C267.118 15.3216 266.506 15.5784 266.054 16.0301C265.602 16.4818 265.345 17.0925 265.338 17.7312V19.9543C265.332 20.1066 265.266 20.2505 265.156 20.3559C265.046 20.4614 264.899 20.5201 264.747 20.52H263.29C262.979 20.52 262.681 20.3967 262.462 20.1774C262.242 19.958 262.119 19.6605 262.119 19.3502V10.8828H261.65C260.745 10.8828 260.019 11.2376 259.639 11.8044C259.438 12.0998 259.333 12.537 259.333 12.9983V19.3502C259.332 19.6596 259.208 19.9559 258.988 20.1742C258.769 20.3926 258.472 20.5153 258.162 20.5156H255.775C255.945 20.0757 256.041 19.6113 256.062 19.1404C256.062 18.6462 256.062 18.1519 256.062 17.6576L256.063 17.6609ZM250.249 12.828L251.51 14.0835C251.581 14.1553 251.621 14.2524 251.621 14.3537C251.621 14.4549 251.581 14.5521 251.51 14.6239L250.249 15.8837C250.177 15.9551 250.079 15.9952 249.978 15.9952C249.877 15.9952 249.779 15.9551 249.708 15.8837L248.536 14.7162L247.365 15.8837C247.294 15.955 247.197 15.9951 247.095 15.9951C246.994 15.9951 246.897 15.955 246.826 15.8837L245.561 14.6239C245.489 14.5522 245.449 14.455 245.449 14.3537C245.449 14.2524 245.489 14.1552 245.561 14.0835L246.826 12.8236C246.897 12.7523 246.994 12.7123 247.095 12.7123C247.197 12.7123 247.294 12.7523 247.365 12.8236L248.536 13.9934L249.708 12.8236C249.779 12.7523 249.877 12.7122 249.978 12.7122C250.079 12.7122 250.177 12.7523 250.249 12.8236V12.828ZM268.012 20.5233H270.828C270.981 20.5234 271.128 20.4642 271.238 20.3583C271.348 20.2524 271.412 20.1079 271.418 19.9554V17.7026C271.417 17.5474 271.356 17.3986 271.247 17.2882C271.138 17.1778 270.989 17.1148 270.834 17.1128H268.601C268.451 17.113 268.307 17.1698 268.198 17.2717C268.089 17.3736 268.023 17.5131 268.012 17.662V20.5178V20.5233Z" fill="#1D1D1B"/>
<path fill-rule="evenodd" clip-rule="evenodd" d="M303.465 10.8811H303.932C304.838 10.8811 305.564 11.2359 305.946 11.8026C306.147 12.097 306.25 12.5353 306.25 12.9955V19.3441C306.25 19.6536 306.373 19.9505 306.592 20.1697C306.81 20.389 307.107 20.5127 307.417 20.5139H309.322C309.479 20.5139 309.629 20.4519 309.74 20.3415C309.85 20.2311 309.913 20.0814 309.913 19.9252V17.4252C309.913 16.9639 310.023 16.5268 310.219 16.2313C310.6 15.6645 311.326 15.3098 312.231 15.3098H312.698V20.0174C312.698 20.338 312.635 20.6555 312.512 20.9517C312.39 21.248 312.21 21.5171 311.983 21.7439C311.756 21.9706 311.487 22.1505 311.19 22.2732C310.894 22.3959 310.576 22.4591 310.255 22.4591H305.908C305.587 22.4591 305.269 22.3959 304.973 22.2732C304.676 22.1505 304.407 21.9706 304.18 21.7439C303.953 21.5171 303.773 21.248 303.651 20.9517C303.528 20.6555 303.465 20.338 303.465 20.0174V10.8811ZM308.434 23.3927L309.697 24.6548C309.769 24.7266 309.809 24.824 309.809 24.9255C309.809 25.027 309.769 25.1244 309.697 25.1963L308.434 26.4572C308.362 26.5288 308.265 26.5691 308.163 26.5691C308.062 26.5691 307.965 26.5288 307.893 26.4572L306.63 25.1963C306.558 25.1244 306.517 25.027 306.517 24.9255C306.517 24.824 306.558 24.7266 306.63 24.6548L307.893 23.3927C307.965 23.3214 308.062 23.2813 308.163 23.2813C308.265 23.2813 308.362 23.3214 308.434 23.3927ZM286.677 15.3164L286.092 16.4729H287.261C287.44 16.4775 287.617 16.4301 287.769 16.3365C287.922 16.2429 288.044 16.1072 288.12 15.9457L288.462 15.2065C288.617 14.877 288.58 14.5991 288.439 14.4377C288.383 14.369 288.312 14.3136 288.231 14.2756C288.151 14.2376 288.063 14.218 287.974 14.218H287.498L288.083 13.0614H286.913C286.734 13.0566 286.557 13.1039 286.405 13.1975C286.252 13.2911 286.13 13.427 286.053 13.5886L285.711 14.3289C285.556 14.6584 285.595 14.9352 285.735 15.0978C285.791 15.1668 285.862 15.2223 285.943 15.2603C286.023 15.2984 286.111 15.3179 286.2 15.3175L286.677 15.3164ZM298.179 11.6917L299.44 12.9581C299.512 13.03 299.552 13.1271 299.552 13.2283C299.552 13.3296 299.512 13.4267 299.44 13.4985L298.179 14.754C298.108 14.8253 298.01 14.8653 297.909 14.8653C297.808 14.8653 297.711 14.8253 297.639 14.754L296.378 13.4941C296.307 13.4223 296.267 13.3252 296.267 13.2239C296.267 13.1227 296.307 13.0256 296.378 12.9537L297.639 11.6939C297.711 11.6226 297.808 11.5826 297.909 11.5826C298.01 11.5826 298.108 11.6226 298.179 11.6939V11.6917ZM294.727 10.8789H294.259C293.354 10.8789 292.629 11.2337 292.247 11.8004C292.046 12.0948 291.941 12.5331 291.941 12.9933C291.941 15.1095 291.941 17.2257 291.941 19.3419C291.941 19.6516 291.818 19.9486 291.599 20.1679C291.381 20.3872 291.084 20.5108 290.774 20.5117H283.399C283.089 20.5105 282.792 20.3868 282.573 20.1675C282.355 19.9483 282.232 19.6514 282.232 19.3419V17.4362C282.237 17.0993 282.155 16.7667 281.993 16.4711C281.831 16.1756 281.594 15.9271 281.307 15.7502C280.778 15.4441 280.173 15.2919 279.561 15.3109H279.451V20.0273C279.453 20.6722 279.711 21.29 280.168 21.7458C280.625 22.2017 281.243 22.4585 281.889 22.4602H291.592C292.212 22.4409 292.807 22.2054 293.272 21.7946C293.747 22.2141 294.357 22.4504 294.992 22.4613H298.738C299.386 22.4613 300.008 22.2041 300.466 21.7462C300.925 21.2882 301.182 20.6672 301.182 20.0196V15.3065H300.715C299.809 15.3065 299.083 15.6612 298.702 16.228C298.5 16.5235 298.396 16.9606 298.396 17.4219V19.9548C298.389 20.1059 298.323 20.2485 298.213 20.3528C298.104 20.4571 297.958 20.5152 297.806 20.515H295.894C295.584 20.5141 295.287 20.3905 295.068 20.1712C294.849 19.9519 294.727 19.6549 294.727 19.3452V10.8811V10.8789Z" fill="#1D1D1B"/>
<path fill-rule="evenodd" clip-rule="evenodd" d="M226.472 11.5126L222.43 13.8928C221.388 14.3179 221.6 15.4657 221.6 15.4657L221.582 24.1429L223.749 22.9105C222.621 18.6543 226.472 17.9316 226.472 17.9316V14.5266C226.536 13.4634 227.302 14.1224 227.302 14.1224L232.651 17.1836L232.621 15.525C232.651 14.1444 231.834 13.9313 231.834 13.9313L227.728 11.5126C227.551 11.3735 227.334 11.2963 227.109 11.293C226.879 11.2974 226.656 11.3743 226.472 11.5126Z" fill="url(#paint0_radial_14908_3788)"/>
<path fill-rule="evenodd" clip-rule="evenodd" d="M227.102 11.4948C226.918 11.4948 226.74 11.5555 226.594 11.6674L226.584 11.6748L222.52 14.0684L222.506 14.0738C222.059 14.2562 221.885 14.5867 221.818 14.8812C221.784 15.0308 221.778 15.1701 221.782 15.2725C221.783 15.3234 221.787 15.3643 221.79 15.3917C221.792 15.4054 221.793 15.4157 221.794 15.4221C221.795 15.4252 221.795 15.4274 221.795 15.4286L221.795 15.429L221.795 15.4293L221.795 15.4295L221.799 15.4469L221.782 23.7985L223.524 22.8114C223.275 21.7878 223.308 20.9553 223.514 20.2809C223.729 19.5742 224.128 19.0552 224.562 18.6792C224.994 18.3042 225.461 18.0709 225.819 17.9312C225.998 17.8612 226.15 17.8143 226.259 17.7846C226.265 17.7829 226.271 17.7813 226.277 17.7797V14.5244L226.278 14.5188C226.294 14.2358 226.358 14.0226 226.484 13.8853C226.622 13.7357 226.798 13.7119 226.943 13.735C227.08 13.7569 227.205 13.8216 227.287 13.8722C227.329 13.8986 227.365 13.9238 227.39 13.9426C227.4 13.9507 227.409 13.9578 227.416 13.9633L232.45 16.8442L232.426 15.5281L232.426 15.5242C232.44 14.8757 232.256 14.5277 232.093 14.3442C232.01 14.2506 231.928 14.1943 231.868 14.1621C231.839 14.1459 231.815 14.1358 231.8 14.1301C231.796 14.1286 231.793 14.1274 231.79 14.1265C231.788 14.1257 231.786 14.1251 231.785 14.1248C231.785 14.1246 231.784 14.1245 231.784 14.1244L231.759 14.1179L227.619 11.6748L227.61 11.6674C227.464 11.5555 227.286 11.4948 227.102 11.4948ZM227.176 14.2751L227.176 14.2749C227.175 14.2743 227.174 14.2731 227.172 14.2715C227.168 14.2682 227.161 14.263 227.153 14.2565C227.135 14.2434 227.11 14.2254 227.079 14.2066C227.015 14.1669 226.943 14.1333 226.881 14.1233C226.826 14.1146 226.798 14.1254 226.774 14.1513C226.739 14.1892 226.686 14.291 226.671 14.5357V18.098L226.511 18.1281L226.51 18.1282L226.509 18.1284C226.509 18.1285 226.508 18.1287 226.507 18.1289C226.506 18.1291 226.504 18.1294 226.503 18.1297C226.497 18.1309 226.487 18.133 226.475 18.1358C226.449 18.1416 226.411 18.1508 226.363 18.164C226.265 18.1905 226.126 18.2332 225.962 18.2974C225.633 18.4261 225.208 18.6391 224.82 18.9762C224.432 19.3121 224.08 19.7708 223.89 20.3952C223.7 21.0198 223.668 21.8241 223.942 22.8581L223.981 23.0046L221.387 24.4744L221.405 15.4803C221.403 15.4698 221.401 15.4553 221.399 15.4374C221.395 15.4003 221.39 15.3483 221.388 15.2849C221.384 15.1588 221.391 14.9846 221.434 14.7942C221.521 14.4114 221.759 13.9594 222.344 13.7154L226.364 11.3482C226.577 11.1882 226.836 11.1016 227.102 11.1016C227.368 11.1016 227.627 11.1882 227.84 11.3482L231.916 13.754C231.924 13.7564 231.932 13.7594 231.941 13.7629C231.971 13.7743 232.011 13.7916 232.057 13.817C232.15 13.8678 232.27 13.9511 232.388 14.0833C232.625 14.3511 232.835 14.7988 232.82 15.5287L232.856 17.5297L227.19 14.2871L227.177 14.2754L227.177 14.2754L227.176 14.2752L227.176 14.2752L227.176 14.2751Z" fill="url(#paint1_linear_14908_3788)"/>
<path fill-rule="evenodd" clip-rule="evenodd" d="M227.58 15.5195L235.167 19.913C235.167 19.913 236.279 20.3096 236.135 21.42L236.217 26.0947C236.25 26.3183 236.206 26.5463 236.093 26.742C235.98 26.9376 235.804 27.0896 235.594 27.1733L231.434 29.4799C231.434 29.4799 230.844 30.0752 229.647 29.3525L228.189 28.5375L233.523 25.4862C233.523 25.4862 234.481 25.1567 233.582 24.5691L230.601 22.8534C230.601 22.8534 231.876 19.1793 227.591 18.003L227.58 15.5195Z" fill="url(#paint2_linear_14908_3788)"/>
<path fill-rule="evenodd" clip-rule="evenodd" d="M227.381 15.1758L235.251 19.7334C235.261 19.7373 235.275 19.7429 235.292 19.7502C235.326 19.7651 235.374 19.7872 235.431 19.8174C235.543 19.8774 235.692 19.9706 235.837 20.1035C236.128 20.3701 236.407 20.8018 236.331 21.4289L236.413 26.0778C236.448 26.3409 236.395 26.6085 236.262 26.8386C236.129 27.0688 235.924 27.2483 235.678 27.3494L231.549 29.6391C231.543 29.644 231.536 29.6495 231.529 29.6556C231.504 29.6755 231.469 29.7012 231.424 29.7285C231.333 29.7831 231.2 29.8443 231.026 29.8785C230.674 29.9478 230.179 29.9018 229.547 29.5209L227.789 28.5379L233.441 25.3047L233.458 25.2989L233.458 25.2988L233.458 25.2987L233.458 25.2987L233.459 25.2986C233.459 25.2983 233.461 25.2977 233.464 25.2967C233.468 25.2949 233.476 25.2919 233.486 25.2878C233.506 25.2794 233.534 25.2668 233.566 25.2502C233.632 25.215 233.697 25.1702 233.736 25.1222C233.77 25.0806 233.775 25.0523 233.764 25.0191C233.748 24.9694 233.685 24.8712 233.478 24.735L230.36 22.941L230.414 22.7876L230.414 22.7874L230.414 22.7864C230.415 22.7852 230.415 22.7831 230.416 22.7802C230.418 22.7744 230.421 22.7652 230.425 22.7529C230.432 22.7283 230.443 22.691 230.456 22.6425C230.481 22.5456 230.512 22.4045 230.537 22.2311C230.588 21.8834 230.612 21.4112 230.509 20.9068C230.407 20.4041 230.179 19.8697 229.725 19.3906C229.271 18.9113 228.581 18.4773 227.538 18.1909L227.394 18.1514L227.381 15.1758ZM230.832 22.7586L233.684 24.3999L233.688 24.4029C233.927 24.559 234.081 24.7212 234.138 24.8982C234.201 25.092 234.135 25.2564 234.041 25.3705C233.954 25.4784 233.835 25.5527 233.75 25.5977C233.706 25.6211 233.666 25.6388 233.637 25.6508C233.625 25.656 233.614 25.6602 233.606 25.6633L228.588 28.5339L229.745 29.1809L229.748 29.1826C230.311 29.5228 230.709 29.5403 230.95 29.4927C231.074 29.4684 231.164 29.426 231.221 29.3916C231.249 29.3743 231.27 29.3591 231.282 29.3493C231.285 29.347 231.287 29.3449 231.289 29.3433C231.292 29.3415 231.293 29.3401 231.294 29.3392C231.294 29.3389 231.295 29.3386 231.295 29.3384L231.313 29.32L235.508 26.9937L235.52 26.9891C235.689 26.9217 235.83 26.7995 235.921 26.642C236.012 26.4846 236.048 26.3012 236.022 26.1213L236.02 26.109L235.937 21.4074L235.939 21.3931C236 20.9177 235.797 20.6006 235.571 20.3934C235.456 20.2884 235.337 20.2131 235.245 20.1641C235.199 20.1397 235.161 20.1222 235.136 20.1111C235.123 20.1055 235.113 20.1016 235.107 20.0992C235.104 20.098 235.102 20.0972 235.101 20.0967L235.1 20.0966L235.1 20.0965L235.1 20.0965L235.1 20.0964L235.083 20.0905L227.778 15.86L227.786 17.8528C228.808 18.155 229.522 18.6038 230.011 19.1204C230.523 19.661 230.78 20.2657 230.895 20.8285C231.009 21.3897 230.982 21.9096 230.927 22.2875C230.899 22.4769 230.865 22.6321 230.837 22.7407C230.835 22.7468 230.834 22.7528 230.832 22.7586Z" fill="url(#paint3_linear_14908_3788)"/>
<path fill-rule="evenodd" clip-rule="evenodd" d="M232.146 25.0494L224.503 29.3594C224.503 29.3594 223.597 30.1151 222.712 29.4286L218.637 27.1286C218.428 27.0432 218.253 26.89 218.141 26.6936C218.03 26.4972 217.987 26.2689 218.021 26.0456L218.141 21.2951C218.141 21.2951 217.928 20.4845 219.158 19.8211L220.601 18.9688L220.529 25.1087C220.529 25.1087 220.325 26.0972 221.291 25.6227L224.284 23.9268C224.284 23.9268 226.813 26.8925 229.996 23.795L232.146 25.0494Z" fill="url(#paint4_linear_14908_3788)"/>
<path fill-rule="evenodd" clip-rule="evenodd" d="M220.803 18.625L220.727 25.1333L220.724 25.1513L220.724 25.1514L220.724 25.1518L220.723 25.152C220.723 25.1525 220.723 25.1531 220.723 25.1539C220.723 25.1548 220.723 25.1559 220.723 25.1573C220.722 25.1624 220.72 25.1706 220.719 25.1812C220.716 25.2026 220.712 25.2331 220.711 25.2685C220.707 25.3433 220.713 25.4212 220.734 25.4787C220.752 25.5284 220.774 25.5464 220.809 25.554C220.86 25.5655 220.977 25.561 221.201 25.4521L224.33 23.679L224.435 23.8025L224.436 23.8027L224.436 23.8035C224.437 23.8044 224.439 23.8061 224.441 23.8084C224.445 23.813 224.451 23.8202 224.46 23.8297C224.477 23.8487 224.504 23.8769 224.54 23.9123C224.611 23.9831 224.717 24.082 224.854 24.1918C225.129 24.4119 225.525 24.6722 226.012 24.8399C226.498 25.007 227.075 25.0821 227.718 24.9341C228.361 24.786 229.085 24.4115 229.86 23.6576L229.967 23.5532L232.543 25.0556L224.615 29.5262C224.607 29.5329 224.595 29.5419 224.58 29.5527C224.55 29.5748 224.506 29.6048 224.452 29.638C224.343 29.7042 224.187 29.7852 223.999 29.8428C223.621 29.9583 223.107 29.9795 222.604 29.5963L218.552 27.309C218.307 27.206 218.103 27.025 217.972 26.794C217.84 26.563 217.789 26.2952 217.826 26.0323L217.945 21.3162C217.944 21.3089 217.942 21.3003 217.941 21.2908C217.936 21.2593 217.932 21.2161 217.932 21.1632C217.931 21.0572 217.945 20.9122 218.004 20.7451C218.123 20.4069 218.414 20.004 219.063 19.6533L220.803 18.625ZM224.379 29.2117L224.379 29.2117L224.379 29.2115L224.392 29.2004L231.753 25.0499L230.026 24.0428C229.248 24.7704 228.5 25.1577 227.806 25.3173C227.08 25.4844 226.428 25.3988 225.884 25.2117C225.342 25.0252 224.906 24.7377 224.608 24.4986C224.458 24.3787 224.341 24.2701 224.262 24.1908C224.257 24.1863 224.253 24.1818 224.248 24.1774L221.385 25.8L221.38 25.8025C221.123 25.9285 220.905 25.9782 220.723 25.9379C220.524 25.8936 220.416 25.7535 220.365 25.6153C220.316 25.485 220.313 25.3454 220.317 25.2497C220.32 25.1998 220.325 25.1568 220.329 25.126C220.331 25.1128 220.333 25.1017 220.334 25.093L220.401 19.3192L219.256 19.9956L219.253 19.9975C218.674 20.3098 218.457 20.643 218.375 20.8754C218.334 20.9939 218.325 21.0929 218.325 21.1597C218.325 21.1931 218.328 21.2185 218.33 21.2339C218.332 21.2417 218.333 21.2469 218.333 21.2494C218.333 21.2498 218.333 21.2502 218.333 21.2505L218.34 21.2755L218.219 26.0662L218.217 26.0784C218.19 26.2581 218.224 26.4418 218.314 26.5998C218.404 26.7579 218.544 26.8812 218.713 26.9499L218.724 26.9547L222.823 29.2679L222.834 29.2767C223.213 29.5706 223.59 29.5566 223.883 29.4668C224.032 29.4213 224.158 29.3563 224.247 29.3022C224.291 29.2754 224.325 29.2516 224.348 29.2351C224.359 29.2268 224.368 29.2204 224.373 29.2164C224.375 29.2143 224.377 29.2129 224.378 29.2121L224.378 29.2119L224.379 29.2117Z" fill="url(#paint5_linear_14908_3788)"/>
<path fill-rule="evenodd" clip-rule="evenodd" d="M224.5 21.5867C224.5 22.2727 224.773 22.9306 225.258 23.4157C225.744 23.9008 226.403 24.1734 227.09 24.1734C227.776 24.1734 228.435 23.9008 228.921 23.4157C229.406 22.9306 229.679 22.2727 229.679 21.5867C229.679 20.9007 229.406 20.2427 228.921 19.7576C228.435 19.2725 227.776 19 227.09 19C226.403 19 225.744 19.2725 225.258 19.7576C224.773 20.2427 224.5 20.9007 224.5 21.5867Z" fill="url(#paint6_linear_14908_3788)"/>
<path fill-rule="evenodd" clip-rule="evenodd" d="M226.548 18.858C227.089 18.7508 227.649 18.8061 228.158 19.0168C228.667 19.2275 229.102 19.5843 229.408 20.0419C229.714 20.4996 229.877 21.0376 229.877 21.588C229.877 21.9537 229.805 22.3158 229.665 22.6536C229.525 22.9915 229.319 23.2984 229.06 23.5569C228.801 23.8154 228.494 24.0203 228.156 24.1601C227.817 24.2998 227.455 24.3716 227.089 24.3713C226.538 24.3708 225.999 24.2072 225.541 23.9011C225.083 23.5949 224.727 23.1601 224.516 22.6515C224.306 22.1428 224.251 21.5833 224.359 21.0435C224.466 20.5038 224.732 20.0081 225.122 19.6191C225.511 19.23 226.008 18.9652 226.548 18.858ZM228.007 19.38C227.57 19.1991 227.089 19.1516 226.625 19.2437C226.161 19.3357 225.735 19.5632 225.4 19.8972C225.065 20.2313 224.837 20.657 224.745 21.1205C224.652 21.584 224.699 22.0644 224.88 22.5012C225.061 22.938 225.367 23.3114 225.76 23.5743C226.153 23.8371 226.616 23.9776 227.089 23.9781C227.403 23.9783 227.715 23.9167 228.005 23.7967C228.296 23.6767 228.56 23.5007 228.782 23.2787C229.005 23.0568 229.181 22.7932 229.301 22.5031C229.422 22.213 229.484 21.902 229.484 21.588C229.484 21.1154 229.343 20.6533 229.081 20.2603C228.818 19.8673 228.444 19.561 228.007 19.38Z" fill="url(#paint7_linear_14908_3788)"/>
<path d="M9.53722 12.2422C10.6899 12.2452 11.8453 12.2422 12.9979 12.2452C12.9979 14.5802 13.004 16.9152 12.9949 19.2532C14.787 16.9182 16.5764 14.5802 18.3685 12.2422C19.7892 12.2452 21.2102 12.2422 22.634 12.2452C20.5618 14.9776 18.4423 17.6688 16.364 20.3956C18.4332 23.1046 20.5527 25.7753 22.5954 28.5078C21.1864 28.5225 19.7805 28.5078 18.3742 28.5195C16.9857 26.732 15.6005 24.948 14.2355 23.1428C13.8168 23.6816 13.4012 24.2235 12.9916 24.7653C13.0033 26.0166 12.9976 27.2652 12.9976 28.5165C11.851 28.5078 10.7073 28.5047 9.56339 28.5372C9.49596 23.1076 9.55198 17.6749 9.53722 12.2422Z" fill="#424653"/>
<path d="M23.6594 12.2383C24.8107 12.25 25.9654 12.247 27.1167 12.2443C27.1255 17.677 27.1167 23.1067 27.1198 28.539C25.9624 28.5451 24.805 28.5421 23.6507 28.539C23.6594 23.1063 23.6356 17.6737 23.6594 12.2383Z" fill="#424653"/>
<path d="M34.1989 12.2542C35.3327 12.2394 36.4633 12.2424 37.5972 12.2424C37.6032 17.6751 37.5972 23.1075 37.6002 28.5402H34.2049C34.2019 26.3784 34.2049 24.2167 34.2049 22.0519C32.4571 22.0489 30.715 22.0549 28.9702 22.0519C28.4506 21.0138 27.8897 19.9964 27.373 18.9582C29.6522 18.9495 31.9287 18.9613 34.2082 18.9495C34.1989 16.7164 34.2109 14.4836 34.1989 12.2542Z" fill="#424653"/>
<path d="M44.9342 12.4098C47.3083 11.9182 49.9209 12.4815 51.7395 14.1258C55.2586 16.9973 55.4974 22.8784 52.3554 26.1121C49.6794 29.0383 44.6725 29.3831 41.6509 26.7961C38.2006 24.1518 37.7028 18.6615 40.3389 15.2843C41.4493 13.8068 43.1183 12.7693 44.9342 12.4098ZM45.59 15.3764C42.4017 16.1438 41.1155 20.2515 42.6147 22.9793C43.5815 25.0978 46.3411 26.1929 48.4532 25.1122C51.3453 23.7296 52.0616 19.579 50.1739 17.1012C49.1725 15.6666 47.2935 14.9452 45.59 15.3764Z" fill="#424653"/>
<path d="M55.6258 12.2422C58.0865 12.2539 60.5502 12.2305 63.0142 12.2509C66.6051 12.3334 69.8951 15.0923 70.6032 18.6112C71.4204 21.977 69.78 25.7495 66.7557 27.4415C65.1092 28.4612 63.1293 28.6321 61.2383 28.5289C60.7307 27.5712 60.2057 26.6218 59.7129 25.6581C61.5865 25.5874 63.6962 25.9969 65.3072 24.7828C68.1691 22.814 68.1868 18.0335 65.3454 16.044C63.5013 14.6617 61.0759 15.2364 58.9426 15.1214C58.9457 19.5897 58.9426 28.5259 58.9426 28.5259L55.6292 28.5346C55.6289 28.5353 55.6228 17.6712 55.6258 12.2422Z" fill="#424653"/>
<path d="M71.885 12.2424C74.3517 12.2484 76.8154 12.2424 79.2818 12.2424C81.2198 12.2246 83.1279 13.296 84.1323 14.9514C85.3729 16.9107 85.3139 19.6462 83.8723 21.4876C83.2343 22.3786 82.2919 22.9717 81.311 23.4204C82.7083 25.1083 85.435 28.5371 85.435 28.5371L81.1074 28.5163C81.1074 28.5163 78.5847 25.35 77.332 23.7596C76.6232 23.7535 75.914 23.7535 75.2082 23.7535C75.2021 25.35 75.2051 26.9494 75.2051 28.5455C74.1004 28.5485 72.9954 28.5455 71.8907 28.5542C71.8702 23.1162 71.882 17.6778 71.885 12.2424ZM75.2055 15.1963V20.431C76.5732 20.4193 77.9409 20.4635 79.3116 20.4223C80.3721 20.434 81.353 19.6375 81.5922 18.6104C82.0293 17.2529 81.1728 15.5887 79.7726 15.2466C78.2539 15.1196 76.7268 15.2315 75.2055 15.1963Z" fill="#424653"/>
<path d="M92.0765 12.4765C94.5892 11.8512 97.4008 12.4909 99.3304 14.2348C102.599 17.112 102.88 22.5996 100.008 25.8468C97.5413 28.7786 92.8807 29.3982 89.7101 27.2666C86.3014 25.1152 85.1555 20.3219 86.8989 16.7534C87.8637 14.6449 89.8282 13.0415 92.0765 12.4765ZM92.7086 15.4599C89.1791 16.6502 88.4353 21.785 91.0171 24.2664C92.4932 25.7955 95.135 25.9503 96.752 24.5563C99.058 22.663 99.2331 18.8193 97.1998 16.6619C96.0998 15.4398 94.2735 14.9348 92.7086 15.4599Z" fill="#424653"/>
<path d="M110.148 12.2415C111.344 12.2388 112.542 12.2308 113.741 12.2576C112.106 15.6643 110.428 19.0518 108.809 22.4665C111.724 22.4638 114.638 22.4665 117.553 22.4665C117.553 23.4514 117.553 24.4363 117.556 25.4238C116.861 25.4265 115.471 25.4238 115.471 25.4238L115.464 28.5376H112.242L112.228 25.4211L105.022 25.4158L105.021 22.4655C105.021 22.4652 108.574 15.3385 110.148 12.2415Z" fill="#FF793F"/>
<path d="M120.6 12.241L130.028 12.2383L130.036 15.1503H120.205L120.6 12.241Z" fill="#FF793F"/>
<path d="M119.958 17.029C121.198 16.4909 122.435 15.942 123.675 15.3984C123.602 16.0988 123.529 16.7965 123.439 17.4942C124.996 17.4781 126.666 17.6671 127.901 18.7109C130.009 20.2792 130.659 23.4349 129.346 25.7089C127.933 28.3505 124.281 29.2727 121.672 27.929C120.351 27.3043 119.317 26.1794 118.775 24.8276C119.809 24.4328 120.844 24.0407 121.888 23.6839C122.294 24.9224 123.618 25.847 124.928 25.3983C126.439 25.0333 127.096 23.1269 126.39 21.8183C125.838 20.9829 124.798 20.68 123.859 20.5476C122.397 20.3043 120.919 20.5258 119.449 20.4826C119.625 19.3302 119.785 18.1781 119.958 17.029Z" fill="#FF793F"/>
<path d="M112.221 19.1055H115.467V22.2296C114.4 21.7049 113.342 21.1586 112.264 20.6557C112.242 20.1389 112.231 19.6222 112.221 19.1055Z" fill="#FF793F"/>
<defs>
<radialGradient id="paint0_radial_14908_3788" cx="0" cy="0" r="1" gradientUnits="userSpaceOnUse" gradientTransform="translate(223.354 13.2217) scale(4.52917 4.52422)">
<stop stop-color="white"/>
<stop offset="0.02" stop-color="#FEFAFA"/>
<stop offset="0.29" stop-color="#EEADB0"/>
<stop offset="0.54" stop-color="#E27075"/>
<stop offset="0.75" stop-color="#D9444A"/>
<stop offset="0.91" stop-color="#D32930"/>
<stop offset="1" stop-color="#D11F26"/>
</radialGradient>
<linearGradient id="paint1_linear_14908_3788" x1="223.224" y1="13.1658" x2="227.763" y2="20.7292" gradientUnits="userSpaceOnUse">
<stop stop-color="#EE9D8E"/>
<stop offset="0.02" stop-color="#E9877F"/>
<stop offset="0.05" stop-color="#E06668"/>
<stop offset="0.08" stop-color="#D94954"/>
<stop offset="0.12" stop-color="#D33244"/>
<stop offset="0.16" stop-color="#CF2038"/>
<stop offset="0.21" stop-color="#CB132F"/>
<stop offset="0.28" stop-color="#CA0C2A"/>
<stop offset="0.43" stop-color="#C90A29"/>
<stop offset="0.51" stop-color="#C90A29"/>
<stop offset="1" stop-color="#C90A29"/>
</linearGradient>
<linearGradient id="paint2_linear_14908_3788" x1="227.339" y1="15.6469" x2="233.98" y2="28.1514" gradientUnits="userSpaceOnUse">
<stop stop-color="#E58A76"/>
<stop offset="0.05" stop-color="#E1796C"/>
<stop offset="0.17" stop-color="#D85759"/>
<stop offset="0.3" stop-color="#D03B48"/>
<stop offset="0.44" stop-color="#CA253C"/>
<stop offset="0.58" stop-color="#C61533"/>
<stop offset="0.76" stop-color="#C40C2E"/>
<stop offset="1" stop-color="#C3092C"/>
</linearGradient>
<linearGradient id="paint3_linear_14908_3788" x1="227.381" y1="22.5387" x2="236.426" y2="22.5387" gradientUnits="userSpaceOnUse">
<stop stop-color="#E3032E"/>
<stop offset="1" stop-color="#79292A"/>
</linearGradient>
<linearGradient id="paint4_linear_14908_3788" x1="221.543" y1="18.5096" x2="226.399" y2="28.4761" gradientUnits="userSpaceOnUse">
<stop stop-color="#E58A76"/>
<stop offset="0.02" stop-color="#E27F70"/>
<stop offset="0.08" stop-color="#DA605E"/>
<stop offset="0.14" stop-color="#D3444E"/>
<stop offset="0.22" stop-color="#CD2E41"/>
<stop offset="0.31" stop-color="#C81D38"/>
<stop offset="0.42" stop-color="#C51231"/>
<stop offset="0.57" stop-color="#C30B2D"/>
<stop offset="1" stop-color="#C3092C"/>
</linearGradient>
<linearGradient id="paint5_linear_14908_3788" x1="1385.69" y1="1045.84" x2="1385.69" y2="2150.95" gradientUnits="userSpaceOnUse">
<stop stop-color="#E3032E"/>
<stop offset="1" stop-color="#79292A"/>
</linearGradient>
<linearGradient id="paint6_linear_14908_3788" x1="224.64" y1="18.6705" x2="229.827" y2="24.86" gradientUnits="userSpaceOnUse">
<stop stop-color="#FFD785"/>
<stop offset="0.77" stop-color="#F7AF35"/>
</linearGradient>
<linearGradient id="paint7_linear_14908_3788" x1="227.091" y1="18.8047" x2="227.091" y2="24.3713" gradientUnits="userSpaceOnUse">
<stop stop-color="#F7D68E"/>
<stop offset="1" stop-color="#E1881C"/>
</linearGradient>
</defs>
</svg>
