<svg width="19" height="21" viewBox="0 0 19 21" fill="none" xmlns="http://www.w3.org/2000/svg">
    <path fill-rule="evenodd" clip-rule="evenodd" d="M12.0001 0.416016C12.1035 0.416016 12.1963 0.479723 12.2334 0.576271L12.9041 2.31997C13.0027 2.57633 13.038 2.66315 13.0886 2.73424C13.1372 2.80257 13.1969 2.86227 13.2652 2.91086C13.3363 2.96141 13.4231 2.99676 13.6795 3.09536L15.4232 3.76601C15.5197 3.80315 15.5834 3.89591 15.5834 3.99935C15.5834 4.10279 15.5197 4.19555 15.4232 4.23269L13.6795 4.90334C13.4231 5.00194 13.3363 5.03729 13.2652 5.08784C13.1969 5.13643 13.1372 5.19613 13.0886 5.26445C13.038 5.33555 13.0027 5.42237 12.9041 5.67873L12.2334 7.42243C12.1963 7.51898 12.1035 7.58268 12.0001 7.58268C11.8966 7.58268 11.8039 7.51898 11.7667 7.42243L11.0961 5.67873C10.9975 5.42237 10.9621 5.33555 10.9116 5.26445C10.863 5.19613 10.8033 5.13643 10.735 5.08784C10.6639 5.03729 10.5771 5.00194 10.3207 4.90334L8.577 4.23269C8.48046 4.19555 8.41675 4.10279 8.41675 3.99935C8.41675 3.89591 8.48046 3.80315 8.577 3.76601L10.3207 3.09536C10.5771 2.99676 10.6639 2.96141 10.735 2.91086C10.8033 2.86227 10.863 2.80257 10.9116 2.73424C10.9621 2.66315 10.9975 2.57633 11.0961 2.31997L11.7667 0.576271C11.8039 0.479723 11.8966 0.416016 12.0001 0.416016Z" fill="#FEC84B"/>
    <path fill-rule="evenodd" clip-rule="evenodd" d="M16.9999 8.08398C17.1034 8.08398 17.1961 8.14769 17.2333 8.24424L17.5686 9.11609C17.6202 9.25025 17.632 9.27596 17.646 9.29566C17.6622 9.31844 17.6821 9.33834 17.7049 9.35453C17.7246 9.36854 17.7503 9.38039 17.8845 9.43199L18.7563 9.76731C18.8529 9.80445 18.9166 9.89721 18.9166 10.0007C18.9166 10.1041 18.8529 10.1969 18.7563 10.234L17.8845 10.5693C17.7503 10.6209 17.7246 10.6328 17.7049 10.6468C17.6821 10.663 17.6622 10.6829 17.646 10.7056C17.632 10.7253 17.6202 10.7511 17.5686 10.8852L17.2333 11.7571C17.1961 11.8536 17.1034 11.9173 16.9999 11.9173C16.8965 11.9173 16.8037 11.8536 16.7666 11.7571L16.4313 10.8852C16.3797 10.7511 16.3678 10.7253 16.3538 10.7056C16.3376 10.6829 16.3177 10.663 16.2949 10.6468C16.2752 10.6328 16.2495 10.6209 16.1154 10.5693L15.2435 10.234C15.147 10.1969 15.0833 10.1041 15.0833 10.0007C15.0833 9.89721 15.147 9.80445 15.2435 9.76731L16.1154 9.43199C16.2495 9.38039 16.2752 9.36854 16.2949 9.35453C16.3177 9.33834 16.3376 9.31844 16.3538 9.29566C16.3678 9.27596 16.3797 9.25025 16.4313 9.11609L16.7666 8.24424C16.8037 8.14769 16.8965 8.08398 16.9999 8.08398Z" fill="#FEC84B"/>
    <path fill-rule="evenodd" clip-rule="evenodd" d="M5.96743 6.30365C6.18813 6.52435 6.24908 6.85865 6.12047 7.14303C5.76754 7.92344 5.57069 8.79022 5.57069 9.70501C5.57069 13.1429 8.35766 15.9299 11.7956 15.9299C12.7103 15.9299 13.5771 15.733 14.3575 15.3801C14.6419 15.2515 14.9762 15.3124 15.1969 15.5331C15.4176 15.7538 15.4786 16.0881 15.35 16.3725C14.1386 19.0511 11.4421 20.9173 8.30813 20.9173C4.0418 20.9173 0.583252 17.4588 0.583252 13.1924C0.583252 11.1196 1.4007 9.23603 2.72926 7.84922C3.40811 7.1406 4.22109 6.56078 5.12806 6.15062C5.41244 6.02201 5.74674 6.08296 5.96743 6.30365Z" fill="#FEC84B"/>
</svg>
