<?xml version="1.0" encoding="iso-8859-1"?>
<!-- Generator: Adobe Illustrator 25.0.1, SVG Export Plug-In . SVG Version: 6.00 Build 0)  -->
<svg version="1.1" id="Layer_1" xmlns="http://www.w3.org/2000/svg" xmlns:xlink="http://www.w3.org/1999/xlink" x="0px" y="0px"
	 viewBox="0 0 249.332 196.49" style="enable-background:new 0 0 249.332 196.49;" xml:space="preserve">
<g id="XMLID_1264_">
	<circle id="XMLID_1265_" style="fill:#58595B;" cx="94.286" cy="158.972" r="10.635"/>
</g>
<path style="fill:#58595B;" d="M205.13,39.172l-2.15,7.946c-10.1-16.459-28.248-26.938-48.048-26.938v8
	c16.911,0,32.417,8.911,41.105,22.921l-8.436-2.283l-2.09,7.722l21.623,5.853l5.719-21.131L205.13,39.172z"/>
<g>
	<path style="fill:none;" d="M72.999,25.37h40.399c0.992,0,1.8-0.808,1.8-1.8v-7.692h-44v7.692
		C71.199,24.562,72.006,25.37,72.999,25.37z"/>
	<path style="fill:none;" d="M135.997,15.878h-12.798v7.692c0,5.404-4.396,9.8-9.8,9.8H72.999c-5.404,0-9.801-4.396-9.801-9.8
		v-7.692H51.776c-1.97,0-3.568,1.597-3.568,3.568v153.979c0,1.972,1.599,3.571,3.571,3.571h84.216c1.972,0,3.571-1.599,3.571-3.571
		V19.446C139.565,17.476,137.968,15.878,135.997,15.878z"/>
	<path style="fill:#58595B;" d="M135.994,8.016H51.776c-6.313,0-11.431,5.118-11.431,11.431v153.979
		c0,6.315,5.119,11.433,11.434,11.433h84.216c6.314,0,11.433-5.119,11.433-11.433V19.449
		C147.428,13.134,142.309,8.016,135.994,8.016z M71.199,15.878h44v7.692c0,0.992-0.808,1.8-1.8,1.8H72.999
		c-0.993,0-1.801-0.808-1.801-1.8V15.878z M139.565,173.426c0,1.972-1.599,3.571-3.571,3.571H51.779
		c-1.972,0-3.571-1.599-3.571-3.571V19.446c0-1.971,1.597-3.568,3.568-3.568h11.423v7.692c0,5.404,4.396,9.8,9.801,9.8h40.399
		c5.403,0,9.8-4.396,9.8-9.8v-7.692h12.798c1.97,0,3.568,1.597,3.568,3.568V173.426z"/>
</g>
<g>
	<path style="fill:none;" d="M212.432,100.168c-0.992,0-1.8,0.808-1.8,1.8v40.4c0,0.992,0.808,1.8,1.8,1.8h7.692v-44H212.432z"/>
	<path style="fill:#58595B;" d="M216.556,69.314h-61.624v7.863h61.624c1.971,0,3.568,1.597,3.568,3.568v11.423h-7.692
		c-5.403,0-9.8,4.396-9.8,9.8v40.4c0,5.404,4.396,9.8,9.8,9.8h7.692v12.798c0,1.97-1.597,3.568-3.568,3.568h-61.624v7.863h61.621
		c6.314,0,11.433-5.119,11.433-11.433V80.745C227.987,74.432,222.869,69.314,216.556,69.314z M212.432,144.168
		c-0.992,0-1.8-0.808-1.8-1.8v-40.4c0-0.993,0.808-1.8,1.8-1.8h7.692v44H212.432z"/>
</g>
</svg>
