<svg xmlns="http://www.w3.org/2000/svg" xmlns:xlink="http://www.w3.org/1999/xlink" width="50" height="47" viewBox="0 0 50 47">
    <defs>
        <path id="b" d="M39.537 24.124l-.2-.617-3.814-.955a15.565 15.565 0 0 0-5.206-12.685l-1.554 1.753a13.22 13.22 0 0 1 4.443 10.351l-2.476-.62a10.736 10.736 0 0 0-2.448-6.666l-1.807 1.492a8.392 8.392 0 0 1 1.88 4.58l-2.524-.632a5.98 5.98 0 0 0-1.712-2.963l3.838-13.388-.434-.481c-1.86-2.068-4.6-3.254-7.516-3.254-2.915 0-5.654 1.186-7.514 3.254l-.434.481L13.14 7.55c-.85.42-1.665.92-2.438 1.498a15.68 15.68 0 0 0-5.546 7.837l2.237.695a13.145 13.145 0 0 1 6.402-7.744l.707 2.47a10.733 10.733 0 0 0-2.494 2.058l1.747 1.561a8.328 8.328 0 0 1 1.422-1.265l.718 2.504a5.98 5.98 0 0 0-1.707 2.946l-2.527.625c.087-.967.339-1.9.754-2.782l-2.122-.996a10.619 10.619 0 0 0-1.009 4.366L.673 23.454l-.202.617c-.865 2.644-.528 5.61.925 8.137 1.454 2.527 3.847 4.31 6.566 4.893l.635.136 2.737-2.823a15.535 15.535 0 0 0 8.673 2.643c1.073 0 2.145-.11 3.186-.326l-.478-2.294c-.884.184-1.795.277-2.708.277-2.553 0-4.963-.737-7.006-2.02l1.773-1.829a10.652 10.652 0 0 0 5.233 1.366V29.89c-1.26 0-2.456-.28-3.529-.781l1.81-1.868a5.952 5.952 0 0 0 1.72.252c.591 0 1.163-.086 1.703-.248l9.665 10.024.635-.135c2.72-.574 5.119-2.352 6.578-4.875 1.46-2.523 1.806-5.488.948-8.134zM23.853 26.09a5.985 5.985 0 0 0 2.047-3.531l11.577 2.898c.422 1.855.1 3.874-.915 5.629-1.016 1.755-2.604 3.04-4.424 3.598l-8.285-8.594zM14.677 4.41c1.395-1.294 3.303-2.027 5.33-2.027 2.029 0 3.936.733 5.33 2.027L22.05 15.882a5.94 5.94 0 0 0-2.043-.36 5.94 5.94 0 0 0-2.042.36L14.677 4.409zM7.842 34.65c-1.818-.563-3.404-1.852-4.414-3.61-1.01-1.758-1.328-3.777-.9-5.631l11.585-2.867a5.979 5.979 0 0 0 2.038 3.537l-8.31 8.571zm8.524-13.142a3.646 3.646 0 0 1 3.641-3.643 3.646 3.646 0 0 1 3.643 3.643 3.646 3.646 0 0 1-3.643 3.64 3.646 3.646 0 0 1-3.641-3.64z"/>
        <filter id="a" width="147.5%" height="151%" x="-23.7%" y="-14.8%" filterUnits="objectBoundingBox">
            <feOffset dy="4" in="SourceAlpha" result="shadowOffsetOuter1"/>
            <feGaussianBlur in="shadowOffsetOuter1" result="shadowBlurOuter1" stdDeviation="2.5"/>
            <feColorMatrix in="shadowBlurOuter1" values="0 0 0 0 0.945098039 0 0 0 0 0.364705882 0 0 0 0 0.164705882 0 0 0 0.471809441 0"/>
        </filter>
    </defs>
    <g fill="none" fillRule="nonzero" transform="translate(5 1)">
        <use fill="#000" filter="url(#a)" xlink:href="#b"/>
        <use fill="#F15D2A" xlink:href="#b"/>
    </g>
</svg>
