<svg xmlns="http://www.w3.org/2000/svg" xmlns:xlink="http://www.w3.org/1999/xlink" width="50" height="50" viewBox="0 0 50 50">
    <defs>
        <path id="b" d="M4.516 33.548a1.938 1.938 0 0 0-1.935 1.936c0 1.067.868 1.935 1.935 1.935a1.938 1.938 0 0 0 1.936-1.935 1.938 1.938 0 0 0-1.936-1.936zm0 2.581a.646.646 0 1 1 .002-1.292.646.646 0 0 1-.002 1.292z"/>
        <filter id="a" width="590.8%" height="590.8%" x="-245.4%" y="-142.1%" filterUnits="objectBoundingBox">
            <feOffset dy="4" in="SourceAlpha" result="shadowOffsetOuter1"/>
            <feGaussianBlur in="shadowOffsetOuter1" result="shadowBlurOuter1" stdDeviation="2.5"/>
            <feColorMatrix in="shadowBlurOuter1" values="0 0 0 0 0.945098039 0 0 0 0 0.364705882 0 0 0 0 0.164705882 0 0 0 0.471809441 0"/>
        </filter>
        <path id="d" d="M40 4.75C40 2.133 37.869 0 35.25 0c-1.27 0-2.463.494-3.36 1.392l-2.298 2.297a3.298 3.298 0 0 0-1.67-.463 3.31 3.31 0 0 0-2.804 1.54l-4.005 6.292 1.2 1.2-1.668 1.668-.433-.433a2.016 2.016 0 0 0-2.848 2.848l.433.433-1.668 1.669-.433-.434a2.016 2.016 0 0 0-2.848 2.848l.433.433-1.668 1.669-.434-.434a2.016 2.016 0 0 0-2.848 2.848l.434.433-1.668 1.669-.434-.434a2.016 2.016 0 0 0-2.848 2.848l.434.434-3.125 3.124A3.816 3.816 0 0 0 0 36.161 3.843 3.843 0 0 0 3.839 40c1.025 0 1.989-.4 2.714-1.125l3.124-3.124.434.433a2.016 2.016 0 0 0 2.848-2.848l-.434-.433 1.669-1.668.433.433a2.016 2.016 0 0 0 2.848-2.848l-.434-.433 1.669-1.668.433.433a2.016 2.016 0 0 0 2.848-2.848l-.434-.433 1.669-1.668.433.433a2.016 2.016 0 0 0 2.848-2.848l-.433-.433 1.668-1.669 1.2 1.2 6.292-4.004a3.293 3.293 0 0 0 1.076-4.474l2.298-2.297A4.72 4.72 0 0 0 40 4.75zM5.64 37.964a2.53 2.53 0 0 1-1.801.747A2.551 2.551 0 0 1 1.29 36.16c0-.68.266-1.32.747-1.802l3.124-3.124 3.604 3.604-3.125 3.124zm5.895-2.48a.718.718 0 0 1-.512-.21l-6.295-6.296a.724.724 0 0 1 1.023-1.023l6.295 6.295a.724.724 0 0 1-.512 1.235zm.078-3.492l-3.604-3.604 1.668-1.668 3.604 3.604-1.668 1.668zm4.438-1.023a.718.718 0 0 1-.512-.212l-6.295-6.295a.724.724 0 0 1 1.023-1.023l6.296 6.295a.724.724 0 0 1-.512 1.235zm.078-3.493l-3.604-3.604 1.669-1.668 3.603 3.603-1.668 1.669zm4.438-1.023a.718.718 0 0 1-.512-.212l-6.295-6.295a.724.724 0 0 1 1.023-1.023l6.296 6.295a.724.724 0 0 1-.512 1.235zm.078-3.493l-3.604-3.604 1.669-1.669 3.604 3.604-1.669 1.669zm4.438-1.024a.718.718 0 0 1-.511-.211l-6.296-6.296a.724.724 0 0 1 1.023-1.023l6.296 6.296a.724.724 0 0 1-.512 1.235zm.078-3.492l-3.604-3.604 1.669-1.669 3.604 3.604-1.669 1.669zm-2.404-7.566l2.804-4.404 7.966 7.966-4.404 2.804-6.366-6.366zm11.875 2.842L26.28 5.37a2.018 2.018 0 0 1 3.08-.257l5.527 5.527a2.022 2.022 0 0 1-.256 3.08zm.852-4.309L30.59 4.516l2.212-2.212a3.44 3.44 0 0 1 2.447-1.014 3.464 3.464 0 0 1 3.46 3.46 3.44 3.44 0 0 1-1.013 2.448L35.484 9.41z"/>
        <filter id="c" width="147.5%" height="147.5%" x="-23.8%" y="-13.8%" filterUnits="objectBoundingBox">
            <feOffset dy="4" in="SourceAlpha" result="shadowOffsetOuter1"/>
            <feGaussianBlur in="shadowOffsetOuter1" result="shadowBlurOuter1" stdDeviation="2.5"/>
            <feColorMatrix in="shadowBlurOuter1" values="0 0 0 0 0.945098039 0 0 0 0 0.364705882 0 0 0 0 0.164705882 0 0 0 0.471809441 0"/>
        </filter>
        <path id="f" d="M35.484 2.58a1.938 1.938 0 0 0-1.936 1.936c0 1.067.869 1.936 1.936 1.936a1.938 1.938 0 0 0 1.935-1.936 1.938 1.938 0 0 0-1.935-1.935zm0 2.581a.646.646 0 1 1 .002-1.292.646.646 0 0 1-.002 1.292z"/>
        <filter id="e" width="590.8%" height="590.8%" x="-245.4%" y="-142.1%" filterUnits="objectBoundingBox">
            <feOffset dy="4" in="SourceAlpha" result="shadowOffsetOuter1"/>
            <feGaussianBlur in="shadowOffsetOuter1" result="shadowBlurOuter1" stdDeviation="2.5"/>
            <feColorMatrix in="shadowBlurOuter1" values="0 0 0 0 0.945098039 0 0 0 0 0.364705882 0 0 0 0 0.164705882 0 0 0 0.471809441 0"/>
        </filter>
    </defs>
    <g fill="none" fillRule="nonzero">
        <g transform="translate(5 1)">
            <use fill="#000" filter="url(#a)" xlink:href="#b"/>
            <use fill="#F15D2A" xlink:href="#b"/>
        </g>
        <g transform="translate(5 1)">
            <use fill="#000" filter="url(#c)" xlink:href="#d"/>
            <use fill="#F15D2A" xlink:href="#d"/>
        </g>
        <g transform="translate(5 1)">
            <use fill="#000" filter="url(#e)" xlink:href="#f"/>
            <use fill="#F15D2A" xlink:href="#f"/>
        </g>
    </g>
</svg>
