<svg xmlns="http://www.w3.org/2000/svg" xmlns:xlink="http://www.w3.org/1999/xlink" width="49" height="44" viewBox="0 0 49 44">
    <defs>
        <path id="b" d="M13.1 9.39a2.188 2.188 0 1 0-3.092 3.098A2.188 2.188 0 0 0 13.1 9.39zm-.884 2.21a.938.938 0 1 1-1.326-1.326.938.938 0 0 1 1.326 1.326z"/>
        <filter id="a" width="534.3%" height="534.3%" x="-217.1%" y="-125.7%" filterUnits="objectBoundingBox">
            <feOffset dy="4" in="SourceAlpha" result="shadowOffsetOuter1"/>
            <feGaussianBlur in="shadowOffsetOuter1" result="shadowBlurOuter1" stdDeviation="2.5"/>
            <feColorMatrix in="shadowBlurOuter1" values="0 0 0 0 0.945098039 0 0 0 0 0.364705882 0 0 0 0 0.164705882 0 0 0 0.471809441 0"/>
        </filter>
        <path id="d" d="M29.682 31.25a2.813 2.813 0 1 0-.003 0h.003zm-1.104-3.91a1.56 1.56 0 1 1 2.207 2.206 1.6 1.6 0 0 1-2.207 0 1.56 1.56 0 0 1 0-2.207z"/>
        <filter id="c" width="437.8%" height="437.8%" x="-168.9%" y="-97.8%" filterUnits="objectBoundingBox">
            <feOffset dy="4" in="SourceAlpha" result="shadowOffsetOuter1"/>
            <feGaussianBlur in="shadowOffsetOuter1" result="shadowBlurOuter1" stdDeviation="2.5"/>
            <feColorMatrix in="shadowBlurOuter1" values="0 0 0 0 0.945098039 0 0 0 0 0.364705882 0 0 0 0 0.164705882 0 0 0 0.471809441 0"/>
        </filter>
        <path id="f" d="M32.646.382a1.319 1.319 0 0 0-1.856 0L29.398 1.76l-1.856 1.842-6.497 6.447a1.945 1.945 0 0 0 0 2.763l.24.237a1.979 1.979 0 0 0 1.691.546l.059-.007h.01l-1.273 1.264c-.408.404-.91.873-1.469 1.374a40.125 40.125 0 0 1-1.472-1.372l-1.27-1.266c.022 0 .044.004.065.008h.01c.616.093 1.24-.11 1.682-.546l.24-.238c.768-.763.768-2 0-2.762L13.06 3.603 11.209 1.76 9.817.382a1.352 1.352 0 0 0-1.857 0L1 7.284a1.296 1.296 0 0 0 0 1.842l1.392 1.382 8.353 8.29a1.977 1.977 0 0 0 2.784 0l.24-.238c.413-.416.616-.995.552-1.576 0-.007.004-.012.004-.018a.834.834 0 0 0-.007-.096c0-.02-.004-.037-.006-.056l1.274 1.262c.332.33.716.73 1.11 1.158-2.546 1.972-5.25 3.76-6.826 4.09a5.38 5.38 0 0 0-1.076.359l-.28-.278a1.317 1.317 0 0 0-1.856 0l-.924.919a1.298 1.298 0 0 0 0 1.842l.248.245a5.455 5.455 0 0 0 .409 5.388c.414.607.94 1.13 1.552 1.542a5.534 5.534 0 0 0 5.435.408l.245.244a1.317 1.317 0 0 0 1.857 0l.925-.92a1.296 1.296 0 0 0 0-1.842l-.28-.278c.157-.342.278-.698.36-1.065.317-1.478 1.953-3.968 3.814-6.375 2.188 2.827 3.544 5.08 3.824 6.371.081.368.202.726.36 1.068l-.28.278a1.297 1.297 0 0 0 0 1.843l.928.92a1.318 1.318 0 0 0 1.857 0l.245-.243a5.538 5.538 0 0 0 5.432-.407 5.765 5.765 0 0 0 1.551-1.54 5.455 5.455 0 0 0 .411-5.392l.247-.245a1.298 1.298 0 0 0 0-1.842l-.927-.921a1.32 1.32 0 0 0-1.856 0l-.28.278a5.027 5.027 0 0 0-1.074-.356c-1.37-.29-3.784-1.746-6.825-4.097.4-.433.775-.823 1.108-1.153l1.273-1.264-.007.071a.873.873 0 0 0-.006.101c0 .006.003.011.003.017-.06.577.143 1.15.553 1.563l.24.238a1.977 1.977 0 0 0 2.784 0l8.355-8.292 1.392-1.381a1.295 1.295 0 0 0 0-1.842L32.647.382zm4.177 9.67l-.929.921-6.96-6.91.928-.922 3.478 3.452 3.483 3.46zM7.265 6.601l3.478-3.452.928.921-6.958 6.9-.929-.921 3.48-3.448zm1.623-5.296l.929.922L2.86 9.129l-.933-.922 6.96-6.902zm3.953 16.334l-.24.238a.658.658 0 0 1-.928 0L5.64 11.89l6.96-6.908 6.033 5.987a.648.648 0 0 1 0 .92l-.24.238a.673.673 0 0 1-.573.177c-.013 0-.026 0-.04-.004-.12-.014-.24-.029-.405-.035h-.026c-.089 0-.178 0-.267.007h-.157a4.22 4.22 0 0 0-.922.17c-.031.008-.057.011-.088.021l-.014.006-.024.007c-.103.035-.201.078-.301.12-.028.012-.06.022-.087.034l-.012.005-.066.03a1.766 1.766 0 0 0-.21.11l-.15.085-.054.031-.022.013c-.095.065-.197.13-.284.195l-.017.015-.126.097a3.539 3.539 0 0 0-.6.597c-.034.04-.066.081-.098.122l-.015.019c-.056.073-.116.16-.187.266-.014.022-.03.043-.043.065l-.078.136c-.025.04-.04.077-.06.118a4.093 4.093 0 0 0-.259.586l-.01.03c-.004.01 0 .014-.006.02l-.01.024c-.011.039-.018.08-.03.12a4.048 4.048 0 0 0-.155.893v.007c-.01.098-.014.197-.01.296v.157c.005.109.018.218.033.336v.005c0 .018 0 .036.004.055a.66.66 0 0 1-.184.575zm3.674-.488l-1.939-1.918c.087-.18.193-.35.315-.508.01-.013.022-.024.03-.036.008-.012.03-.037.044-.055l.007-.008c.058-.07.117-.138.182-.204.065-.065.132-.12.202-.178a.452.452 0 0 0 .073-.057c.019-.012.034-.026.052-.04.146-.11.302-.205.466-.285.008 0 .014-.007.022-.011l1.934 1.924c.375.372.854.822 1.411 1.32-.504.432-1.038.877-1.59 1.323a38.048 38.048 0 0 0-1.21-1.266l.001-.001zm13.96 7.45c.406.08.795.225 1.154.429.019.009.039.017.059.024a.582.582 0 0 0 .49.016l.04-.016a.636.636 0 0 0 .203-.137l.599-.593.928.92-.58.576c-.012.012-.016.028-.027.04a.658.658 0 0 0-.074.11.475.475 0 0 0-.075.23.597.597 0 0 0-.008.124c.004.04.012.079.023.117.01.043.025.086.044.126.008.015.008.031.016.045a4.221 4.221 0 0 1-.14 4.465 4.133 4.133 0 0 1-.355.446c-.005.007-.014.01-.02.017-.048.06-.099.118-.154.172l-.01.011-.013.012a2.32 2.32 0 0 1-.172.152c-.007.006-.01.013-.017.02a4.213 4.213 0 0 1-.453.354 4.31 4.31 0 0 1-4.495.136c-.015-.008-.031-.008-.046-.015a.594.594 0 0 0-.127-.045.621.621 0 0 0-.119-.022.654.654 0 0 0-.123.007.614.614 0 0 0-.123.024.897.897 0 0 0-.22.124c-.013.011-.03.015-.041.027l-.58.576-.928-.921.603-.599c.01-.01.013-.022.022-.032a.59.59 0 0 0 .082-.124.663.663 0 0 0 .046-.092.667.667 0 0 0 .028-.14.442.442 0 0 0-.019-.237.583.583 0 0 0-.037-.113c-.006-.015-.006-.03-.015-.044a3.95 3.95 0 0 1-.433-1.156c-.414-1.917-2.484-4.877-4.27-7.163a68.185 68.185 0 0 1 1.897-2.248c2.387 1.854 5.455 3.977 7.44 4.397zm-6.381-7.447a44.045 44.045 0 0 0-1.632 1.736c-.006.007-.015.01-.02.017-.006.008-.005.01-.008.014-2.625 2.93-6.637 7.917-7.234 10.699-.083.404-.23.793-.434 1.152-.007.013-.007.027-.013.04a.64.64 0 0 0-.042.13.463.463 0 0 0-.013.24.63.63 0 0 0 .024.12c.033.078.076.151.127.219.01.01.013.024.024.035l.604.598-.929.919-.58-.576c-.012-.012-.028-.016-.04-.027a.897.897 0 0 0-.221-.125.684.684 0 0 0-.12-.023.635.635 0 0 0-.126-.007.648.648 0 0 0-.117.022.596.596 0 0 0-.132.045c-.015.007-.031.007-.046.015a4.308 4.308 0 0 1-4.498-.138 4.207 4.207 0 0 1-.449-.351c-.007-.006-.01-.015-.018-.022a2.049 2.049 0 0 1-.349-.346c-.006-.007-.014-.01-.02-.017a4.01 4.01 0 0 1-.358-.45 4.216 4.216 0 0 1-.137-4.46c.008-.015.008-.032.017-.047a.72.72 0 0 0 .035-.487.563.563 0 0 0-.052-.107.621.621 0 0 0-.074-.112c-.011-.012-.015-.028-.027-.04l-.58-.576.929-.92.602.598a.645.645 0 0 0 .246.148c.07.027.143.04.217.042a.667.667 0 0 0 .27-.063c.017-.008.035-.011.052-.021a4.054 4.054 0 0 1 1.165-.432c2.02-.427 5.199-2.617 7.923-4.784.007-.005.016-.007.023-.013.007-.006.005-.009.008-.012a75.503 75.503 0 0 0 2.696-2.256 43.121 43.121 0 0 0 1.903-1.758l1.945-1.923a2.9 2.9 0 0 1 .538.332c.02.018.042.037.066.054l.01.007c.069.058.138.116.203.18.066.065.124.134.183.203l.005.007a.702.702 0 0 0 .055.065l.01.015-.016-.015.04.05a2.223 2.223 0 0 1 .286.46l.011.021-1.932 1.925zm4.84.723a.66.66 0 0 1-.929 0l-.239-.237a.659.659 0 0 1-.177-.569c0-.014 0-.028.003-.042.015-.118.03-.238.035-.4v-.024c.003-.11 0-.22-.008-.326v-.074a4.106 4.106 0 0 0-.178-.961l-.016-.066-.004-.01a4.168 4.168 0 0 0-.147-.368l-.018-.045v-.006l-.034-.075a1.794 1.794 0 0 0-.108-.206l-.08-.138c-.014-.022-.026-.045-.04-.065l-.01-.018c-.066-.095-.131-.196-.2-.283l-.015-.016-.098-.125a3.83 3.83 0 0 0-.703-.676l-.007-.005c-.011-.01-.022-.02-.033-.028-.04-.03-.084-.065-.132-.094-.047-.03-.084-.058-.126-.085l-.08-.052-.131-.072a4.258 4.258 0 0 0-.24-.124c-.024-.01-.05-.027-.072-.036l-.035-.014a3.967 3.967 0 0 0-.372-.145c-.023-.008-.042-.017-.065-.026l-.02-.005a4.314 4.314 0 0 0-.581-.134l-.094-.013a4.288 4.288 0 0 0-.534-.042h-.252a3.892 3.892 0 0 0-.338.032h-.01c-.017 0-.033 0-.05.003a.675.675 0 0 1-.573-.177l-.239-.237a.648.648 0 0 1 0-.92l6.033-5.987 6.95 6.905-6.033 5.986zm8.817-8.75l-6.957-6.902.929-.922 6.956 6.904-.928.92z"/>
        <filter id="e" width="148.3%" height="155.3%" x="-24.1%" y="-16%" filterUnits="objectBoundingBox">
            <feOffset dy="4" in="SourceAlpha" result="shadowOffsetOuter1"/>
            <feGaussianBlur in="shadowOffsetOuter1" result="shadowBlurOuter1" stdDeviation="2.5"/>
            <feColorMatrix in="shadowBlurOuter1" values="0 0 0 0 0.945098039 0 0 0 0 0.364705882 0 0 0 0 0.164705882 0 0 0 0.471809441 0"/>
        </filter>
        <path id="h" d="M26.882 9.39a2.189 2.189 0 1 0 3.097 3.093A2.189 2.189 0 0 0 26.88 9.39zm2.209 2.21a.937.937 0 1 1-1.325-1.323.937.937 0 0 1 1.325 1.324z"/>
        <filter id="g" width="534.3%" height="534.3%" x="-217.1%" y="-125.7%" filterUnits="objectBoundingBox">
            <feOffset dy="4" in="SourceAlpha" result="shadowOffsetOuter1"/>
            <feGaussianBlur in="shadowOffsetOuter1" result="shadowBlurOuter1" stdDeviation="2.5"/>
            <feColorMatrix in="shadowBlurOuter1" values="0 0 0 0 0.945098039 0 0 0 0 0.364705882 0 0 0 0 0.164705882 0 0 0 0.471809441 0"/>
        </filter>
        <path id="j" d="M8.94 26.455a2.806 2.806 0 0 0 0 3.972 2.815 2.815 0 0 0 3.977 0 2.806 2.806 0 0 0 0-3.972 2.796 2.796 0 0 0-3.977 0zm3.093 3.09a1.605 1.605 0 0 1-2.21 0 1.559 1.559 0 0 1 0-2.207c.61-.609 1.6-.609 2.21 0 .61.61.61 1.597 0 2.207z"/>
        <filter id="i" width="437.8%" height="437.8%" x="-168.9%" y="-97.8%" filterUnits="objectBoundingBox">
            <feOffset dy="4" in="SourceAlpha" result="shadowOffsetOuter1"/>
            <feGaussianBlur in="shadowOffsetOuter1" result="shadowBlurOuter1" stdDeviation="2.5"/>
            <feColorMatrix in="shadowBlurOuter1" values="0 0 0 0 0.945098039 0 0 0 0 0.364705882 0 0 0 0 0.164705882 0 0 0 0.471809441 0"/>
        </filter>
    </defs>
    <g fill="none" fillRule="nonzero">
        <g transform="translate(4 1)">
            <use fill="#000" filter="url(#a)" xlink:href="#b"/>
            <use fill="#F15D2A" xlink:href="#b"/>
        </g>
        <g transform="translate(4 1)">
            <use fill="#000" filter="url(#c)" xlink:href="#d"/>
            <use fill="#F15D2A" xlink:href="#d"/>
        </g>
        <g transform="translate(4 1)">
            <use fill="#000" filter="url(#e)" xlink:href="#f"/>
            <use fill="#F15D2A" xlink:href="#f"/>
        </g>
        <g transform="translate(4 1)">
            <use fill="#000" filter="url(#g)" xlink:href="#h"/>
            <use fill="#F15D2A" xlink:href="#h"/>
        </g>
        <g transform="translate(4 1)">
            <use fill="#000" filter="url(#i)" xlink:href="#j"/>
            <use fill="#F15D2A" xlink:href="#j"/>
        </g>
    </g>
</svg>
