<svg xmlns="http://www.w3.org/2000/svg" width="140" height="141" viewBox="0 0 140 141">
    <g fill="none" opacity=".5">
        <g>
            <g transform="translate(-18) translate(29.667 11.667) translate(2.338 2.333)">
                <path fill="#7B7B7B" d="M100.214 30.333H0V28C0 17.69 8.375 9.333 18.706 9.333h77.16c7.749 0 14.03 6.268 14.03 14l-1.9 2.844c-1.735 2.597-4.655 4.156-7.782 4.156z"/>
                <ellipse cx="23.382" cy="25.667" fill="#EBEBEB" rx="9.353" ry="9.333"/>
                <path fill="#62666A" d="M23.382 37.333c-6.457 0-11.691-5.223-11.691-11.666C11.691 19.223 16.925 14 23.382 14c6.457 0 11.691 5.223 11.691 11.667-.008 6.44-5.237 11.659-11.691 11.666zm0-18.666c-3.874 0-7.015 3.134-7.015 7s3.141 7 7.015 7c3.874 0 7.015-3.134 7.015-7-.005-3.865-3.143-6.996-7.015-7z"/>
                <ellipse cx="88.852" cy="25.667" fill="#EBEBEB" rx="9.353" ry="9.333"/>
                <path fill="#62666A" d="M88.852 37.333c-6.457 0-11.691-5.223-11.691-11.666C77.16 19.223 82.395 14 88.85 14c6.458 0 11.692 5.223 11.692 11.667-.008 6.44-5.238 11.659-11.691 11.666zm0-18.666c-3.874 0-7.015 3.134-7.015 7s3.14 7 7.015 7c3.874 0 7.014-3.134 7.014-7-.004-3.865-3.142-6.996-7.014-7z"/>
                <path fill="#EBEBEB" d="M98.205 9.333h-65.47l4.604-3.062C43.485 2.182 50.705 0 58.091 0h8.16c8.712 0 17.304 2.024 25.097 5.912l6.857 3.421z"/>
                <path fill="#DBDBDB" d="M65.194 9.333h5.228L74.764.671C73.123.42 71.472.227 69.811.12l-4.617 9.212z"/>
                <path fill="#C94536" d="M39.749 9.333L44.426 9.333 44.426 30.333 39.749 30.333zM60.137 30.333h5.99l8.183-10.208c.332-.414.513-.928.513-1.458V14c0-.362-.085-.72-.247-1.044L72.76 9.333h-5.23l2.615 5.219v3.295L60.137 30.333z"/>
                <path fill="#FF9201" d="M.614 23.333h6.4v-4.666H2.524c-.847 1.461-1.489 3.031-1.91 4.666zM108.003 16.333h-7.46V21h9.142c-.275-1.644-.845-3.224-1.682-4.667z"/>
            </g>
            <path fill="#000" d="M101.878 9.753c-.092-.064-.189-.122-.29-.173l-6.856-3.422C86.612 2.118 77.663.011 68.59 0h-8.16c-7.85-.008-15.523 2.311-22.05 6.662l-4.015 2.671H21.044C9.427 9.346.013 18.741 0 30.333v2.334C0 33.955 1.047 35 2.338 35h14.036c2.205 2.938 5.668 4.667 9.346 4.667s7.141-1.73 9.347-4.667h46.777c2.205 2.938 5.668 4.667 9.346 4.667s7.141-1.73 9.346-4.667h2.017c3.912.005 7.567-1.945 9.734-5.196l1.894-2.847c.255-.382.391-.831.391-1.29-.01-7.604-5.27-14.198-12.694-15.914zM76.006 5.188c5.01.699 9.895 2.094 14.516 4.145H73.93l2.077-4.145zM25.72 35c-3.874 0-7.014-3.134-7.014-7s3.14-7 7.014-7 7.015 3.134 7.015 7c-.005 3.864-3.143 6.996-7.015 7zm16.368-4.667h-4.91c.946-4.636-1.008-9.384-4.946-12.019-3.939-2.635-9.082-2.635-13.02 0-3.939 2.635-5.893 7.383-4.946 12.02h-9.59c0-1.581.23-3.153.685-4.667h3.992V21h-1.73c3.057-4.384 8.07-6.998 13.42-7h21.045v16.333zM60.429 4.667h8.16c.807 0 1.614.022 2.42.058l-2.308 4.608H42.93c5.32-3.063 11.356-4.672 17.498-4.666zM46.764 30.333V14H71.04l1.445 2.884v3.296l-8.138 10.153H46.764zM91.19 35c-3.874 0-7.015-3.134-7.015-7s3.14-7 7.015-7c3.874 0 7.015 3.134 7.015 7-.005 3.864-3.143 6.996-7.015 7zm18.686-10.008l-1.482 2.227c-1.282 1.921-3.434 3.086-5.747 3.111.945-4.636-1.009-9.383-4.948-12.017-3.938-2.634-9.081-2.633-13.02.002-3.937 2.635-5.89 7.382-4.944 12.018h-9.4l6.313-7.875c.332-.414.513-.928.513-1.458v-4.667c0-.362-.085-.72-.247-1.043L76.268 14h21.937c3.677 0 7.139 1.73 9.343 4.667h-4.667v4.666h6.779c.112.547.184 1.102.216 1.659z" transform="translate(-18) translate(29.667 11.667)"/>
        </g>
        <g transform="translate(-18) translate(47.167 52.5)">
            <path fill="#7B7B7B" d="M40.851 40.829L46.685 40.829 46.685 59.787 40.851 59.787z"/>
            <g fill="#7B7B7B" transform="translate(1.458 1.276)">
                <circle cx="42.31" cy="20.595" r="20.417"/>
                <circle cx="11.685" cy="57.053" r="11.667"/>
            </g>
            <path fill="#F2CBA7" d="M46.685 59.787h-8.75L24.81 71.454v14.583H49.6V62.704c0-1.611-1.306-2.917-2.916-2.917z"/>
            <circle cx="74.393" cy="58.329" r="11.667" fill="#7B7B7B"/>
            <g fill="#F2CBA7">
                <path d="M8.768 8.928H14.6c1.611 0 2.917 1.305 2.917 2.916s-1.306 2.917-2.917 2.917H8.768c-1.611 0-2.917-1.306-2.917-2.917 0-1.61 1.306-2.916 2.917-2.916z" transform="translate(37.917 59.61)"/>
                <path d="M8.768 14.761H14.6c1.611 0 2.917 1.306 2.917 2.917 0 1.61-1.306 2.916-2.917 2.916H8.768c-1.611 0-2.917-1.305-2.917-2.916s1.306-2.917 2.917-2.917zM8.768 20.594H14.6c1.611 0 2.917 1.306 2.917 2.917 0 1.611-1.306 2.917-2.917 2.917H8.768c-1.611 0-2.917-1.306-2.917-2.917 0-1.61 1.306-2.917 2.917-2.917zM8.768 3.094H14.6c1.611 0 2.917 1.306 2.917 2.917 0 1.611-1.306 2.917-2.917 2.917H8.768c-1.611 0-2.917-1.306-2.917-2.917 0-1.61 1.306-2.917 2.917-2.917z" transform="translate(37.917 59.61)"/>
                <path d="M4.393 7.47v3.645c0 2.014 1.632 3.646 3.646 3.646 2.013 0 3.646-1.632 3.646-3.646v-8.02c0-1.612-1.306-2.917-2.917-2.917H.018l4.375 7.291z" transform="translate(37.917 59.61)"/>
            </g>
            <path fill="#000" d="M65.643 21.87C65.64 9.79 55.845-.002 43.763 0c-12.08.003-21.873 9.798-21.87 21.88.002 10.393 7.317 19.35 17.5 21.428v15.02h-1.458c-.358.001-.702.132-.969.37L23.841 70.364c-.311.277-.49.673-.49 1.09v14.583c0 .805.653 1.458 1.459 1.458h27.708c2.406.011 4.364-1.93 4.375-4.336.005-1.093-.401-2.148-1.138-2.955 1.517-1.649 1.517-4.185 0-5.834 1.517-1.648 1.517-4.184 0-5.833 1.622-1.777 1.495-4.532-.282-6.154-.808-.736-1.862-1.142-2.955-1.138H50.79c-.44-1.235-1.413-2.207-2.648-2.648v-15.29c10.179-2.091 17.488-11.045 17.5-21.436zm-40.833 0c0-10.47 8.487-18.958 18.958-18.958 10.47 0 18.958 8.488 18.958 18.959 0 10.47-8.488 18.958-18.958 18.958-10.465-.012-18.946-8.493-18.958-18.958zm1.458 50.239l12.22-10.863h8.197c.805 0 1.458.653 1.458 1.458v8.02c0 1.209-.98 2.188-2.188 2.188-1.208 0-2.187-.98-2.187-2.187v-3.646H40.85v3.646c.003 1.662.816 3.218 2.179 4.17-1.099 1.654-.926 3.846.417 5.309-1.097 1.175-1.436 2.869-.875 4.375H26.268v-12.47zm27.708-.655c0 .805-.653 1.458-1.458 1.458h-1.97c.332-.681.507-1.43.512-2.187v-.73h1.458c.805 0 1.458.653 1.458 1.459zm0 5.833c0 .805-.653 1.458-1.458 1.458h-5.833c-.806 0-1.459-.653-1.459-1.458 0-.805.653-1.458 1.459-1.458h5.833c.805 0 1.458.653 1.458 1.458zm-1.458 7.292h-5.833c-.806 0-1.459-.653-1.459-1.459 0-.805.653-1.458 1.459-1.458h5.833c.805 0 1.458.653 1.458 1.458 0 .806-.653 1.459-1.458 1.459zm1.458-18.959c0 .806-.653 1.459-1.458 1.459H51.06v-2.917h1.458c.805 0 1.458.653 1.458 1.458zm-8.75-7.291H42.31V43.67c.484.032.965.074 1.458.074s.974-.042 1.458-.074V58.33z"/>
            <path fill="#000" d="M45.226 37.912V34.85c3.947-.802 6.496-4.65 5.695-8.597-.69-3.401-3.683-5.844-7.153-5.84-2.416 0-4.375-1.96-4.375-4.376 0-2.416 1.959-4.375 4.375-4.375s4.375 1.959 4.375 4.375h2.917c-.005-3.464-2.441-6.448-5.834-7.146V5.83H42.31V8.89c-3.947.802-6.497 4.65-5.695 8.597.69 3.401 3.682 5.844 7.153 5.84 2.416 0 4.375 1.96 4.375 4.376 0 2.416-1.959 4.375-4.375 4.375s-4.375-1.959-4.375-4.375h-2.917c.005 3.463 2.44 6.448 5.834 7.146v3.062h2.916zM13.143 53.954c.805 0 1.458.653 1.458 1.458h2.917c-.008-1.847-1.175-3.49-2.917-4.107V49.58h-2.916v1.726c-2.274.801-3.468 3.294-2.667 5.567.616 1.75 2.27 2.919 4.125 2.915.805 0 1.458.653 1.458 1.458 0 .806-.653 1.459-1.458 1.459-.806 0-1.458-.653-1.458-1.459H8.768c.008 1.848 1.175 3.491 2.917 4.107v1.727H14.6v-1.727c2.274-.8 3.468-3.293 2.667-5.567-.616-1.75-2.27-2.918-4.125-2.915-.806 0-1.458-.653-1.458-1.458 0-.805.652-1.458 1.458-1.458zM74.393 53.954c.805 0 1.458.653 1.458 1.458h2.917c-.008-1.847-1.175-3.49-2.917-4.107V49.58h-2.916v1.726c-2.274.801-3.468 3.294-2.667 5.567.616 1.75 2.27 2.919 4.125 2.915.805 0 1.458.653 1.458 1.458 0 .806-.653 1.459-1.458 1.459-.805 0-1.458-.653-1.458-1.459h-2.917c.008 1.848 1.175 3.491 2.917 4.107v1.727h2.916v-1.727c2.274-.8 3.468-3.293 2.667-5.567-.616-1.75-2.27-2.918-4.125-2.915-.805 0-1.458-.653-1.458-1.458 0-.805.653-1.458 1.458-1.458z"/>
            <path fill="#000" d="M26.268 58.329c.002-7.249-5.872-13.127-13.12-13.13C5.898 45.196.02 51.071.018 58.319.015 65.006 5.04 70.625 11.685 71.368v16.127H14.6V71.368c6.638-.749 11.658-6.36 11.667-13.04zM13.143 68.537c-5.638 0-10.208-4.57-10.208-10.208S7.505 48.12 13.143 48.12 23.35 52.69 23.35 58.33c-.007 5.635-4.573 10.201-10.208 10.208zM74.393 45.204c-7.249.023-13.107 5.918-13.084 13.166.021 6.653 5.017 12.238 11.626 12.998v16.127h2.916V71.368c7.201-.829 12.368-7.338 11.54-14.54-.76-6.608-6.345-11.603-12.998-11.624zm0 23.333c-5.638 0-10.208-4.57-10.208-10.208s4.57-10.209 10.208-10.209S84.6 52.69 84.6 58.33c-.007 5.635-4.573 10.201-10.208 10.208z"/>
        </g>
    </g>
</svg>
