<svg xmlns="http://www.w3.org/2000/svg" width="140" height="140" viewBox="0 0 140 140">
    <g fill="none" opacity=".5">
        <path fill="#EBEBEB" d="M80.362 62.091l12.914 12.914-13.782 13.782c-.553.553-1.354.78-2.116.599-.761-.182-1.562.045-2.115.599l-6.636 6.636c-.123.123-.264.226-.417.307l-7.193 3.776c-.312.164-.567.42-.728.733l-3.506 6.781c-.171.331-.445.598-.78.76l-5.524 2.664c-.292.14-.538.361-.71.636l-5.043 8.05c-.206.329-.548.548-.933.597l-9.061 1.16c-.84.107-1.556-.609-1.449-1.45l1.16-9.06c.049-.385.268-.728.596-.933l8.05-5.043c.275-.172.496-.419.637-.71l2.664-5.524c.162-.336.429-.61.76-.78l6.78-3.506c.314-.162.57-.416.734-.729l3.776-7.192c.08-.154.184-.295.307-.417l6.636-6.636c.553-.554.78-1.354.599-2.116-.181-.761.046-1.562.599-2.116l13.78-13.782z" transform="translate(0 5.833)"/>
        <path fill="#7B7B7B" d="M97.703 22.004l-21.47 27.753c-3.697 4.777-3.266 11.557 1.005 15.828l12.544 12.544c4.271 4.27 11.05 4.702 15.828 1.006l27.753-21.47c5.703-4.413 6.238-12.83 1.14-17.93l-18.872-18.87c-5.099-5.1-13.516-4.564-17.928 1.14zm12.009 7.446l16.205 16.205c1.53 1.531 1.53 4.013 0 5.544-1.531 1.531-4.013 1.531-5.544 0l-16.205-16.205c-1.531-1.531-1.531-4.013 0-5.544 1.53-1.53 4.013-1.53 5.544 0z" transform="translate(0 5.833)"/>
        <path fill="#EBEBEB" d="M36.021 6.052L3.85 38.225c-2.48 2.48-2.48 6.502 0 8.982l24.89 24.89c2.48 2.48 6.502 2.48 8.982 0l32.173-32.172c2.884-2.885 4.33-6.906 3.945-10.967l-1.728-18.204c-.348-3.668-3.252-6.571-6.92-6.92L46.987 2.106c-4.06-.385-8.081 1.062-10.966 3.946zm22.515 5.17c1.709-1.709 4.479-1.709 6.188 0 1.709 1.71 1.709 4.48 0 6.189-1.709 1.709-4.48 1.709-6.188 0-1.71-1.71-1.71-4.48 0-6.189z" transform="translate(0 5.833)"/>
        <g fill="#7B7B7B">
            <path d="M19.84 14.861l14.995 14.995c2.001 2.002 5.246 2.002 7.247 0l5.934-5.934c2.001-2 2.001-5.245 0-7.247L33.021 1.68c-2.001-2.001-5.246-2.001-7.247 0L19.84 7.614c-2.001 2.001-2.001 5.246 0 7.247zM1.669 33.032l14.995 14.996c2.001 2 5.246 2 7.247 0l5.934-5.934c2.001-2.002 2.001-5.246 0-7.247L14.85 19.85c-2.002-2.001-5.246-2.001-7.248 0L1.67 25.785c-2.002 2.001-2.002 5.246 0 7.247z" transform="translate(0 5.833) translate(12.578 13.672)"/>
        </g>
        <path fill="#EBEBEB" d="M64.724 11.222c.839.839 1.261 1.933 1.277 3.032.41 1.558 1.573 3.411 3.393 5.325 1.112 1.168 2.42 2.314 3.88 3.417l-1.162-12.242c-.348-3.668-3.252-6.571-6.92-6.92L46.988 2.106c-.41-.039-.82-.054-1.23-.056l-1.051 1.052 12.872 12.872c-.647-1.582-.329-3.467.956-4.752 1.71-1.709 4.48-1.709 6.189 0z" transform="translate(0 5.833)"/>
        <path fill="#000" d="M51.037 47.018c1.822 0 3.645-.694 5.032-2.081l5.934-5.934c2.775-2.774 2.775-7.29 0-10.065L47.008 13.943c-2.775-2.775-7.29-2.775-10.065 0l-5.934 5.934c-2.775 2.775-2.775 7.29 0 10.065l14.995 14.995c1.388 1.388 3.21 2.081 5.033 2.081zm-17.21-24.323l5.934-5.934c.61-.61 1.412-.916 2.215-.916.802 0 1.604.306 2.214.916l14.995 14.995c.592.592.918 1.378.918 2.215s-.326 1.623-.918 2.215l-5.934 5.933c-.591.592-1.378.918-2.214.918-.837 0-1.623-.326-2.215-.918L33.827 27.124c-1.221-1.221-1.221-3.208 0-4.43zM27.833 63.109c1.387 1.387 3.21 2.08 5.032 2.08 1.823 0 3.645-.693 5.033-2.08l5.934-5.934c2.775-2.775 2.775-7.29 0-10.065L28.836 32.114c-2.774-2.774-7.29-2.774-10.064 0l-5.934 5.934c-2.775 2.775-2.775 7.29 0 10.065L27.833 63.11zM15.656 40.866l5.934-5.934c.61-.61 1.412-.916 2.214-.916s1.604.306 2.215.916l14.995 14.995c1.221 1.222 1.221 3.209 0 4.43L35.08 60.29c-1.221 1.22-3.208 1.22-4.43 0L15.657 45.295c-.592-.592-.918-1.378-.918-2.214 0-.837.326-1.623.918-2.215z" transform="translate(0 5.833)"/>
        <path fill="#000" d="M135.911 38.327L117.04 19.456c-2.835-2.835-6.757-4.314-10.757-4.06-.928.058-1.839.213-2.723.45-3.233-2.467-7.142-4.72-11.422-6.556C85.774 6.562 79.303 5.06 73.914 5.06h-.002c-.745 0-1.458.031-2.142.089-1.585-1.827-3.842-3.055-6.39-3.297L47.176.124c-4.669-.444-9.248 1.204-12.563 4.52L15.565 23.691c-.778.778-.778 2.04 0 2.818s2.04.778 2.818 0L37.43 7.462c2.473-2.473 5.888-3.702 9.37-3.371l18.203 1.727c2.712.258 4.868 2.413 5.125 5.125l.976 10.28-.056-.05c-.165-.148-.329-.296-.488-.445-.14-.13-.28-.262-.415-.393l-.19-.186c-.191-.19-.38-.38-.56-.57-.16-.166-.311-.332-.46-.498l-.105-.118c-.14-.16-.278-.318-.41-.476l-.085-.105c-.104-.126-.204-.252-.3-.377l-.122-.156c-.105-.138-.207-.277-.305-.414-.048-.068-.095-.135-.141-.203l-.105-.156c1.138-2.37.732-5.3-1.23-7.262-2.482-2.483-6.522-2.483-9.005 0-2.484 2.483-2.484 6.523 0 9.006 1.241 1.242 2.872 1.862 4.503 1.862.997 0 1.993-.235 2.901-.699.57.776 1.23 1.558 1.976 2.343 1.447 1.521 3.176 3.003 5.12 4.408l.229 2.413c.33 3.481-.898 6.896-3.371 9.37L36.312 70.688c-.823.823-1.918 1.277-3.082 1.277-1.165 0-2.26-.454-3.082-1.277L5.258 45.8c-.824-.823-1.277-1.918-1.277-3.082 0-1.165.453-2.26 1.276-3.083l3.922-3.92c.778-.779.778-2.04 0-2.819-.778-.778-2.04-.778-2.818 0L2.44 36.816c-3.253 3.253-3.253 8.547 0 11.8l24.89 24.89c1.576 1.576 3.671 2.444 5.9 2.444 2.229 0 4.324-.868 5.9-2.444l32.173-32.172c3.149-3.15 4.79-7.438 4.567-11.86 1.965 1.137 4.066 2.194 6.268 3.138 1.238.531 2.48 1.014 3.717 1.45L74.656 48.538c-3.829 4.949-3.843 11.785-.289 16.73l-9.196 9.196c-1.034 1.035-1.467 2.562-1.128 3.986.02.087-.006.181-.07.245l-6.635 6.636c-.265.265-.488.567-.662.9l-3.737 7.116-6.705 3.467c-.71.367-1.292.965-1.639 1.685l-2.63 5.453-7.983 5c-.838.525-1.39 1.389-1.516 2.37l-1.16 9.06c-.13 1.018.212 2.017.937 2.742.624.624 1.45.963 2.316.963.141 0 .283-.009.426-.027l9.061-1.16c.98-.125 1.843-.677 2.369-1.515l5-7.983 5.453-2.63c.72-.347 1.318-.93 1.685-1.64l3.466-6.704 7.118-3.737c.332-.174.635-.397.899-.661l6.636-6.636c.064-.065.157-.091.245-.07 1.424.339 2.952-.093 3.986-1.128L90.098 81c2.42 1.74 5.294 2.626 8.178 2.626 3.008 0 6.027-.961 8.553-2.916l10.658-8.245c.87-.674 1.03-1.925.357-2.795-.674-.87-1.925-1.03-2.795-.357l-10.658 8.245c-3.913 3.027-9.473 2.721-13.034-.68l-.008-.01-.08-.075-.078-.074-12.544-12.544-.073-.076-.078-.083-.007-.006c-3.402-3.56-3.708-9.122-.68-13.035l12.11-15.653c3.695.993 7.258 1.521 10.443 1.521h.002c.947 0 1.846-.048 2.695-.14l15.905 15.904c1.153 1.153 2.667 1.73 4.18 1.73 1.515 0 3.029-.577 4.182-1.73 2.305-2.305 2.305-6.056 0-8.361L111.12 28.042c-1.117-1.117-2.602-1.732-4.181-1.732-1.58 0-3.064.615-4.181 1.732s-1.732 2.601-1.732 4.18c0 .211.013.42.034.626-.229.007-.46.011-.698.011h-.002c-2.383 0-5.021-.336-7.784-.973l6.702-8.662c1.753-2.266 4.398-3.67 7.257-3.852 2.86-.182 5.66.876 7.686 2.902l18.871 18.871c2.026 2.026 3.083 4.827 2.901 7.686-.181 2.86-1.585 5.505-3.851 7.257l-6.439 4.982c-.87.673-1.03 1.924-.356 2.795.673.87 1.924 1.03 2.795.356l6.438-4.98c3.171-2.454 5.136-6.156 5.39-10.157.255-4.002-1.225-7.922-4.06-10.757zM61.63 16.7c-.637 0-1.235-.248-1.686-.698-.45-.45-.698-1.05-.698-1.686 0-.636.248-1.235.698-1.685.45-.45 1.05-.698 1.686-.698.099 0 .196.008.293.02-.224 1.424-.008 2.96.631 4.561-.289.122-.602.186-.924.186zm15.423 51.517L87.15 78.313l-9.064 9.064c-.064.064-.158.09-.246.07-1.423-.339-2.95.093-3.985 1.128l-6.608 6.608-7.155 3.756c-.677.355-1.22.903-1.573 1.583l-3.463 6.7-5.442 2.625c-.63.304-1.161.779-1.533 1.373l-4.868 7.77-7.838 1.003 1.003-7.838 7.77-4.867c.594-.372 1.069-.902 1.374-1.534l2.624-5.441 6.7-3.464c.68-.351 1.227-.895 1.583-1.572l3.757-7.157 6.606-6.606c1.035-1.035 1.468-2.562 1.129-3.986-.021-.09.005-.181.07-.246l9.063-9.065zm33.724-34.883l13.73 13.73c.752.752.752 1.975 0 2.726-.364.364-.848.565-1.363.565-.514 0-.998-.2-1.363-.565l-14.204-14.205c1.32-.568 2.397-1.322 3.2-2.251zm-5.2-2.475c.364-.364.848-.564 1.363-.564.34 0 .667.09.955.255-.56.745-1.548 1.333-2.88 1.729 0-.02-.003-.038-.003-.057 0-.515.2-.999.565-1.363zm-9.45-10.074l-7.693 9.944c-1.564-.509-3.146-1.102-4.726-1.78-3.016-1.292-5.82-2.799-8.289-4.434l-1.324-13.949c-.05-.52-.142-1.028-.27-1.522h.089c4.86 0 10.775 1.387 16.653 3.908 3.232 1.386 6.222 3.016 8.817 4.788-1.23.826-2.332 1.85-3.257 3.045z" transform="translate(0 5.833)"/>
    </g>
</svg>
