<svg xmlns="http://www.w3.org/2000/svg" width="140" height="140" viewBox="0 0 140 140">
    <g fill="none" opacity=".5">
        <g>
            <path fill="#7B7B7B" d="M37.882 17.82h-9.299v-6.126h9.299c1.63 0 2.951 1.372 2.951 3.063s-1.321 3.062-2.951 3.062z" transform="translate(0 -3) matrix(-1 0 0 1 140 .877)"/>
            <path fill="#EBEBEB" d="M32.565 18.242L32.667 18.239 22.565 1.486 0 1.486 0 21.903 27.822 21.903z" transform="translate(0 -3) matrix(-1 0 0 1 140 .877)"/>
            <path fill="#7B7B7B" d="M33.82 17.823l-4.926 3.73H0V44.36h32.756c2.206 0 3.994-1.927 3.994-4.303V22.413l-2.824-4.594-.105.004z" transform="translate(0 -3) matrix(-1 0 0 1 140 .877)"/>
            <path fill="#EBEBEB" d="M27.73 36.194h-7.177c-1.203 0-2.178-1.375-2.178-3.07 0-1.462.73-2.721 1.747-3.01l7.034-2.004c1.793-.51 3.469 1.422 3.469 4.002 0 2.254-1.297 4.082-2.896 4.082z" transform="translate(0 -3) matrix(-1 0 0 1 140 .877)"/>
            <path fill="#000" d="M24.5 56.611c3.383 0 6.125-2.567 6.125-5.734v-6.516h-12.25v6.516c0 3.167 2.742 5.734 6.125 5.734z" transform="translate(0 -3) matrix(-1 0 0 1 140 .877)"/>
            <path fill="#7B7B7B" d="M32.756 38.957H0v3.362h32.756c2.206 0 3.994-2.15 3.994-4.803v-3.363c0 2.653-1.788 4.804-3.994 4.804z" transform="translate(0 -3) matrix(-1 0 0 1 140 .877)"/>
            <path fill="#000" d="M28.24 38.236c2.44 0 4.427-2.747 4.427-6.125 0-1.844-.592-3.571-1.624-4.74-1.032-1.167-2.373-1.627-3.68-1.262l-8.146 2.276c-1.67.467-2.884 2.518-2.884 4.877 0 2.742 1.613 4.974 3.596 4.974h8.31zm-9.758-4.975c0-.949.488-1.774 1.161-1.962l8.146-2.277c.151-.041.303-.062.454-.062.52 0 1.028.247 1.44.713.53.601.835 1.49.835 2.44 0 1.737-1.022 3.15-2.278 3.15h-8.31c-.798 0-1.448-.898-1.448-2.002zM0 30.069L12.25 30.069 12.25 34.153 0 34.153zM0 36.194L12.25 36.194 12.25 40.278 0 40.278z" transform="translate(0 -3) matrix(-1 0 0 1 140 .877)"/>
            <path fill="#000" d="M37.158 10.483h-7.342l-5.754-8.997H0v2.077h22.986l9.663 15.11-3.962 2.884H0v2.076h29.321l4.436-3.227 2.13 3.332v16.713c0 1.717-1.349 3.114-3.006 3.114H0v2.077h17.977v5.882c0 3.931 3.088 7.129 6.884 7.129 3.795 0 6.883-3.198 6.883-7.129v-5.882h1.137c2.763 0 5.012-2.33 5.012-5.191V23.113l-3.208-5.017h2.473c2.026 0 3.675-1.707 3.675-3.806s-1.649-3.807-3.675-3.807zm-7.419 41.041c0 2.786-2.188 5.053-4.878 5.053s-4.879-2.267-4.879-5.053v-5.882h9.757v5.882zm7.419-35.504h-3.801l-2.213-3.46h6.014c.92 0 1.67.776 1.67 1.73s-.75 1.73-1.67 1.73z" transform="translate(0 -3) matrix(-1 0 0 1 140 .877)"/>
        </g>
        <g transform="translate(0 -3) translate(0 26.333)">
            <path fill="#FFF" d="M21.389 1.944h56.389c1.074 0 1.944.871 1.944 1.945v108.889c0 1.074-.87 1.944-1.944 1.944H3.888c-1.073 0-1.944-.87-1.944-1.944v-91.39L21.39 1.945z"/>
            <path fill="#7D7D7D" d="M15.556 75.833L54.444 75.833 54.444 85.556 15.556 85.556zM9.722 85.556L48.611 85.556 48.611 95.278 9.722 95.278zM15.556 95.278L54.444 95.278 54.444 105 15.556 105zM9.722 105L48.611 105 48.611 114.722 9.722 114.722z"/>
            <path fill="#EBEBEB" d="M21.389 19.444v-17.5L1.944 21.39h17.5c1.074 0 1.945-.87 1.945-1.945z"/>
            <path fill="#7D7D7D" d="M110.833 52.5H71.944c-2.147 0-3.888 1.741-3.888 3.889v19.444h46.666V56.39c0-2.148-1.74-3.889-3.889-3.889zm-3.889 15.556h-31.11v-7.778h31.11v7.778z"/>
            <path fill="#EBEBEB" d="M91.389 75.833H68.056v35c0 2.148 1.74 3.89 3.888 3.89h38.89c2.147 0 3.888-1.742 3.888-3.89v-35H91.39z"/>
            <path fill="#FFF" d="M75.833 60.278L106.944 60.278 106.944 68.056 75.833 68.056z"/>
            <circle cx="42.778" cy="58.333" r="17.5" fill="#7D7D7D"/>
            <path fill="#000" d="M101.111 107.917L105 107.917 105 109.861 101.111 109.861zM101.111 100.139L105 100.139 105 102.083 101.111 102.083z"/>
            <path fill="#000" d="M110.833 50.556H71.944c-3.221 0-5.833 2.611-5.833 5.833v54.444c0 3.222 2.612 5.834 5.833 5.834h38.89c3.221 0 5.833-2.612 5.833-5.834V56.39c0-3.222-2.612-5.833-5.834-5.833zm-38.889 3.888h38.89c1.073 0 1.944.871 1.944 1.945v17.5H70v-17.5c0-1.074.87-1.945 1.944-1.945zm21.39 23.334h19.444v15.555H93.333V77.778zm-3.89 15.555H70V77.778h19.444v15.555zM70 110.833v-13.61h19.444v15.555h-17.5c-1.073 0-1.944-.87-1.944-1.945zm40.833 1.945h-17.5V97.222h19.445v13.611c0 1.074-.87 1.945-1.945 1.945z"/>
            <path fill="#000" d="M75.833 70h31.111c1.074 0 1.945-.87 1.945-1.944v-7.778c0-1.074-.87-1.945-1.945-1.945h-31.11c-1.075 0-1.945.87-1.945 1.945v7.778c0 1.073.87 1.944 1.944 1.944zm1.945-7.778H105v3.89H77.778v-3.89zM73.889 87.5L77.778 87.5 77.778 91.389 81.667 91.389 81.667 87.5 85.556 87.5 85.556 83.611 81.667 83.611 81.667 79.722 77.778 79.722 77.778 83.611 73.889 83.611zM97.222 83.611L108.889 83.611 108.889 87.5 97.222 87.5zM85.221 102.486L82.472 99.736 79.722 102.486 76.973 99.736 74.223 102.486 76.973 105.235 74.223 107.985 76.973 110.734 79.722 107.985 82.472 110.734 85.221 107.985 82.472 105.235zM97.222 103.056L108.889 103.056 108.889 106.944 97.222 106.944z"/>
            <path fill="#000" d="M62.222 58.333c.018-9.156-6.355-17.084-15.301-19.035-8.946-1.951-18.042 2.604-21.838 10.936-3.796 8.333-1.264 18.185 6.079 23.655H15.556c-1.074 0-1.945.87-1.945 1.944v7.778H9.722c-1.074 0-1.944.87-1.944 1.945v9.722c0 1.074.87 1.944 1.944 1.944h3.89v5.834h-3.89c-1.074 0-1.944.87-1.944 1.944v7.778h-3.89V23.333h15.556c2.148 0 3.89-1.74 3.89-3.889V3.89h54.444v42.778h3.889V3.889C81.667 1.74 79.926 0 77.777 0H21.39v.018C20.875.01 20.38.21 20.014.57L.57 20.014c-.36.367-.559.861-.552 1.375H0v91.389c0 2.148 1.741 3.889 3.889 3.889h58.333v-3.89H50.556v-5.833h3.888c1.074 0 1.945-.87 1.945-1.944v-9.722c0-1.074-.87-1.945-1.945-1.945h-3.888V87.5h3.888c1.074 0 1.945-.87 1.945-1.944v-9.723c0-1.074-.87-1.944-1.945-1.944h-.05c4.92-3.658 7.822-9.425 7.828-15.556zM19.444 6.638v12.806H6.638L19.444 6.638zm-7.777 106.14v-5.834h35v5.834h-35zm40.833-9.722h-35v-5.834h35v5.834zm-36.944-9.723h-3.89V87.5h35v5.833h-31.11zM52.5 77.778v5.833h-35v-5.833h35zM27.222 58.333c0-8.59 6.965-15.555 15.556-15.555 8.59 0 15.555 6.964 15.555 15.555S51.37 73.89 42.778 73.89c-8.587-.01-15.546-6.969-15.556-15.556z"/>
            <path fill="#000" d="M44.722 46.667h-3.889v2.302c-2.676.943-4.283 3.678-3.802 6.475.481 2.797 2.909 4.84 5.747 4.834 1.074 0 1.944.87 1.944 1.944 0 1.074-.87 1.945-1.944 1.945h-5.834v3.889h3.89V70h3.888v-2.302c2.677-.943 4.283-3.679 3.802-6.476-.48-2.796-2.908-4.838-5.746-4.833-1.074 0-1.945-.87-1.945-1.945 0-1.073.87-1.944 1.945-1.944h5.833v-3.889h-3.889v-1.944zM29.167 17.5L62.222 17.5 62.222 21.389 29.167 21.389zM7.778 29.167L73.889 29.167 73.889 33.056 7.778 33.056z"/>
        </g>
    </g>
</svg>
