<svg xmlns="http://www.w3.org/2000/svg" width="140" height="140" viewBox="0 0 140 140">
    <g fill="none" opacity=".5" transform="matrix(-1 0 0 1 140 0)">
        <path fill="#7B7B7B" d="M128.256 52.482L128.256 123.57 11.912 123.57 11.912 54.814 11.912 44.299 69.765 9.067 128.256 44.04 128.505 52.655z"/>
        <path fill="#7B7B7B" d="M121.043 52.482L121.043 123.57 11.912 123.57 11.912 54.814 11.912 44.299 66.18 9.067 121.043 44.04 121.276 46.63z"/>
        <path fill="#7B7B7B" d="M128.505 52.655L70.085 16.32 11.662 52.655c-1.83 1.137-4.13 1.192-6.011.143-1.882-1.048-3.048-3.036-3.048-5.193 0-2.056 1.06-3.966 2.804-5.05L70.084 2.332l64.688 40.223c1.738 1.087 2.794 2.996 2.792 5.05 0 2.157-1.166 4.145-3.047 5.193-1.882 1.05-4.182.994-6.012-.143z"/>
        <path fill="#9E9E9E" d="M21.219 83.934H118.94900000000001V93.25999999999999H21.219z"/>
        <path fill="#7B7B7B" d="M21.219 74.608H118.94900000000001V83.934H21.219z"/>
        <path fill="#9E9E9E" d="M21.219 65.282H118.94900000000001V74.608H21.219z"/>
        <path fill="#7B7B7B" d="M118.949 60.62v4.662h-97.73V60.62c.008-2.572 2.087-4.655 4.654-4.663h88.422c2.567.008 4.646 2.091 4.654 4.663z"/>
        <path fill="#F2F2F2" d="M21.219 102.587H118.94900000000001V124.69200000000001H21.219z"/>
        <path fill="#F2F2F2" d="M21.219 109.581H118.94900000000001V124.69200000000001H21.219z"/>
        <path fill="#7B7B7B" d="M21.219 93.26H118.94900000000001V102.58600000000001H21.219z"/>
        <rect width="134.96" height="13.989" x="2.604" y="123.57" fill="#7B7B7B" rx="6.995"/>
        <rect width="127.979" height="13.989" x="2.604" y="123.57" fill="#7B7B7B" rx="6.995"/>
        <path fill="#000" d="M132.91 139.89H7.258c-3.855 0-6.98-3.13-6.98-6.994v-4.663c0-3.863 3.125-6.994 6.98-6.994H132.91c3.856 0 6.98 3.131 6.98 6.994v4.663c0 3.863-3.124 6.995-6.98 6.995zM7.258 125.903c-1.285 0-2.327 1.043-2.327 2.331v4.663c0 1.288 1.042 2.332 2.327 2.332H132.91c1.285 0 2.327-1.044 2.327-2.332v-4.663c0-1.288-1.042-2.331-2.327-2.331H7.258z"/>
        <path fill="#000" d="M128.256 125.902H11.912c-1.285 0-2.327-1.044-2.327-2.332V52.482c0-1.287 1.042-2.331 2.327-2.331s2.327 1.044 2.327 2.331v68.757h111.69V52.482c0-1.287 1.042-2.331 2.327-2.331 1.286 0 2.327 1.044 2.327 2.331v71.088c0 1.288-1.041 2.332-2.327 2.332z"/>
        <path fill="#000" d="M71.31.35l64.676 40.218c2.554 1.537 4.083 4.333 4.003 7.317-.08 2.984-1.76 5.693-4.392 7.09-2.633 1.396-5.812 1.263-8.32-.348L70.084 19.065l-57.193 35.57c-1.303.819-2.81 1.256-4.349 1.26-1.408-.003-2.792-.367-4.02-1.058C1.96 53.412.343 50.735.273 47.8c-.07-2.934 1.417-5.686 3.908-7.232L68.858.35c.751-.467 1.701-.467 2.452 0zm-1.226 4.726L6.634 44.532c-1.68 1.056-2.192 3.275-1.146 4.964 1.046 1.689 3.258 2.213 4.948 1.172l58.422-36.33c.368-.228.793-.349 1.226-.349.433 0 .858.121 1.226.35l58.422 36.334c1.095.68 2.469.724 3.604.114 1.136-.61 1.86-1.78 1.901-3.07.041-1.29-.608-2.505-1.703-3.185L70.084 5.076z"/>
        <path fill="#000" d="M118.949 125.902h-97.73c-1.285 0-2.327-1.044-2.327-2.332V60.62c0-3.864 3.126-6.995 6.981-6.995h88.422c3.855 0 6.98 3.131 6.98 6.994v62.951c0 1.288-1.041 2.332-2.326 2.332zm-95.403-4.663h93.076v-60.62c0-1.287-1.042-2.331-2.327-2.331H25.873c-1.285 0-2.327 1.044-2.327 2.331v60.62z"/>
        <path fill="#000" d="M118.949 67.614h-97.73c-1.285 0-2.327-1.044-2.327-2.332 0-1.287 1.042-2.331 2.327-2.331h97.73c1.285 0 2.327 1.044 2.327 2.331 0 1.288-1.042 2.332-2.327 2.332zM118.949 76.94h-97.73c-1.285 0-2.327-1.044-2.327-2.332 0-1.287 1.042-2.331 2.327-2.331h97.73c1.285 0 2.327 1.044 2.327 2.331 0 1.288-1.042 2.332-2.327 2.332zM118.949 86.266h-97.73c-1.285 0-2.327-1.044-2.327-2.332 0-1.287 1.042-2.331 2.327-2.331h97.73c1.285 0 2.327 1.044 2.327 2.331 0 1.288-1.042 2.332-2.327 2.332zM118.949 95.592h-97.73c-1.285 0-2.327-1.044-2.327-2.332 0-1.287 1.042-2.331 2.327-2.331h97.73c1.285 0 2.327 1.044 2.327 2.331 0 1.288-1.042 2.332-2.327 2.332zM118.949 104.918h-97.73c-1.285 0-2.327-1.044-2.327-2.331 0-1.288 1.042-2.332 2.327-2.332h97.73c1.285 0 2.327 1.044 2.327 2.332 0 1.287-1.042 2.331-2.327 2.331z"/>
        <path fill="#000" d="M70.084 111.913c-1.285 0-2.327-1.044-2.327-2.332v-6.994c0-1.288 1.042-2.332 2.327-2.332s2.327 1.044 2.327 2.332v6.994c0 1.288-1.042 2.332-2.327 2.332z"/>
    </g>
</svg>
