<svg xmlns="http://www.w3.org/2000/svg" xmlns:xlink="http://www.w3.org/1999/xlink" width="140" height="140" viewBox="0 0 140 140">
    <defs>
        <path id="prefix__a" d="M0 0H140V140H0z"/>
    </defs>
    <g fill="none" fill-rule="evenodd" opacity=".5">
        <mask id="prefix__b" fill="#fff">
            <use xlink:href="#prefix__a"/>
        </mask>
        <use fill="#FFF" xlink:href="#prefix__a"/>
        <g mask="url(#prefix__b)">
            <g fill-rule="nonzero">
                <g>
                    <path fill="#7B7B7B" d="M59.95 25.456H46.667v-8.75H59.95c2.329 0 4.217 1.96 4.217 4.375 0 2.417-1.888 4.375-4.217 4.375z" transform="translate(-5.833 -5.833) translate(0 3.71)"/>
                    <path fill="#EBEBEB" d="M52.355 26.06L52.5 26.056 38.069 2.123 5.833 2.123 5.833 31.29 45.578 31.29z" transform="translate(-5.833 -5.833) translate(0 3.71)"/>
                    <path fill="#7B7B7B" d="M54.149 25.461L47.11 30.79H5.833v32.584h46.794c3.152 0 5.706-2.752 5.706-6.148V32.02L54.3 25.456l-.15.005z" transform="translate(-5.833 -5.833) translate(0 3.71)"/>
                    <path fill="#EBEBEB" d="M45.447 51.706H35.194c-1.718 0-3.11-1.964-3.11-4.387 0-2.087 1.043-3.886 2.494-4.3l10.05-2.862c2.561-.73 4.955 2.032 4.955 5.717 0 3.22-1.852 5.832-4.136 5.832z" transform="translate(-5.833 -5.833) translate(0 3.71)"/>
                    <path fill="#000" d="M40.833 80.873c4.833 0 8.75-3.667 8.75-8.191v-9.309h-17.5v9.309c0 4.524 3.918 8.191 8.75 8.191z" transform="translate(-5.833 -5.833) translate(0 3.71)"/>
                    <path fill="#7B7B7B" d="M52.627 55.653H5.833v4.803h46.794c3.152 0 5.706-3.072 5.706-6.862V48.79c0 3.79-2.554 6.863-5.706 6.863z" transform="translate(-5.833 -5.833) translate(0 3.71)"/>
                    <path fill="#000" d="M46.176 54.623c3.487 0 6.324-3.925 6.324-8.75 0-2.634-.845-5.102-2.32-6.77-1.474-1.669-3.39-2.327-5.257-1.805l-11.636 3.251c-2.388.668-4.12 3.597-4.12 6.968 0 3.918 2.304 7.106 5.137 7.106h11.872zm-13.94-7.108c0-1.355.698-2.534 1.659-2.802l11.637-3.252c.216-.06.433-.09.649-.09.743 0 1.467.353 2.056 1.018.758.86 1.193 2.13 1.193 3.486 0 2.482-1.46 4.501-3.254 4.501H34.304c-1.14 0-2.067-1.283-2.067-2.86zM0 42.956L23.333 42.956 23.333 48.79 0 48.79zM0 51.706L23.333 51.706 23.333 57.54 0 57.54z" transform="translate(-5.833 -5.833) translate(0 3.71)"/>
                    <path fill="#000" d="M58.916 14.976H48.428l-8.22-12.853H5.833V5.09H38.67l13.805 21.587-5.66 4.118H5.833v2.966h41.888l6.336-4.61 3.045 4.76v23.876c0 2.453-1.928 4.449-4.296 4.449H5.833v2.967h25.682v8.403c0 5.616 4.412 10.184 9.834 10.184s9.834-4.568 9.834-10.184v-8.403h1.623c3.948 0 7.16-3.327 7.16-7.416V33.018l-4.583-7.166h3.533c2.895 0 5.25-2.44 5.25-5.438 0-2.998-2.355-5.438-5.25-5.438zm-10.598 58.63c0 3.98-3.126 7.218-6.969 7.218-3.843 0-6.97-3.238-6.97-7.218v-8.403h13.939v8.403zm10.598-50.72h-5.43l-3.161-4.944h8.59c1.316 0 2.387 1.109 2.387 2.472s-1.07 2.472-2.386 2.472z" transform="translate(-5.833 -5.833) translate(0 3.71)"/>
                </g>
                <g>
                    <path fill="#7B7B7B" d="M45.756 79.902V48.761c0-12.07-9.784-21.854-21.854-21.854-12.07 0-21.853 9.785-21.853 21.854v31.141h43.707zM9.697 79.902L38.107 79.902 38.107 139.727 9.697 139.727z" transform="translate(-5.833 -5.833) translate(92.195 5.833)"/>
                    <path fill="#7B7B7B" d="M9.697 79.902L38.107 79.902 38.107 85.366 9.697 85.366z" transform="translate(-5.833 -5.833) translate(92.195 5.833)"/>
                    <path fill="#FEC9A3" d="M2.049 79.902v7.24c0 2.64 2.14 4.78 4.78 4.78s4.78-2.14 4.78-4.78v-7.24H2.05zM36.195 79.902v7.24c0 2.64 2.14 4.78 4.78 4.78s4.78-2.14 4.78-4.78v-7.24h-9.56z" transform="translate(-5.833 -5.833) translate(92.195 5.833)"/>
                    <path fill="#EBEBEB" d="M2.049 71.434L11.609 71.434 11.609 79.902 2.049 79.902zM36.195 71.434L45.756 71.434 45.756 79.902 36.195 79.902z" transform="translate(-5.833 -5.833) translate(92.195 5.833)"/>
                    <path fill="#000" d="M12.975 4.083L34.829 4.083 34.829 12.833 12.975 12.833z" transform="translate(-5.833 -5.833) translate(92.195 5.833)"/>
                    <path fill="#FEC9A3" d="M12.975 11.883v6.83c0 6.034 4.892 10.926 10.927 10.926 6.035 0 10.927-4.892 10.927-10.927v-6.83H12.975z" transform="translate(-5.833 -5.833) translate(92.195 5.833)"/>
                    <path fill="#000" d="M33.852 27.03c1.887-2.254 3.026-5.155 3.026-8.318V6.1c0-1.104-.896-2-2-2H12.927c-1.105 0-2 .896-2 2v12.613c0 3.162 1.137 6.063 3.025 8.317-2.576 1.181-4.938 2.816-6.953 4.83C2.486 36.378 0 42.38 0 48.762v38.38c0 3.766 3.063 6.83 6.828 6.83.277 0 .55-.019.82-.05v45.806h4.098v-47.85c1.233-1.28 1.912-2.956 1.912-4.736v-5.19h20.488v5.19c0 1.836.73 3.505 1.913 4.733v47.853h4.097V93.92c.269.032.541.05.819.05 1.823 0 3.538-.71 4.828-2.001 1.291-1.29 2.002-3.005 2.002-4.828v-38.38c0-9.392-5.594-17.887-13.953-21.731zM15.024 4.097H32.78v5.737H15.024V4.097zm0 6.346H32.78v8.27c0 4.894-3.983 8.877-8.878 8.877s-8.878-3.983-8.878-8.878v-8.269zM9.561 87.141c0 .729-.285 1.414-.801 1.93-.517.517-1.203.802-1.932.802-1.506 0-2.73-1.225-2.73-2.732v-5.19H9.56v5.19zm0-9.287H4.097v-4.37h5.464v4.37zm34.146 9.287c0 .729-.285 1.414-.802 1.93-.516.517-1.202.802-1.93.802-1.506 0-2.731-1.225-2.731-2.732v-5.19h5.463v5.19zm0-9.287h-5.463v-4.37h5.463v4.37zm0-8.468h-5.463V47.122h-4.098v30.732H13.658V47.122H9.561v22.264H4.097V48.76c0-5.288 2.06-10.262 5.8-14.005 2.147-2.146 4.77-3.775 7.63-4.748 1.885 1.067 4.06 1.68 6.375 1.68 2.317 0 4.492-.613 6.377-1.681 7.949 2.702 13.428 10.29 13.428 18.754v20.625z" transform="translate(-5.833 -5.833) translate(92.195 5.833)"/>
                    <path fill="#000" d="M21.854 90.01L25.951 90.01 25.951 139.727 21.854 139.727z" transform="translate(-5.833 -5.833) translate(92.195 5.833)"/>
                </g>
                <g>
                    <path fill="#E6E6E6" d="M12.57 4.208H4.367c-1.657 0-3.001 1.344-3.001 3.002v38.275c0 1.657 1.344 3.002 3.001 3.002h31.419c1.657 0 3.002-1.345 3.002-3.002V7.21c0-1.658-1.345-3.002-3.002-3.002H12.57z" transform="translate(-5.833 -5.833) translate(58.333 58.333)"/>
                    <path fill="#FFF" d="M25.397 9.836H14.754c-1.206 0-2.183-.977-2.183-2.183V4.515c0-1.206.977-2.183 2.183-2.183h10.643c1.206 0 2.183.977 2.183 2.183v3.138c0 1.206-.977 2.183-2.183 2.183z" transform="translate(-5.833 -5.833) translate(58.333 58.333)"/>
                    <path fill="#000" d="M25.397 9.836H14.754c-1.206 0-2.183-.977-2.183-2.183V4.515c0-1.206.977-2.183 2.183-2.183h10.643c1.206 0 2.183.977 2.183 2.183v3.138c0 1.206-.977 2.183-2.183 2.183z" transform="translate(-5.833 -5.833) translate(58.333 58.333)"/>
                    <g fill="#000">
                        <path d="M37.346 2.843h-8.821C27.927 1.728 26.75.967 25.397.967H14.754c-1.352 0-2.53.76-3.128 1.876h-7.26C1.96 2.843 0 4.803 0 7.21v38.275c0 2.407 1.959 4.366 4.366 4.366h31.419c2.407 0 4.366-1.959 4.366-4.366V18.233 6.216s.195-3.373-2.805-3.373zm-22.592.853h10.643c.452 0 .819.367.819.819v3.138c0 .452-.367.819-.819.819H14.754c-.452 0-.819-.367-.819-.819V4.515c0-.452.367-.819.819-.819zm22.668 41.789c0 .902-.734 1.637-1.637 1.637H4.366c-.902 0-1.637-.735-1.637-1.637V7.21c0-.903.735-1.638 1.637-1.638h6.84v2.081c0 1.957 1.592 3.548 3.548 3.548h10.643c1.956 0 3.548-1.591 3.548-3.548v-2.08h6.84c.903 0 1.637.734 1.637 1.637v38.275z" transform="translate(-5.833 -5.833) translate(58.333 58.333)"/>
                        <path d="M12.875 26.03l-2.855 2.856-1.027-1.026c-.533-.533-1.397-.533-1.93 0-.533.532-.533 1.396 0 1.93l1.992 1.991c.266.266.615.4.965.4.349 0 .698-.134.964-.4l3.821-3.82c.533-.533.533-1.397 0-1.93-.533-.533-1.397-.533-1.93 0zM31.983 28.292H20.43c-.754 0-1.365.61-1.365 1.364 0 .754.611 1.365 1.365 1.365h11.553c.753 0 1.364-.611 1.364-1.365 0-.753-.61-1.364-1.364-1.364zM12.875 15.114L10.02 17.97l-1.027-1.027c-.533-.532-1.397-.532-1.93 0-.533.533-.533 1.397 0 1.93l1.992 1.992c.266.266.615.4.965.4.349 0 .698-.134.964-.4l3.821-3.82c.533-.534.533-1.398 0-1.93-.533-.533-1.397-.533-1.93 0zM31.983 17.375c-.359 0-.71.146-.965.4-.253.254-.4.606-.4.965s.147.71.4.965c.254.253.606.4.965.4s.711-.147.965-.4c.254-.254.4-.606.4-.965s-.146-.711-.4-.965-.606-.4-.965-.4zM20.43 20.104h6.095c.753 0 1.364-.61 1.364-1.364 0-.754-.61-1.365-1.364-1.365H20.43c-.754 0-1.365.611-1.365 1.365 0 .753.611 1.364 1.365 1.364zM12.875 36.947l-2.855 2.855-1.027-1.026c-.533-.533-1.397-.533-1.93 0-.533.533-.533 1.397 0 1.93l1.992 1.991c.266.267.615.4.965.4.349 0 .698-.133.964-.4l3.821-3.82c.533-.533.533-1.397 0-1.93-.533-.533-1.397-.533-1.93 0zM31.983 39.208H20.43c-.754 0-1.365.61-1.365 1.364 0 .754.611 1.365 1.365 1.365h11.553c.753 0 1.364-.611 1.364-1.365 0-.753-.61-1.364-1.364-1.364z" transform="translate(-5.833 -5.833) translate(58.333 58.333)"/>
                    </g>
                </g>
            </g>
        </g>
    </g>
</svg>
