<svg xmlns="http://www.w3.org/2000/svg" width="140" height="140" viewBox="0 0 140 140">
    <g fill="none" opacity=".5">
        <path fill="#7B7B7B" d="M137.383 121.97v15.414H86.156c-.007-12.33 8.072-23.205 19.88-26.758 11.807-3.553 24.548 1.057 31.347 11.344zM97.799 2.332c21.863 0 39.584 13.552 39.584 30.27 0 16.72-17.72 30.27-39.584 30.27-2.032-.012-4.062-.144-6.079-.395-1.955 1.975-3.108 4.604-3.235 7.38.093 7.429 9.314 13.972 9.314 13.972s-12.667.535-18.628-6.986c-3.866-4.866-4.868-11.758-3.237-19.023-2.137-1.088-4.17-2.366-6.077-3.82 7.045-4.89 11.364-12.825 11.642-21.398-.273-8.58-4.59-16.525-11.642-21.421 8.106-5.904 17.914-9.01 27.942-8.85z"/>
        <path fill="#FFDAAA" d="M128.069 95.471c0 7.717-6.256 13.971-13.971 13.971-7.717 0-13.971-6.254-13.971-13.97 0-7.716 6.254-13.972 13.97-13.972 7.716 0 13.972 6.256 13.972 13.971z"/>
        <path fill="#EBEBEB" d="M69.857 11.18c7.051 4.897 11.37 12.842 11.642 21.422-.278 8.573-4.597 16.509-11.642 21.399-1.908 1.453-3.942 2.73-6.078 3.819 1.63 7.265.628 14.157-3.236 19.023-5.961 7.521-18.628 6.986-18.628 6.986s9.22-6.543 9.314-13.971c-.129-2.777-1.281-5.406-3.237-7.381-2.016.251-4.045.383-6.077.395-21.865 0-39.584-13.55-39.584-30.27 0-16.718 17.72-30.27 39.584-30.27C51.942 2.17 61.75 5.277 69.857 11.18zM53.557 137.384H2.331V121.97c6.798-10.287 19.538-14.897 31.346-11.344 11.807 3.553 19.887 14.428 19.88 26.758z"/>
        <path fill="#FFDAAA" d="M39.586 95.471c0 7.717-6.255 13.971-13.97 13.971-7.717 0-13.971-6.254-13.971-13.97 0-7.716 6.254-13.972 13.97-13.972 7.716 0 13.971 6.256 13.971 13.971z"/>
        <path fill="#000" d="M35.139 108.671c5.744-4.135 8.162-11.505 5.985-18.239-2.176-6.734-8.45-11.294-15.528-11.287-7.077.007-13.34 4.583-15.502 11.321-2.161 6.74.273 14.104 6.026 18.227-6.445 2.112-11.988 6.338-15.731 11.994-.253.38-.387.826-.387 1.283v15.414c0 1.286 1.043 2.328 2.329 2.328h51.226c1.286 0 2.329-1.042 2.329-2.328-.02-13.036-8.376-24.6-20.747-28.713zm-21.166-13.2c0-6.43 5.212-11.642 11.643-11.642 6.43 0 11.642 5.213 11.642 11.642 0 6.43-5.213 11.643-11.642 11.643-6.428-.007-11.636-5.216-11.643-11.643zM4.66 135.055v-12.369c6.164-8.803 17.17-12.819 27.555-10.055 10.385 2.765 17.938 11.722 18.91 22.424H4.658zM123.593 108.693c5.753-4.123 8.187-11.487 6.025-18.227-2.16-6.738-8.424-11.314-15.502-11.321-7.077-.007-13.351 4.553-15.527 11.287-2.176 6.734.242 14.104 5.985 18.24-12.372 4.112-20.727 15.676-20.746 28.712 0 1.286 1.042 2.328 2.328 2.328h51.227c1.286 0 2.328-1.042 2.328-2.328V121.97c0-.457-.135-.903-.386-1.283-3.744-5.656-9.287-9.882-15.732-11.994zM102.455 95.47c0-6.43 5.212-11.642 11.643-11.642 6.43 0 11.642 5.213 11.642 11.642 0 6.43-5.213 11.643-11.642 11.643-6.427-.007-11.636-5.216-11.643-11.643zm32.6 39.584H88.588c.971-10.702 8.524-19.659 18.909-22.424 10.386-2.764 21.392 1.252 27.556 10.055v12.37zM39.586 20.96c2.572 0 4.657 2.085 4.657 4.657H48.9c-.016-4.234-2.885-7.925-6.985-8.983v-2.66h-4.657v2.66c-4.536 1.167-7.496 5.529-6.905 10.175.591 4.647 4.55 8.127 9.233 8.122 2.572 0 4.657 2.085 4.657 4.657 0 2.571-2.085 4.657-4.657 4.657s-4.656-2.086-4.656-4.657h-4.657c.015 4.234 2.885 7.924 6.985 8.983v2.659h4.657v-2.66c4.536-1.166 7.495-5.527 6.904-10.174-.592-4.647-4.548-8.128-9.233-8.122-2.572 0-4.656-2.085-4.656-4.657s2.084-4.657 4.656-4.657zM100.127 44.245c-2.573 0-4.657-2.086-4.657-4.657h-4.657c.016 4.234 2.886 7.924 6.986 8.983v2.659h4.656v-2.66c4.537-1.166 7.495-5.527 6.904-10.174-.591-4.647-4.548-8.128-9.232-8.122-2.573 0-4.657-2.085-4.657-4.657s2.084-4.657 4.657-4.657c2.572 0 4.657 2.085 4.657 4.657h4.657c-.016-4.234-2.886-7.925-6.986-8.983v-2.66H97.8v2.66c-4.537 1.167-7.496 5.529-6.905 10.175.591 4.647 4.549 8.127 9.233 8.122 2.572 0 4.657 2.085 4.657 4.657 0 2.571-2.085 4.657-4.657 4.657z"/>
        <path fill="#000" d="M97.896 86.157c.994-.04 1.852-.71 2.136-1.664.283-.954-.072-1.982-.884-2.56-2.298-1.629-8.272-7.005-8.335-12.093.067-1.805.74-3.533 1.909-4.909 1.686.176 3.38.265 5.077.27 23.11 0 41.912-14.622 41.912-32.599C139.711 14.627 120.908.003 97.8.003c-9.947-.122-19.694 2.79-27.942 8.348C61.608 2.792 51.86-.12 41.915.003 18.805.003.002 14.627.002 32.603S18.804 65.2 41.915 65.2c1.695-.006 3.39-.097 5.075-.272 1.166 1.37 1.839 3.092 1.91 4.89-.063 5.097-6.038 10.464-8.336 12.108-.817.575-1.175 1.607-.892 2.565.283.958 1.147 1.628 2.145 1.665h.698c2.913 0 14.009-.502 19.853-7.874 4.047-5.534 5.516-12.542 4.032-19.236 1.198-.675 2.344-1.423 3.459-2.203 1.118.78 2.26 1.53 3.457 2.203-1.483 6.693-.014 13.7 4.031 19.233 5.845 7.384 16.94 7.877 19.852 7.877h.697zM62.722 55.745c-.947.484-1.447 1.547-1.213 2.585 1.527 6.817.538 12.879-2.794 17.067-2.662 2.94-6.256 4.872-10.176 5.472 2.9-2.968 4.673-6.854 5.018-10.99-.111-3.35-1.472-6.538-3.814-8.936-.442-.505-1.08-.795-1.751-.795-.091.001-.182.007-.273.016-1.925.242-3.863.369-5.804.38-20.543 0-37.256-12.534-37.256-27.942C4.66 17.195 21.372 4.66 41.915 4.66c9.523-.163 18.842 2.78 26.544 8.383 6.473 4.45 10.448 11.71 10.712 19.56-.265 7.853-4.246 15.114-10.725 19.558-1.798 1.363-3.714 2.562-5.724 3.584zm18.271 19.65C77.666 71.204 76.676 65.15 78.2 58.33c.233-1.038-.266-2.1-1.213-2.585-1.14-.582-2.24-1.234-3.308-1.92 6.285-5.28 9.984-13.016 10.149-21.223-.16-8.21-3.857-15.955-10.14-21.243 7.235-4.48 15.6-6.804 24.11-6.699 20.542 0 37.256 12.535 37.256 27.942 0 15.408-16.714 27.942-37.255 27.942-1.941-.011-3.88-.138-5.806-.38-.76-.083-1.514.207-2.024.779-2.343 2.4-3.704 5.592-3.813 8.946.345 4.131 2.117 8.013 5.013 10.98-3.92-.601-7.513-2.534-10.176-5.474z"/>
    </g>
</svg>
