<svg xmlns="http://www.w3.org/2000/svg" width="141" height="141" viewBox="0 0 141 141">
    <g fill="none" opacity=".5">
        <g>
            <path fill="#7B7B7B" d="M103.45 38.192v12.833c-.016 4.796-3.666 8.8-8.44 9.257-.281.027-.567.04-.858.04H10.848c-.29 0-.576-.013-.857-.04-4.775-.458-8.425-4.46-8.44-9.257V38.192l.104-.013.002.013c.25 1.187 5.274 4.37 5.274 4.37 4.269 2.814 11.947 5.116 17.06 5.116h5.664l1.42 4.346c.764 2.346 3.409 4.264 5.877 4.264h28.34c2.468 0 5.136-1.912 5.93-4.247l1.485-4.363h8.553c5.112 0 12.777-2.322 17.03-5.162 0 0 4.69-3.192 5.077-4.324h.082z" transform="translate(1 -24) translate(17.5 88.167)"/>
            <path fill="#7B7B7B" d="M101.161 29.097s2.497 8.251 2.206 9.095c-.387 1.132-5.077 4.324-5.077 4.324-4.253 2.84-11.918 5.162-17.03 5.162H23.99c-5.112 0-12.79-2.302-17.059-5.115 0 0-5.024-3.184-5.274-4.37l-.002-.014c-.146-.902 2.17-9.082 2.17-9.082 1.248-4.362 5.59-8.022 10.124-8.79.57-.098 1.149-.148 1.728-.149h73.63c.574 0 1.146.049 1.71.144 4.544.762 8.895 4.426 10.144 8.795z" transform="translate(1 -24) translate(17.5 88.167)"/>
            <path fill="#EBEBEB" d="M91.05 19.881c.148-2.947 2.581-5.262 5.532-5.26h.665c3.058 0 5.538 2.479 5.538 5.537h-11.74c0-.093.002-.184.006-.277zM95.014 60.322v7.802c0 .594-.236 1.165-.657 1.585-.42.42-.99.657-1.585.657h-7.41c-.594 0-1.164-.237-1.585-.657-.42-.42-.656-.99-.656-1.585v-7.802h11.031c.29 0 .576-.013.857-.04l.005.04zM88.896 32.803c2.31 0 4.182 1.873 4.182 4.183 0 2.31-1.873 4.183-4.183 4.183-2.31 0-4.183-1.872-4.184-4.182 0-1.11.44-2.174 1.225-2.96.785-.784 1.85-1.225 2.96-1.224z" transform="translate(1 -24) translate(17.5 88.167)"/>
            <path fill="#FFF" d="M85.427 6.93L91.05 19.88c-.004.093-.007.184-.007.277l-.026.144c-.565-.095-1.137-.143-1.71-.144H40.69c-.029-.228-.067-.454-.11-.678-.87-4.219-4.646-7.202-8.952-7.07-4.306.131-7.893 3.34-8.502 7.604v.144h-7.45v-.664h.05c.002-.82-.18-1.628-.53-2.368L19.865 6.79c1.435-3.173 4.596-5.212 8.079-5.21l49.358.017c3.528.002 6.719 2.096 8.124 5.332z" transform="translate(1 -24) translate(17.5 88.167)"/>
            <path fill="#EBEBEB" d="M72.707 47.678l-1.484 4.363c-.795 2.335-3.463 4.247-5.93 4.247H36.952c-2.468 0-5.113-1.918-5.877-4.264l-1.42-4.346h43.052z" transform="translate(1 -24) translate(17.5 88.167)"/>
            <path fill="#FFF" d="M40.69 20.158H23.128v-.144c.609-4.264 4.196-7.473 8.502-7.605 4.306-.131 8.082 2.852 8.951 7.071.044.224.082.45.11.678z" transform="translate(1 -24) translate(17.5 88.167)"/>
            <path fill="#EBEBEB" d="M21.388 60.322v7.802c0 .594-.236 1.165-.657 1.585-.42.42-.99.657-1.585.657h-6.918c-.595 0-1.165-.237-1.585-.657-.42-.42-.657-.99-.657-1.585v-7.802l.005-.04c.28.027.567.04.857.04h10.54zM16.107 32.803c2.31 0 4.182 1.873 4.182 4.183 0 2.31-1.873 4.183-4.183 4.183-2.31 0-4.183-1.872-4.184-4.182 0-1.11.44-2.174 1.225-2.96.785-.784 1.85-1.225 2.96-1.224zM15.196 17.126l-1.07 2.368H3.987c0-1.47.583-2.878 1.622-3.917 1.039-1.038 2.447-1.622 3.916-1.621h.665c2.141-.001 4.091 1.234 5.006 3.17z" transform="translate(1 -24) translate(17.5 88.167)"/>
            <path fill="#000" d="M16.107 42.72c3.166 0 5.733-2.568 5.733-5.735-.001-3.167-2.569-5.734-5.736-5.733-3.166 0-5.733 2.568-5.732 5.735.003 3.166 2.57 5.73 5.735 5.733zm0-8.367c1.453 0 2.631 1.18 2.631 2.633 0 1.454-1.178 2.632-2.632 2.633-1.454 0-2.633-1.178-2.633-2.632.001-1.454 1.18-2.633 2.634-2.634zM88.896 42.72c3.166 0 5.733-2.568 5.732-5.735 0-3.167-2.568-5.734-5.735-5.733-3.166 0-5.733 2.568-5.733 5.735.004 3.166 2.57 5.73 5.736 5.733zm0-8.367c1.453 0 2.631 1.18 2.631 2.633 0 1.454-1.178 2.632-2.632 2.633-1.454 0-2.633-1.178-2.633-2.632 0-1.454 1.18-2.633 2.634-2.634zM25.95 37.437h53.1c.855 0 1.55-.695 1.55-1.55 0-.857-.695-1.552-1.55-1.552h-53.1c-.855 0-1.55.695-1.55 1.551s.695 1.55 1.55 1.55zM25.95 42.532h53.1c.855 0 1.55-.695 1.55-1.551s-.695-1.55-1.55-1.55h-53.1c-.855 0-1.55.694-1.55 1.55 0 .856.695 1.55 1.55 1.55z" transform="translate(1 -24) translate(17.5 88.167)"/>
            <path fill="#000" d="M102.648 28.658c-.767-2.672-2.561-5.131-4.885-6.95h5.022c.856 0 1.55-.693 1.55-1.55-.004-3.913-3.175-7.084-7.088-7.088h-.665c-1.88-.006-3.686.742-5.013 2.075-.21.212-.408.437-.591.674l-4.129-9.507C85.201 2.505 81.452.039 77.304.032L27.946 0h-.007c-4.09.011-7.799 2.41-9.486 6.136l-3.615 8.008c-1.29-1.12-2.94-1.737-4.648-1.739h-.665c-1.88 0-3.683.746-5.013 2.076s-2.076 3.132-2.075 5.013c0 .856.694 1.55 1.55 1.55H8.14c-2.768 1.861-4.942 4.61-5.805 7.63C.784 34.15.29 36.475.15 37.528c-.1.207-.151.435-.151.665v12.832c.012 5.05 3.498 9.429 8.418 10.572v6.527c.004 2.112 1.698 3.832 3.81 3.87h6.918c2.128-.031 3.85-1.742 3.892-3.87v-6.32h58.481v6.32c.02 2.118 1.725 3.835 3.843 3.87h7.41c2.112-.038 3.806-1.758 3.81-3.87v-6.527c4.92-1.144 8.405-5.522 8.418-10.572V38.192c0-.173-.03-.346-.087-.51-.093-1.1-.582-3.461-2.265-9.024zm-8.886-11.32c.747-.75 1.762-1.17 2.82-1.167h.665c1.602.001 3.049.96 3.673 2.437h-8.012c.2-.475.49-.906.854-1.27zM21.278 7.414c1.185-2.617 3.788-4.303 6.662-4.313h.004l49.358.032c2.912.004 5.545 1.735 6.702 4.406l4.803 11.069H41.966c-1.208-4.57-5.34-7.752-10.066-7.752-4.725 0-8.858 3.183-10.066 7.752h-4.612c-.06-.497-.174-.985-.339-1.458l4.395-9.736zm17.434 11.194H25.088c1.096-2.806 3.8-4.654 6.812-4.654 3.012 0 5.716 1.848 6.812 4.654zM6.705 16.674c.747-.75 1.762-1.17 2.82-1.168h.665c1.3.005 2.519.64 3.266 1.706l-.331.731H5.848c.2-.475.492-.906.857-1.27zM5.316 29.522c1.06-3.703 4.882-7.007 8.893-7.687.485-.083.976-.125 1.468-.126h73.63c.488 0 .974.042 1.454.122 4.018.674 7.848 3.98 8.91 7.692l.006.022c.961 3.178 1.994 7.009 2.144 8.203-.603.706-2.658 2.273-4.392 3.453-3.978 2.656-11.383 4.875-16.17 4.875H23.992c-4.788 0-12.21-2.2-16.206-4.834-.008-.005-.016.003-.024-.002-1.974-1.251-3.965-2.754-4.536-3.417.175-1.192 1.173-5.058 2.091-8.3v-.001zm65.226 19.655l-.787 2.328c-.58 1.702-2.665 3.21-4.462 3.21H36.952c-1.791 0-3.849-1.506-4.403-3.21l-.756-2.328h38.749zM19.937 68.124c-.04.415-.375.74-.791.768h-6.918c-.4-.035-.706-.368-.709-.768v-6.32h8.418v6.32zm72.835.768h-7.41c-.405-.032-.724-.362-.742-.768v-6.32h8.861v6.32c-.003.4-.31.733-.709.768zm2.092-10.188c-.232.022-.471-.001-.712-.001H10.848c-.24 0-.48.023-.715 0-3.965-.38-7.001-3.695-7.032-7.678v-9.21c.772.586 1.75 1.239 2.989 2.025 4.497 2.958 12.522 5.338 17.9 5.338h4.54l1.07 3.29c.975 2.99 4.204 5.348 7.352 5.348h28.34c3.137 0 6.387-2.34 7.4-5.312l1.125-3.327h7.443c5.388 0 13.414-2.407 17.903-5.405 1.057-.72 1.97-1.355 2.736-1.958v9.21c-.03 3.985-3.069 7.302-7.035 7.68z" transform="translate(1 -24) translate(17.5 88.167)"/>
        </g>
        <g>
            <path fill="#7B7B7B" d="M55.99 27.641L31.066 2.715C29.34.99 26.953 0 24.512 0H5.296C2.376 0 0 2.375 0 5.296V24.51c0 2.475.964 4.802 2.715 6.554L27.641 55.99c1.458 1.457 3.398 2.26 5.456 2.26 2.058 0 3.997-.803 5.456-2.26L55.99 38.553c1.458-1.456 2.26-3.394 2.26-5.456 0-2.062-.802-4-2.26-5.456z" transform="translate(1 -24) rotate(-135 52.138 26.876)"/>
            <path fill="#EBEBEB" d="M54.119 29.562L29.192 4.636c-1.23-1.232-2.937-1.94-4.68-1.94H5.296c-1.461 0-2.648 1.189-2.648 2.649V24.56c0 1.768.688 3.43 1.94 4.682l24.925 24.926c1.919 1.913 5.25 1.913 7.168 0L54.119 36.73c.956-.957 1.484-2.23 1.484-3.584 0-1.355-.528-2.627-1.484-3.584z" transform="translate(1 -24) rotate(-135 52.138 26.876)"/>
            <path fill="#000" d="M17.676 18.473c1.818-1.818 4.767-1.818 6.586 0l3.292-3.293c-3.005-2.983-7.643-3.563-11.291-1.412l-1.88-1.88-3.293 3.292 1.88 1.88c-2.382 4.034-1.39 9.21 2.313 12.078 3.704 2.868 8.963 2.53 12.271-.786 1.819-1.819 4.768-1.819 6.586 0 1.819 1.819 1.819 4.767 0 6.586-1.819 1.82-4.767 1.818-6.586 0l-3.292 3.293c3.005 2.983 7.643 3.563 11.291 1.412l1.88 1.88 3.293-3.292-1.88-1.88c2.383-4.033 1.39-9.209-2.313-12.077-3.704-2.867-8.963-2.531-12.271.785-1.82 1.82-4.768 1.819-6.586 0-1.819-1.819-1.82-4.767 0-6.586z" transform="translate(1 -24) rotate(-135 52.138 26.876)"/>
        </g>
    </g>
</svg>
