<svg xmlns="http://www.w3.org/2000/svg" xmlns:xlink="http://www.w3.org/1999/xlink" width="30" height="30" viewBox="0 0 30 30">
    <defs>
        <path id="a" d="M28.439 6.11l-2.41-1.1-2.127-3.393A3.35 3.35 0 0 0 21.043.043h-9.061a3.38 3.38 0 0 0-2.687 1.322L6.547 4.961l-4.58 1.254A2.686 2.686 0 0 0 0 8.804v1.752c0 1.481 1.18 2.704 2.662 2.704h.393a3.413 3.413 0 0 0 6.609 0h10.328a3.413 3.413 0 0 0 6.608 0h.738c1.482 0 2.662-1.223 2.662-2.704V8.558a2.679 2.679 0 0 0-1.561-2.447zM6.357 14.577a2.183 2.183 0 1 1 0-4.366 2.183 2.183 0 0 1 0 4.366zm16.936 0a2.183 2.183 0 1 1 .001-4.366 2.183 2.183 0 0 1-.001 4.366zm4.045-2.545h-.652a3.41 3.41 0 0 0-3.768-3.018A3.407 3.407 0 0 0 19.9 12.03H9.75a3.41 3.41 0 0 0-3.768-3.018 3.407 3.407 0 0 0-3.019 3.018h-.307c-.806 0-1.433-.67-1.433-1.475V8.804a1.448 1.448 0 0 1 1.064-1.408l4.789-1.31a.6.6 0 0 0 .326-.221l2.864-3.756a2.173 2.173 0 0 1 1.716-.836h9.061a2.118 2.118 0 0 1 1.82.996l2.225 3.553c.062.104.16.184.264.234l2.57 1.174c.517.24.848.756.842 1.328v1.998h.006c0 .805-.627 1.475-1.432 1.475z"/>
    </defs>
    <g fill="none" fill-rule="evenodd" opacity=".7">
        <path d="M0 0h30v30H0z"/>
        <g transform="translate(0 7.5)">
            <mask id="b" fill="#fff">
                <use xlink:href="#a"/>
            </mask>
            <use fill="#000" fill-rule="nonzero" xlink:href="#a"/>
            <g fill="#2A4363" mask="url(#b)">
                <path d="M0-7.5h30v30H0z"/>
            </g>
        </g>
    </g>
</svg>
