<svg width="68" height="68" viewBox="0 0 68 68" fill="none" xmlns="http://www.w3.org/2000/svg" fill="#71C544">
    <path d="M34.0013 0.666016C15.6013 0.666016 0.667969 15.5993 0.667969 33.9994C0.667969 52.3994 15.6013 67.3327 34.0013 67.3327C52.4013 67.3327 67.3346 52.3994 67.3346 33.9994C67.3346 15.5993 52.4013 0.666016 34.0013 0.666016ZM34.0013 60.666C19.3013 60.666 7.33464 48.6994 7.33464 33.9994C7.33464 19.2994 19.3013 7.33268 34.0013 7.33268C48.7013 7.33268 60.668 19.2994 60.668 33.9994C60.668 48.6994 48.7013 60.666 34.0013 60.666ZM46.9346 21.6327L27.3346 41.2327L21.068 34.966C19.768 33.666 17.668 33.666 16.368 34.966C15.068 36.266 15.068 38.366 16.368 39.666L25.0013 48.2994C26.3013 49.5994 28.4013 49.5994 29.7013 48.2994L51.668 26.3327C52.968 25.0327 52.968 22.9327 51.668 21.6327C50.368 20.3327 48.2346 20.3327 46.9346 21.6327Z"/>
</svg>
