<svg xmlns="http://www.w3.org/2000/svg" xmlns:xlink="http://www.w3.org/1999/xlink" width="30" height="30" viewBox="0 0 30 30">
    <defs>
        <path id="a" d="M12.255 0c.354 0 .707.142.964.4l.449.448 1.037 1.038 3.502 3.501 1.037 1.038.329.329c.257.256.399.598.399.962 0 .365-.142.707-.4.964l-3.63 3.63a1.35 1.35 0 0 1-.963.4 1.35 1.35 0 0 1-.963-.4l-.45-.45-1.037-1.036-.704-.705c-2.899 3.342-7.162 7.757-8.726 9.32a1.817 1.817 0 0 1-2.567-2.567c1.3-1.299 5.817-5.668 9.332-8.714l-.837-.836L7.99 6.285l-.329-.33a1.35 1.35 0 0 1-.399-.962c0-.364.142-.707.4-.963l3.63-3.631A1.37 1.37 0 0 1 12.256 0zm4.993 15.433a2.726 2.726 0 0 1 2.724 2.723 1.817 1.817 0 0 1-1.816 1.816h-8.17a1.817 1.817 0 0 1-1.816-1.816 2.726 2.726 0 0 1 2.724-2.723zm-6.74-6.631c-3.502 3.03-8.035 7.413-9.334 8.712a.909.909 0 0 0 1.284 1.284c1.564-1.565 5.841-5.995 8.723-9.323zm6.74 7.538h-6.354a1.817 1.817 0 0 0-1.816 1.816c0 .5.407.908.908.908h8.17c.5 0 .908-.408.908-.908a1.817 1.817 0 0 0-1.816-1.816zm.775-9.21l-3.632 3.631a1.366 1.366 0 0 1 .12.761l.147.146a.464.464 0 0 0 .641 0l3.632-3.63a.45.45 0 0 0 .133-.322.449.449 0 0 0-.133-.32l-.146-.147a1.291 1.291 0 0 1-.762-.12zm-4.539-4.54L9.853 6.222a1.365 1.365 0 0 1 .12.761L12.988 10c.276-.041.534.01.762.12l3.632-3.632a1.366 1.366 0 0 1-.134-.586c0-.058.005-.116.014-.175L14.246 2.71a1.296 1.296 0 0 1-.762-.12zm-.908-1.55a.464.464 0 0 0-.641 0L8.303 4.672a.45.45 0 0 0-.133.32c0 .122.047.236.133.321l.146.147c.276-.04.534.013.76.12l3.634-3.632a1.367 1.367 0 0 1-.12-.761z"/>
    </defs>
    <g fill="none" fill-rule="evenodd" opacity=".7" transform="matrix(-1 0 0 1 25 5)">
        <mask id="b" fill="#fff">
            <use xlink:href="#a"/>
        </mask>
        <use fill="#000" fill-rule="nonzero" xlink:href="#a"/>
        <g fill="#2A4363" mask="url(#b)">
            <path d="M27.143-5.893H-7.143v34.286h34.286z"/>
        </g>
    </g>
</svg>
