<svg xmlns="http://www.w3.org/2000/svg" xmlns:xlink="http://www.w3.org/1999/xlink" width="30" height="30" viewBox="0 0 30 30">
    <defs>
        <path id="a" d="M14.126 1.937a.454.454 0 0 1 .642 0l3.255 3.257a.454.454 0 0 1 0 .642l-4.915 4.919a.452.452 0 0 1-.642 0l-.641-.643c-2.899 3.345-7.162 7.762-8.726 9.327a1.803 1.803 0 0 1-1.283.533A1.818 1.818 0 0 1 .532 16.87c1.3-1.3 5.817-5.672 9.332-8.72l-.653-.653a.454.454 0 0 1 0-.642zm3.122 13.496a2.715 2.715 0 0 1 2.724 2.71 1.817 1.817 0 0 1-1.816 1.815h-8.17a1.817 1.817 0 0 1-1.816-1.815 2.715 2.715 0 0 1 2.724-2.71zm1.417-8.954a.454.454 0 0 1 .642 0l.266.266c.257.256.399.599.399.963 0 .365-.142.707-.4.964l-3.63 3.633a1.35 1.35 0 0 1-.963.4 1.35 1.35 0 0 1-.963-.4l-.266-.266a.454.454 0 0 1 0-.642zM11.293.386c.512-.515 1.412-.515 1.926 0l.265.266a.454.454 0 0 1 0 .642L8.57 6.213a.452.452 0 0 1-.642 0l-.266-.267a1.352 1.352 0 0 1-.399-.963c0-.365.142-.707.4-.964z"/>
    </defs>
    <g fill="none" fill-rule="evenodd" transform="matrix(-1 0 0 1 25 5)">
        <mask id="b" fill="#fff">
            <use xlink:href="#a"/>
        </mask>
        <use fill="#000" fill-rule="nonzero" xlink:href="#a"/>
        <g fill="#2A4363" mask="url(#b)">
            <path d="M27.143-7.143H-7.143v34.286h34.286z"/>
        </g>
    </g>
</svg>
