<svg xmlns="http://www.w3.org/2000/svg" xmlns:xlink="http://www.w3.org/1999/xlink" width="30" height="30" viewBox="0 0 30 30">
    <defs>
        <path id="a" d="M10.628 0c1.015 0 1.84.826 1.84 1.841v.425c.432.138.852.312 1.255.52l.3-.3a1.841 1.841 0 0 1 2.605 0l.887.887c.709.708.73 1.875 0 2.604l-.301.3c.208.403.382.823.52 1.254h.425c1.015 0 1.841.826 1.841 1.841v1.256a1.843 1.843 0 0 1-1.841 1.84h-.425c-.138.432-.312.852-.52 1.255l.3.3c.73.729.71 1.896 0 2.605l-.887.887c-.71.71-1.876.728-2.604 0l-.3-.301a8.082 8.082 0 0 1-1.254.52v.425A1.843 1.843 0 0 1 10.628 20H9.372a1.843 1.843 0 0 1-1.84-1.841v-.425a8.074 8.074 0 0 1-1.255-.52l-.3.3a1.841 1.841 0 0 1-2.605 0l-.887-.887a1.841 1.841 0 0 1 0-2.604l.301-.3a8.075 8.075 0 0 1-.52-1.254H1.84A1.843 1.843 0 0 1 0 10.628V9.372c0-1.015.826-1.84 1.841-1.84h.425c.138-.432.312-.852.52-1.255l-.3-.3a1.841 1.841 0 0 1 0-2.605l.887-.887a1.841 1.841 0 0 1 2.604 0l.3.301a8.082 8.082 0 0 1 1.254-.52V1.84C7.531.826 8.357 0 9.372 0h1.256zm-.618 5.938A4.067 4.067 0 0 0 5.948 10a4.067 4.067 0 0 0 4.062 4.063A4.067 4.067 0 0 0 14.073 10a4.067 4.067 0 0 0-4.063-4.063z"/>
    </defs>
    <g fill="none" fill-rule="evenodd" transform="translate(5 5)">
        <mask id="b" fill="#fff">
            <use xlink:href="#a"/>
        </mask>
        <use fill="#000" fill-rule="nonzero" xlink:href="#a"/>
        <g fill="#2A4363" mask="url(#b)">
            <path d="M-5-5h30v30H-5z"/>
        </g>
    </g>
</svg>
