<svg xmlns="http://www.w3.org/2000/svg" xmlns:xlink="http://www.w3.org/1999/xlink" width="30" height="30" viewBox="0 0 30 30">
    <defs>
        <path id="a" d="M7.41 14.643a2.679 2.679 0 1 1 0 5.357 2.679 2.679 0 0 1 0-5.357zm10.358 0a2.679 2.679 0 1 1 0 5.357 2.679 2.679 0 0 1 0-5.357zm-10.357.985a1.694 1.694 0 1 0 0 3.387 1.694 1.694 0 0 0 0-3.387zm10.357 0a1.694 1.694 0 1 0 0 3.387 1.694 1.694 0 0 0 0-3.387zM.491 0l.088.008 1.286.226a2.958 2.958 0 0 1 2.36 2.208l.039.181.354 1.981h17.394a.5.5 0 0 1 .394.197.513.513 0 0 1 .091.347l-.017.09-2.315 7.66a2.456 2.456 0 0 1-2.18 1.739l-.18.006H7.461a2.457 2.457 0 0 1-2.389-1.865l-.035-.166-1.744-9.817a1.968 1.968 0 0 0-1.435-1.558l-.16-.035L.406.976A.492.492 0 0 1 .404.008L.491 0z"/>
    </defs>
    <g fill="none" fill-rule="evenodd" transform="matrix(-1 0 0 1 26.25 5)">
        <mask id="b" fill="#fff">
            <use xlink:href="#a"/>
        </mask>
        <use fill="#000" fill-rule="nonzero" xlink:href="#a"/>
        <g fill="#2A4363" mask="url(#b)">
            <path d="M26.25-5h-30v30h30z"/>
        </g>
    </g>
</svg>
