<svg xmlns="http://www.w3.org/2000/svg" xmlns:xlink="http://www.w3.org/1999/xlink" width="30" height="30" viewBox="0 0 30 30">
    <defs>
        <path id="a" d="M7.41 14.643a2.679 2.679 0 1 1 0 5.357 2.679 2.679 0 0 1 0-5.357zm10.358 0a2.679 2.679 0 1 1 0 5.357 2.679 2.679 0 0 1 0-5.357zm-10.357.985a1.694 1.694 0 1 0 0 3.387 1.694 1.694 0 0 0 0-3.387zm10.357 0a1.694 1.694 0 1 0 0 3.387 1.694 1.694 0 0 0 0-3.387zM.491 0l.088.008 1.286.226a2.958 2.958 0 0 1 2.399 2.389l.354 1.981h17.394a.5.5 0 0 1 .394.197c.09.127.117.288.074.437l-2.315 7.66a2.456 2.456 0 0 1-2.36 1.745H7.461a2.457 2.457 0 0 1-2.424-2.03L3.293 2.794a1.968 1.968 0 0 0-1.596-1.593L.407.976A.492.492 0 1 1 .579.008zm20.86 5.582H4.797l1.217 6.853a1.47 1.47 0 0 0 1.453 1.22H17.81a1.467 1.467 0 0 0 1.414-1.048l2.128-7.025z"/>
    </defs>
    <g fill="none" fill-rule="evenodd" opacity=".7" transform="matrix(-1 0 0 1 26.25 5)">
        <mask id="b" fill="#fff">
            <use xlink:href="#a"/>
        </mask>
        <use fill="#000" fill-rule="nonzero" xlink:href="#a"/>
        <g fill="#2A4363" mask="url(#b)">
            <path d="M26.25-5h-30v30h30z"/>
        </g>
    </g>
</svg>
