<svg width="44" height="46" viewBox="0 0 44 46" fill="none" xmlns="http://www.w3.org/2000/svg">
<path fill-rule="evenodd" clip-rule="evenodd" d="M25.2 5.89983C25.2 4.28479 23.5859 3.17601 22.0916 3.74239L6.21083 9.7427C4.5773 10.3611 3.5 11.9207 3.5 13.6799V22.8197C3.5 23.6482 2.82843 24.3197 2 24.3197C1.17157 24.3197 0.5 23.6482 0.5 22.8197V13.6799C0.5 10.6792 2.34306 7.9986 5.14915 6.93684L21.0284 0.937142C24.4941 -0.376479 28.2 2.19486 28.2 5.89983V13.4998C28.2 14.3282 27.5284 14.9998 26.7 14.9998C25.8716 14.9998 25.2 14.3282 25.2 13.4998V5.89983Z" fill="#FF793F"/>
<path fill-rule="evenodd" clip-rule="evenodd" d="M9.5 22C9.5 21.1716 10.1716 20.5 11 20.5H25C25.8284 20.5 26.5 21.1716 26.5 22C26.5 22.8284 25.8284 23.5 25 23.5H11C10.1716 23.5 9.5 22.8284 9.5 22Z" fill="#FF793F"/>
<path fill-rule="evenodd" clip-rule="evenodd" d="M9.51999 15C6.20842 15 3.5 17.7084 3.5 21.02V24.48C3.5 25.3084 2.82843 25.98 2 25.98C1.17157 25.98 0.5 25.3084 0.5 24.48V21.02C0.5 16.0516 4.55155 12 9.51999 12H32.48C37.4484 12 41.5 16.0516 41.5 21.02V23.9C41.5 24.7285 40.8284 25.4 40 25.4H35.96C35.2419 25.4 34.6103 25.6785 34.1547 26.1464L34.1278 26.1733C33.5957 26.6928 33.2984 27.4323 33.3732 28.2178L33.3749 28.2354L33.3748 28.2354C33.4807 29.5054 34.7018 30.6 36.2 30.6H40C40.8284 30.6 41.5 31.2715 41.5 32.1V34.48C41.5 39.4484 37.4484 43.5 32.48 43.5H21.52C20.6916 43.5 20.02 42.8284 20.02 42C20.02 41.1716 20.6916 40.5 21.52 40.5H32.48C35.7916 40.5 38.5 37.7916 38.5 34.48V33.6H36.2C33.3809 33.6 30.6447 31.5386 30.3859 28.4934C30.2245 26.769 30.881 25.1581 32.0186 24.0399C33.0419 22.9963 34.4447 22.4 35.96 22.4H38.5V21.02C38.5 17.7084 35.7916 15 32.48 15H9.51999Z" fill="#424653"/>
<path fill-rule="evenodd" clip-rule="evenodd" d="M35.96 25.3999C35.2419 25.3999 34.6103 25.6783 34.1547 26.1463L34.1278 26.1732C33.5957 26.6926 33.2985 27.4322 33.3733 28.2176L33.3749 28.2353L33.3748 28.2353C33.4807 29.5053 34.7018 30.5999 36.2 30.5999H40.0856C40.4088 30.579 40.62 30.3262 40.62 30.0599V25.9398C40.62 25.6736 40.4088 25.4208 40.0856 25.3999H35.96ZM32.0186 24.0398C33.0418 22.9962 34.4447 22.3999 35.96 22.3999H40.12C40.1379 22.3999 40.1557 22.4002 40.1735 22.4009C42.0795 22.4689 43.62 24.0113 43.62 25.9398V30.0599C43.62 31.9885 42.0795 33.5308 40.1735 33.5989C40.1557 33.5995 40.1379 33.5999 40.12 33.5999H36.2C33.381 33.5999 30.6447 31.5385 30.3859 28.4933C30.2245 26.7689 30.881 25.158 32.0186 24.0398Z" fill="#424653"/>
<path fill-rule="evenodd" clip-rule="evenodd" d="M1.5 31C1.5 30.1716 2.17157 29.5 3 29.5H13.68C15.7884 29.5 17.5 31.2115 17.5 33.3199V35.88C17.5 36.7084 16.8284 37.38 16 37.38C15.1716 37.38 14.5 36.7084 14.5 35.88V33.3199C14.5 32.8684 14.1316 32.5 13.68 32.5H3C2.17157 32.5 1.5 31.8284 1.5 31Z" fill="#424653"/>
<path fill-rule="evenodd" clip-rule="evenodd" d="M6.50068 27.4994C7.08646 28.0852 7.08644 29.035 6.50065 29.6207L5.12135 31L6.50065 32.3793C7.08644 32.965 7.08646 33.9148 6.50068 34.5006C5.9149 35.0864 4.96515 35.0864 4.37936 34.5006L1.93935 32.0607C1.65804 31.7794 1.5 31.3978 1.5 31C1.5 30.6022 1.65804 30.2206 1.93935 29.9393L4.37936 27.4994C4.96515 26.9136 5.9149 26.9136 6.50068 27.4994Z" fill="#424653"/>
<path fill-rule="evenodd" clip-rule="evenodd" d="M3 35.1802C3.82843 35.1802 4.5 35.8517 4.5 36.6802V39.2401C4.5 39.6917 4.86849 40.0602 5.32001 40.0602H16C16.8284 40.0602 17.5 40.7318 17.5 41.5602C17.5 42.3886 16.8284 43.0602 16 43.0602H5.32001C3.21153 43.0602 1.5 41.3485 1.5 39.2401V36.6802C1.5 35.8517 2.17157 35.1802 3 35.1802Z" fill="#424653"/>
<path fill-rule="evenodd" clip-rule="evenodd" d="M12.4994 38.0594C13.0852 37.4737 14.035 37.4737 14.6207 38.0595L17.0607 40.4995C17.342 40.7808 17.5001 41.1624 17.5001 41.5602C17.5001 41.958 17.342 42.3396 17.0607 42.6209L14.6207 45.0608C14.0349 45.6466 13.0852 45.6466 12.4994 45.0608C11.9136 44.475 11.9136 43.5252 12.4994 42.9394L13.8787 41.5602L12.4994 40.1808C11.9136 39.595 11.9136 38.6452 12.4994 38.0594Z" fill="#424653"/>
</svg>
