<?xml version="1.0" standalone="no"?>
<!DOCTYPE svg PUBLIC "-//W3C//DTD SVG 1.1//EN" "http://www.w3.org/Graphics/SVG/1.1/DTD/svg11.dtd" >
<svg xmlns="http://www.w3.org/2000/svg">
<metadata>Generated by IcoMoon</metadata>
<defs>
<font id="icomoon" horiz-adv-x="1024">
<font-face units-per-em="1024" ascent="960" descent="-64" />
<missing-glyph horiz-adv-x="1024" />
<glyph unicode="&#x20;" horiz-adv-x="512" d="" />
<glyph unicode="&#xe900;" d="M938.688 497.083v104.533c0.016 11.548-2.245 22.985-6.657 33.655-4.411 10.672-10.884 20.368-19.050 28.532-8.164 8.165-17.86 14.639-28.532 19.050s-22.108 6.673-33.654 6.656h-57.173l-467.2 194.56c-7.945 3.355-16.479 5.088-25.103 5.097-8.623 0.009-17.162-1.707-25.111-5.046-7.951-3.339-15.154-8.235-21.185-14.398s-10.768-13.471-13.934-21.493l-63.573-158.72h-46.933c-11.548 0.017-22.985-2.244-33.656-6.656s-20.367-10.884-28.532-19.050c-8.165-8.164-14.639-17.86-19.050-28.532s-6.673-22.108-6.656-33.655v-506.88c-0.017-11.547 2.245-22.983 6.656-33.654s10.885-20.368 19.050-28.532c8.165-8.165 17.861-14.639 28.532-19.050 10.671-4.412 22.108-6.673 33.656-6.657h720.213c11.547-0.016 22.983 2.245 33.654 6.657 10.672 4.411 20.368 10.884 28.532 19.050 8.165 8.164 14.639 17.86 19.050 28.532 4.412 10.671 6.673 22.108 6.657 33.654v104.533c11.41 0.397 22.225 5.194 30.178 13.386s12.429 19.143 12.489 30.561v209.92c-0.060 11.418-4.534 22.37-12.489 30.562-7.953 8.192-18.768 12.989-30.178 13.385zM280.768 832.443c1.023 2.779 2.614 5.314 4.671 7.444s4.534 3.809 7.276 4.929c5.489 2.13 11.577 2.13 17.067 0l372.907-155.307h-103.253l-252.587 84.053c-5.212 1.814-10.923 1.539-15.935-0.768s-8.934-6.466-10.945-11.605l-27.733-71.68h-48.64l57.173 142.933zM444.608 689.509h-126.293l14.080 37.12 112.213-37.12zM896.021 94.736c-0.012-11.991-4.781-23.488-13.26-31.967s-19.975-13.248-31.967-13.26h-720.213c-11.991 0.012-23.489 4.781-31.968 13.26s-13.248 19.975-13.259 31.967v506.88c0.078 11.971 4.868 23.429 13.333 31.894 8.465 8.464 19.923 13.254 31.894 13.332h720.213c11.97-0.078 23.428-4.868 31.893-13.332s13.254-19.923 13.333-31.894v-104.107h-192c-39.606 0-77.589-15.733-105.595-43.739s-43.739-65.988-43.739-105.595c0-39.605 15.733-77.588 43.739-105.595 28.005-28.005 65.988-43.739 105.595-43.739h192v-104.107zM938.688 243.216c-0.031-0.443-0.22-0.859-0.533-1.173-0.315-0.314-0.731-0.502-1.174-0.533h-232.959c-28.29 0-55.421 11.238-75.425 31.243-20.004 20.003-31.242 47.135-31.242 75.424s11.237 55.421 31.242 75.425 47.135 31.242 75.425 31.242l234.667-1.707v-209.92z" />
<glyph unicode="&#xe901;" d="M704.042 497.458h192v104.107c-0.078 11.971-4.868 23.429-13.333 31.893s-19.922 13.255-31.893 13.333h-720.213c-11.97-0.078-23.428-4.868-31.894-13.333-8.465-8.464-13.255-19.922-13.333-31.893v-506.88c0.011-11.991 4.78-23.488 13.259-31.967 8.48-8.48 19.976-13.248 31.968-13.26h720.213c11.991 0.012 23.489 4.78 31.968 13.26s13.247 19.975 13.259 31.967v104.107h-192c-39.605 0-77.589 15.733-105.595 43.739s-43.739 65.989-43.739 105.595c0 39.606 15.733 77.589 43.739 105.595s65.989 43.739 105.595 43.739zM192.042 561.458h85.333c5.658 0 11.084-2.247 15.085-6.249 4.001-4 6.249-9.426 6.249-15.085s-2.247-11.084-6.249-15.085-9.427-6.249-15.085-6.249h-85.333c-5.658 0-11.084 2.247-15.085 6.249s-6.249 9.427-6.249 15.085c0 5.659 2.247 11.085 6.249 15.085 4.001 4.001 9.427 6.249 15.085 6.249zM362.708 433.458h-170.667c-5.658 0-11.084 2.247-15.085 6.249s-6.249 9.427-6.249 15.085c0 5.659 2.247 11.085 6.249 15.085 4.001 4.001 9.427 6.249 15.085 6.249h170.667c5.658 0 11.084-2.247 15.085-6.249 4.001-4 6.249-9.426 6.249-15.085s-2.247-11.084-6.249-15.085-9.427-6.249-15.085-6.249z" />
<glyph unicode="&#xe902;" d="M444.606 689.547h-126.293l14.080 37.12 112.213-37.12z" />
<glyph unicode="&#xe903;" d="M704.042 454.791c-28.29 0-55.421-11.237-75.425-31.242s-31.242-47.135-31.242-75.425c0-28.289 11.238-55.421 31.242-75.424 20.004-20.004 47.135-31.243 75.425-31.243h232.96c0.443 0.030 0.86 0.22 1.173 0.533s0.503 0.731 0.533 1.173v209.92l-234.667 1.707zM704.042 284.125c-12.658 0-25.031 3.754-35.556 10.786s-18.727 17.028-23.572 28.722c-4.844 11.695-6.111 24.563-3.642 36.978s8.564 23.819 17.516 32.769c8.95 8.95 20.354 15.045 32.769 17.515s25.282 1.202 36.977-3.642 21.69-13.047 28.722-23.572c7.033-10.524 10.786-22.898 10.786-35.556 0-16.974-6.742-33.252-18.746-45.254-12.002-12.002-28.281-18.746-45.254-18.746z" />
<glyph unicode="&#xe904;" d="M682.698 689.513h-103.253l-252.587 84.053c-5.211 1.814-10.922 1.539-15.934-0.768s-8.935-6.467-10.946-11.605l-27.733-71.68h-48.64l57.173 142.933c1.023 2.779 2.614 5.314 4.671 7.444s4.534 3.809 7.276 4.929c5.489 2.13 11.577 2.13 17.067 0l372.907-155.307z" />
<glyph unicode="&#xe905;" d="M704 412.166c-12.658 0-25.031-3.754-35.556-10.786s-18.727-17.027-23.572-28.722c-4.844-11.694-6.111-24.562-3.642-36.977s8.564-23.819 17.516-32.769c8.95-8.95 20.354-15.046 32.769-17.516s25.283-1.202 36.977 3.642c11.695 4.845 21.69 13.047 28.722 23.572s10.786 22.898 10.786 35.556c0 16.974-6.742 33.252-18.745 45.255-12.003 12.002-28.282 18.745-45.255 18.745zM704 326.833c-4.22 0-8.343 1.251-11.852 3.596-3.508 2.343-6.243 5.676-7.857 9.573-1.615 3.899-2.037 8.188-1.215 12.326s2.855 7.939 5.839 10.923 6.785 5.015 10.923 5.839c4.139 0.823 8.428 0.401 12.326-1.214s7.23-4.349 9.574-7.857c2.343-3.508 3.595-7.633 3.595-11.853 0-5.658-2.247-11.084-6.249-15.085-4-4.001-9.427-6.249-15.085-6.249z" />
<glyph unicode="&#xe906;" d="M704.020 326.833c11.782 0 21.333 9.552 21.333 21.333 0 11.782-9.551 21.333-21.333 21.333s-21.332-9.551-21.332-21.333c0-11.781 9.551-21.333 21.332-21.333z" />
<glyph unicode="&#xe907;" d="M298.688 540.166c0-5.658-2.249-11.084-6.249-15.085s-9.427-6.249-15.085-6.249h-85.333c-5.659 0-11.085 2.247-15.086 6.249-4 4.001-6.247 9.427-6.247 15.085 0 5.659 2.247 11.085 6.247 15.085 4.001 4.001 9.427 6.249 15.086 6.249h85.333c5.658 0 11.084-2.247 15.085-6.249 4-4 6.249-9.426 6.249-15.085z" />
<glyph unicode="&#xe908;" d="M384.021 454.833c0-5.658-2.249-11.084-6.249-15.085s-9.427-6.249-15.085-6.249h-170.667c-5.659 0-11.085 2.249-15.086 6.249-4 4.001-6.247 9.427-6.247 15.085 0 5.659 2.247 11.085 6.247 15.085 4.001 4.001 9.427 6.249 15.086 6.249h170.667c5.658 0 11.084-2.247 15.085-6.249 4-4 6.249-9.426 6.249-15.085z" />
<glyph unicode="&#xe909;" glyph-name="card" horiz-adv-x="864" d="M788.045 960h-712.076c-38.598 0-70-31.402-70-70v-437.648c0-38.598 31.402-70 70-70h80.916v-147.547c0-68.683 41.362-130.733 102.955-158.075v-110.73c0-16.568 13.432-30 30-30h284.333c16.568 0 30 13.432 30 30v110.728c61.592 27.342 102.955 89.392 102.955 158.074v147.549h80.917c38.598 0 70 31.402 70 70v437.65c0 38.598-31.403 70-70 70v0zM75.969 900h712.074c5.419 0 10-4.58 10-10v-56.224h-732.074v56.224c0 5.42 4.58 10 10 10zM544.173-4h-224.333v71.61h224.333v-71.61zM647.128 234.802c0-48.576-31.659-92.086-77.478-107.194h-275.283c-45.819 15.107-77.48 58.618-77.48 107.194v147.549h226.349c-26.635-29-51.763-73.2-51.763-136.797 0-16.568 13.432-30 30-30s30 13.432 30 30c0 92.158 74.312 126.357 77.299 127.691 11.205 4.643 18.146 15.427 18.146 27.557v134.902c0 27.629 22.475 50.106 50.106 50.106s50.106-22.475 50.106-50.106v-300.902zM788.045 442.352h-80.917v93.354c0 60.712-49.392 110.107-110.106 110.107s-110.106-49.394-110.106-110.107v-93.354h-410.948c-5.42 0-10 4.581-10 10v321.424h732.074v-321.424c0.002-5.419-4.579-10-9.998-10z" />
<glyph unicode="&#xe90a;" glyph-name="bag" horiz-adv-x="1057" d="M979.613 759.742h-211.172l-210.211 175.061c-8.075 6.697-18.429 10.746-29.714 10.746s-21.639-4.049-29.698-10.764c-0.017 0.018-210.229-175.042-210.229-175.042h-211.17c-42.69 0-77.419-34.728-77.419-77.419v-654.452c0-42.691 34.729-77.419 77.419-77.419h902.194c42.691 0 77.419 34.728 77.419 77.419v654.452c0 42.691-34.728 77.419-77.419 77.419zM544 899.097c0-8.539-6.945-15.484-15.484-15.484s-15.484 6.945-15.484 15.484c0 8.539 6.945 15.484 15.484 15.484s15.484-6.945 15.484-15.484zM484.955 882.971c6.57-17.689 23.616-30.326 43.561-30.326s36.991 12.637 43.561 30.326l147.971-123.229h-383.067l147.973 123.229zM1026.065 27.871c0-25.615-20.838-46.452-46.452-46.452h-902.194c-25.612 0-46.452 20.837-46.452 46.452v654.452c0 25.615 20.839 46.452 46.452 46.452h902.194c25.613 0 46.452-20.837 46.452-46.452v-654.452zM979.613 697.806h-902.194c-8.553 0-15.484-6.932-15.484-15.484v-296.258c0-8.55 6.93-15.484 15.484-15.484s15.484 6.933 15.484 15.484v280.774h871.226v-623.484h-871.226v280.774c0 8.55-6.931 15.484-15.484 15.484s-15.484-6.933-15.484-15.484v-296.258c0-8.55 6.93-15.484 15.484-15.484h902.194c8.554 0 15.484 6.933 15.484 15.484v654.452c0 8.552-6.93 15.484-15.484 15.484z" />
<glyph unicode="&#xe90b;" glyph-name="close-modal" d="M50.009-64.006c-9.89 0-19.559 2.931-27.783 8.422-8.224 5.498-14.634 13.306-18.419 22.445-3.785 9.133-4.775 19.187-2.845 28.89s6.694 18.611 13.688 25.6l924 924.003c9.376 9.378 22.099 14.647 35.36 14.647s25.984-5.269 35.36-14.647c9.376-9.378 14.643-22.097 14.643-35.36s-5.267-25.982-14.643-35.36l-924-924.003c-4.639-4.646-10.152-8.333-16.22-10.842-6.068-2.515-12.573-3.802-19.141-3.795zM974.010-64.006c-6.573-0.006-13.075 1.28-19.142 3.795-6.067 2.509-11.584 6.195-16.218 10.842l-924.003 924.003c-9.378 9.378-14.647 22.097-14.647 35.36s5.269 25.982 14.647 35.36c9.378 9.378 22.097 14.647 35.36 14.647s25.982-5.269 35.36-14.647l924.003-924.003c6.989-6.989 11.757-15.898 13.683-25.6 1.933-9.702 0.941-19.757-2.842-28.89-3.789-9.139-10.195-16.947-18.419-22.445-8.224-5.491-17.894-8.422-27.782-8.422z" />
<glyph unicode="&#xe90c;" glyph-name="user-deselected" d="M512 842.667c-100.148 0-181.333-81.186-181.333-181.333s81.186-181.333 181.333-181.333c100.147 0 181.333 81.186 181.333 181.333s-81.186 181.333-181.333 181.333zM266.667 661.333c0 135.494 109.839 245.333 245.333 245.333 135.492 0 245.333-109.839 245.333-245.333s-109.841-245.333-245.333-245.333c-135.494 0-245.333 109.839-245.333 245.333zM113.493 21.333c0 188.621 185.050 330.667 398.506 330.667 213.453 0 398.507-142.046 398.507-330.667 0-17.675-14.33-32-32-32-17.675 0-32 14.325-32 32 0 141.619-143.485 266.667-334.507 266.667-191.024 0-334.506-125.047-334.506-266.667 0-17.675-14.327-32-32-32s-32 14.325-32 32z" />
<glyph unicode="&#xe90d;" glyph-name="judge1" d="M619.93 403.961c12.493 12.497 32.757 12.497 45.255 0l211.2-211.198c12.493-12.498 12.493-32.762 0-45.255-12.498-12.498-32.762-12.498-45.255 0l-211.2 211.2c-12.498 12.493-12.498 32.757 0 45.253zM589.636 811.079c-20.784 20.783-54.709 20.783-75.493 0l-301.653-301.653c-20.783-20.783-20.783-54.708 0-75.492l180.907-180.91c20.783-20.782 54.709-20.782 75.492 0l301.654 301.656c20.782 20.783 20.782 54.708 0 75.492l-180.907 180.907zM468.889 856.334c45.777 45.777 120.224 45.777 166.002 0l180.907-180.908c45.773-45.777 45.773-120.224 0-166.001l-301.654-301.656c-45.777-45.773-120.225-45.773-166.002 0l-180.907 180.912c-45.777 45.775-45.777 120.222 0 165.998l301.654 301.654zM53.333 64c0 17.675 14.327 32 32 32h256c17.673 0 32-14.325 32-32s-14.327-32-32-32h-256c-17.673 0-32 14.325-32 32zM257.269 644.85c12.496 12.497 32.758 12.497 45.255 0l301.654-301.65c12.498-12.498 12.498-32.762 0-45.255-12.498-12.498-32.757-12.498-45.255 0l-301.653 301.65c-12.497 12.497-12.497 32.758 0 45.255z" />
<glyph unicode="&#xe90e;" glyph-name="shopping-cart1" d="M53.333 874.667c0 17.673 14.327 32 32 32h74.24c50.755 0 92.989-34.138 106.365-79.787h533.208c89.731 0 158.276-73.268 151.808-162.734l-23.051-320.144c-5.962-77.528-73.472-140.908-151.797-140.908h-454.4c-88.604 0-158.488 75.657-150.926 163.977 0.001 0.017-0.001-0.011 0 0l35.41 424.921c2.274 27.034-19.313 50.676-46.617 50.676h-74.24c-17.673 0-32 14.327-32 32zM267.986 762.88l-33.437-401.243c-4.359-50.756 35.827-94.544 87.157-94.544h454.4c44.533 0 84.52 37.274 87.984 81.744 0 0.023 0 0.046 0.006 0.068l23.023 319.846c3.777 52.188-35.197 94.129-87.973 94.129h-531.16zM693.333 96c-11.782 0-21.333-9.552-21.333-21.333s9.552-21.333 21.333-21.333c11.782 0 21.333 9.552 21.333 21.333s-9.552 21.333-21.333 21.333zM608 74.667c0 47.127 38.207 85.333 85.333 85.333s85.333-38.207 85.333-85.333c0-47.127-38.207-85.333-85.333-85.333s-85.333 38.207-85.333 85.333zM352 96c-11.782 0-21.333-9.552-21.333-21.333s9.551-21.333 21.333-21.333c11.782 0 21.333 9.552 21.333 21.333s-9.551 21.333-21.333 21.333zM266.667 74.667c0 47.127 38.205 85.333 85.333 85.333s85.333-38.207 85.333-85.333c0-47.127-38.205-85.333-85.333-85.333s-85.333 38.207-85.333 85.333zM352 618.667c0 17.673 14.327 32 32 32h512c17.675 0 32-14.327 32-32s-14.325-32-32-32h-512c-17.673 0-32 14.327-32 32z" />
<glyph unicode="&#xe90f;" glyph-name="smart-car1" d="M190.561 631.236c23.64 24.286 57.584 35.653 102.556 35.653h224.853c45.007 0 78.828-11.385 102.448-35.653 22.391-23.003 30.862-53.103 36.341-78.296l0.051-0.225 36.267-172.799c1.98-9.438-0.398-19.257-6.48-26.743-6.076-7.487-15.201-11.827-24.838-11.827h-512.003c-9.64 0-18.767 4.341-24.843 11.827s-8.455 17.311-6.475 26.743l36.236 172.653c5.102 25.463 13.426 55.595 35.885 78.667zM236.421 586.595c-8.751-8.99-14.304-23.157-19.019-46.729l-0.059-0.298h-0.002l-28.171-134.226h433.171l-28.143 134.112c-5.183 23.807-10.792 38.051-19.638 47.141-7.631 7.839-22.237 16.295-56.59 16.295h-224.853c-34.387 0-49.083-8.474-56.696-16.294zM134.684 283.295l-17.942-195.226c-1.819-17.789 12.665-34.719 33.018-34.719h60.16c6.747 0 10.229 0.705 11.763 1.178 0.039 0.080 0.081 0.165 0.126 0.262 0.873 1.883 1.71 4.324 3.337 9.324l0.069 0.21 6.455 19.359c0.195 0.575 0.397 1.178 0.607 1.803 3.582 10.661 9.576 28.513 24.004 42.126 16.729 15.781 39.357 21.737 66.706 21.737h163.839c26.495 0 49.176-5.040 66.138-20.708 14.433-13.329 20.549-31.346 24.366-42.587 0.267-0.779 0.523-1.525 0.768-2.236l0.097-0.296 6.292-18.876c1.741-4.858 2.606-7.27 3.578-9.301 0.159-0.324 0.29-0.586 0.404-0.791 1.394-0.461 4.733-1.206 11.423-1.206h60.16c19.968 0 34.634 16.64 32.99 35.026 0 0.017-0.006 0.034-0.006 0.051l-18.33 194.782c0 0.023 0 0.040-0.006 0.057-2.429 24.951-5.598 36.983-11.719 44.248-4.54 5.399-16.31 14.262-54.13 14.262h-408.32c-37.818 0-49.591-8.863-54.132-14.262-6.115-7.265-9.285-19.291-11.717-44.22zM587.634 54.921c0.011 0.011 0.125-0.040 0.307-0.165-0.222 0.097-0.319 0.159-0.307 0.165zM97.439 368.731c22.126 26.287 56.859 37.047 103.095 37.047h408.32c46.234 0 80.97-10.76 103.094-37.047 20.543-24.405 24.201-56.092 26.465-79.32l0.006-0.102 18.358-195.089c5.154-56.684-39.913-104.869-96.722-104.869h-60.16c-21.55 0-40.834 4.654-55.417 18.5-11.918 11.31-17.087 26.163-19.745 33.803-0.226 0.649-0.435 1.246-0.627 1.786l-0.221 0.643-6.351 19.046c-2.371 6.889-3.823 11.008-5.424 14.376-1.428 3.004-2.305 3.88-2.567 4.124-0.143 0.131-0.993 0.933-3.933 1.786-3.363 0.978-9.156 1.934-18.782 1.934h-163.839c-18.377 0-22.407-3.92-22.771-4.272-0.007-0.006 0.005 0.006 0 0-1.682-1.587-3.341-4.409-7.913-17.874l-6.336-19.007c-0.146-0.455-0.301-0.939-0.466-1.451-2.557-8.004-7.486-23.433-19.949-35.157-14.741-13.864-34.259-18.239-55.633-18.239h-60.16c-56.389 0-102.451 47.826-96.705 105.051l17.922 195.009c2.261 23.228 5.917 54.915 26.462 79.32zM85.333 469.333c0 17.673 14.327 32 32 32h32c17.673 0 32-14.327 32-32s-14.327-32-32-32h-32c-17.673 0-32 14.327-32 32zM629.333 469.333c0 17.673 14.325 32 32 32h32c17.675 0 32-14.327 32-32s-14.325-32-32-32h-32c-17.675 0-32 14.327-32 32zM181.333 245.333c0 17.675 14.327 32 32 32h96c17.673 0 32-14.325 32-32s-14.327-32-32-32h-96c-17.673 0-32 14.325-32 32zM469.333 245.333c0 17.675 14.327 32 32 32h96c17.675 0 32-14.325 32-32s-14.325-32-32-32h-96c-17.673 0-32 14.325-32 32zM810.394 703.010c-26.618 40.108-69.291 65.587-112.384 64.98-17.675-0.249-31.795-14.776-31.551-32.447 0.25-17.671 14.78-31.795 32.449-31.546 17.448 0.246 41.296-10.918 58.203-36.447v-0.001l0.159-0.238c17.328-25.657 18.46-51.725 11.639-67.564-6.992-16.231 0.495-35.057 16.731-42.049 16.23-6.992 35.055 0.498 42.047 16.729 17.055 39.588 9.682 88.555-17.294 128.583zM678.212 878.532c2.133 17.543 18.091 30.033 35.63 27.896 76.737-9.346 152.923-56.962 203.213-132.164 50.239-75.121 65.456-163.587 44.766-237.989-4.739-17.027-22.38-26.99-39.407-22.254s-26.988 22.378-22.255 39.405c15.144 54.451 4.767 123.848-36.301 185.262-41.017 61.331-101.37 97.344-157.753 104.211-17.545 2.137-30.032 18.091-27.893 35.634z" />
<glyph unicode="&#xe910;" glyph-name="logout" d="M716.8 874.667h-110.933c-136.533 0-221.867-85.333-221.867-221.867v-172.8h266.667c17.493 0 32-14.507 32-32s-14.507-32-32-32h-266.667v-172.8c0-136.533 85.333-221.867 221.867-221.867h110.507c136.533 0 221.867 85.333 221.867 221.867v409.6c0.427 136.533-84.907 221.867-221.44 221.867zM194.557 480.009l88.32 88.318c6.4 6.4 9.387 14.507 9.387 22.613s-2.987 16.64-9.387 22.613c-12.373 12.373-32.853 12.373-45.227 0l-142.933-142.932c-12.373-12.373-12.373-32.853 0-45.227l142.933-142.933c12.373-12.373 32.853-12.373 45.227 0s12.373 32.853 0 45.227l-88.32 88.32h189.44v64h-189.44z" />
<glyph unicode="&#xe911;" glyph-name="Kh45" d="M768 874.667h-512c-94.257 0-170.667-76.41-170.667-170.667v-512c0-94.255 76.41-170.667 170.667-170.667h512c94.255 0 170.667 76.412 170.667 170.667v512c0 94.257-76.412 170.667-170.667 170.667zM163.281 78.916h704.098v259.251c-0.947-2.368-1.933-4.651-2.982-6.869-17.865-38.050-57.434-61.15-99.465-61.15h-519.318l-82.333-191.232zM304.464 777.573c33.817 0.083 67.7 0.3 101.6-0.45-46.233-96.416-93.667-192.3-139.433-288.935 82.4 0.085 164.801 0 247.199 0 0-27.866 0-55.748 0.085-83.699-19.652-0.081-58.953 0-58.953 0l-0.218-88.115h-91.081l-0.4 88.201-203.717 0.149-0.017 83.499c0-0.017 100.467 201.684 144.933 289.351zM592.593 780.417l266.534 0.083 0.235-82.417h-277.935l11.166 82.334zM574.524 645.017c35.051 15.233 70.016 30.767 105.067 46.15-2.069-19.817-4.134-39.567-6.652-59.316 44.002 0.466 91.217-4.9 126.118-34.433 59.618-44.384 77.982-133.699 40.866-198.048-39.949-74.769-143.185-100.868-216.969-62.835-37.35 17.685-66.581 49.519-81.882 87.782 29.235 11.166 58.466 22.268 88 32.367 11.482-35.051 48.9-61.214 85.935-48.516 42.697 10.334 61.299 64.286 41.331 101.316-15.616 23.65-45.001 32.218-71.548 35.968-41.335 6.883-83.119 0.617-124.668 1.833 5.001 32.617 9.498 65.216 14.4 97.733zM363.031 583.334h91.766v-88.417c-30.149 14.852-60.082 30.319-90.549 44.55-0.6 14.617-0.916 29.233-1.217 43.867zM271.365 116.8v117.035h55.333c12.916 0 24.3-2.385 34.117-7.151 9.833-4.766 17.483-11.516 22.983-20.25s8.25-19.119 8.25-31.117c0-11.951-2.75-22.319-8.25-31.083-5.5-8.768-13.167-15.535-22.983-20.284-9.833-4.766-21.2-7.151-34.117-7.151h-55.333zM304.498 143.249h20.9c6.633 0 12.45 1.267 17.433 3.802s8.867 6.199 11.633 10.982c2.767 4.783 4.15 10.551 4.15 17.284s-1.383 12.501-4.15 17.284c-2.767 4.783-6.633 8.448-11.633 10.982s-10.8 3.797-17.433 3.797h-20.9v-64.132zM496.393 161.869c0-1.617-0.102-3.418-0.303-5.402-0.098-0.866-0.183-1.668-0.23-2.432h-65.818c3.081-9.737 10.483-14.583 22.182-14.583 4.45 0 8.299 0.649 11.55 1.933 3.234 1.297 6.349 3.281 9.348 5.965l16.717-17.399c-4.297-4.868-9.664-8.533-16.064-11.017-6.417-2.483-13.918-3.716-22.532-3.716-10.752 0-20.1 2.031-28.085 6.114-7.983 4.087-14.167 9.651-18.534 16.717-4.383 7.070-6.566 15.117-6.566 24.137 0 9.114 2.167 17.182 6.5 24.201 4.333 7.014 10.267 12.514 17.783 16.482 7.517 3.981 16.051 5.965 25.565 5.965 6.686 0 12.966-1.033 18.85-3.115s11.017-5.116 15.433-9.118c4.403-3.998 7.885-8.917 10.419-14.75 2.517-5.815 3.785-12.484 3.785-19.981zM448.055 186.266c-4.915 0-8.998-1.382-12.233-4.147-3.247-2.769-5.35-6.554-6.298-11.366h37.082c-0.866 4.813-2.918 8.597-6.199 11.366-3.268 2.765-7.386 4.147-12.352 4.147zM545.463 208.832c9.835 0 18.185-1.481 25.084-4.45 6.886-2.965 12.169-7.531 15.804-13.717 3.648-6.182 5.466-14.063 5.466-23.633v-50.317h-29.636v11.703c-4.617-8.819-13.53-13.218-26.748-13.218-7.249 0-13.385 1.25-18.402 3.716-5.013 2.483-8.832 5.833-11.43 10.035-2.603 4.198-3.917 8.947-3.917 14.217 0 5.564 1.399 10.364 4.215 14.4 2.816 4.032 7.185 7.147 13.116 9.348 5.935 2.202 13.585 3.302 22.95 3.302h18.082c-0.247 4.617-1.95 8.149-5.099 10.633s-7.851 3.716-14.131 3.716c-4.369 0-8.751-0.7-13.184-2.082-4.433-1.404-8.252-3.302-11.435-5.734l-10.633 21.581c5.265 3.401 11.465 5.986 18.581 7.787 7.117 1.813 14.234 2.714 21.316 2.714zM544.333 135.266c3.499 0 6.665 0.866 9.498 2.586 2.837 1.715 4.919 4.382 6.234 7.983v7.834h-13.747c-5.069 0-8.636-0.836-10.718-2.5-2.082-1.668-3.115-3.9-3.115-6.686 0-2.684 1.033-4.881 3.115-6.618 2.065-1.732 4.983-2.598 8.734-2.598zM607.714 116.817v124.015h31.765v-124.015h-31.765zM748.531 161.869c0-1.617-0.102-3.418-0.303-5.402-0.098-0.866-0.183-1.668-0.23-2.432h-65.818c3.085-9.737 10.483-14.583 22.182-14.583 4.45 0 8.303 0.649 11.55 1.933 3.234 1.297 6.353 3.281 9.353 5.965l16.734-17.399c-4.301-4.868-9.668-8.533-16.068-11.017-6.417-2.483-13.918-3.716-22.532-3.716-10.752 0-20.1 2.031-28.083 6.114-7.983 4.087-14.17 9.651-18.534 16.717-4.382 7.070-6.566 15.117-6.566 24.137 0 9.114 2.167 17.182 6.498 24.201 4.335 7.014 10.266 12.514 17.783 16.482 7.518 3.981 16.051 5.965 25.566 5.965 6.686 0 12.966-1.033 18.85-3.115s11.017-5.116 15.437-9.118c4.399-3.998 7.881-8.917 10.415-14.75 2.5-5.815 3.767-12.484 3.767-19.981zM700.198 186.266c-4.919 0-9.003-1.382-12.237-4.147-3.247-2.769-5.346-6.554-6.298-11.366h37.082c-0.866 4.813-2.914 8.597-6.199 11.366-3.264 2.765-7.381 4.147-12.348 4.147zM789.269 196.45c3.302 4.1 7.518 7.198 12.685 9.267 5.167 2.082 11.102 3.115 17.783 3.115v-28.565c-2.483 0.35-4.885 0.533-7.215 0.533-4.254 0-8.017-0.768-11.285-2.317s-5.833-3.968-7.684-7.249c-1.847-3.302-2.765-7.569-2.765-12.851v-41.651h-31.765v90.586h30.246v-10.867z" />
<glyph unicode="&#xe912;" glyph-name="lock" d="M800 618.667v-89.6c-18.773 2.56-40.107 3.84-64 4.267v85.333c0 134.4-37.973 224-224 224s-224-89.6-224-224v-85.333c-23.893-0.427-45.227-1.707-64-4.267v89.6c0 123.733 29.867 288 288 288s288-164.267 288-288zM800 529.067c-18.773 2.56-40.107 3.84-64 4.267h-448c-23.893-0.427-45.227-1.707-64-4.267-108.8-13.227-138.667-66.56-138.667-209.067v-85.333c0-170.667 42.667-213.333 213.333-213.333h426.667c170.667 0 213.333 42.667 213.333 213.333v85.333c0 142.507-29.867 195.84-138.667 209.067zM371.627 247.040c-8.107-7.68-19.2-12.373-30.293-12.373-5.547 0-11.093 1.28-16.213 3.413-5.547 2.133-9.813 5.12-14.080 8.96-7.68 8.107-12.373 19.2-12.373 30.293 0 5.547 1.28 11.093 3.413 16.213s5.12 9.813 8.96 14.080c4.267 3.84 8.533 6.827 14.080 8.96 15.787 6.827 34.56 2.987 46.507-8.96 3.84-4.267 6.827-8.96 8.96-14.080s3.413-10.667 3.413-16.213c0-11.093-4.693-22.187-12.373-30.293zM551.253 261.12c-2.133-5.12-5.12-9.813-8.96-14.080-8.107-7.68-19.2-12.373-30.293-12.373-11.52 0-22.187 4.693-30.293 12.373-3.84 4.267-6.827 8.96-8.96 14.080s-3.413 10.667-3.413 16.213c0 11.52 4.693 22.187 12.373 30.293 15.787 15.787 44.373 15.787 60.587 0 7.68-8.107 12.373-18.773 12.373-30.293 0-5.547-1.28-11.093-3.413-16.213zM712.96 247.040c-8.107-7.68-19.2-12.373-30.293-12.373s-22.187 4.693-30.293 12.373c-7.68 8.107-12.373 18.773-12.373 30.293s4.693 22.187 12.373 30.293c16.213 15.787 44.8 15.787 60.587 0 1.707-2.133 3.413-4.267 5.12-6.827 1.707-2.133 2.987-4.693 3.84-7.253 1.28-2.56 2.133-5.12 2.56-7.68 0.427-2.987 0.853-5.973 0.853-8.533 0-11.093-4.693-22.187-12.373-30.293z" />
<glyph unicode="&#xe913;" glyph-name="note-text" d="M373.333 810.667v64c0 17.493-14.507 32-32 32s-32-14.507-32-32v-66.56c10.667 1.28 20.48 2.56 32 2.56h32zM714.667 808.107v66.56c0 17.493-14.507 32-32 32s-32-14.507-32-32v-64h32c11.52 0 21.333-1.28 32-2.56zM714.667 808.107v-61.44c0-17.493-14.507-32-32-32s-32 14.507-32 32v64h-277.333v-64c0-17.493-14.507-32-32-32s-32 14.507-32 32v61.44c-125.867-11.52-181.333-92.587-181.333-210.773v-362.667c0-128 64-213.333 213.333-213.333h341.333c149.333 0 213.333 85.333 213.333 213.333v362.667c0 118.187-55.467 199.253-181.333 210.773zM512 245.333h-170.667c-17.493 0-32 14.507-32 32s14.507 32 32 32h170.667c17.493 0 32-14.507 32-32s-14.507-32-32-32zM682.667 458.667h-341.333c-17.493 0-32 14.507-32 32s14.507 32 32 32h341.333c17.493 0 32-14.507 32-32s-14.507-32-32-32z" />
<glyph unicode="&#xe914;" glyph-name="timer" d="M741.995 291.413l-172.373 156.587h-115.627l-172.375-156.587c-48.213-43.52-64-110.507-40.533-171.093 23.467-60.16 80.64-98.987 145.067-98.987h251.308c64.853 0 121.6 38.827 145.067 98.987 23.467 60.587 7.68 127.573-40.533 171.093zM589.675 186.027h-155.307c-16.215 0-29.015 13.227-29.015 29.013s13.227 29.013 29.015 29.013h155.307c16.213 0 29.013-13.227 29.013-29.013s-13.227-29.013-29.013-29.013zM782.921 775.68c-23.467 60.16-80.64 98.987-145.067 98.987h-251.735c-64.427 0-121.6-38.827-145.067-98.987-23.040-60.587-7.253-127.573 40.96-171.093l172.375-156.587h115.627l172.373 156.587c47.787 43.52 63.573 110.507 40.533 171.093zM589.641 651.52h-155.307c-16.215 0-29.015 13.227-29.015 29.013s13.227 29.013 29.015 29.013h155.307c16.213 0 29.013-13.227 29.013-29.013s-13.227-29.013-29.013-29.013z" />
<glyph unicode="&#xe915;" glyph-name="arrow-right" d="M638.315 729.627c-12.497 12.497-32.759 12.497-45.257 0-12.493-12.497-12.493-32.758 0-45.255l204.373-204.372h-648.098c-17.673 0-32-14.327-32-32s14.327-32 32-32h648.073l-204.348-204.348c-12.493-12.493-12.493-32.755 0-45.252 12.497-12.497 32.759-12.497 45.257 0l258.987 258.987c6.003 5.999 9.374 14.14 9.374 22.626s-3.371 16.627-9.374 22.626l-258.987 258.988z" />
<glyph unicode="&#xe916;" glyph-name="warning" d="M832.422 710.4l-253.44 146.347c-41.387 23.893-92.587 23.893-134.4 0l-253.012-146.347c-41.387-23.893-66.987-68.267-66.987-116.48v-291.84c0-47.787 25.6-92.16 66.987-116.48l253.439-146.347c41.387-23.893 92.587-23.893 134.4 0l253.44 146.347c41.387 23.893 66.987 68.267 66.987 116.48v291.84c-0.427 48.213-26.027 92.16-67.413 116.48zM479.996 629.333c0 17.493 14.507 32 32 32s32-14.507 32-32v-224c0-17.493-14.507-32-32-32s-32 14.507-32 32v224zM551.249 250.453c-2.133-5.12-5.12-9.813-8.96-14.080-8.107-8.107-18.773-12.373-30.293-12.373-5.547 0-11.093 1.28-16.213 3.413-5.547 2.133-9.813 5.12-14.080 8.96-3.84 4.267-6.827 8.96-9.387 14.080-2.133 5.12-2.987 10.667-2.987 16.213 0 11.093 4.267 22.187 12.373 30.293 4.267 3.84 8.533 6.827 14.080 8.96 15.787 6.827 34.56 2.987 46.507-8.96 3.84-4.267 6.827-8.533 8.96-14.080 2.133-5.12 3.413-10.667 3.413-16.213s-1.28-11.093-3.413-16.213z" />
<glyph unicode="&#xe917;" glyph-name="message-search" d="M725.333 874.667h-426.667c-117.76 0-213.333-95.147-213.333-212.48v-297.813c0-117.333 95.573-212.48 213.333-212.48h64c11.52 0 26.88-7.68 34.133-17.067l64-84.907c28.16-37.547 74.24-37.547 102.4 0l64 84.907c8.107 10.667 20.907 17.067 34.133 17.067h64c117.76 0 213.333 95.147 213.333 212.48v297.813c0 117.333-95.573 212.48-213.333 212.48zM668.16 340.053c-6.4-6.4-14.507-9.387-22.613-9.387s-16.213 2.987-22.613 9.387l-31.573 31.573c-24.747-16.213-54.613-26.027-86.613-26.027-87.040 0-157.867 70.827-157.867 157.867s70.4 157.867 157.867 157.867c87.467 0 157.867-70.827 157.867-157.867 0-32-9.813-61.867-26.027-86.613l31.573-31.573c12.373-12.373 12.373-32.853 0-45.227z" />
<glyph unicode="&#xe918;" glyph-name="wallet-card" d="M649.387 680.5h-402.773c-11.947 0-23.040-0.427-33.28-0.853-101.12-5.973-128-43.093-128-158.294v-24.747c0-23.467 19.2-42.667 42.667-42.667h640c23.467 0 42.667 19.2 42.667 42.667v24.747c0 127.148-32.427 159.148-161.28 159.148zM128 389.999c-23.467 0-42.667-19.2-42.667-42.667v-124.16c0-127.147 32.427-159.147 161.28-159.147h402.773c126.72 0 160 30.72 161.28 152.32v130.987c0 23.467-19.2 42.667-42.667 42.667h-640zM296.96 168.132h-72.96c-17.493 0-32 14.507-32 32s14.507 32 32 32h73.387c17.493 0 32-14.507 32-32s-14.507-32-32.427-32zM535.467 168.132h-146.773c-17.493 0-32 14.507-32 32s14.507 32 32 32h146.773c17.493 0 32-14.507 32-32s-14.080-32-32-32zM938.671 391.185v223.575c0 133.547-76.373 191.573-191.573 191.573h-381.013c-32.427 0-61.44-4.693-87.040-14.507-20.053-7.253-37.973-17.92-52.48-32-7.68-7.253-1.707-19.2 9.387-19.2h463.786c96 0 173.653-77.653 173.653-173.653v-305.922c0-10.667 11.52-16.64 19.2-8.96 29.44 31.147 46.080 76.8 46.080 139.093z" />
<glyph unicode="&#xe919;" glyph-name="document-cloud" d="M674.142 865.686c-17.493 17.493-47.787 5.547-47.787-18.773v-148.907c0-62.293 52.907-113.92 117.333-113.92 40.533-0.427 96.853-0.427 145.067-0.427 24.32 0 37.12 28.587 20.053 45.653-61.44 61.867-171.52 173.227-234.667 236.373zM629.764 138.163c-100.267-7.253-100.267-152.32 0-159.573h237.227c28.587 0 56.747 10.667 77.653 29.867 70.4 61.44 32.853 184.32-59.733 195.84-33.28 200.107-322.56 124.16-254.293-66.56zM917.333 482.56v-138.667c0-12.8-18.773-18.773-28.16-9.813-20.48 20.053-45.653 35.413-74.667 44.373-71.68 22.187-154.88 0.427-206.507-54.187-34.56-35.84-52.053-81.493-51.627-130.987 0-8.107-3.84-15.36-10.24-20.053-34.133-26.027-55.467-66.987-55.467-114.347 0-3.413 0-6.827 0.427-10.24 0.853-13.653-8.96-26.88-23.040-26.88h-123.733c-131.413 0-237.653 85.333-237.653 237.653v377.6c0 152.32 106.24 237.653 237.653 237.653h180.907c23.467 0 42.667-19.2 42.667-42.667v-123.307c0-101.547 81.92-183.467 183.467-183.467h123.307c23.467 0 42.667-19.2 42.667-42.667z" />
<glyph unicode="&#xe91a;" glyph-name="user-tag" d="M768 874.667h-512c-70.827 0-128-56.747-128-126.72v-465.493c0-69.973 57.173-126.72 128-126.72h32.427c34.133 0 66.56-13.227 90.453-37.12l72.96-72.107c33.28-32.853 87.467-32.853 120.747 0l72.96 72.107c23.893 23.893 56.747 37.12 90.453 37.12h32c70.827 0 128 56.747 128 126.72v465.493c0 69.973-57.173 126.72-128 126.72zM512 714.667c55.040 0 99.413-44.373 99.413-99.413s-44.373-99.413-99.413-99.413c-55.040 0-99.413 44.8-99.413 99.413 0 55.040 44.373 99.413 99.413 99.413zM626.347 317.44h-228.693c-34.56 0-54.613 38.4-35.413 66.987 29.013 43.093 85.333 72.107 149.76 72.107s120.747-29.013 149.76-72.107c19.2-28.587-1.28-66.987-35.413-66.987z" />
<glyph unicode="&#xe91b;" glyph-name="documnet" d="M619.428 920.105l-0.236 0.229c-4.306 4.443-10.25 6.929-16.451 6.857-0.763 0.036-1.536-0.036-2.289-0.236h-350.996c-63.093-0.014-114.228-51.157-114.257-114.257v-731.239c0.029-63.094 51.164-114.237 114.257-114.258h508.908c63.089 0.020 114.232 51.164 114.253 114.258v576.318c-0.041 6.050-2.412 11.857-6.625 16.215l-246.564 246.113zM625.592 849.263l169.554-169.1h-100.997c-37.816 0.114-68.449 30.743-68.557 68.55v100.55zM758.589 13.128h-509.133c-37.814 0.108-68.435 30.746-68.557 68.557v731.25c0.121 37.807 30.743 68.443 68.557 68.55h330.435v-132.771c0.020-63.085 51.164-114.228 114.258-114.256h132.772v-552.772c0.072-37.796-30.531-68.506-68.332-68.557zM281.65 486.1h247.031c12.611 0 22.856 10.229 22.856 22.85s-10.245 22.85-22.856 22.85h-247.031c-12.622 0-22.85-10.229-22.85-22.85s10.228-22.85 22.85-22.85zM726.344 358.999h-444.694c-12.622 0-22.85-10.23-22.85-22.851 0-12.611 10.228-22.851 22.85-22.851h444.694c12.616 0 22.856 10.24 22.856 22.851 0 12.621-10.24 22.851-22.856 22.851zM726.344 185.999h-444.694c-12.622 0-22.85-10.23-22.85-22.851s10.228-22.851 22.85-22.851h444.694c12.616 0 22.856 10.23 22.856 22.851s-10.24 22.851-22.856 22.851z" />
<glyph unicode="&#xe91c;" glyph-name="close-circle" d="M512 874.667c-235.093 0-426.667-191.573-426.667-426.667s191.573-426.667 426.667-426.667c235.093 0 426.667 191.573 426.667 426.667s-191.573 426.667-426.667 426.667zM655.36 349.867c12.373-12.373 12.373-32.853 0-45.227-6.4-6.4-14.507-9.387-22.613-9.387s-16.213 2.987-22.613 9.387l-98.133 98.133-98.133-98.133c-6.4-6.4-14.507-9.387-22.613-9.387s-16.213 2.987-22.613 9.387c-12.373 12.373-12.373 32.853 0 45.227l98.133 98.133-98.133 98.133c-12.373 12.373-12.373 32.853 0 45.227s32.853 12.373 45.227 0l98.133-98.133 98.133 98.133c12.373 12.373 32.853 12.373 45.227 0s12.373-32.853 0-45.227l-98.133-98.133 98.133-98.133z" />
<glyph unicode="&#xe91d;" glyph-name="upload" horiz-adv-x="1214" d="M1208.978 431.286l-200.401 434.227c-24.728 53.551-78.785 88.19-137.798 88.19h-527.929c-59.013 0-113.070-34.639-137.747-88.14l-200.451-434.278c-3.085-6.624-4.652-13.854-4.652-21.187v-316.050c0-83.638 68.064-151.704 151.704-151.704h910.222c83.64 0 151.704 68.066 151.704 151.704v316.050c0 7.333-1.568 14.564-4.652 21.187zM296.935 823.188c8.241 17.851 26.245 29.38 45.915 29.38h527.929c19.67 0 37.674-11.529 45.915-29.38l173.145-375.163h-104.12c-39.341 0-73.425-25.335-84.751-63.058l-54.259-180.782c-1.568-5.359-6.423-9-12.036-9h-455.718c-5.613 0-10.468 3.641-12.085 9.051l-54.261 180.73c-11.327 37.723-45.359 63.058-84.751 63.058h-104.069l173.145 375.163z" />
<glyph unicode="&#xe91e;" glyph-name="add-wallet" d="M928 489.338v102.003c-0.026 25.453-10.148 49.855-28.145 67.852-18.002 17.998-42.404 28.121-67.855 28.148h-32v129.28c0.031 15.692-3.789 31.153-11.126 45.024s-17.966 25.732-30.95 34.541c-12.989 8.808-27.94 14.296-43.54 15.982s-31.38-0.481-45.947-6.312l-148.48-59.335c-40.537 39.461-91.816 66.083-147.414 76.532s-113.043 4.26-165.14-17.791c-52.097-22.051-96.528-58.984-127.73-106.174s-47.784-102.536-47.672-159.107c0.472-10.074 1.487-20.115 3.040-30.080-1.82-6.027-2.842-12.267-3.040-18.56v-512.002c0.029-25.452 10.152-49.853 28.15-67.85s42.398-28.119 67.85-28.15h703.999c25.452 0.031 49.853 10.153 67.85 28.15s28.119 42.399 28.15 67.85v101.76c18.662 6.579 34.836 18.77 46.295 34.903s17.644 35.415 17.705 55.204v128c-0.056 19.794-6.236 39.081-17.7 55.222-11.459 16.138-27.633 28.333-46.3 34.91zM692.035 846.42c4.864 1.971 10.143 2.713 15.36 2.161 5.222-0.552 10.23-2.382 14.572-5.327 4.347-2.946 7.9-6.916 10.348-11.561s3.717-9.821 3.686-15.071v-129.28h-132.787c-6.267 38.142-20.219 74.613-41.011 107.2l129.833 51.878zM320.001 863.982c44.303 0 87.611-13.137 124.448-37.751s65.547-59.597 82.502-100.528c16.952-40.931 21.391-85.969 12.744-129.421-8.643-43.452-29.975-83.365-61.302-114.692s-71.24-52.662-114.692-61.304c-43.452-8.643-88.49-4.209-129.421 12.749-40.931 16.952-75.915 45.663-100.528 82.5s-37.751 80.145-37.751 124.448c0.071 59.387 23.694 116.321 65.687 158.313s98.927 65.615 158.313 65.687zM832 47.34h-703.999c-8.484 0.010-16.617 3.384-22.616 9.385s-9.374 14.131-9.384 22.615l0.371 381.397c36.035-45.658 85.139-79.235 140.756-96.254 55.618-17.024 115.104-16.676 170.519 0.993s104.122 51.825 139.62 97.897c35.502 46.074 56.1 101.88 59.059 159.969h225.674c8.484-0.010 16.62-3.385 22.615-9.384 6.001-5.999 9.375-14.132 9.385-22.616v-96.109h-96c-25.452-0.029-49.853-10.152-67.85-28.149s-28.119-42.4-28.15-67.851v-128c0.026-25.452 10.153-49.853 28.15-67.85s42.399-28.124 67.85-28.15h96v-95.892c-0.010-8.484-3.384-16.614-9.385-22.615-5.996-6.001-14.131-9.375-22.615-9.385zM928 271.222c-0.015-8.422-3.354-16.502-9.288-22.482-5.929-5.975-13.983-9.375-22.405-9.457l-0.307 0.056-0.64-0.118h-127.36c-8.484 0.010-16.614 3.384-22.615 9.38-6.001 6.001-9.375 14.136-9.385 22.62v128c0.010 8.484 3.384 16.614 9.385 22.615s14.131 9.375 22.615 9.385h128c8.484-0.010 16.62-3.384 22.615-9.385 6.001-6.001 9.375-14.131 9.385-22.615v-128z" />
<glyph unicode="&#xe91f;" glyph-name="writing" d="M704.918 520c0 22.092-17.908 40-40 40h-412c-22.092 0-40-17.908-40-40s17.908-40 40-40h412c22.092 0 40 17.908 40 40zM252.918 400c-22.092 0-40-17.908-40-40s17.908-40 40-40h250.222c22.092 0 40 17.908 40 40s-17.908 40-40 40h-250.222zM346.918 16h-133.778c-44.112 0-80 35.888-80 80v704c0 44.112 35.888 80 80 80h491.778c44.112 0 80-35.888 80-80v-246c0-22.092 17.908-40 40-40s40 17.908 40 40v246c0 88.224-71.776 160-160 160h-491.778c-88.224 0-160-71.776-160-160v-704c0-88.224 71.776-160 160-160h133.778c22.092 0 40 17.908 40 40s-17.908 40-40 40zM935.768 380.856c-46.788 46.788-122.916 46.79-169.674 0.032l-219.606-219.12c-4.664-4.654-8.104-10.386-10.020-16.69l-47.826-157.45c-4.24-13.96-0.546-29.118 9.642-39.56 7.632-7.822 18-12.068 28.634-12.068 3.558 0 7.15 0.476 10.676 1.454l161.45 44.722c6.644 1.84 12.7 5.366 17.58 10.238l219.146 218.734c46.788 46.788 46.788 122.916-0.002 169.708zM667.552 56.464l-81.224-22.5 23.77 78.258 148.178 147.85 56.58-56.58-147.304-147.028zM879.23 267.74l-7.75-7.734-56.57 56.57 7.724 7.708c15.596 15.596 40.972 15.596 56.568 0s15.596-40.972 0.028-56.544zM664.918 720h-412c-22.092 0-40-17.908-40-40s17.908-40 40-40h412c22.092 0 40 17.908 40 40s-17.908 40-40 40z" />
<glyph unicode="&#xe920;" glyph-name="out-of-time" d="M902.722 239.939c20.019 50.731 30.339 104.266 30.339 159.282 0 129.274-56.869 245.465-146.83 325.065l23.487 23.487 12.804-12.804c3.53-3.53 8.157-5.3 12.784-5.3s9.264 1.77 12.794 5.3c7.059 7.070 7.059 18.528 0 25.588l-51.176 51.165c-7.070 7.059-18.518 7.059-25.577 0-7.070-7.070-7.070-18.528 0-25.577l12.794-12.794-26.054-26.054c-67.862 50.658-150.981 81.898-241.097 85.614v36.643h45.224c24.946 0 45.224 20.288 45.224 45.224s-20.278 45.224-45.224 45.224h-126.625c-24.946 0-45.224-20.288-45.224-45.224s20.278-45.224 45.224-45.224h45.224v-36.643c-99.246-4.089-189.973-41.642-261.219-101.668l-42.108 42.108 12.794 12.794c7.070 7.059 7.070 18.508 0 25.577-7.059 7.059-18.518 7.059-25.577 0l-25.557-25.567c-0.010-0.010-0.021-0.010-0.031-0.010-0.010-0.010-0.010-0.021-0.021-0.031l-25.557-25.557c-7.070-7.070-7.070-18.518 0-25.588 3.53-3.53 8.157-5.3 12.784-5.3s9.264 1.77 12.794 5.3l12.794 12.794 40.938-40.938c-79.072-78.678-128.094-187.52-128.094-307.603 0-239.399 194.755-434.155 434.155-434.155 54.933 0 108.355 10.289 158.992 30.235 31.84-36.249 78.378-59.281 130.299-59.301h0.052c95.716 0 173.639 77.881 173.67 173.618 0 0 0 0 0 0.010 0.010 51.911-22.99 98.449-59.198 130.31zM426.542 914.776c0 4.989 4.058 9.047 9.047 9.047h126.625c4.989 0 9.047-4.058 9.047-9.047s-4.058-9.047-9.047-9.047h-126.625c-4.989 0-9.047 4.058-9.047 9.047zM498.906 1.243c-219.443 0-397.978 178.535-397.978 397.978s178.535 397.967 397.978 397.967 397.967-178.525 397.967-397.967c0-47.418-8.602-93.543-24.822-137.535-17.876 9.896-37.699 16.562-58.691 19.626 9.461 25.298 16.044 51.724 19.212 78.844 10.444 89.133-14.45 176.993-70.097 247.39s-135.392 114.918-224.515 125.351c-74.89 8.736-148.579-7.204-212.952-46.207-8.55-5.176-11.272-16.303-6.097-24.843 5.165-8.54 16.313-11.293 24.843-6.107 57.428 34.79 123.074 49.012 189.994 41.228 79.538-9.316 150.67-49.043 200.334-111.864 49.664-62.81 71.867-141.209 62.551-220.747-3.198-27.41-10.082-54.084-20.454-79.279-0.311-0.766-0.248-1.563-0.455-2.35-41.642-2.96-80.417-20.412-110.249-50.223-29.677-29.656-47.149-68.203-50.254-109.618-47.449-20.019-99.743-27.41-151.177-21.416-164.168 19.222-282.098 168.422-262.896 332.6 1.17 9.916-5.942 18.911-15.858 20.071-9.927 1.273-18.911-5.931-20.071-15.858-21.541-184.001 110.632-351.212 294.622-372.742 13.011-1.532 26.095-2.277 39.127-2.277 40.193 0 80.014 7.577 117.578 21.644 3.033-21.075 9.709-40.98 19.626-58.929-43.899-16.158-89.93-24.739-137.265-24.739zM788.249-27.823c-0.021 0-0.041 0-0.052 0-75.811 0.031-137.462 61.723-137.441 137.535 0 36.726 14.305 71.246 40.286 97.196 25.971 25.95 60.471 40.245 97.186 40.245h0.052c36.726-0.010 71.246-14.316 97.217-40.297 25.95-25.971 40.235-60.502 40.235-97.217-0.021-75.801-61.692-137.462-137.483-137.462zM348.567 260.113c4.316 0 8.653 1.542 12.111 4.658l98.263 88.574c9.181-5.196 19.636-8.405 30.908-8.405 34.914 0 63.317 28.403 63.317 63.317 0 34.904-28.403 63.317-63.317 63.317-34.904 0-63.307-28.414-63.307-63.317 0-10.434 2.774-20.143 7.277-28.838l-97.372-87.787c-7.422-6.687-8.001-18.125-1.325-25.536 3.581-3.964 8.509-5.983 13.446-5.983zM489.859 435.398c14.957 0 27.13-12.173 27.13-27.14 0-14.957-12.173-27.13-27.13-27.13-14.968 0-27.14 12.173-27.14 27.13 0 14.968 12.173 27.14 27.14 27.14zM215.059 543.649c2.867-1.667 6.014-2.464 9.099-2.464 6.231 0 12.287 3.219 15.651 8.974 9.254 15.868 20.060 30.981 32.099 44.913 6.532 7.556 5.703 18.984-1.853 25.515-7.577 6.552-18.984 5.724-25.515-1.853-13.498-15.609-25.609-32.554-35.98-50.348-5.041-8.622-2.122-19.698 6.5-24.739zM788.342 218.315c-9.999 0-18.094-8.095-18.094-18.083v-108.541c0-9.989 8.095-18.094 18.094-18.094s18.083 8.105 18.083 18.094v108.541c0 9.989-8.084 18.083-18.083 18.083zM806.426 37.42c0-9.989-8.095-18.094-18.083-18.094-9.999 0-18.094 8.105-18.094 18.094s8.095 18.094 18.094 18.094c9.989 0 18.083-8.105 18.083-18.094z" />
<glyph unicode="&#xe921;" glyph-name="star-o" d="M686.286 386.286l174.857 169.714-241.143 35.429-108 218.286-108-218.286-241.143-35.429 174.857-169.714-41.714-240.571 216 113.714 215.429-113.714zM987.429 590.286q0-12.571-14.857-27.429l-207.429-202.286 49.143-285.714q0.571-4 0.571-11.429 0-28.571-23.429-28.571-10.857 0-22.857 6.857l-256.571 134.857-256.571-134.857q-12.571-6.857-22.857-6.857-12 0-18 8.286t-6 20.286q0 3.429 1.143 11.429l49.143 285.714-208 202.286q-14.286 15.429-14.286 27.429 0 21.143 32 26.286l286.857 41.714 128.571 260q10.857 23.429 28 23.429t28-23.429l128.571-260 286.857-41.714q32-5.143 32-26.286z" />
<glyph unicode="&#xe922;" glyph-name="star-half-empty" d="M714.286 413.143l146.857 142.857-241.143 35.429-17.143 34.286-90.857 184v-550.286l33.714-17.714 181.714-96-34.286 202.857-6.857 37.714zM972.571 562.857l-207.429-202.286 49.143-285.714q2.857-18.857-3.429-29.429t-19.429-10.571q-9.714 0-22.857 6.857l-256.571 134.857-256.571-134.857q-13.143-6.857-22.857-6.857-13.143 0-19.429 10.571t-3.429 29.429l49.143 285.714-208 202.286q-18.286 18.286-13.143 34t30.857 19.714l286.857 41.714 128.571 260q11.429 23.429 28 23.429 16 0 28-23.429l128.571-260 286.857-41.714q25.714-4 30.857-19.714t-13.714-34z" />
<glyph unicode="&#xe923;" glyph-name="star" d="M987.429 590.286q0-12.571-14.857-27.429l-207.429-202.286 49.143-285.714q0.571-4 0.571-11.429 0-12-6-20.286t-17.429-8.286q-10.857 0-22.857 6.857l-256.571 134.857-256.571-134.857q-12.571-6.857-22.857-6.857-12 0-18 8.286t-6 20.286q0 3.429 1.143 11.429l49.143 285.714-208 202.286q-14.286 15.429-14.286 27.429 0 21.143 32 26.286l286.857 41.714 128.571 260q10.857 23.429 28 23.429t28-23.429l128.571-260 286.857-41.714q32-5.143 32-26.286z" />
<glyph unicode="&#xe924;" glyph-name="question-circle" d="M576 274.286v-91.429q0-8-5.143-13.143t-13.143-5.143h-91.429q-8 0-13.143 5.143t-5.143 13.143v91.429q0 8 5.143 13.143t13.143 5.143h91.429q8 0 13.143-5.143t5.143-13.143zM722.286 557.714q0-28.571-8.571-51.429t-26-39.429-29.714-25.143-34-20.571q-18.286-10.286-26.571-16t-14.857-13.714-6.571-16.571v-18.286q0-8-5.143-13.143t-13.143-5.143h-91.429q-8 0-13.143 5.143t-5.143 13.143v38.857q0 20 6 36.857t13.714 27.143 22.286 20.286 23.429 14.571 25.429 12q30.286 14.286 42.857 24.571t12.571 28q0 24-24.857 40.857t-54.571 16.857q-32 0-54.286-15.429-16.571-11.429-45.714-47.429-5.143-6.857-14.286-6.857-6.286 0-10.857 3.429l-61.714 46.857q-5.714 4-6.857 11.429t2.857 13.143q69.714 109.714 199.429 109.714 73.714 0 136.286-51.143t62.571-122.571zM512 813.714q-74.286 0-142-29.143t-116.571-78-78-116.571-29.143-142 29.143-142 78-116.571 116.571-78 142-29.143 142 29.143 116.571 78 78 116.571 29.143 142-29.143 142-78 116.571-116.571 78-142 29.143zM950.857 448q0-119.429-58.857-220.286t-159.714-159.714-220.286-58.857-220.286 58.857-159.714 159.714-58.857 220.286 58.857 220.286 159.714 159.714 220.286 58.857 220.286-58.857 159.714-159.714 58.857-220.286z" />
<glyph unicode="&#xe925;" glyph-name="expand" d="M806.286 650.857l-202.857-202.857 202.857-202.857 82.286 82.286q16.571 17.714 40 8 22.286-9.714 22.286-33.714v-256q0-14.857-10.857-25.714t-25.714-10.857h-256q-24 0-33.714 22.857-9.714 22.286 8 39.429l82.286 82.286-202.857 202.857-202.857-202.857 82.286-82.286q17.714-17.143 8-39.429-9.714-22.857-33.714-22.857h-256q-14.857 0-25.714 10.857t-10.857 25.714v256q0 24 22.857 33.714 22.286 9.714 39.429-8l82.286-82.286 202.857 202.857-202.857 202.857-82.286-82.286q-10.857-10.857-25.714-10.857-6.857 0-13.714 2.857-22.857 9.714-22.857 33.714v256q0 14.857 10.857 25.714t25.714 10.857h256q24 0 33.714-22.857 9.714-22.286-8-39.429l-82.286-82.286 202.857-202.857 202.857 202.857-82.286 82.286q-17.714 17.143-8 39.429 9.714 22.857 33.714 22.857h256q14.857 0 25.714-10.857t10.857-25.714v-256q0-24-22.286-33.714-7.429-2.857-14.286-2.857-14.857 0-25.714 10.857z" />
<glyph unicode="&#xe926;" glyph-name="check" d="M954.857 636.571q0-22.857-16-38.857l-491.429-491.429q-16-16-38.857-16t-38.857 16l-284.571 284.571q-16 16-16 38.857t16 38.857l77.714 77.714q16 16 38.857 16t38.857-16l168-168.571 374.857 375.429q16 16 38.857 16t38.857-16l77.714-77.714q16-16 16-38.857z" />
<glyph unicode="&#xe927;" glyph-name="caret-left" d="M694.857 704v-512q0-14.857-10.857-25.714t-25.714-10.857-25.714 10.857l-256 256q-10.857 10.857-10.857 25.714t10.857 25.714l256 256q10.857 10.857 25.714 10.857t25.714-10.857 10.857-25.714z" />
<glyph unicode="&#xe928;" glyph-name="caret-right" d="M658.286 448q0-14.857-10.857-25.714l-256-256q-10.857-10.857-25.714-10.857t-25.714 10.857-10.857 25.714v512q0 14.857 10.857 25.714t25.714 10.857 25.714-10.857l256-256q10.857-10.857 10.857-25.714z" />
<glyph unicode="&#xe929;" glyph-name="sign-out" d="M402.286 137.143q0-2.286 0.571-11.429t0.286-15.143-1.714-13.429-5.714-11.143-11.714-3.714h-182.857q-68 0-116.286 48.286t-48.286 116.286v402.286q0 68 48.286 116.286t116.286 48.286h182.857q7.429 0 12.857-5.429t5.429-12.857q0-2.286 0.571-11.429t0.286-15.143-1.714-13.429-5.714-11.143-11.714-3.714h-182.857q-37.714 0-64.571-26.857t-26.857-64.571v-402.286q0-37.714 26.857-64.571t64.571-26.857h178.286l6.571-0.571 6.571-1.714 4.571-3.143 4-5.143 1.143-7.714zM932.571 448q0-14.857-10.857-25.714l-310.857-310.857q-10.857-10.857-25.714-10.857t-25.714 10.857-10.857 25.714v164.571h-256q-14.857 0-25.714 10.857t-10.857 25.714v219.429q0 14.857 10.857 25.714t25.714 10.857h256v164.571q0 14.857 10.857 25.714t25.714 10.857 25.714-10.857l310.857-310.857q10.857-10.857 10.857-25.714z" />
<glyph unicode="&#xe92a;" glyph-name="plus-square" d="M804.571 411.429v73.143q0 14.857-10.857 25.714t-25.714 10.857h-182.857v182.857q0 14.857-10.857 25.714t-25.714 10.857h-73.143q-14.857 0-25.714-10.857t-10.857-25.714v-182.857h-182.857q-14.857 0-25.714-10.857t-10.857-25.714v-73.143q0-14.857 10.857-25.714t25.714-10.857h182.857v-182.857q0-14.857 10.857-25.714t25.714-10.857h73.143q14.857 0 25.714 10.857t10.857 25.714v182.857h182.857q14.857 0 25.714 10.857t10.857 25.714zM950.857 722.286v-548.571q0-68-48.286-116.286t-116.286-48.286h-548.571q-68 0-116.286 48.286t-48.286 116.286v548.571q0 68 48.286 116.286t116.286 48.286h548.571q68 0 116.286-48.286t48.286-116.286z" />
<glyph unicode="&#xe92b;" glyph-name="car-selected" d="M970.718 495.445l-82.261 37.547-72.602 115.814c-20.544 32.477-56.268 53.728-96.956 53.728-0.222 0-0.444-0.001-0.665-0.002h-309.248c-0.058 0-0.127 0-0.197 0-37.163 0-70.222-17.571-91.322-44.858l-0.198-0.266-93.798-122.743-156.331-42.803c-39.034-11.102-67.14-46.437-67.14-88.336 0-0.012 0-0.025 0-0.037v0.002-59.802c0-50.551 40.277-92.297 90.863-92.297h13.414c13.402-50.638 58.81-87.357 112.794-87.357s99.392 36.719 112.61 86.544l0.183 0.813h352.529c13.425-50.604 58.817-87.291 112.777-87.291s99.351 36.686 112.593 86.477l0.184 0.813h25.19c50.586 0 90.863 41.745 90.863 92.297v68.198c0.001 0.126 0.001 0.275 0.001 0.424 0 36.662-21.576 68.285-52.722 82.865l-0.561 0.236zM216.986 206.438c-41.152 0-74.513 33.361-74.513 74.513s33.361 74.513 74.513 74.513v0c41.152 0 74.513-33.361 74.513-74.513s-33.361-74.513-74.513-74.513v0zM795.068 355.43c41.152 0 74.513-33.361 74.513-74.513s-33.361-74.513-74.513-74.513v0c-41.152 0-74.513 33.361-74.513 74.513s33.361 74.513 74.513 74.513v0z" />
<glyph unicode="&#xe92c;" glyph-name="ham-deselected" d="M435.029 789.333c-12.083 0-24.132-4.847-32.905-13.653l-15.326-15.292-201.557-201.591c-8.772-8.738-13.619-20.412-13.619-32.836 0-12.459 4.847-24.132 13.653-32.905l123.904-123.904c8.354-8.433 19.937-13.654 32.74-13.654 0.046 0 0.092 0 0.138 0h-0.007c0.039 0 0.085 0 0.131 0 12.803 0 24.386 5.221 32.736 13.65l74.79 74.79c98.953-114.074 244.463-264.772 297.847-318.123 10.987-10.062 25.687-16.228 41.828-16.228 34.253 0 62.020 27.767 62.020 62.020 0 16.14-6.166 30.841-16.27 41.875l0.042-0.047c-44.373 44.339-198.554 193.468-318.532 297.438l75.196 75.196c8.412 8.351 13.619 19.92 13.619 32.706 0 0.046 0 0.092 0 0.138v-0.007c0 12.425-4.847 24.132-13.653 32.87l-123.904 123.938c-8.435 8.397-20.060 13.595-32.9 13.619h-0.005zM264.602 262.554c-51.323-0.039-92.921-41.624-92.979-92.94v-0.006c0.019-34.226 27.76-61.967 61.984-61.986h278.871c34.226 0.019 61.967 27.76 61.986 61.984v0.002c-0.058 51.321-41.656 92.906-92.975 92.945h-0.004zM494.66 488.892c119.535-103.424 274.261-253.030 318.601-297.37 4.991-5.486 8.047-12.81 8.047-20.847 0-17.136-13.891-31.027-31.027-31.027-8.037 0-15.361 3.056-20.872 8.069l0.025-0.023c-53.385 53.419-199.373 204.629-297.745 318.225zM264.602 231.595h216.883c34.226-0.019 61.967-27.76 61.986-61.984v-0.002c0-17.067-13.892-30.993-30.993-30.993h-278.869c-17.067 0-30.993 13.926-30.993 30.993 0.019 34.226 27.76 61.967 61.984 61.986h0.002zM238.148 545.963l123.972-123.938c-2.831-5.841-4.486-12.705-4.486-19.956 0-2.122 0.142-4.212 0.416-6.259l-0.026 0.239-5.018-4.983c-2.838-2.714-6.694-4.385-10.94-4.385s-8.102 1.671-10.946 4.391l-123.966 123.898c-2.804 2.784-4.54 6.64-4.54 10.902 0 0.031 0 0.062 0 0.094v-0.005c0 0.010 0 0.023 0 0.035 0 4.257 1.736 8.109 4.539 10.887l0.001 0.001 4.983 5.018c1.942-0.303 4.182-0.476 6.463-0.476 7.121 0 13.847 1.689 19.8 4.688l-0.253-0.115zM393.079 700.928l123.938-123.972c-2.832-5.84-4.487-12.701-4.487-19.95 0-2.124 0.142-4.216 0.418-6.265l-0.026 0.239-102.912-102.98c-9.421 1.399-18.227-0.341-26.010-4.096l-123.972 123.972c2.866 5.849 4.552 12.726 4.574 19.995v0.008c0 1.98-0.171 3.959-0.478 5.973l102.946 102.98c1.934-0.299 4.164-0.471 6.435-0.471 7.129 0 13.865 1.687 19.829 4.682l-0.255-0.116zM424.073 753.835c2.838 2.714 6.694 4.385 10.94 4.385s8.102-1.671 10.946-4.391l123.966-123.966c2.804-2.784 4.54-6.64 4.54-10.902 0-0.007 0-0.015 0-0.022v0.001c0-4.164-1.604-8.055-4.54-10.957l-4.983-5.018c-9.421 1.365-18.227-0.444-25.941-4.096l-124.041 123.972c2.831 5.843 4.485 12.709 4.485 19.961 0 2.121-0.141 4.208-0.415 6.253l0.026-0.239z" />
<glyph unicode="&#xe92d;" glyph-name="ham-selected" d="M371.166 723.217c-2.804 2.804-6.678 4.538-10.957 4.538s-8.153-1.734-10.957-4.538l-111.104-111.172c-2.804-2.804-4.538-6.678-4.538-10.957s1.734-8.153 4.538-10.957l167.765-167.902c2.797-2.82 6.673-4.566 10.957-4.566s8.16 1.746 10.956 4.565l0.001 0.001 21.879 21.948c98.953-114.176 244.463-264.943 297.847-318.362 11.153-11.237 26.606-18.193 43.684-18.193 0.038 0 0.077 0 0.115 0h-0.006c34.227 0.059 61.951 27.819 61.951 62.054 0 17.11-6.925 32.603-18.125 43.828l0.001-0.001c-44.373 44.373-198.554 193.604-318.532 297.643l22.289 22.289c2.804 2.804 4.538 6.678 4.538 10.957s-1.734 8.153-4.538 10.957v0zM264.602 262.554c-0.091 0-0.199 0.001-0.307 0.001-51.122 0-92.575-41.394-92.672-92.493v-0.009c0.039-34.212 27.772-61.933 61.984-61.952h278.871c34.214 0.019 61.947 27.74 61.986 61.948v0.004c-0.097 51.108-41.55 92.502-92.672 92.502-0.108 0-0.216 0-0.324-0.001h0.017zM216.235 568.183c-2.804 2.804-6.678 4.538-10.957 4.538s-8.153-1.734-10.957-4.538l-9.079-9.079c-8.772-8.738-13.619-20.446-13.619-32.87 0-12.459 4.847-24.132 13.653-32.905l123.904-124.006c8.354-8.433 19.937-13.654 32.74-13.654 0.046 0 0.092 0 0.138 0h-0.007c0.039 0 0.085 0 0.131 0 12.803 0 24.386 5.221 32.736 13.65l9.083 9.083c2.804 2.804 4.538 6.678 4.538 10.957s-1.734 8.153-4.538 10.957v0zM467.866 776.158c-17.476 17.579-48.196 17.579-65.741 0l-9.045-9.079c-2.804-2.804-4.538-6.678-4.538-10.957s1.734-8.153 4.538-10.957l167.731-167.902c2.797-2.82 6.673-4.566 10.957-4.566s8.16 1.746 10.956 4.565l0.001 0.001 9.079 9.114c8.413 8.361 13.619 19.94 13.619 32.734 0 0.048 0 0.096 0 0.143v-0.007c0 12.459-4.847 24.132-13.653 32.905z" />
<glyph unicode="&#xe92e;" glyph-name="setting-deselected" d="M533.436 789.333c34.645 0 62.805-28.194 62.805-62.839v-14.507c14.746-4.71 29.082-10.65 42.837-17.749l10.24 10.24c11.374 11.386 27.094 18.43 44.459 18.43s33.085-7.043 44.458-18.429l30.277-30.277c24.201-24.166 24.917-64 0-88.883l-10.274-10.24c7.1-13.756 13.039-28.092 17.749-42.803h14.507c34.645 0 62.839-28.194 62.839-62.839v-42.871c-0.058-34.675-28.162-62.767-62.836-62.805h-14.51c-4.71-14.746-10.65-29.082-17.749-42.837l10.24-10.24c24.917-24.883 24.235-64.717 0-88.917l-30.276-30.276c-24.235-24.235-64.034-24.849-88.883 0l-10.24 10.274c-11.989-6.374-26.148-12.387-40.852-17.197l-1.951-0.552v-14.507c-0.039-34.69-28.15-62.801-62.836-62.839h-42.875c-34.675 0.058-62.767 28.162-62.805 62.836v14.511c-16.666 5.358-30.838 11.371-44.347 18.473l1.51-0.723-10.24-10.24c-11.374-11.386-27.094-18.43-44.459-18.43s-33.085 7.043-44.458 18.429l-30.277 30.277c-11.376 11.372-18.413 27.085-18.413 44.442s7.037 33.069 18.413 44.441v0l10.274 10.24c-6.376 11.99-12.389 26.15-17.198 40.854l-0.552 1.949h-14.541c-34.675 0.058-62.767 28.162-62.805 62.836v42.875c0 34.645 28.194 62.805 62.839 62.805h14.507c4.71 14.746 10.65 29.082 17.749 42.837l-10.24 10.24c-11.386 11.374-18.43 27.094-18.43 44.459s7.043 33.085 18.429 44.458l30.277 30.277c11.372 11.376 27.085 18.413 44.442 18.413s33.069-7.037 44.441-18.413v0l10.24-10.274c11.989 6.374 26.148 12.387 40.852 17.197l1.951 0.552v14.541c0 34.611 28.194 62.805 62.839 62.805h42.871zM533.436 749.329h-42.871c-12.616-0.019-22.835-10.251-22.835-22.869v0-29.491c0-9.148-6.144-17.067-15.019-19.388-23.184-6.082-43.514-14.765-62.168-25.956l1.069 0.595c-2.909-1.745-6.418-2.777-10.168-2.777-5.519 0-10.516 2.235-14.135 5.85v0l-20.924 20.924c-4.132 4.131-9.84 6.686-16.145 6.686s-12.013-2.555-16.145-6.686l-30.31-30.276c-4.133-4.138-6.689-9.851-6.689-16.162s2.556-12.024 6.69-16.162v0l20.924-20.924c6.451-6.451 7.714-16.452 3.072-24.303-10.597-17.585-19.28-37.914-24.99-59.454l-0.371-1.645c-2.294-8.704-10.095-15.019-19.371-15.019-0.006 0-0.011 0-0.017 0h-29.524c-12.63 0-22.869-10.239-22.869-22.869v0-42.837c0-12.595 10.274-22.835 22.869-22.835h29.525c9.148 0 17.067-6.144 19.388-15.019 5.53-21.436 14.063-41.984 25.361-61.099 4.642-7.851 3.379-17.852-3.072-24.303l-20.924-20.924c-4.131-4.132-6.686-9.84-6.686-16.145s2.555-12.013 6.686-16.145l30.276-30.31c4.138-4.133 9.851-6.689 16.162-6.689s12.024 2.556 16.162 6.69v0l20.924 20.924c4.745 4.779 14.643 8.772 24.303 3.072 19.115-11.298 39.663-19.831 61.099-25.361 8.875-2.287 15.019-10.24 15.019-19.388v-29.525c0-12.595 10.24-22.869 22.869-22.869h42.837c12.595 0 22.835 10.274 22.835 22.869v29.525c0 9.148 6.144 17.067 15.019 19.388 23.184 6.082 43.514 14.765 62.168 25.956l-1.069-0.595c7.851 4.642 17.852 3.379 24.303-3.072l20.924-20.924c4.132-4.131 9.84-6.686 16.145-6.686s12.013 2.555 16.145 6.686l30.31 30.276c4.133 4.138 6.689 9.851 6.689 16.162s-2.556 12.024-6.69 16.162v0l-20.924 20.924c-3.614 3.619-5.849 8.616-5.849 14.135 0 3.75 1.032 7.26 2.828 10.259l-0.051-0.091c11.298 19.115 19.831 39.663 25.361 61.099 2.287 8.875 10.24 15.019 19.388 15.019h29.525c12.595 0 22.869 10.24 22.869 22.869v42.803c-0.019 12.616-10.251 22.835-22.869 22.835h-29.525c-9.114 0-17.067 6.144-19.388 15.019-6.082 23.184-14.765 43.514-25.956 62.168l0.595-1.069c-1.745 2.909-2.777 6.418-2.777 10.168 0 5.519 2.235 10.516 5.85 14.135v0l20.924 20.924c4.131 4.132 6.686 9.84 6.686 16.145s-2.555 12.013-6.686 16.145l-30.276 30.31c-4.138 4.133-9.851 6.689-16.162 6.689s-12.024-2.556-16.162-6.69v0l-20.924-20.924c-3.619-3.614-8.616-5.849-14.135-5.849-3.75 0-7.26 1.032-10.259 2.828l0.091-0.051c-17.585 10.596-37.914 19.279-59.454 24.99l-1.645 0.371c-8.704 2.294-15.019 10.095-15.019 19.371 0 0.006 0 0.011 0 0.017v-0.001 29.525c0 12.63-10.239 22.869-22.869 22.869v0zM512 596.548c81.92 0 148.548-66.662 148.548-148.548 0-81.92-66.662-148.548-148.548-148.548-82.010 0.078-148.471 66.539-148.548 148.541v0.007c0 81.92 66.662 148.548 148.548 148.548zM512 556.544c-59.924-0.058-108.486-48.62-108.544-108.538v-0.006c0.058-59.924 48.62-108.486 108.538-108.544h0.006c59.924 0.058 108.486 48.62 108.544 108.538v0.006c-0.058 59.924-48.62 108.486-108.538 108.544h-0.006z" />
<glyph unicode="&#xe92f;" glyph-name="setting-selected" d="M533.436 789.333c34.645 0 62.805-28.194 62.805-62.839v-14.507c14.746-4.71 29.082-10.65 42.837-17.749l10.24 10.24c11.374 11.386 27.094 18.43 44.459 18.43s33.085-7.043 44.458-18.429l30.277-30.277c24.201-24.166 24.917-64 0-88.883l-10.274-10.24c7.1-13.756 13.039-28.092 17.749-42.803h14.507c34.645 0 62.839-28.194 62.839-62.839v-42.871c-0.058-34.675-28.162-62.767-62.836-62.805h-14.51c-4.71-14.746-10.65-29.082-17.749-42.837l10.24-10.24c24.917-24.883 24.235-64.717 0-88.917l-30.276-30.276c-24.235-24.235-64.034-24.849-88.883 0l-10.24 10.274c-11.989-6.374-26.148-12.387-40.852-17.197l-1.951-0.552v-14.507c-0.039-34.69-28.15-62.801-62.836-62.839h-42.875c-34.675 0.058-62.767 28.162-62.805 62.836v14.511c-16.666 5.358-30.838 11.371-44.347 18.473l1.51-0.723-10.24-10.24c-11.374-11.386-27.094-18.43-44.459-18.43s-33.085 7.043-44.458 18.429l-30.277 30.277c-11.376 11.372-18.413 27.085-18.413 44.442s7.037 33.069 18.413 44.441v0l10.274 10.24c-6.376 11.99-12.389 26.15-17.198 40.854l-0.552 1.949h-14.541c-34.675 0.058-62.767 28.162-62.805 62.836v42.875c0 34.645 28.194 62.805 62.839 62.805h14.507c4.71 14.746 10.65 29.082 17.749 42.837l-10.24 10.24c-11.386 11.374-18.43 27.094-18.43 44.459s7.043 33.085 18.429 44.458l30.277 30.277c11.372 11.376 27.085 18.413 44.442 18.413s33.069-7.037 44.441-18.413v0l10.24-10.274c11.989 6.374 26.148 12.387 40.852 17.197l1.951 0.552v14.541c0 34.611 28.194 62.805 62.839 62.805h42.871zM512.341 586.65c-76.535-0.097-138.553-62.115-138.65-138.64v-0.009c0.078-76.55 62.103-138.587 138.64-138.684h0.009c76.562 0.078 138.606 62.122 138.684 138.676v0.007c-0.078 76.562-62.122 138.606-138.676 138.684h-0.007z" />
<glyph unicode="&#xe930;" glyph-name="shop-deselected" d="M643.072 289.519c-0.526 0.011-1.145 0.017-1.767 0.017-50.503 0-91.443-40.941-91.443-91.443s40.941-91.443 91.443-91.443c0.621 0 1.241 0.006 1.859 0.019l-0.093-0.001c49.737 0.992 89.677 41.545 89.677 91.426s-39.94 90.435-89.584 91.425l-0.093 0.001zM289.519 289.519c-0.526 0.011-1.145 0.017-1.767 0.017-50.503 0-91.443-40.941-91.443-91.443s40.941-91.443 91.443-91.443c0.621 0 1.241 0.006 1.859 0.019l-0.093-0.001c49.737 0.992 89.677 41.545 89.677 91.426s-39.94 90.435-89.584 91.425l-0.093 0.001zM643.038 255.898c0.418 0.011 0.911 0.017 1.405 0.017 31.934 0 57.822-25.888 57.822-57.822s-25.888-57.822-57.822-57.822c-0.494 0-0.986 0.006-1.477 0.019l0.073-0.001c-31.324 0.785-56.417 26.365-56.417 57.805s25.093 57.020 56.344 57.803l0.073 0.001zM289.519 255.898c0.418 0.011 0.911 0.017 1.405 0.017 31.934 0 57.822-25.888 57.822-57.822s-25.888-57.822-57.822-57.822c-0.494 0-0.986 0.006-1.477 0.019l0.073-0.001c-31.324 0.785-56.417 26.365-56.417 57.805s25.093 57.020 56.344 57.803l0.073 0.001zM879.241 789.333l-3.004-0.273-43.895-7.714c-41.729-7.533-74.179-39.868-81.79-80.922l-0.096-0.622-12.083-67.618h-593.715c-5.471-0.042-10.324-2.653-13.419-6.684l-0.030-0.041c-3.072-4.335-3.994-9.83-2.526-14.916l79.019-261.461c10.752-34.754 42.6-59.563 80.242-59.563 0.11 0 0.22 0 0.33 0.001h353.058c0.044 0 0.097 0 0.15 0 41.167 0 75.406 29.661 82.512 68.779l0.077 0.512 59.529 335.155c5.081 27.778 26.683 49.346 54.067 54.313l0.41 0.062 44.032 7.68c8.255 1.149 14.54 8.162 14.54 16.642 0 9.275-7.519 16.794-16.794 16.794-1.282 0-2.53-0.144-3.73-0.416l0.112 0.021zM167.219 598.801h565.043l-41.54-233.916c-4.219-23.8-24.749-41.643-49.445-41.643-0.053 0-0.106 0-0.159 0h-353.033c-0.082 0-0.179-0.001-0.277-0.001-22.556 0-41.628 14.913-47.895 35.418l-0.093 0.355-72.636 239.787z" />
<glyph unicode="&#xe931;" glyph-name="shop-selected" d="M643.072 289.519c-0.526 0.011-1.145 0.017-1.767 0.017-50.503 0-91.443-40.941-91.443-91.443s40.941-91.443 91.443-91.443c0.621 0 1.241 0.006 1.859 0.019l-0.093-0.001c49.737 0.992 89.677 41.545 89.677 91.426s-39.94 90.435-89.584 91.425l-0.093 0.001zM289.519 289.519c-0.526 0.011-1.145 0.017-1.767 0.017-50.503 0-91.443-40.941-91.443-91.443s40.941-91.443 91.443-91.443c0.621 0 1.241 0.006 1.859 0.019l-0.093-0.001c49.737 0.992 89.677 41.545 89.677 91.426s-39.94 90.435-89.584 91.425l-0.093 0.001zM643.038 255.898c0.418 0.011 0.911 0.017 1.405 0.017 31.934 0 57.822-25.888 57.822-57.822s-25.888-57.822-57.822-57.822c-0.494 0-0.986 0.006-1.477 0.019l0.073-0.001c-31.324 0.785-56.417 26.365-56.417 57.805s25.093 57.020 56.344 57.803l0.073 0.001zM289.519 255.898c0.418 0.011 0.911 0.017 1.405 0.017 31.934 0 57.822-25.888 57.822-57.822s-25.888-57.822-57.822-57.822c-0.494 0-0.986 0.006-1.477 0.019l0.073-0.001c-31.324 0.785-56.417 26.365-56.417 57.805s25.093 57.020 56.344 57.803l0.073 0.001zM879.241 789.333l-3.004-0.273-43.895-7.714c-39.611-7.157-70.809-36.617-80.406-74.669l-0.149-0.697-1.331-6.178-12.083-67.618h-593.715c-5.471-0.042-10.324-2.653-13.419-6.684l-0.030-0.041c-1.998-2.807-3.195-6.306-3.195-10.084 0-0.62 0.032-1.233 0.095-1.836l-0.006 0.075 0.58-3.072 79.019-261.461c10.175-32.89 39.191-56.829 74.14-59.342l0.27-0.016 6.144-0.205h353.075c0.044 0 0.097 0 0.15 0 39.142 0 72.022 26.816 81.269 63.078l0.126 0.581 1.195 5.666 59.529 335.087c4.731 25.904 23.791 46.367 48.511 53.071l0.471 0.109 5.461 1.195 44.1 7.714c7.905 1.465 13.812 8.306 13.812 16.527 0 8.196-5.872 15.021-13.639 16.498l-0.105 0.017-2.97 0.273z" />
<glyph unicode="&#xe932;" glyph-name="car-deselected" d="M970.718 495.445l-82.261 37.547-72.602 115.814c-20.544 32.477-56.268 53.728-96.956 53.728-0.222 0-0.444-0.001-0.665-0.002h-309.248c-0.058 0-0.127 0-0.197 0-37.163 0-70.222-17.571-91.322-44.858l-0.198-0.266-93.798-122.743-156.331-42.803c-39.034-11.102-67.14-46.437-67.14-88.336 0-0.012 0-0.025 0-0.037v0.002-59.802c0-50.551 40.277-92.297 90.863-92.297h13.414c13.402-50.638 58.81-87.357 112.794-87.357s99.392 36.719 112.61 86.544l0.183 0.813h352.529c13.425-50.604 58.817-87.291 112.777-87.291s99.351 36.686 112.593 86.477l0.184 0.813h25.19c50.586 0 90.863 41.745 90.863 92.297v68.198c0.001 0.126 0.001 0.275 0.001 0.424 0 36.662-21.576 68.285-52.722 82.865l-0.561 0.236zM216.986 206.438c-41.152 0-74.513 33.361-74.513 74.513s33.361 74.513 74.513 74.513v0c41.152 0 74.513-33.361 74.513-74.513s-33.361-74.513-74.513-74.513v0zM795.068 206.438c-41.145 0.010-74.496 33.367-74.496 74.513 0 41.152 33.361 74.513 74.513 74.513 0.006 0 0.012 0 0.018 0h-0.001c41.145-0.010 74.496-33.367 74.496-74.513 0-41.152-33.361-74.513-74.513-74.513-0.006 0-0.012 0-0.018 0h0.001zM933.137 293.308h-22.255c-6.6 58.602-55.882 103.733-115.704 103.733-4.549 0-9.036-0.261-13.449-0.769l0.539 0.050c-54.25-6.078-96.9-48.705-102.966-102.415l-0.049-0.531h-346.453c-6.6 58.602-55.882 103.733-115.704 103.733-4.549 0-9.036-0.261-13.449-0.769l0.539 0.050c-54.284-6.068-96.962-48.734-103-102.485l-0.048-0.529h-10.479c-27.511 0-48.913 22.869-48.913 50.347v59.767c-0.001 0.12-0.002 0.262-0.002 0.404 0 22.633 15.213 41.713 35.971 47.572l0.348 0.084 163.465 44.715c4.573 1.25 8.403 3.916 11.090 7.491l0.038 0.053 97.758 128.205c13.701 17.438 34.79 28.536 58.47 28.536 0.036 0 0.072 0 0.108 0h309.276c0.239 0.003 0.521 0.004 0.803 0.004 25.738 0 48.334-13.45 61.144-33.704l0.175-0.297 75.947-121.276c2.116-3.55 5.461-6.281 9.011-7.987l87.723-40.073c17.647-8.192 28.945-25.805 28.74-45.329v-68.198h0.205c0-27.477-21.402-50.347-48.879-50.347z" />
<glyph unicode="&#xe933;" glyph-name="phone-alt" d="M994.78 236.4l-224 96c-5.551 2.429-12.020 3.843-18.819 3.843-14.954 0-28.311-6.839-37.114-17.559l-0.067-0.084-99.2-121.2c-156.321 74.881-279.499 198.059-352.454 349.931l-1.926 4.449 121.2 99.2c10.818 8.848 17.669 22.197 17.669 37.145 0 6.814-1.423 13.295-3.989 19.163l0.12-0.308-96 224c-7.646 17.214-24.591 29.002-44.29 29.002-3.797 0-7.492-0.438-11.036-1.266l0.327 0.064-208-48c-21.471-5.084-37.2-24.090-37.2-46.769 0-0.004 0-0.008 0-0.011v0.001c0-513 415.8-928 928-928 0.009 0 0.020 0 0.031 0 22.68 0 41.686 15.729 46.704 36.874l0.065 0.326 48 208c0.751 3.201 1.182 6.876 1.182 10.652 0 19.822-11.872 36.871-28.893 44.425l-0.31 0.123z" />
<glyph unicode="&#xe934;" glyph-name="mobile" horiz-adv-x="640" d="M544 960h-448c-53 0-96-43-96-96v-832c0-53 43-96 96-96h448c53 0 96 43 96 96v832c0 53-43 96-96 96zM320 0c-35.4 0-64 28.6-64 64s28.6 64 64 64 64-28.6 64-64-28.6-64-64-64z" />
<glyph unicode="&#xe935;" glyph-name="id-badge" horiz-adv-x="768" d="M672 960h-576c-53 0-96-43-96-96v-832c0-53 43-96 96-96h576c53 0 96 43 96 96v832c0 53-43 96-96 96zM288 896h192c17.6 0 32-14.4 32-32s-14.4-32-32-32h-192c-17.6 0-32 14.4-32 32s14.4 32 32 32zM384 640c70.6 0 128-57.4 128-128s-57.4-128-128-128-128 57.4-128 128 57.4 128 128 128zM608 166.4c0-21.2-20-38.4-44.8-38.4h-358.4c-24.8 0-44.8 17.2-44.8 38.4v38.4c0 63.6 60.2 115.2 134.4 115.2h10c24.6-10.2 51.4-16 79.6-16s55.2 5.8 79.6 16h10c74.2 0 134.4-51.6 134.4-115.2v-38.4z" />
<glyph unicode="&#xe936;" glyph-name="content_copy" d="M810 42.667v598h-468v-598h468zM810 724.667q34 0 60-25t26-59v-598q0-34-26-60t-60-26h-468q-34 0-60 26t-26 60v598q0 34 26 59t60 25h468zM682 896.667v-86h-512v-598h-84v598q0 34 25 60t59 26h512z" />
<glyph unicode="&#xe937;" glyph-name="filter" d="M975.952 960h-927.896c-42.636 0-64.15-51.732-33.94-81.942l369.884-369.94v-412.118c0-15.662 7.642-30.34 20.474-39.324l160-111.96c31.566-22.096 75.526 0.298 75.526 39.324v524.078l369.894 369.94c30.148 30.15 8.782 81.942-33.942 81.942z" />
<glyph unicode="&#xe938;" glyph-name="user" horiz-adv-x="896" d="M448 448c141.4 0 256 114.6 256 256s-114.6 256-256 256-256-114.6-256-256 114.6-256 256-256zM627.2 384h-33.4c-44.4-20.4-93.8-32-145.8-32s-101.2 11.6-145.8 32h-33.4c-148.4 0-268.8-120.4-268.8-268.8v-83.2c0-53 43-96 96-96h704c53 0 96 43 96 96v83.2c0 148.4-120.4 268.8-268.8 268.8z" />
<glyph unicode="&#xe939;" glyph-name="info" horiz-adv-x="384" d="M40 111.542h40v288.916h-40c-22.092 0-40 17.908-40 40v95.542c0 22.092 17.908 40 40 40h224c22.092 0 40-17.908 40-40v-424.458h40c22.092 0 40-17.908 40-40v-95.542c0-22.092-17.908-40-40-40h-304c-22.092 0-40 17.908-40 40v95.542c0 22.092 17.908 40 40 40zM192 960c-79.53 0-144-64.47-144-144s64.47-144 144-144 144 64.47 144 144-64.472 144-144 144z" />
<glyph unicode="&#xe93a;" glyph-name="search" d="M694.857 484.571q0 105.714-75.143 180.857t-180.857 75.143-180.857-75.143-75.143-180.857 75.143-180.857 180.857-75.143 180.857 75.143 75.143 180.857zM987.429 9.143q0-29.714-21.714-51.429t-51.429-21.714q-30.857 0-51.429 21.714l-196 195.429q-102.286-70.857-228-70.857-81.714 0-156.286 31.714t-128.571 85.714-85.714 128.571-31.714 156.286 31.714 156.286 85.714 128.571 128.571 85.714 156.286 31.714 156.286-31.714 128.571-85.714 85.714-128.571 31.714-156.286q0-125.714-70.857-228l196-196q21.143-21.143 21.143-51.429z" />
<glyph unicode="&#xe93b;" glyph-name="share-square" horiz-adv-x="1152" d="M1123.876 643.88l-287.996 287.936c-60.028 60.028-163.88 17.99-163.88-67.88v-114.396c-84.9-3.76-168.060-13.1-241.52-35.98-70.34-21.9-126.14-55.16-165.82-98.84-48.22-53.12-72.66-119.92-72.66-198.6 0-123.394 66.356-224.91 169.74-289.52 75.092-47.016 170.496 25.302 142.040 111.48-31.030 94.238-34.312 141.846 168.22 157.52v-107.6c0-85.986 103.936-127.826 163.88-67.88l287.996 288c37.5 37.48 37.5 98.28 0 135.76zM768 288v207.68c-257.382-3.844-435.016-46.38-355.38-287.68-59.040 36.9-124.62 103.84-124.62 208.12 0 218.668 258.28 237.894 480 239.7v208.18l288-288-288-288zM817.48 119.014c15.954 4.627 29.88 10.97 42.631 19.008l-0.683-0.402c15.952 9.904 36.572-1.652 36.572-20.428v-85.192c0-53.020-42.98-96-96-96h-704c-53.020 0-96 42.98-96 96v704c0 53.020 42.98 96 96 96h264c13.254 0 24-10.746 24-24v-8.972c0-9.834-5.974-18.738-15.138-22.304-27.404-10.662-52.792-23.074-76.1-37.17-3.577-2.217-7.913-3.537-12.555-3.554h-172.207c-6.627 0-12-5.373-12-12v0-680c0-6.627 5.373-12 12-12v0h680c6.627 0 12 5.373 12 12v0 51.932c0 10.74 7.158 20.118 17.48 23.082z" />
<glyph unicode="&#xe93c;" glyph-name="tachometer" d="M219.429 301.714q0 30.286-21.429 51.714t-51.714 21.429-51.714-21.429-21.429-51.714 21.429-51.714 51.714-21.429 51.714 21.429 21.429 51.714zM329.143 557.714q0 30.286-21.429 51.714t-51.714 21.429-51.714-21.429-21.429-51.714 21.429-51.714 51.714-21.429 51.714 21.429 21.429 51.714zM573.714 282.857l57.714 218.286q3.429 14.857-4.286 27.714t-22 16.857-27.429-3.714-17.143-22.571l-57.714-218.286q-34.286-2.857-61.143-24.857t-36-56.286q-11.429-44 11.429-83.429t66.857-50.857 83.429 11.429 50.857 66.857q9.143 34.286-3.429 66.857t-41.143 52zM950.857 301.714q0 30.286-21.429 51.714t-51.714 21.429-51.714-21.429-21.429-51.714 21.429-51.714 51.714-21.429 51.714 21.429 21.429 51.714zM585.143 667.429q0 30.286-21.429 51.714t-51.714 21.429-51.714-21.429-21.429-51.714 21.429-51.714 51.714-21.429 51.714 21.429 21.429 51.714zM841.143 557.714q0 30.286-21.429 51.714t-51.714 21.429-51.714-21.429-21.429-51.714 21.429-51.714 51.714-21.429 51.714 21.429 21.429 51.714zM1024 301.714q0-149.143-80.571-276-10.857-16.571-30.857-16.571h-801.143q-20 0-30.857 16.571-80.571 126.286-80.571 276 0 104 40.571 198.857t109.143 163.429 163.429 109.143 198.857 40.571 198.857-40.571 163.429-109.143 109.143-163.429 40.571-198.857z" />
<glyph unicode="&#xe93d;" glyph-name="eye" d="M950.857 411.429q-86.857 134.857-217.714 201.714 34.857-59.429 34.857-128.571 0-105.714-75.143-180.857t-180.857-75.143-180.857 75.143-75.143 180.857q0 69.143 34.857 128.571-130.857-66.857-217.714-201.714 76-117.143 190.571-186.571t248.286-69.429 248.286 69.429 190.571 186.571zM539.429 630.857q0 11.429-8 19.429t-19.429 8q-71.429 0-122.571-51.143t-51.143-122.571q0-11.429 8-19.429t19.429-8 19.429 8 8 19.429q0 49.143 34.857 84t84 34.857q11.429 0 19.429 8t8 19.429zM1024 411.429q0-19.429-11.429-39.429-80-131.429-215.143-210.571t-285.429-79.143-285.429 79.429-215.143 210.286q-11.429 20-11.429 39.429t11.429 39.429q80 130.857 215.143 210.286t285.429 79.429 285.429-79.429 215.143-210.286q11.429-20 11.429-39.429z" />
<glyph unicode="&#xe93e;" glyph-name="minus" d="M914.286 539.429v-109.714q0-22.857-16-38.857t-38.857-16h-694.857q-22.857 0-38.857 16t-16 38.857v109.714q0 22.857 16 38.857t38.857 16h694.857q22.857 0 38.857-16t16-38.857z" />
<glyph unicode="&#xe93f;" glyph-name="angle-down" d="M797.143 539.429q0-7.429-5.714-13.143l-266.286-266.286q-5.714-5.714-13.143-5.714t-13.143 5.714l-266.286 266.286q-5.714 5.714-5.714 13.143t5.714 13.143l28.571 28.571q5.714 5.714 13.143 5.714t13.143-5.714l224.571-224.571 224.571 224.571q5.714 5.714 13.143 5.714t13.143-5.714l28.571-28.571q5.714-5.714 5.714-13.143z" />
<glyph unicode="&#xe940;" glyph-name="angle-left-2" d="M687.429 649.143q0-7.429-5.714-13.143l-224.571-224.571 224.571-224.571q5.714-5.714 5.714-13.143t-5.714-13.143l-28.571-28.571q-5.714-5.714-13.143-5.714t-13.143 5.714l-266.286 266.286q-5.714 5.714-5.714 13.143t5.714 13.143l266.286 266.286q5.714 5.714 13.143 5.714t13.143-5.714l28.571-28.571q5.714-5.714 5.714-13.143z" />
<glyph unicode="&#xe941;" glyph-name="plus" d="M914.286 539.429v-109.714q0-22.857-16-38.857t-38.857-16h-237.714v-237.714q0-22.857-16-38.857t-38.857-16h-109.714q-22.857 0-38.857 16t-16 38.857v237.714h-237.714q-22.857 0-38.857 16t-16 38.857v109.714q0 22.857 16 38.857t38.857 16h237.714v237.714q0 22.857 16 38.857t38.857 16h109.714q22.857 0 38.857-16t16-38.857v-237.714h237.714q22.857 0 38.857-16t16-38.857z" />
<glyph unicode="&#xe942;" glyph-name="times" d="M851.429 204.571q0-22.857-16-38.857l-77.714-77.714q-16-16-38.857-16t-38.857 16l-168 168-168-168q-16-16-38.857-16t-38.857 16l-77.714 77.714q-16 16-16 38.857t16 38.857l168 168-168 168q-16 16-16 38.857t16 38.857l77.714 77.714q16 16 38.857 16t38.857-16l168-168 168 168q16 16 38.857 16t38.857-16l77.714-77.714q16-16 16-38.857t-16-38.857l-168-168 168-168q16-16 16-38.857z" />
<glyph unicode="&#xe943;" glyph-name="chevron-down" d="M961.714 498.286l-424-423.429q-10.857-10.857-25.714-10.857t-25.714 10.857l-424 423.429q-10.857 10.857-10.857 26t10.857 26l94.857 94.286q10.857 10.857 25.714 10.857t25.714-10.857l303.429-303.429 303.429 303.429q10.857 10.857 25.714 10.857t25.714-10.857l94.857-94.286q10.857-10.857 10.857-26t-10.857-26z" />
<glyph unicode="&#xe944;" glyph-name="clock-o" d="M585.143 649.143v-256q0-8-5.143-13.143t-13.143-5.143h-182.857q-8 0-13.143 5.143t-5.143 13.143v36.571q0 8 5.143 13.143t13.143 5.143h128v201.143q0 8 5.143 13.143t13.143 5.143h36.571q8 0 13.143-5.143t5.143-13.143zM822.857 448q0 84.571-41.714 156t-113.143 113.143-156 41.714-156-41.714-113.143-113.143-41.714-156 41.714-156 113.143-113.143 156-41.714 156 41.714 113.143 113.143 41.714 156zM950.857 448q0-119.429-58.857-220.286t-159.714-159.714-220.286-58.857-220.286 58.857-159.714 159.714-58.857 220.286 58.857 220.286 159.714 159.714 220.286 58.857 220.286-58.857 159.714-159.714 58.857-220.286z" />
<glyph unicode="&#xe945;" glyph-name="times-circle" d="M729.714 318.857q0 14.857-10.857 25.714l-103.429 103.429 103.429 103.429q10.857 10.857 10.857 25.714 0 15.429-10.857 26.286l-51.429 51.429q-10.857 10.857-26.286 10.857-14.857 0-25.714-10.857l-103.429-103.429-103.429 103.429q-10.857 10.857-25.714 10.857-15.429 0-26.286-10.857l-51.429-51.429q-10.857-10.857-10.857-26.286 0-14.857 10.857-25.714l103.429-103.429-103.429-103.429q-10.857-10.857-10.857-25.714 0-15.429 10.857-26.286l51.429-51.429q10.857-10.857 26.286-10.857 14.857 0 25.714 10.857l103.429 103.429 103.429-103.429q10.857-10.857 25.714-10.857 15.429 0 26.286 10.857l51.429 51.429q10.857 10.857 10.857 26.286zM950.857 448q0-119.429-58.857-220.286t-159.714-159.714-220.286-58.857-220.286 58.857-159.714 159.714-58.857 220.286 58.857 220.286 159.714 159.714 220.286 58.857 220.286-58.857 159.714-159.714 58.857-220.286z" />
<glyph unicode="&#xe946;" glyph-name="plus-circle" d="M768 411.429v73.143q0 14.857-10.857 25.714t-25.714 10.857h-146.286v146.286q0 14.857-10.857 25.714t-25.714 10.857h-73.143q-14.857 0-25.714-10.857t-10.857-25.714v-146.286h-146.286q-14.857 0-25.714-10.857t-10.857-25.714v-73.143q0-14.857 10.857-25.714t25.714-10.857h146.286v-146.286q0-14.857 10.857-25.714t25.714-10.857h73.143q14.857 0 25.714 10.857t10.857 25.714v146.286h146.286q14.857 0 25.714 10.857t10.857 25.714zM950.857 448q0-119.429-58.857-220.286t-159.714-159.714-220.286-58.857-220.286 58.857-159.714 159.714-58.857 220.286 58.857 220.286 159.714 159.714 220.286 58.857 220.286-58.857 159.714-159.714 58.857-220.286z" />
<glyph unicode="&#xe947;" glyph-name="info-circle" d="M512 944c-273.914 0-496-222.166-496-496 0-273.994 222.086-496 496-496s496 222.006 496 496c0 273.834-222.086 496-496 496zM512 724c46.392 0 84-37.608 84-84s-37.608-84-84-84-84 37.608-84 84 37.608 84 84 84zM624 216c0-13.254-10.746-24-24-24h-176c-13.254 0-24 10.746-24 24v48c0 13.254 10.746 24 24 24h24v128h-24c-13.254 0-24 10.746-24 24v48c0 13.254 10.746 24 24 24h128c13.254 0 24-10.746 24-24v-200h24c13.254 0 24-10.746 24-24v-48z" />
<glyph unicode="&#xe948;" glyph-name="check-circle" d="M806.857 540.571q0 16-10.286 26.286l-52 51.429q-10.857 10.857-25.714 10.857t-25.714-10.857l-233.143-232.571-129.143 129.143q-10.857 10.857-25.714 10.857t-25.714-10.857l-52-51.429q-10.286-10.286-10.286-26.286 0-15.429 10.286-25.714l206.857-206.857q10.857-10.857 25.714-10.857 15.429 0 26.286 10.857l310.286 310.286q10.286 10.286 10.286 25.714zM950.857 448q0-119.429-58.857-220.286t-159.714-159.714-220.286-58.857-220.286 58.857-159.714 159.714-58.857 220.286 58.857 220.286 159.714 159.714 220.286 58.857 220.286-58.857 159.714-159.714 58.857-220.286z" />
<glyph unicode="&#xe949;" glyph-name="f134d7fd60ab4f26d0d681840b0a30f7" d="M1013.76 431.821c-1.331 67.584-15.974 135.066-43.11 196.71-27.034 61.747-66.253 117.555-114.381 163.738s-105.165 82.739-166.912 106.906c-61.747 24.166-128.102 35.738-193.638 34.304-65.536-1.331-130.867-15.565-190.464-41.779-59.699-26.214-113.869-64.205-158.515-110.797-44.749-46.592-80.077-101.888-103.322-161.587-23.347-59.699-34.509-123.904-33.075-187.392 1.331-63.488 15.155-126.566 40.55-184.32s62.157-110.080 107.315-153.293c45.158-43.213 98.611-77.414 156.365-99.84 57.754-22.528 119.808-33.28 181.248-31.846 61.44 1.331 122.368 14.746 178.074 39.322 55.808 24.576 106.291 60.211 148.070 103.834s74.65 95.334 96.358 151.142c13.21 33.894 22.118 69.222 26.829 104.96 1.229-0.102 2.56-0.102 3.789-0.102 35.738 0 64.717 28.979 64.717 64.717 0 1.843-0.102 3.584-0.205 5.427l0.307-0.102zM910.95 259.891c-23.757-53.862-58.163-102.605-100.352-142.848s-92.058-71.987-145.92-92.877c-53.862-20.89-111.514-30.822-168.755-29.389-57.242 1.331-113.869 13.926-165.683 36.864s-98.816 56.115-137.523 96.768c-38.81 40.653-69.325 88.781-89.293 140.698-20.275 52.019-29.696 107.52-28.365 162.714s13.517 109.67 35.635 159.539c22.118 49.869 54.067 95.027 93.286 132.301s85.504 66.662 135.373 85.811c49.869 19.251 103.322 28.365 156.365 26.931 53.146-1.331 105.472-13.107 153.293-34.406 47.923-21.299 91.341-52.122 127.078-89.805 35.84-37.683 63.898-82.227 82.33-130.15s27.136-99.226 25.702-150.221h0.205c-0.102-1.741-0.205-3.584-0.205-5.427 0-33.382 25.293-60.826 57.754-64.307-6.144-35.226-16.589-69.632-30.925-102.195z" />
<glyph unicode="&#xe94a;" glyph-name="caret-down" d="M804.571 557.714q0-14.857-10.857-25.714l-256-256q-10.857-10.857-25.714-10.857t-25.714 10.857l-256 256q-10.857 10.857-10.857 25.714t10.857 25.714 25.714 10.857h512q14.857 0 25.714-10.857t10.857-25.714z" />
<glyph unicode="&#xe94b;" glyph-name="caret-up" d="M804.571 265.143q0-14.857-10.857-25.714t-25.714-10.857h-512q-14.857 0-25.714 10.857t-10.857 25.714 10.857 25.714l256 256q10.857 10.857 25.714 10.857t25.714-10.857l256-256q10.857-10.857 10.857-25.714z" />
<glyph unicode="&#xe94c;" glyph-name="message-question" d="M725.333 856.333h-426.667c-128 0-213.333-85.333-213.333-213.333v-256c0-128 85.333-213.333 213.333-213.333v-90.88c0-34.133 37.973-54.613 66.133-35.413l189.867 126.293h170.667c128 0 213.333 85.333 213.333 213.333v256c0 128-85.333 213.333-213.333 213.333zM512 337.079c-17.92 0-32 14.507-32 32s14.080 32 32 32c17.92 0 32-14.507 32-32s-14.080-32-32-32zM565.76 514.146c-16.64-11.093-21.76-18.347-21.76-30.293v-8.96c0-17.493-14.507-32-32-32s-32 14.507-32 32v8.96c0 49.494 36.267 73.814 49.92 83.2 15.787 10.667 20.907 17.92 20.907 29.013 0 21.333-17.493 38.827-38.827 38.827s-38.827-17.493-38.827-38.827c0-17.493-14.507-32-32-32s-32 14.507-32 32c0 56.747 46.080 102.827 102.827 102.827s102.827-46.080 102.827-102.827c0-48.64-35.84-72.96-49.067-81.92z" />
<glyph unicode="&#xe94d;" glyph-name="mobile1" d="M692.907 874.667h-361.813c-117.76 0-160.427-42.667-160.427-162.56v-528.213c0-119.893 42.667-162.56 160.427-162.56h361.387c118.187 0 160.853 42.667 160.853 162.56v528.213c0 119.893-42.667 162.56-160.427 162.56zM512 136.533c-40.96 0-74.667 33.707-74.667 74.667s33.707 74.667 74.667 74.667c40.96 0 74.667-33.707 74.667-74.667s-33.707-74.667-74.667-74.667zM597.333 693.333h-170.667c-17.493 0-32 14.507-32 32s14.507 32 32 32h170.667c17.493 0 32-14.507 32-32s-14.507-32-32-32z" />
<glyph unicode="&#xe94e;" glyph-name="coin" d="M935.253 245.393c-14.080-113.493-107.093-206.507-220.587-220.587-68.693-8.533-132.693 10.24-182.613 46.933-28.587 20.907-21.76 65.28 12.373 75.52 128.427 38.827 229.547 140.373 268.8 268.8 10.24 33.707 54.613 40.533 75.52 12.373 36.267-50.347 55.040-114.347 46.507-183.040zM426.24 874.667c-188.16 0-340.907-152.747-340.907-340.907s152.747-340.907 340.907-340.907c188.16 0 340.907 152.747 340.907 340.907-0.427 188.16-152.747 340.907-340.907 340.907zM386.133 581.547l102.827-35.84c37.12-13.227 55.040-39.253 55.040-79.36 0-46.080-36.693-84.053-81.493-84.053h-3.84v-2.133c0-17.493-14.507-32-32-32s-32 14.507-32 32v2.56c-47.36 2.133-85.333 41.813-85.333 91.307 0 17.493 14.507 32 32 32s32-14.507 32-32c0-15.36 11.093-27.733 24.747-27.733h64c9.813 0 17.493 8.96 17.493 20.053 0 14.933-2.56 15.787-12.373 19.2l-102.827 35.84c-36.693 12.8-55.040 38.827-55.040 79.36 0 46.080 36.693 84.053 81.493 84.053h3.84v1.707c0 17.493 14.507 32 32 32s32-14.507 32-32v-2.56c47.36-2.133 85.333-41.813 85.333-91.307 0-17.493-14.507-32-32-32s-32 14.507-32 32c0 15.36-11.093 27.733-24.747 27.733h-64c-9.813 0-17.493-8.96-17.493-20.053-0.427-14.507 2.133-15.36 12.373-18.773z" />
<glyph unicode="&#xe94f;" glyph-name="cards" d="M649.391 680.5h-402.772c-11.947 0-23.040-0.427-33.28-0.853-101.12-5.973-128-43.093-128-158.294v-24.747c0-23.467 19.2-42.667 42.667-42.667h639.999c23.467 0 42.667 19.2 42.667 42.667v24.747c0 127.148-32.427 159.148-161.28 159.148zM128.005 389.999c-23.467 0-42.667-19.2-42.667-42.667v-124.16c0-127.147 32.427-159.147 161.28-159.147h402.772c126.72 0 160 30.72 161.28 152.32v130.987c0 23.467-19.2 42.667-42.667 42.667h-639.999zM296.965 168.132h-72.96c-17.493 0-32 14.507-32 32s14.507 32 32 32h73.387c17.493 0 32-14.507 32-32s-14.507-32-32.427-32zM535.471 168.132h-146.772c-17.493 0-32 14.507-32 32s14.507 32 32 32h146.772c17.493 0 32-14.507 32-32s-14.080-32-32-32zM938.662 391.185v223.575c0 133.547-76.373 191.573-191.573 191.573h-381.015c-32.427 0-61.44-4.693-87.040-14.507-20.053-7.253-37.973-17.92-52.48-32-7.68-7.253-1.707-19.2 9.387-19.2h463.788c96 0 173.653-77.653 173.653-173.653v-305.922c0-10.667 11.52-16.64 19.2-8.96 29.44 31.147 46.080 76.8 46.080 139.093z" />
<glyph unicode="&#xe950;" glyph-name="filter1" d="M878.933 785v-93.867c0-34.133-21.333-76.8-42.667-98.133l-183.467-162.135c-25.6-21.333-42.667-64-42.667-98.133v-183.467c0-25.6-17.067-59.733-38.4-72.533l-59.733-38.4c-55.467-34.133-132.266 4.267-132.266 72.533v226.133c0 29.867-17.067 68.267-34.133 89.6l-20.053 20.907c-13.227 14.080-15.787 35.413-5.12 52.053l218.453 350.722c7.68 12.373 21.333 20.053 36.267 20.053h218.453c46.933 0 85.333-38.4 85.333-85.333zM441.6 805.053l-151.466-242.773c-14.507-23.467-47.787-26.88-66.987-6.827l-39.68 41.813c-21.333 21.333-38.4 59.733-38.4 85.333v98.133c0 51.2 38.4 89.6 85.333 89.6h174.933c33.279 0 53.759-36.693 36.266-65.28z" />
<glyph unicode="&#xe951;" glyph-name="user-edit" d="M511.996 874.667c-117.761 0-213.334-95.573-213.334-213.333s95.573-213.333 213.334-213.333c117.76 0 213.333 95.573 213.333 213.333s-95.573 213.333-213.333 213.333zM604.582 682.24l-115.2-115.2c-4.267-4.267-13.227-8.533-19.2-9.813l-43.948-5.973c-16.213-2.133-27.307 8.96-24.747 24.747l6.4 43.947c0.853 5.973 5.12 14.933 9.813 19.2l115.201 115.2c19.627 19.627 43.093 29.013 72.107 0 28.587-29.44 19.2-52.48-0.427-72.107zM511.996 362.667c-213.76 0-387.84-143.36-387.84-320 0-11.947 9.387-21.333 21.333-21.333h733.013c11.947 0 21.333 9.387 21.333 21.333 0 176.64-174.080 320-387.84 320z" />
<glyph unicode="&#xe952;" glyph-name="plus1" d="M512-64c-16.974 0-33.253 5.267-45.254 14.644-12.003 9.377-18.746 22.094-18.746 35.355v924.001c0 13.261 6.743 25.978 18.746 35.355 12.001 9.377 28.28 14.645 45.254 14.645s33.253-5.268 45.254-14.645c12.003-9.377 18.746-22.095 18.746-35.355v-924.001c0-13.261-6.743-25.978-18.746-35.355-12.001-9.377-28.28-14.644-45.254-14.644zM974.001 384h-924.001c-13.261 0-25.978 6.743-35.355 18.746-9.377 12.001-14.645 28.28-14.645 45.254s5.268 33.253 14.645 45.254c9.377 12.003 22.095 18.746 35.355 18.746h924.001c13.261 0 25.978-6.743 35.355-18.746 9.377-12.001 14.644-28.28 14.644-45.254s-5.267-33.253-14.644-45.254c-9.377-12.003-22.094-18.746-35.355-18.746z" />
<glyph unicode="&#xe953;" glyph-name="empty-wallet" d="M633.596 791.433v-162.133h-64v162.133c0 11.52-10.24 17.067-17.067 17.067-2.133 0-4.267-0.427-6.4-1.28l-338.348-127.573c-22.613-8.533-37.12-29.867-37.12-54.187v-28.587c-38.827-29.013-64-75.521-64-128.001v156.588c0 50.773 31.147 96 78.507 113.92l338.774 128c9.387 3.413 19.2 5.12 28.587 5.12 42.667 0 81.067-34.56 81.067-81.067zM917.325 341.333v-42.667c0-11.52-8.96-20.907-20.907-21.333h-62.293c-22.613 0-43.093 16.64-44.8 38.827-1.28 13.227 3.84 25.6 12.373 34.133 7.68 8.107 18.347 12.373 29.867 12.373h64.427c12.373-0.427 21.333-9.813 21.333-21.333zM831.142 407.467h43.52c23.467 0 42.667 19.2 42.667 42.667v18.773c0 88.32-72.107 160.427-160.427 160.427h-489.814c-36.267 0-69.547-11.947-96.427-32.427-38.827-29.013-64-75.52-64-128v-287.147c0-88.32 72.107-160.427 160.427-160.427h489.814c88.32 0 160.427 72.107 160.427 160.427v8.107c0 23.467-19.2 42.667-42.667 42.667h-37.12c-40.96 0-80.213 25.173-90.88 64.853-8.96 32.427 1.707 63.573 23.040 84.48 15.787 16.213 37.547 25.6 61.44 25.6zM597.329 416h-298.668c-17.493 0-32 14.507-32 32s14.507 32 32 32h298.668c17.493 0 32-14.507 32-32s-14.507-32-32-32z" />
<glyph unicode="&#xe954;" d="M244.906 277.333c4.693 20.907-3.84 50.773-18.773 65.707l-103.68 103.68c-32.427 32.427-45.227 66.987-35.84 96.853 9.813 29.867 40.107 50.347 85.333 58.027l133.12 22.187c19.2 3.413 42.667 20.48 51.627 37.973l73.388 147.2c21.333 42.24 50.347 65.707 81.92 65.707s60.587-23.467 81.92-65.707l73.387-147.2c5.547-11.093 17.067-21.76 29.44-29.013l-459.521-459.52c-5.973-5.973-16.213-0.427-14.507 8.107l22.187 96z" />
<glyph unicode="&#xe955;" d="M797.867 342.959c-15.36-15.36-23.893-44.8-18.773-65.707l29.44-128.427c12.373-53.333 4.693-93.44-21.76-112.64-10.667-7.68-23.467-11.52-38.4-11.52-21.76 0-47.36 8.107-75.52 24.747l-125.013 74.24c-19.627 11.52-52.053 11.52-71.68 0l-125.011-74.24c-47.36-27.733-87.893-32.427-113.92-13.227-9.813 7.253-17.067 17.067-21.76 29.867l518.825 518.829c19.627 19.627 47.36 28.587 74.24 23.893l43.093-7.253c45.227-7.68 75.52-28.16 85.333-58.027 9.387-29.869-3.413-64.429-35.84-96.855l-103.253-103.68z" />
<glyph unicode="&#xe956;" glyph-name="star-full" d="M244.906 277.333c4.693 20.907-3.84 50.773-18.773 65.707l-103.68 103.68c-32.427 32.427-45.227 66.987-35.84 96.853 9.813 29.867 40.107 50.347 85.333 58.027l133.12 22.187c19.2 3.413 42.667 20.48 51.627 37.973l73.388 147.2c21.333 42.24 50.347 65.707 81.92 65.707s60.587-23.467 81.92-65.707l73.387-147.2c5.547-11.093 17.067-21.76 29.44-29.013l-459.521-459.52c-5.973-5.973-16.213-0.427-14.507 8.107l22.187 96zM797.867 342.959c-15.36-15.36-23.893-44.8-18.773-65.707l29.44-128.427c12.373-53.333 4.693-93.44-21.76-112.64-10.667-7.68-23.467-11.52-38.4-11.52-21.76 0-47.36 8.107-75.52 24.747l-125.013 74.24c-19.627 11.52-52.053 11.52-71.68 0l-125.011-74.24c-47.36-27.733-87.893-32.427-113.92-13.227-9.813 7.253-17.067 17.067-21.76 29.867l518.825 518.829c19.627 19.627 47.36 28.587 74.24 23.893l43.093-7.253c45.227-7.68 75.52-28.16 85.333-58.027 9.387-29.869-3.413-64.429-35.84-96.855l-103.253-103.68z" />
<glyph unicode="&#xe957;" glyph-name="user-square" d="M690.774 874.688h-357.547c-155.307 0-247.893-92.587-247.893-247.894v-357.546c0-119.894 55.040-202.24 151.893-233.387 28.16-9.813 60.587-14.507 96-14.507h357.547c35.413 0 67.84 4.694 96 14.507 96.853 31.147 151.893 113.493 151.893 233.387v357.546c0 155.307-92.587 247.894-247.893 247.894zM874.667 269.248c0-91.307-35.84-148.907-107.947-172.8-41.386 81.493-139.52 139.52-254.72 139.52s-212.906-57.6-254.72-139.52h-0.426c-71.254 23.040-107.52 81.066-107.52 172.373v357.973c0 120.32 63.573 183.894 183.893 183.894h357.547c120.32 0 183.893-63.574 183.893-183.894v-357.546zM511.998 618.688c-84.48 0-152.747-68.267-152.747-152.747s68.267-153.173 152.747-153.173c84.48 0 152.747 68.693 152.747 153.173s-68.267 152.747-152.747 152.747z" />
<glyph unicode="&#xe958;" glyph-name="shopping-cart" d="M693.333 0c41.239 0 74.667 33.428 74.667 74.667s-33.428 74.667-74.667 74.667c-41.239 0-74.667-33.428-74.667-74.667s33.428-74.667 74.667-74.667zM352 0c41.237 0 74.667 33.428 74.667 74.667s-33.43 74.667-74.667 74.667c-41.237 0-74.667-33.428-74.667-74.667s33.43-74.667 74.667-74.667zM206.507 791.893l-8.533-104.533c-1.707-20.053 14.080-36.693 34.133-36.693h653.227c17.92 0 32.853 13.653 34.133 31.573 5.547 75.52-52.053 136.96-127.573 136.96h-524.373c-4.267 18.773-12.8 36.693-26.027 51.627-21.333 22.613-51.2 35.84-81.92 35.84h-74.24c-17.493 0-32-14.507-32-32s14.507-32 32-32h74.24c13.227 0 25.6-5.547 34.56-14.933 8.96-9.813 13.227-22.613 12.373-35.84zM875.093 586.667h-654.504c-17.92 0-32.427-13.653-34.133-31.147l-15.36-185.6c-5.973-72.96 51.2-135.253 124.16-135.253h474.451c64 0 120.32 52.48 125.013 116.48l14.080 199.253c1.707 19.627-13.653 36.267-33.707 36.267z" />
<glyph unicode="&#xe959;" glyph-name="judge" d="M876.373 147.575c-6.4-6.4-14.507-9.387-22.613-9.387s-16.213 2.987-22.613 9.387l-211.2 211.2 45.227 45.224 211.2-211.198c12.373-12.373 12.373-32.853 0-45.227zM276.054 564.133l247.467-247.467c16.64-16.64 16.64-43.52 0-60.16l-38.4-38.827c-34.56-34.133-89.173-34.133-123.307 0l-185.173 185.173c-33.707 33.707-33.707 88.747 0 122.88l38.827 38.827c16.64 16.213 43.947 16.213 60.587-0.427zM793.168 525.129l-162.56-162.132c-17.067-17.067-44.373-17.067-61.44 0l-246.61 246.612c-17.067 17.067-17.067 44.373 0 61.44l162.56 162.56c33.707 33.707 88.744 33.707 122.877 0l185.173-185.173c33.707-34.133 33.707-88.747 0-123.307zM341.333 32h-256c-17.493 0-32 14.507-32 32s14.507 32 32 32h256c17.493 0 32-14.507 32-32s-14.507-32-32-32z" />
<glyph unicode="&#xe95a;" glyph-name="smart-car" d="M798.293 555.072c-4.267 0-8.533 0.853-12.8 2.56-16.213 7.253-23.467 26.027-16.64 42.24 8.107 18.347 3.413 45.227-11.52 67.413-14.933 22.613-37.547 37.973-58.027 36.693-18.773 0-32 14.080-32.427 31.573 0 17.92 14.080 32 31.573 32.427 43.947 0.853 85.333-24.32 112.213-64.853 27.307-40.96 33.707-90.027 17.067-128.427-5.12-12.373-17.067-19.627-29.44-19.627zM930.987 512.936c-2.987 0-5.547 0.427-8.533 1.28-17.067 4.693-26.88 22.187-22.187 39.253 16.213 58.027 2.56 127.147-36.267 185.173s-97.707 96.853-157.867 104.107c-17.493 2.133-29.867 17.92-27.733 35.413s18.347 30.293 35.413 27.733c78.080-9.387 154.027-58.88 203.093-132.267s65.707-162.133 44.8-238.080c-3.84-13.227-16.64-22.613-30.72-22.613zM730.453 457.458c0-12.8-10.667-23.467-23.467-23.467h-560.638c-12.8 0-23.467 10.667-23.467 23.467s10.667 23.467 23.467 23.467h31.573l11.947 56.32c11.093 54.613 34.56 104.533 127.573 104.533h218.88c93.012 0 116.052-50.347 127.572-104.533l11.947-56.32h31.573c12.373 0 23.040-10.667 23.040-23.467zM743.68 281.316c-4.693 51.2-18.347 106.24-118.187 106.24h-397.652c-99.84 0-113.493-55.040-118.187-106.24l-17.493-189.867c-2.133-23.467 5.547-47.36 21.76-65.28 16.64-17.92 39.68-28.16 64.853-28.16h58.453c50.347 0 60.16 29.013 66.56 47.787l6.4 18.773c7.253 21.333 8.96 26.88 37.12 26.88h159.573c28.16 0 29.013-2.987 37.12-26.88l6.4-18.773c6.4-19.2 15.787-47.787 66.558-47.787h58.453c24.747 0 48.213 10.24 64.853 28.16 16.213 17.92 23.893 41.387 21.76 65.28l-18.347 189.867zM333.228 216.462h-93.44c-12.8 0-23.467 10.667-23.467 23.467s10.667 23.467 23.467 23.467h93.44c12.8 0 23.467-10.667 23.467-23.467s-10.667-23.467-23.467-23.467zM613.547 216.462h-93.438c-12.8 0-23.467 10.667-23.467 23.467s10.667 23.467 23.467 23.467h93.438c12.8 0 23.467-10.667 23.467-23.467s-10.667-23.467-23.467-23.467z" />
<glyph unicode="&#xe95b;" glyph-name="user-selected" d="M512 448c117.823 0 213.333 95.512 213.333 213.333s-95.511 213.333-213.333 213.333c-117.821 0-213.333-95.512-213.333-213.333s95.512-213.333 213.333-213.333zM512 341.333c-213.76 0-387.84-143.36-387.84-320 0-11.947 9.387-21.333 21.333-21.333h733.013c11.947 0 21.333 9.387 21.333 21.333 0 176.64-174.080 320-387.84 320z" />
<glyph unicode="&#xe95c;" glyph-name="star-empty" d="M244.906 277.333c4.693 20.907-3.84 50.773-18.773 65.707l-103.68 103.68c-32.427 32.427-45.227 66.987-35.84 96.853 9.813 29.867 40.107 50.347 85.333 58.027l133.12 22.187c19.2 3.413 42.667 20.48 51.627 37.973l73.388 147.2c21.333 42.24 50.347 65.707 81.92 65.707s60.587-23.467 81.92-65.707l73.387-147.2c5.547-11.093 17.067-21.76 29.44-29.013l-459.521-459.52c-5.973-5.973-16.213-0.427-14.507 8.107l22.187 96zM797.867 342.959c-15.36-15.36-23.893-44.8-18.773-65.707l29.44-128.427c12.373-53.333 4.693-93.44-21.76-112.64-10.667-7.68-23.467-11.52-38.4-11.52-21.76 0-47.36 8.107-75.52 24.747l-125.013 74.24c-19.627 11.52-52.053 11.52-71.68 0l-125.011-74.24c-47.36-27.733-87.893-32.427-113.92-13.227-9.813 7.253-17.067 17.067-21.76 29.867l518.825 518.829c19.627 19.627 47.36 28.587 74.24 23.893l43.093-7.253c45.227-7.68 75.52-28.16 85.333-58.027 9.387-29.869-3.413-64.429-35.84-96.855l-103.253-103.68z" />
<glyph unicode="&#xe95d;" glyph-name="plus-upload" d="M512-64c-13.261 0-25.979 5.267-35.355 14.645-9.378 9.376-14.645 22.094-14.645 35.355v924c0 13.261 5.267 25.979 14.645 35.355 9.376 9.377 22.094 14.645 35.355 14.645s25.979-5.268 35.355-14.645c9.378-9.377 14.645-22.095 14.645-35.355v-924c0-13.261-5.267-25.979-14.645-35.355-9.376-9.378-22.094-14.645-35.355-14.645zM974 398h-924c-13.261 0-25.979 5.267-35.355 14.645-9.377 9.376-14.645 22.094-14.645 35.355s5.268 25.979 14.645 35.355c9.377 9.378 22.095 14.645 35.355 14.645h924c13.261 0 25.979-5.267 35.355-14.645 9.378-9.376 14.645-22.094 14.645-35.355s-5.267-25.979-14.645-35.355c-9.376-9.378-22.094-14.645-35.355-14.645z" />
<glyph unicode="&#xe95e;" glyph-name="info-circle-2" d="M512 960c-282.112 0-512-229.888-512-512s229.888-512 512-512c282.112 0 512 229.888 512 512s-229.888 512-512 512zM473.6 652.8c0 20.992 17.408 38.4 38.4 38.4s38.4-17.408 38.4-38.4v-256c0-20.992-17.408-38.4-38.4-38.4s-38.4 17.408-38.4 38.4v256zM559.104 223.744c-2.56-6.656-6.144-11.776-10.752-16.896-5.12-4.608-10.752-8.192-16.896-10.752s-12.8-4.096-19.456-4.096c-6.656 0-13.312 1.536-19.456 4.096s-11.776 6.144-16.896 10.752c-4.608 5.12-8.192 10.24-10.752 16.896-2.56 6.144-4.096 12.8-4.096 19.456s1.536 13.312 4.096 19.456c2.56 6.144 6.144 11.776 10.752 16.896 5.12 4.608 10.752 8.192 16.896 10.752 12.288 5.12 26.624 5.12 38.912 0 6.144-2.56 11.776-6.144 16.896-10.752 4.608-5.12 8.192-10.752 10.752-16.896s4.096-12.8 4.096-19.456c0-6.656-1.536-13.312-4.096-19.456z" />
<glyph unicode="&#xe95f;" glyph-name="call" d="M552.533 322.133l78.933-78.933c16.64-16.64 43.093-16.64 60.16-0.427 4.693 4.693 9.387 8.96 14.080 13.653 43.947 44.373 83.627 90.88 119.040 139.52 34.987 48.64 63.147 97.28 83.627 145.493 20.053 48.64 30.293 95.147 30.293 139.52 0 29.013-5.12 56.747-15.36 82.347-10.24 26.027-26.453 49.92-49.067 71.253-27.307 26.88-57.173 40.107-88.747 40.107-11.947 0-23.893-2.56-34.56-7.68-11.093-5.12-20.907-12.8-28.587-23.893l-98.987-139.52c-7.68-10.667-13.227-20.48-17.067-29.867-3.84-8.96-5.973-17.92-5.973-26.027 0-10.24 2.987-20.48 8.96-30.293 5.547-9.813 13.653-20.053 23.893-30.293l32.427-33.707c4.693-4.693 6.827-10.24 6.827-17.067 0-3.413-0.427-6.4-1.28-9.813-1.28-3.413-2.56-5.973-3.413-8.533-7.68-14.080-20.907-32.427-39.68-54.613-19.2-22.187-39.68-44.8-61.867-67.413-4.267-4.267-8.96-8.533-13.227-12.8-17.067-16.64-17.493-43.947-0.427-61.013zM86.63 177.958c0-11.947 2.133-24.32 6.4-36.267 1.28-3.413 2.56-6.827 4.267-10.24 7.253-15.36 16.64-29.867 29.013-43.52 20.907-23.040 43.947-39.68 69.973-50.347 0.427 0 0.853-0.427 1.28-0.427 25.173-10.24 52.48-15.787 81.92-15.787 43.52 0 90.027 10.24 139.093 31.147s98.134 49.067 146.774 84.48c16.64 12.373 33.28 24.747 49.067 37.973l-139.52 139.52c-11.947-8.96-22.613-15.787-31.573-20.48-2.133-0.853-4.693-2.133-7.68-3.413-3.413-1.28-6.827-1.707-10.667-1.707-7.253 0-12.8 2.56-17.493 7.253l-32.427 32c-10.667 10.667-20.907 18.773-30.72 23.893-9.813 5.973-19.627 8.96-30.293 8.96-8.107 0-16.64-1.707-26.027-5.547s-19.2-9.387-29.867-16.64l-141.227-100.267c-11.093-7.68-18.773-16.64-23.467-27.307-4.267-10.667-6.827-21.333-6.827-33.28z" />
<glyph unicode="&#xe960;" glyph-name="warning1" horiz-adv-x="1126" d="M1062.938 247.296l-327.68 589.824c-44.032 79.36-104.96 122.88-172.032 122.88-67.074 0-128.002-43.52-172.034-122.88l-327.68-589.824c-41.472-75.264-46.080-147.456-12.8-204.288s98.816-88.064 184.832-88.064h655.362c86.016 0 151.552 31.232 184.832 88.064s28.672 129.536-12.8 204.288zM524.826 601.6c0 20.992 17.408 38.4 38.4 38.4s38.4-17.408 38.4-38.4v-256c0-20.992-17.408-38.4-38.4-38.4s-38.4 17.408-38.4 38.4v256zM599.578 155.648c-2.56-2.048-5.12-4.096-7.68-6.144-3.072-2.048-6.144-3.584-9.216-4.608-3.072-1.536-6.144-2.56-9.728-3.072-3.072-0.512-6.656-1.024-9.728-1.024s-6.656 0.512-10.24 1.024c-3.072 0.512-6.144 1.536-9.216 3.072-3.072 1.024-6.144 2.56-9.216 4.608-2.56 2.048-5.12 4.096-7.68 6.144-9.216 9.728-14.848 23.040-14.848 36.352s5.632 26.624 14.848 36.352c2.56 2.048 5.12 4.096 7.68 6.144 3.072 2.048 6.144 3.584 9.216 4.608 3.072 1.536 6.144 2.56 9.216 3.072 6.656 1.536 13.824 1.536 19.968 0 3.584-0.512 6.656-1.536 9.728-3.072 3.072-1.024 6.144-2.56 9.216-4.608 2.56-2.048 5.12-4.096 7.68-6.144 9.216-9.728 14.848-23.040 14.848-36.352s-5.632-26.624-14.848-36.352z" />
<glyph unicode="&#xe961;" glyph-name="download" d="M618.615 639.991l-85.333-85.333c-4.267-4.267-12.8-8.533-21.333-8.533-4.267 0-8.533 0-12.8 4.267-4.267 0-4.267 0-8.533 4.267l-89.599 89.6c-12.8 12.8-12.8 34.133 0 46.933s34.132 12.8 46.932 0l29.867-29.867v213.333c0 17.067 12.8 34.133 34.133 34.133 17.067 0 34.133-12.8 34.133-34.133v-221.867l29.867 29.867c12.8 12.8 34.133 12.8 46.933 0 8.533-12.8 8.533-29.867-4.267-42.667zM639.966-12.809h-255.999c-230.4 0-332.8 98.133-332.8 332.8v170.667c0 200.532 72.533 298.665 238.933 324.265 21.333 4.267 38.4-8.533 38.4-25.6 4.267-17.067-8.533-34.133-25.6-38.4-132.267-17.067-183.467-93.867-183.467-260.265v-170.667c0-196.267 68.267-264.533 264.533-264.533h255.999c196.267 0 264.533 68.267 264.533 264.533v170.667c0 166.398-51.2 243.198-187.733 260.265-17.067 4.267-29.867 17.067-25.6 38.4 4.267 17.067 17.067 29.867 38.4 25.6 166.4-25.6 243.2-123.733 243.2-324.265v-170.667c0-230.4-102.4-332.8-332.8-332.8z" />
<glyph unicode="&#xe962;" glyph-name="share" d="M972.732 874.683v-204.8c0-17.067-12.8-34.133-34.133-34.133-17.067 0-34.133 12.8-34.133 34.133v128l-328.533-328.533c-4.267-4.267-12.8-8.533-21.333-8.533s-17.067 4.267-21.333 8.533c-12.8 12.8-12.8 34.133 0 46.933l328.533 328.533h-128c-17.067 0-34.133 12.8-34.133 34.133 0 17.067 12.8 34.133 34.133 34.133h204.8c17.067-4.267 34.133-21.333 34.133-38.4zM639.966-12.766h-255.999c-230.4 0-332.8 98.133-332.8 332.8v255.999c0 230.4 98.133 332.8 332.8 332.8h85.332c17.067 0 34.133-12.8 34.133-34.133s-17.067-34.133-34.133-34.133h-85.332c-196.267 0-268.8-68.267-268.8-264.533v-255.999c0-196.267 68.267-264.533 264.533-264.533h255.999c196.267 0 264.533 68.267 264.533 264.533v85.333c0 17.067 12.8 34.133 34.133 34.133s34.133-12.8 34.133-34.133v-85.333c0-230.4-98.133-332.8-328.533-332.8z" />
<glyph unicode="&#xe963;" glyph-name="angle-left" d="M627.648 673.687c-16.64 16.64-43.52 16.64-60.16 0l-195.841-195.841c-16.64-16.64-16.64-43.52 0-60.16l195.841-195.84c16.64-16.64 43.52-16.64 60.16 0s16.64 43.52 0 60.16l-165.547 165.973 165.547 165.548c16.64 16.64 16.213 43.947 0 60.16z" />
<glyph unicode="&#xe964;" glyph-name="minus1" horiz-adv-x="9216" d="M8766.003-2.002h-8316.003c-119.347 0-233.806 47.411-318.198 131.804s-131.802 198.851-131.802 318.198c0 119.347 47.411 233.807 131.802 318.198s198.851 131.802 318.198 131.802h8316.003c119.347 0 233.779-47.41 318.208-131.802 84.378-84.391 131.789-198.851 131.789-318.198s-47.411-233.805-131.789-318.198c-84.429-84.393-198.861-131.804-318.208-131.804z" />
<glyph unicode="&#xe965;" glyph-name="plus-1" d="M512-64c-13.261 0-25.978 5.268-35.355 14.643-9.377 9.381-14.645 22.096-14.645 35.356v924c0 13.261 5.268 25.978 14.645 35.355s22.095 14.645 35.355 14.645c13.261 0 25.978-5.268 35.355-14.645s14.645-22.095 14.645-35.355v-924c0-13.261-5.268-25.975-14.645-35.356-9.377-9.375-22.095-14.643-35.355-14.643zM974 398h-924c-13.261 0-25.978 5.268-35.355 14.645s-14.645 22.095-14.645 35.355c0 13.261 5.268 25.978 14.645 35.355s22.095 14.645 35.355 14.645h924c13.261 0 25.975-5.268 35.356-14.645 9.375-9.377 14.643-22.095 14.643-35.355s-5.268-25.978-14.643-35.355c-9.381-9.377-22.096-14.645-35.356-14.645z" />
<glyph unicode="&#xe966;" glyph-name="document-copy" d="M661.333 398.933h-92.587c-75.947 0-137.813 61.44-137.813 137.813v92.587c0 17.493-14.080 32-32 32h-135.253c-98.56 0-178.347-64-178.347-178.347v-283.307c0-114.347 79.787-178.347 178.347-178.347h251.307c98.56 0 178.347 64 178.347 178.347v167.253c0 17.92-14.507 32-32 32zM760.311 874.667h-251.307c-96.428 0-174.508-61.44-177.921-171.093 2.56 0 4.693 0.427 7.253 0.427h251.308c98.56 0 178.347-64 178.347-178.347v-283.733c0-2.56-0.427-4.693-0.427-6.827 95.147 2.987 171.093 66.133 171.093 177.493v283.733c0 114.347-79.787 178.347-178.347 178.347zM511.172 654.944c-13.227 13.227-35.84 4.267-35.84-14.080v-111.789c0-46.933 39.68-85.333 88.32-85.333 30.293-0.427 72.533-0.427 108.8-0.427 18.347 0 27.733 21.333 14.933 34.133-46.507 46.507-129.28 129.709-176.213 177.495z" />
<glyph unicode="&#xe967;" glyph-name="checked" d="M512-64c-281.6 0-512 230.4-512 512s230.4 512 512 512c281.6 0 512-230.4 512-512s-230.4-512-512-512zM512 896c-246.4 0-448-201.6-448-448s201.6-448 448-448 448 201.6 448 448c0 246.4-201.6 448-448 448zM409.6 305.6l-118.4 118.4c-12.8 12.8-35.2 12.8-48 0s-12.8-35.2 0-48l142.4-142.4c12.8-12.8 35.2-12.8 48 0l361.6 361.6c12.8 12.8 12.8 35.2 0 48s-35.2 12.8-48 0l-337.6-337.6z" />
</font>
</defs>
</svg>
